<svg id="Capa_1" enable-background="new 0 0 512 512" height="512" viewBox="0 0 512 512" width="512" xmlns="http://www.w3.org/2000/svg"><g><path d="m166 294c-5.523 0-10 4.477-10 10s4.477 10 10 10h14.1c.941 9.434 8.465 16.958 17.9 17.9v14.1c0 5.523 4.477 10 10 10s10-4.477 10-10v-14h28v14c0 5.523 4.477 10 10 10s10-4.477 10-10v-14h28v14c0 5.523 4.477 10 10 10s10-4.477 10-10v-14.1c9.434-.941 16.958-8.465 17.9-17.9h14.1c5.523 0 10-4.477 10-10s-4.477-10-10-10h-14v-28h14c5.523 0 10-4.477 10-10s-4.477-10-10-10h-14v-28h14c5.523 0 10-4.477 10-10s-4.477-10-10-10h-14.1c-.941-9.434-8.465-16.958-17.9-17.9v-14.1c0-5.523-4.477-10-10-10s-10 4.477-10 10v14h-28v-14c0-5.523-4.477-10-10-10s-10 4.477-10 10v14h-28v-14c0-5.523-4.477-10-10-10s-10 4.477-10 10v14.1c-9.434.941-16.959 8.465-17.9 17.9h-14.1c-5.523 0-10 4.477-10 10s4.477 10 10 10h14v28h-14c-5.523 0-10 4.477-10 10s4.477 10 10 10h14v28zm146-94 .013 112s-.004 0-.013 0h-112v-112z"/><path d="m490.88 256c0-24.079-12.359-45.641-31.542-58.056 4.784-9.906 7.283-20.77 7.283-31.944 0-30.447-18.796-57.549-46.597-68.522-.283-32.844-27.085-59.478-59.994-59.478-.806 0-1.61.017-2.412.049-8.053-22.514-29.505-38.049-54.118-38.049-19.715 0-37.138 9.978-47.501 25.146-10.361-15.168-27.784-25.146-47.499-25.146-24.614 0-46.072 15.535-54.126 38.048-.799-.031-1.6-.048-2.404-.048-32.909 0-59.711 26.634-59.993 59.478-27.801 10.973-46.597 38.075-46.597 68.522 0 11.193 2.501 22.078 7.299 31.998-4.881 3.159-9.377 6.929-13.335 11.233-3.738 4.066-3.473 10.392.593 14.13 1.921 1.767 4.347 2.639 6.766 2.639 2.7 0 5.392-1.087 7.364-3.232 7.218-7.851 16.936-13.212 27.362-15.098 5.435-.982 9.044-6.185 8.061-11.62-.982-5.435-6.183-9.046-11.62-8.061-2.361.427-4.696.982-6.995 1.656-3.605-7.313-5.496-15.359-5.496-23.645 0-20.7 11.92-39.274 29.965-48.158 1.414 4.038 3.256 7.933 5.519 11.61 1.889 3.069 5.168 4.76 8.525 4.76 1.788 0 3.598-.479 5.232-1.485 4.703-2.895 6.169-9.054 3.274-13.758-3.877-6.299-5.926-13.549-5.926-20.968 0-22.056 17.944-40 40-40 8.13 0 15.946 2.42 22.603 6.999 4.551 3.13 10.777 1.979 13.906-2.572 3.13-4.551 1.978-10.776-2.572-13.906-3.681-2.532-7.597-4.623-11.682-6.257 5.889-13.292 19.167-22.265 34.277-22.265 20.678 0 37.5 16.822 37.5 37.5v40c0 5.523 4.477 10 10 10s10-4.477 10-10v-40c0-20.678 16.822-37.5 37.5-37.5 15.11 0 28.39 8.973 34.277 22.263-4.086 1.634-8.003 3.726-11.685 6.258-4.55 3.13-5.702 9.355-2.572 13.906 3.129 4.55 9.356 5.702 13.906 2.572 6.658-4.579 14.474-6.999 22.604-6.999 22.056 0 40 17.944 40 40 0 7.419-2.049 14.669-5.926 20.968-2.895 4.704-1.429 10.863 3.274 13.758 1.635 1.006 3.444 1.485 5.232 1.485 3.358 0 6.637-1.691 8.525-4.76 2.264-3.678 4.106-7.573 5.52-11.613 18.046 8.886 29.965 27.462 29.965 48.162 0 8.282-1.883 16.327-5.482 23.639-2.286-.663-4.623-1.217-7.009-1.649-5.43-.982-10.637 2.627-11.619 8.062-.983 5.434 2.626 10.637 8.061 11.619 23.356 4.223 40.309 24.548 40.309 48.33 0 23.781-16.952 44.107-40.309 48.33-5.435.982-9.044 6.185-8.061 11.619.873 4.833 5.084 8.223 9.829 8.223.59 0 1.189-.052 1.79-.161 3.033-.548 5.988-1.291 8.856-2.211 2.389 6.224 3.635 12.873 3.635 19.6 0 21.345-12.474 40.484-31.265 49.383-1.19-2.838-2.593-5.594-4.219-8.235-2.896-4.704-9.055-6.17-13.758-3.274-4.703 2.895-6.169 9.054-3.274 13.758 3.876 6.299 5.926 13.549 5.926 20.968 0 22.056-17.944 40-40 40-8.13 0-15.946-2.42-22.603-6.999-4.551-3.129-10.776-1.979-13.906 2.572s-1.978 10.776 2.572 13.906c3.682 2.532 7.598 4.624 11.685 6.258-5.888 13.289-19.168 22.262-34.278 22.262-20.678 0-37.5-16.822-37.5-37.5v-40c0-5.523-4.477-10-10-10s-10 4.477-10 10v40c0 20.678-16.822 37.5-37.5 37.5-15.11 0-28.387-8.974-34.274-22.264 4.085-1.634 8-3.725 11.681-6.256 4.55-3.13 5.702-9.355 2.572-13.906-3.129-4.55-9.355-5.702-13.906-2.572-6.657 4.578-14.473 6.998-22.603 6.998-22.056 0-40-17.944-40-40 0-7.419 2.049-14.669 5.926-20.968 2.895-4.704 1.429-10.863-3.274-13.758-4.705-2.895-10.863-1.429-13.758 3.274-1.626 2.642-3.029 5.398-4.22 8.236-18.79-8.9-31.264-28.04-31.264-49.384 0-6.734 1.25-13.389 3.645-19.618 2.893.937 5.848 1.686 8.846 2.228.602.109 1.2.162 1.791.162 4.744 0 8.955-3.39 9.829-8.223.983-5.435-2.626-10.637-8.061-11.62-10.427-1.885-20.144-7.247-27.362-15.098-3.738-4.067-10.065-4.331-14.13-.593s-4.331 10.064-.593 14.13c3.512 3.819 7.446 7.219 11.698 10.144-3.715 8.994-5.663 18.68-5.663 28.487 0 30.636 18.818 57.949 46.694 69.205-.064 1.129-.104 2.26-.104 3.395 0 33.084 26.916 60 60 60 .805 0 1.608-.017 2.409-.048 8.054 22.514 29.508 38.049 54.121 38.049 19.719 0 37.142-9.984 47.5-25.158 10.362 15.172 27.782 25.158 47.5 25.158 24.612 0 46.058-15.537 54.111-38.049.804.032 1.611.049 2.419.049 33.084 0 60-26.916 60-60 0-1.133-.04-2.263-.104-3.39 27.878-11.255 46.694-38.573 46.694-69.21 0-9.792-1.929-19.468-5.63-28.451 18.237-12.564 29.89-33.569 29.89-56.949z"/><circle cx="31.12" cy="256" r="10"/></g></svg>