<svg id="Capa_1" enable-background="new 0 0 511.986 511.986" height="512" viewBox="0 0 511.986 511.986" width="512" xmlns="http://www.w3.org/2000/svg"><g><path d="m116.173 395.82c-9.384-9.383-24.65-9.384-34.036 0l-32.068 32.068c-2.929 2.929-2.929 7.678 0 10.606 2.93 2.929 7.678 2.929 10.607 0l32.068-32.068c3.536-3.535 9.287-3.534 12.821 0 3.535 3.535 3.535 9.287 0 12.822l-75.088 75.088c-3.535 3.537-9.287 3.535-12.822-.001-1.712-1.712-2.655-3.989-2.655-6.411s.943-4.699 2.656-6.411l18.271-18.271c2.929-2.929 2.929-7.678 0-10.607-2.93-2.929-7.678-2.929-10.608 0l-18.27 18.272c-4.545 4.546-7.049 10.59-7.049 17.018 0 6.429 2.504 12.473 7.049 17.018 4.692 4.692 10.856 7.038 17.019 7.038 6.162 0 12.325-2.346 17.018-7.038l75.088-75.088c9.382-9.384 9.382-24.652-.001-34.035z"/><path d="m150.83 419.664-51.244 51.243c-4.545 4.545-7.049 10.589-7.049 17.018s2.504 12.473 7.049 17.018c4.692 4.692 10.855 7.038 17.019 7.038s12.326-2.346 17.019-7.038l51.243-51.243c9.383-9.383 9.383-24.652 0-34.035s-24.652-9.385-34.037-.001zm23.429 23.429-51.243 51.243c-3.535 3.535-9.286 3.536-12.823-.001-1.712-1.712-2.655-3.989-2.655-6.411s.943-4.699 2.656-6.411l51.244-51.243c1.768-1.768 4.089-2.651 6.41-2.651 2.322 0 4.643.884 6.411 2.651 3.535 3.536 3.535 9.288 0 12.823z"/><path d="m24.066 419.443c6.163 0 12.326-2.346 17.019-7.038l51.243-51.243c9.383-9.383 9.383-24.652 0-34.035-9.385-9.384-24.651-9.383-34.036 0l-51.243 51.243c-9.383 9.383-9.383 24.652 0 34.035 4.692 4.692 10.855 7.038 17.017 7.038zm-6.41-30.467 51.243-51.243c1.768-1.768 4.089-2.651 6.41-2.651 2.322 0 4.644.884 6.411 2.651 3.535 3.535 3.535 9.287 0 12.822l-51.243 51.243c-3.535 3.537-9.286 3.535-12.821 0s-3.535-9.287 0-12.822z"/><path d="m362.713 149.279c-10.804-10.804-25.168-16.753-40.446-16.753-15.279 0-29.644 5.95-40.447 16.753-10.804 10.803-16.753 25.167-16.753 40.446 0 15.278 5.949 29.643 16.753 40.446 10.804 10.804 25.168 16.753 40.447 16.753 15.278 0 29.643-5.95 40.446-16.753 10.804-10.804 16.753-25.168 16.753-40.446s-5.949-29.643-16.753-40.446zm-10.608 70.286c-7.97 7.971-18.567 12.36-29.839 12.36s-21.87-4.389-29.84-12.36c-7.971-7.971-12.36-18.568-12.36-29.84s4.39-21.869 12.36-29.84 18.567-12.36 29.84-12.36c11.271 0 21.869 4.389 29.839 12.36 7.971 7.971 12.36 18.568 12.36 29.84s-4.389 21.869-12.36 29.84z"/><path d="m507.203 22.301c-2.16-8.642-8.869-15.352-17.511-17.512-26.846-6.712-55.131-6.355-81.8 1.032-26.668 7.387-51.105 21.633-70.673 41.2l-131.67 131.67-71.395-17.849c-13.771-3.444-28.554.653-38.588 10.688l-32.921 32.921c-2.929 2.929-2.929 7.678 0 10.606 1.465 1.464 3.385 2.197 5.304 2.197s3.839-.732 5.304-2.197l32.921-32.921c6.33-6.331 15.66-8.914 24.342-6.743l62.665 15.666-34.213 34.213-21.033-7.011c-8.702-2.901-18.141-.673-24.629 5.814l-36.438 36.438c-4.841 4.841-11.278 7.508-18.125 7.508s-13.284-2.667-18.126-7.508l-5.856-5.856c-.306-.306-.306-.804 0-1.109l13.743-13.743c2.929-2.929 2.929-7.678 0-10.606-2.93-2.929-7.678-2.929-10.607 0l-13.743 13.744c-6.152 6.153-6.152 16.166.001 22.321l5.856 5.857c7.675 7.675 17.879 11.901 28.732 11.901 10.854 0 21.058-4.227 28.732-11.901l36.437-36.437c2.444-2.444 6-3.284 9.278-2.19l13.918 4.639-11.668 11.668c-6.626 6.626-8.55 16.182-5.817 24.533l-13.68 4.56c-5.228 1.743-9.104 5.984-10.369 11.348-1.267 5.363.305 10.89 4.2 14.786l32.077 32.078-12.469 12.469c-6.043 6.043-6.043 15.877 0 21.92l12.115 12.115c3.022 3.022 6.991 4.533 10.96 4.533 3.97 0 7.939-1.511 10.961-4.533l12.468-12.468 32.078 32.077c3.009 3.008 6.989 4.63 11.116 4.63 1.218 0 2.449-.141 3.671-.43 5.362-1.266 9.604-5.143 11.347-10.37l4.559-13.679c2.439.798 4.974 1.22 7.516 1.22 6.162 0 12.325-2.346 17.018-7.038l11.668-11.668 4.639 13.918c1.093 3.279.254 6.834-2.19 9.278l-36.437 36.438c-15.843 15.843-15.843 41.622.001 57.465l5.856 5.856c2.98 2.981 6.944 4.623 11.16 4.623 4.217 0 8.181-1.642 11.161-4.623l71.413-71.413c10.034-10.035 14.129-24.821 10.688-38.587l-17.85-71.397 131.671-131.671c19.566-19.567 33.812-44.005 41.199-70.672 7.387-26.668 7.744-54.953 1.033-81.798zm-237.601 326.625-36.25-36.251 38.775-38.775c9.162-9.163 9.162-24.071-.002-33.235l-.8-.8c-4.439-4.438-10.34-6.883-16.617-6.883s-12.179 2.445-16.617 6.883l-38.775 38.775-36.251-36.251 175.227-175.226 106.537 106.537zm-123.554-89.519 6.41-6.41 36.251 36.251-12.822 12.822-29.839-29.84c-1.713-1.712-2.656-3.989-2.656-6.411 0-2.423.943-4.7 2.656-6.412zm-25.667 34.013c-.084-.085-.309-.309-.208-.733.1-.425.401-.525.515-.563l18.031-6.01 26.562 26.562-12.822 12.822zm32.43 78.582c-.192.193-.512.195-.706 0l-12.115-12.115c-.195-.195-.195-.513 0-.707l108.708-108.708c1.605-1.605 3.739-2.49 6.01-2.49s4.404.884 6.012 2.491l.8.8c3.315 3.314 3.315 8.707 0 12.021zm67.057 19.302c-.038.113-.138.414-.562.515-.429.099-.65-.124-.734-.208l-32.077-32.077 12.822-12.822 26.562 26.562zm26.305-22.704c-2.421 0-4.698-.943-6.41-2.655l-29.84-29.84 12.822-12.823 36.25 36.251-6.411 6.411c-1.712 1.713-3.989 2.656-6.411 2.656zm90.424 12.876c2.172 8.684-.412 18.012-6.742 24.342l-71.413 71.413c-.304.303-.8.305-1.107-.001l-5.857-5.857c-9.995-9.995-9.995-26.257 0-36.251l36.437-36.437c6.488-6.487 8.716-15.924 5.814-24.628l-7.011-21.033 34.213-34.213zm118.821-218.401-106.501-106.502c35.92-35.166 88.317-49.438 137.137-37.232 3.256.814 5.783 3.342 6.597 6.597 12.206 48.825-2.066 101.217-37.233 137.137z"/><path d="m322.266 165.658c-6.428 0-12.472 2.503-17.018 7.049-4.545 4.545-7.049 10.589-7.049 17.018 0 6.428 2.504 12.472 7.049 17.018 4.546 4.546 10.59 7.049 17.018 7.049 6.429 0 12.473-2.503 17.019-7.049 9.383-9.383 9.383-24.652 0-34.035-4.547-4.546-10.591-7.05-17.019-7.05zm6.411 30.478c-3.536 3.536-9.287 3.535-12.821 0-3.535-3.535-3.535-9.287 0-12.822 1.767-1.768 4.089-2.651 6.411-2.651 2.321 0 4.643.884 6.41 2.651 1.713 1.712 2.656 3.989 2.656 6.411s-.943 4.699-2.656 6.411z"/></g></svg>