<svg id="Capa_1" enable-background="new 0 0 512 512" height="512" viewBox="0 0 512 512" width="512" xmlns="http://www.w3.org/2000/svg"><g><path d="m90.329 99.401c-4.142 0-7.5 3.358-7.5 7.5v107.683c0 8.703 7.081 15.783 15.784 15.783h223.649c4.142 0 7.5-3.358 7.5-7.5s-3.358-7.5-7.5-7.5h-9.067v-100.466c0-8.547-6.953-15.5-15.5-15.5h-17.133c-8.547 0-15.5 6.953-15.5 15.5v100.466h-26.417v-67.333c0-8.547-6.953-15.5-15.5-15.5h-17.133c-8.547 0-15.5 6.953-15.5 15.5v67.333h-26.416v-34.2c0-8.547-6.953-15.5-15.5-15.5h-17.133c-8.547 0-15.5 6.953-15.5 15.5v34.2h-17.35c-.432 0-.784-.352-.784-.783v-107.683c0-4.142-3.357-7.5-7.5-7.5zm189.733 15.5c0-.276.224-.5.5-.5h17.133c.276 0 .5.224.5.5v100.466h-18.133zm-74.549 33.133c0-.276.224-.5.5-.5h17.133c.276 0 .5.224.5.5v67.333h-18.133zm-74.55 33.133c0-.276.224-.5.5-.5h17.133c.276 0 .5.224.5.5v34.2h-18.133z"/><path d="m494.606 123.525c-1.664-6.209-5.646-11.399-11.213-14.613l-28.694-16.567c-11.492-6.636-26.241-2.684-32.876 8.809l-25.794 44.677v-88.634c0-22.405-18.228-40.633-40.633-40.633h-67.049v-1.064c0-8.547-6.953-15.5-15.5-15.5h-133.099c-8.547 0-15.5 6.953-15.5 15.5v1.063h-67.051c-22.405 0-40.633 18.228-40.633 40.633v414.17c0 22.405 18.228 40.633 40.633 40.633h216.973c4.142 0 7.5-3.358 7.5-7.5s-3.358-7.5-7.5-7.5h-216.973c-14.134 0-25.633-11.499-25.633-25.633v-414.169c0-14.134 11.499-25.633 25.633-25.633h67.051v18.136h-50.485c-13.27 0-24.066 10.796-24.066 24.067v21.633c0 4.142 3.358 7.5 7.5 7.5s7.5-3.358 7.5-7.5v-21.633c0-4.999 4.067-9.067 9.066-9.067h51.53c2.965 9.585 11.909 16.569 22.456 16.569h58.539c.003 0 .006.001.01.001.003 0 .006-.001.01-.001h58.54c10.546 0 19.491-6.984 22.456-16.569h51.526c4.999 0 9.066 4.067 9.066 9.067v155.435l-78.335 135.681c-1.858 3.22-2.958 6.882-3.181 10.591l-3.213 53.515c-.36 6.006 2.653 11.606 7.864 14.615 2.464 1.422 5.183 2.129 7.897 2.129 3.025 0 6.044-.88 8.691-2.627l44.739-29.539c3.102-2.048 5.723-4.832 7.582-8.05l7.956-13.78v63.066c0 4.999-4.067 9.066-9.066 9.066h-265.067c-4.999 0-9.066-4.067-9.066-9.066v-324.403c0-4.142-3.358-7.5-7.5-7.5s-7.5 3.358-7.5 7.5v324.401c0 13.27 10.796 24.066 24.066 24.066h265.065c13.271 0 24.066-10.796 24.066-24.066v-89.047l18.134-31.409v137.021c0 14.134-11.499 25.633-25.633 25.633h-46.232c-4.142 0-7.5 3.358-7.5 7.5s3.358 7.5 7.5 7.5h46.232c22.405 0 40.633-18.228 40.633-40.633v-163.001l96.173-166.577c3.215-5.568 4.068-12.054 2.405-18.263zm-44.778 61.656-44.398-25.633 9.067-15.704 44.398 25.633zm-36.194-3.576-106.75 184.895-20.303-1.102 111.349-192.86zm-103.772 228.838-29.533-17.051.797-13.268 25.746 1.397 14.083 21.598zm-36.516-352.674c0 4.687-3.813 8.5-8.5 8.5h-51.049v-9.066c0-4.142-3.358-7.5-7.5-7.5s-7.5 3.358-7.5 7.5v9.066h-51.048c-4.687 0-8.5-3.813-8.5-8.5v-42.269c0-.276.224-.5.5-.5h133.098c.276 0 .5.224.5.5v42.269zm65.482-8.069h-50.482v-18.137h67.049c14.134 0 25.633 11.499 25.633 25.633v114.616l-18.134 31.409v-129.454c0-13.271-10.795-24.067-24.066-24.067zm-59.476 380.887c-.131.087-.403.266-.823.025-.419-.242-.4-.569-.391-.726l1.186-19.754 16.542 9.551zm51.628-39.556-11.105-17.031 106.749-184.896 15.704 9.067zm148.231-256.743-12.817 22.199-44.398-25.633 12.817-22.199c1.211-2.097 3.166-3.598 5.505-4.225.781-.209 1.574-.313 2.362-.313 1.571 0 3.122.412 4.519 1.219l28.694 16.567c2.098 1.211 3.598 3.166 4.225 5.505.626 2.339.304 4.782-.907 6.88z"/><path d="m123.18 248.501c-8.547 0-15.5 6.953-15.5 15.5v17.133c0 8.547 6.953 15.5 15.5 15.5h66.833c8.547 0 15.5-6.953 15.5-15.5v-17.134c0-8.547-6.953-15.5-15.5-15.5h-66.833zm67.333 15.499v17.133c0 .276-.224.5-.5.5h-66.833c-.276 0-.5-.224-.5-.5v-17.133c0-.276.224-.5.5-.5h66.833c.275 0 .5.225.5.5z"/><path d="m90.329 329.767h132.533c4.142 0 7.5-3.358 7.5-7.5s-3.358-7.5-7.5-7.5h-132.533c-4.142 0-7.5 3.358-7.5 7.5s3.358 7.5 7.5 7.5z"/><path d="m90.329 362.9h132.533c4.142 0 7.5-3.358 7.5-7.5s-3.358-7.5-7.5-7.5h-132.533c-4.142 0-7.5 3.358-7.5 7.5s3.358 7.5 7.5 7.5z"/><path d="m90.329 396.034h132.533c4.142 0 7.5-3.358 7.5-7.5s-3.358-7.5-7.5-7.5h-132.533c-4.142 0-7.5 3.358-7.5 7.5s3.358 7.5 7.5 7.5z"/><path d="m123.463 414.167c-4.142 0-7.5 3.358-7.5 7.5s3.358 7.5 7.5 7.5h66.267c4.142 0 7.5-3.358 7.5-7.5s-3.358-7.5-7.5-7.5z"/></g></svg>