<svg id="Capa_1" enable-background="new 0 0 512 512" height="512" viewBox="0 0 512 512" width="512" xmlns="http://www.w3.org/2000/svg"><g><path d="m491.13 241h-19.13v-25.001c0-11.028-8.972-20-20-20h-41c-5.523 0-10 4.477-10 10s4.477 10 10 10h41v200h-148.788l-33.641-31.078c-7.609-7.029-19.532-7.029-27.142.001l-33.641 31.077h-148.788v-200h166v10c0 16.542 13.458 30 30 30s30-13.458 30-30v-10h45c5.523 0 10-4.477 10-10s-4.477-10-10-10h-271c-11.028 0-20 8.972-20 20v25.001h-19.13c-11.508 0-20.87 9.362-20.87 20.87v108.26c0 11.508 9.362 20.87 20.87 20.87h19.13v24.999c0 11.028 8.972 20 20 20h148.788c5.045 0 9.864-1.885 13.571-5.309l33.641-31.078 33.641 31.078c3.707 3.423 8.526 5.308 13.571 5.308h148.788c11.028 0 20-8.972 20-20v-24.998h19.13c11.508 0 20.87-9.362 20.87-20.87v-108.26c0-11.508-9.362-20.87-20.87-20.87zm-225.13-15.001c0 5.514-4.486 10-10 10s-10-4.486-10-10v-10h20zm-245.13 145.001c-.48 0-.87-.39-.87-.87v-108.26c0-.48.39-.87.87-.87h19.13v110zm471.13-.87c0 .48-.39.87-.87.87h-19.13v-110h19.13c.48 0 .87.39.87.87z"/><path d="m354 345.999c16.542 0 30-13.458 30-30s-13.458-30-30-30-30 13.458-30 30 13.458 30 30 30zm0-40c5.514 0 10 4.486 10 10s-4.486 10-10 10-10-4.486-10-10c0-5.515 4.486-10 10-10z"/><path d="m284 315.999c0 38.598 31.402 70 70 70s70-31.402 70-70-31.402-70-70-70-70 31.401-70 70zm70-50c27.57 0 50 22.43 50 50s-22.43 50-50 50-50-22.43-50-50c0-27.571 22.43-50 50-50z"/><path d="m158 285.999c-16.542 0-30 13.458-30 30s13.458 30 30 30 30-13.458 30-30-13.458-30-30-30zm0 40c-5.514 0-10-4.486-10-10s4.486-10 10-10 10 4.486 10 10-4.486 10-10 10z"/><path d="m158 245.999c-38.598 0-70 31.402-70 70s31.402 70 70 70 70-31.402 70-70c0-38.599-31.402-70-70-70zm0 120c-27.57 0-50-22.43-50-50s22.43-50 50-50 50 22.43 50 50-22.43 50-50 50z"/><path d="m284.28 147.721c2.557 0 5.114-.975 7.066-2.924 3.908-3.902 3.912-10.234.009-14.142-9.437-9.449-21.993-14.653-35.355-14.653-13.363 0-25.919 5.204-35.356 14.653-3.903 3.908-3.898 10.24.009 14.142 3.908 3.903 10.24 3.898 14.142-.009 5.658-5.666 13.188-8.786 21.204-8.786s15.546 3.12 21.204 8.786c1.954 1.955 4.515 2.933 7.077 2.933z"/><path d="m206.501 116.502c13.22-13.22 30.799-20.501 49.499-20.501s36.279 7.281 49.498 20.501c1.953 1.953 4.512 2.929 7.071 2.929s5.119-.976 7.071-2.929c3.905-3.905 3.905-10.237 0-14.143-16.997-16.997-39.598-26.357-63.64-26.357s-46.643 9.361-63.641 26.358c-3.905 3.905-3.905 10.237 0 14.143 3.905 3.905 10.237 3.905 14.142-.001z"/><circle cx="371" cy="205.998" r="10"/><circle cx="255.999" cy="165.999" r="10"/></g></svg>