<svg id="Capa_1" enable-background="new 0 0 512.001 512.001" height="512" viewBox="0 0 512.001 512.001" width="512" xmlns="http://www.w3.org/2000/svg"><g><path d="m220.655 443.205c-3.908 3.902-3.913 10.234-.01 14.142 9.437 9.45 21.993 14.654 35.356 14.654 13.362 0 25.919-5.204 35.356-14.654 3.902-3.908 3.898-10.24-.01-14.142-3.908-3.903-10.24-3.898-14.143.009-5.658 5.666-13.189 8.787-21.204 8.787s-15.546-3.12-21.204-8.786c-3.901-3.908-10.233-3.912-14.141-.01z"/><path d="m305.5 471.5c-13.221 13.221-30.8 20.501-49.499 20.501s-36.278-7.281-49.499-20.501c-3.905-3.905-10.237-3.905-14.143 0-3.905 3.905-3.905 10.237 0 14.143 16.998 16.998 39.6 26.359 63.641 26.359s46.643-9.361 63.642-26.359c3.905-3.905 3.905-10.237 0-14.142-3.904-3.906-10.234-3.906-14.142-.001z"/><path d="m492.001.001h-196c-5.522 0-10 4.477-10 10s4.478 10 10 10h196v40h-472v-40h196c5.523 0 10-4.477 10-10s-4.477-10-10-10h-196c-11.028 0-20 8.972-20 20v40c0 11.028 8.972 20 20 20v18.115c0 12.067 9.817 21.885 21.885 21.885h18.115v76.003c0 108.075 87.925 196 196 196s196-87.925 196-196v-76.003h18.115c12.067 0 21.885-9.817 21.885-21.885v-18.115c11.028 0 20-8.972 20-20v-40c0-11.027-8.972-20-20-20zm-336 340.763v-70.763c0-55.14 44.86-100 100-100 55.141 0 100 44.86 100 100v70.763c-28.418 19.691-62.885 31.239-100 31.239s-71.583-11.547-100-31.239zm276-144.76c0 50.715-21.562 96.487-56 128.634v-54.637c0-66.168-53.832-120-120-120s-120 53.832-120 120v54.637c-34.438-32.147-56-77.92-56-128.634v-76.003h352zm40-97.887c0 1.039-.846 1.885-1.885 1.885h-428.23c-1.039 0-1.885-.846-1.885-1.885v-18.116h432z"/><path d="m256.001 241.003c-16.542 0-30 13.458-30 30s13.458 30 30 30 30-13.458 30-30-13.458-30-30-30zm0 40c-5.514 0-10-4.486-10-10s4.486-10 10-10 10 4.486 10 10-4.487 10-10 10z"/><path d="m256.001 201.003c-38.598 0-70 31.402-70 70s31.402 70 70 70 70-31.402 70-70-31.403-70-70-70zm0 120c-27.57 0-50-22.43-50-50s22.43-50 50-50 50 22.43 50 50-22.43 50-50 50z"/><circle cx="256" cy="422.004" r="10"/><circle cx="256.001" cy="10" r="10"/></g></svg>