<svg id="Capa_1" enable-background="new 0 0 512 512" height="512" viewBox="0 0 512 512" width="512" xmlns="http://www.w3.org/2000/svg"><g><path d="m511.998 40.633c0-22.405-18.228-40.633-40.633-40.633h-430.73c-22.405 0-40.633 18.228-40.633 40.633v54.767c0 4.142 3.358 7.5 7.5 7.5s7.5-3.358 7.5-7.5v-54.767c0-14.134 11.499-25.633 25.633-25.633h430.73c14.134 0 25.633 11.499 25.633 25.633v290.699h-18.131v-274.131c0-13.271-10.796-24.067-24.066-24.067h-397.602c-13.271 0-24.066 10.796-24.066 24.067v274.131h-18.131v-200.932c0-4.142-3.358-7.5-7.5-7.5s-7.5 3.358-7.5 7.5v241.567c0 22.405 18.228 40.633 40.633 40.633h149.883v51.268h-42.483c-8.547 0-15.5 6.953-15.5 15.5v17.132c0 8.547 6.953 15.5 15.5 15.5h15.916c4.142 0 7.5-3.358 7.5-7.5s-3.358-7.5-7.5-7.5h-15.916c-.276 0-.5-.224-.5-.5v-17.132c0-.276.224-.5.5-.5h215.933c.276 0 .5.224.5.5v17.132c0 .276-.224.5-.5.5h-165.018c-4.142 0-7.5 3.358-7.5 7.5s3.358 7.5 7.5 7.5h165.017c8.547 0 15.5-6.953 15.5-15.5v-17.132c0-8.547-6.953-15.5-15.5-15.5h-42.483v-51.268h149.881c22.405 0 40.633-18.228 40.633-40.633zm-463.865 16.568c0-5 4.067-9.067 9.066-9.067h397.602c4.999 0 9.066 4.067 9.066 9.067v274.131h-260.13c1.143-2.8 1.779-5.86 1.779-9.066v-24.85c0-8.703-7.08-15.783-15.783-15.783h-.783v-21.075c17.137-4.278 32.854-13.131 45.666-25.943 10.718-10.717 18.658-23.469 23.474-37.382h171.86c8.703 0 15.783-7.08 15.783-15.783v-33.133c0-8.703-7.08-15.784-15.783-15.784h-171.86c-4.816-13.913-12.756-26.665-23.474-37.382-18.626-18.627-43.391-28.884-69.732-28.884s-51.106 10.258-69.732 28.884c-18.627 18.626-28.884 43.391-28.884 69.732 0 26.342 10.258 51.106 28.884 69.732 12.812 12.812 28.529 21.665 45.666 25.943v21.074h-.783c-8.703 0-15.783 7.08-15.783 15.783v24.85c0 3.206.635 6.266 1.779 9.066h-77.898zm100.175 274.132c-4.995-.005-9.057-4.07-9.057-9.066v-24.85c0-.432.352-.783.783-.783h8.275.008.008 33.123.002.002 8.282c.432 0 .783.352.783.783v24.85c0 4.993-4.057 9.055-9.047 9.066zm281.642-183.8c.432 0 .783.352.783.784v33.133c0 .432-.352.783-.783.783h-67.05v-34.7zm-82.05 34.7h-85.915c1.001-5.671 1.515-11.471 1.515-17.35s-.514-11.679-1.515-17.35h85.915zm-99.4-17.35c0 22.335-8.698 43.333-24.491 59.126s-36.791 24.491-59.126 24.491-43.332-8.698-59.126-24.491c-15.793-15.793-24.491-36.791-24.491-59.126 0-22.334 8.698-43.332 24.491-59.126 15.794-15.793 36.791-24.491 59.126-24.491s43.333 8.698 59.126 24.491c15.793 15.794 24.491 36.792 24.491 59.126zm-83.616 98.617c3.046 0 6.07-.143 9.066-.415v18.548h-18.133v-18.548c2.997.272 6.021.415 9.067.415zm100.183 200.368h-18.133v-17.355c0-.432.352-.783.783-.783h16.567c.432 0 .783.351.783.783zm41.417 0h-26.417v-17.355c0-8.703-7.081-15.783-15.783-15.783h-16.567c-8.703 0-15.783 7.08-15.783 15.783v17.355h-26.416v-51.268h100.966zm164.881-66.267h-157.362c-.007 0-.013-.001-.019-.001s-.013.001-.019.001h-115.928c-.007 0-.013-.001-.019-.001s-.013.001-.019.001h-157.364c-14.134 0-25.633-11.499-25.633-25.633v-25.635h481.997v25.635c-.001 14.134-11.5 25.633-25.634 25.633z"/><path d="m272.567 364.466h-33.133c-4.142 0-7.5 3.358-7.5 7.5s3.358 7.5 7.5 7.5h33.133c4.142 0 7.5-3.358 7.5-7.5s-3.358-7.5-7.5-7.5z"/><path d="m118.58 118.58c-25.532 25.532-25.532 67.076 0 92.607 12.766 12.766 29.535 19.149 46.304 19.149s33.538-6.383 46.304-19.149c25.532-25.532 25.532-67.076 0-92.607-25.533-25.533-67.076-25.533-92.608 0zm82.001 82.001c-19.684 19.684-51.711 19.684-71.395 0s-19.684-51.711 0-71.395c9.842-9.842 22.77-14.763 35.697-14.763s25.855 4.921 35.697 14.763c19.684 19.684 19.684 51.711.001 71.395z"/></g></svg>