<svg id="Capa_1" enable-background="new 0 0 512 512" height="512" viewBox="0 0 512 512" width="512" xmlns="http://www.w3.org/2000/svg"><g><path d="m256 362.9c58.945 0 106.9-47.955 106.9-106.9s-47.955-106.9-106.9-106.9-106.9 47.955-106.9 106.9 47.955 106.9 106.9 106.9zm-25.633-18.642v-21.991c0-4.142-3.358-7.5-7.5-7.5s-7.5 3.358-7.5 7.5v16.146c-6.517-3.226-12.6-7.201-18.133-11.815v-20.898c0-14.134 11.499-25.633 25.633-25.633h66.266c14.135 0 25.634 11.499 25.634 25.633v20.898c-5.534 4.614-11.617 8.589-18.134 11.815v-16.146c0-4.142-3.357-7.5-7.5-7.5s-7.5 3.358-7.5 7.5v21.991c-8.139 2.368-16.74 3.642-25.633 3.642s-17.494-1.275-25.633-3.642zm25.633-79.191c-18.702 0-33.917-15.215-33.917-33.917s15.215-33.916 33.917-33.916 33.917 15.215 33.917 33.916-15.215 33.917-33.917 33.917zm0-100.967c50.674 0 91.9 41.226 91.9 91.9 0 20.497-6.747 39.446-18.134 54.748v-5.048c0-21.729-17.145-39.527-38.616-40.582 8.513-8.806 13.767-20.782 13.767-33.968 0-26.973-21.944-48.916-48.917-48.916s-48.917 21.944-48.917 48.916c0 13.186 5.254 25.162 13.766 33.968-21.472 1.055-38.617 18.853-38.617 40.582v5.048c-11.385-15.302-18.132-34.251-18.132-54.748 0-50.674 41.226-91.9 91.9-91.9z"/><path d="m438.233 364.467c-9.34 0-18.271 1.763-26.503 4.944l-37.869-37.868c14.027-21.808 22.171-47.742 22.171-75.543 0-32.057-10.835-61.626-29.025-85.255l33.577-33.577c11.029 6.575 23.902 10.365 37.649 10.365 40.675 0 73.767-33.092 73.767-73.767s-33.092-73.766-73.767-73.766-73.767 33.092-73.767 73.767c0 9.34 1.763 18.272 4.944 26.503l-37.868 37.868c-21.808-14.027-47.742-22.171-75.543-22.171-27.495 0-53.548 8.013-75.585 22.13l-37.826-37.826c3.181-8.232 4.944-17.163 4.944-26.504.001-40.675-33.091-73.767-73.765-73.767-12.83 0-25.468 3.347-36.549 9.678-3.597 2.055-4.846 6.636-2.791 10.232 2.055 3.597 6.637 4.847 10.232 2.791 8.818-5.038 18.883-7.701 29.108-7.701 32.404 0 58.767 26.363 58.767 58.767 0 13.502-4.589 25.946-12.273 35.88-3.78-10.417-11.707-18.856-21.774-23.328 4.756-5.633 7.63-12.904 7.63-20.836 0-17.838-14.512-32.35-32.35-32.35s-32.35 14.512-32.35 32.35c0 7.932 2.875 15.203 7.631 20.836-10.067 4.472-17.994 12.91-21.774 23.328-7.685-9.934-12.274-22.378-12.274-35.88 0-10.224 2.663-20.289 7.702-29.107 2.055-3.596.806-8.178-2.791-10.232-3.596-2.055-8.178-.805-10.232 2.791-6.332 11.079-9.679 23.718-9.679 36.548 0 40.675 33.092 73.767 73.767 73.767 13.746 0 26.62-3.79 37.649-10.365l33.508 33.508c-9.228 12.013-16.622 25.645-21.655 40.578-1.323 3.925.787 8.18 4.712 9.502 3.924 1.323 8.18-.787 9.502-4.712 5.112-15.168 12.948-28.836 22.83-40.574.002-.002.004-.003.006-.005.294-.294.55-.61.785-.936 6.605-7.691 14.098-14.529 22.305-20.374.217-.134.428-.279.634-.437 20.577-14.464 45.523-22.752 71.957-22.752 68.943 0 125.033 56.09 125.033 125.033s-56.09 125.033-125.033 125.033-125.033-56.09-125.033-125.033c0-2.308.063-4.643.189-6.941.226-4.136-2.944-7.672-7.08-7.898-4.117-.234-7.672 2.944-7.897 7.08-.14 2.569-.211 5.18-.211 7.759 0 27.801 8.145 53.734 22.171 75.543l-37.868 37.868c-8.232-3.181-17.163-4.944-26.504-4.944-40.675 0-73.767 33.092-73.767 73.766s33.092 73.767 73.767 73.767 73.767-33.092 73.767-73.767c0-13.746-3.79-26.62-10.365-37.649l33.576-33.577c23.629 18.19 53.199 29.025 85.255 29.025 32.057 0 61.626-10.835 85.255-29.025l33.576 33.577c-6.574 11.03-10.365 23.902-10.365 37.649 0 40.675 33.092 73.767 73.767 73.767s73.767-33.092 73.767-73.767-33.092-73.766-73.767-73.766zm-364.466-316.334c9.567 0 17.35 7.783 17.35 17.35s-7.783 17.35-17.35 17.35-17.35-7.783-17.35-17.35 7.783-17.35 17.35-17.35zm-33.854 73.625c.883-13.34 12.011-23.924 25.57-23.924h16.567c13.56 0 24.687 10.585 25.57 23.924-9.578 6.777-21.254 10.775-33.853 10.775s-24.275-3.999-33.854-10.775zm83.666 6.361c4.477-4.106 8.439-8.761 11.796-13.85l32.708 32.708c-4.708 3.794-9.18 7.887-13.373 12.273zm280.801-6.361c.883-13.34 12.011-23.924 25.57-23.924h16.566c13.56 0 24.687 10.584 25.57 23.924-9.578 6.777-21.254 10.776-33.854 10.776s-24.274-4-33.852-10.776zm33.853-38.924c-9.567 0-17.351-7.783-17.351-17.35s7.783-17.35 17.351-17.35c9.566 0 17.35 7.783 17.35 17.35s-7.783 17.35-17.35 17.35zm0-67.834c32.405 0 58.767 26.363 58.767 58.767 0 13.502-4.589 25.946-12.273 35.88-3.78-10.417-11.707-18.856-21.774-23.327 4.756-5.633 7.63-12.904 7.63-20.836 0-17.838-14.512-32.35-32.35-32.35s-32.351 14.512-32.351 32.35c0 7.932 2.875 15.203 7.631 20.836-10.067 4.472-17.994 12.91-21.774 23.327-7.684-9.934-12.273-22.378-12.273-35.88.001-32.404 26.363-58.767 58.767-58.767zm-94.38 132.041 32.772-32.772c3.357 5.089 7.319 9.743 11.795 13.849l-31.206 31.206c-4.181-4.376-8.648-8.475-13.361-12.283zm-303.94 339.184c.883-13.34 12.01-23.925 25.57-23.925h16.567c13.56 0 24.687 10.585 25.57 23.925-9.578 6.776-21.254 10.775-33.853 10.775s-24.276-3.999-33.854-10.775zm33.854-38.925c-9.567 0-17.35-7.783-17.35-17.35s7.783-17.35 17.35-17.35 17.35 7.783 17.35 17.35-7.784 17.35-17.35 17.35zm46.493 26.814c-3.779-10.418-11.707-18.856-21.774-23.328 4.756-5.633 7.63-12.903 7.63-20.835 0-17.838-14.512-32.35-32.35-32.35s-32.35 14.512-32.35 32.35c0 7.932 2.875 15.202 7.63 20.835-10.067 4.472-17.994 12.91-21.774 23.328-7.683-9.935-12.272-22.378-12.272-35.881 0-32.404 26.363-58.767 58.767-58.767s58.767 26.363 58.767 58.767c-.001 13.503-4.59 25.946-12.274 35.881zm7.859-85.693c-4.106-4.477-8.761-8.439-13.85-11.796l32.772-32.772c3.807 4.713 7.908 9.18 12.284 13.362zm224.557-31.207c4.376-4.182 8.476-8.648 12.283-13.361l32.772 32.772c-5.089 3.357-9.743 7.319-13.85 11.796zm51.704 129.01c.883-13.34 12.01-23.925 25.571-23.925h16.566c13.56 0 24.687 10.585 25.571 23.925-9.579 6.777-21.255 10.776-33.855 10.776s-24.275-3.999-33.853-10.776zm33.853-38.924c-9.567 0-17.351-7.783-17.351-17.35s7.783-17.35 17.351-17.35c9.566 0 17.35 7.783 17.35 17.35s-7.783 17.35-17.35 17.35zm46.494 26.813c-3.78-10.418-11.707-18.856-21.774-23.328 4.756-5.633 7.63-12.903 7.63-20.835 0-17.838-14.512-32.35-32.35-32.35s-32.351 14.512-32.351 32.35c0 7.932 2.875 15.202 7.631 20.835-10.067 4.472-17.994 12.91-21.774 23.328-7.684-9.934-12.273-22.378-12.273-35.88 0-32.404 26.362-58.767 58.767-58.767s58.767 26.364 58.767 58.767c0 13.503-4.589 25.946-12.273 35.88z"/></g></svg>