<svg id="Capa_1" enable-background="new 0 0 512 512" height="512" viewBox="0 0 512 512" width="512" xmlns="http://www.w3.org/2000/svg"><g><path d="m492 212.499c11.028 0 20-8.972 20-20v-30c0-11.028-8.972-20-20-20h-472c-11.028 0-20 8.972-20 20v30c0 11.028 8.972 20 20 20v207c-11.028 0-20 8.972-20 20v30c0 11.028 8.972 20 20 20h472c11.028 0 20-8.972 20-20v-30c0-11.028-8.972-20-20-20v-63.5c0-5.523-4.478-10-10-10s-10 4.477-10 10v45.429c-19.71-17.962-47.445-29.472-77.514-31.577v-30.327c.553.013 1.119.02 1.697.02 9.655 0 22.658-1.964 31.638-10.943 15.05-15.05 10.393-41.4 9.812-44.354-.783-3.986-3.899-7.102-7.885-7.885-2.953-.58-29.303-5.238-44.354 9.812-.312.312-.613.631-.908.953-.295-.322-.596-.64-.908-.953-15.052-15.051-41.4-10.393-44.354-9.812-3.985.783-7.102 3.899-7.885 7.885-.58 2.955-5.237 29.304 9.812 44.354 8.98 8.98 21.982 10.943 31.638 10.943.579 0 1.144-.007 1.697-.02v30.321c-12.236.835-24.127 3.202-35.465 7.081-12.11 4.142-25.447 4.142-37.556.001-11.338-3.879-23.23-6.246-35.466-7.081v-30.321c.553.013 1.119.02 1.697.02 9.655 0 22.658-1.964 31.638-10.943 15.05-15.05 10.393-41.4 9.812-44.354-.783-3.986-3.9-7.102-7.885-7.885-2.953-.58-29.302-5.238-44.354 9.812-.312.312-.613.631-.908.953-.295-.322-.596-.64-.908-.953-15.052-15.051-41.4-10.393-44.354-9.812-3.985.783-7.102 3.899-7.885 7.885-.58 2.955-5.237 29.304 9.812 44.354 8.98 8.98 21.983 10.943 31.638 10.943.579 0 1.144-.007 1.697-.02v30.321c-12.236.835-24.127 3.202-35.465 7.081-12.11 4.142-25.447 4.142-37.556.001-11.338-3.879-23.23-6.246-35.466-7.081v-30.321c.553.013 1.119.02 1.697.02 9.655 0 22.658-1.964 31.638-10.943 15.05-15.05 10.393-41.4 9.812-44.354-.783-3.986-3.899-7.102-7.885-7.885-2.953-.58-29.303-5.238-44.354 9.812-.312.312-.613.631-.908.953-.295-.322-.596-.64-.908-.953-15.052-15.051-41.4-10.393-44.354-9.812-3.985.783-7.102 3.899-7.885 7.885-.58 2.955-5.237 29.304 9.812 44.354 8.98 8.98 21.982 10.943 31.638 10.943.579 0 1.144-.007 1.697-.02v30.327c-30.067 2.103-57.803 13.613-77.512 31.575v-188.929h432v63.5c0 5.523 4.478 10 10 10s10-4.477 10-10zm.013 256.999s-.004.001-.013.001h-472v-30h472zm-92.476-169.181c4.35-4.35 12.727-5.212 19.167-5.027.183 6.441-.678 14.821-5.025 19.168-4.348 4.349-12.731 5.211-19.167 5.026-.002-.073-.003-.147-.005-.221.018-.891.02-1.816.002-2.768.155-5.859 1.328-12.479 5.028-16.178zm-44.243 14.141c-4.35-4.349-5.208-12.733-5.027-19.167 6.439-.184 14.822.678 19.169 5.025 3.695 3.694 4.87 10.3 5.029 16.149-.019.978-.017 1.926.002 2.839-.001.059-.002.12-.004.179-6.459.184-14.823-.678-19.169-5.025zm-84.243-14.141c4.35-4.35 12.737-5.212 19.167-5.027.183 6.441-.678 14.821-5.025 19.168-4.349 4.349-12.739 5.211-19.167 5.026-.002-.073-.003-.147-.005-.221.018-.891.02-1.816.002-2.768.154-5.859 1.328-12.479 5.028-16.178zm-44.243 14.141c-4.35-4.349-5.208-12.733-5.027-19.167 6.438-.184 14.822.678 19.169 5.025 3.695 3.694 4.87 10.3 5.029 16.149-.018.978-.017 1.926.002 2.839-.001.059-.002.12-.004.179-6.459.184-14.824-.678-19.169-5.025zm-84.244-14.141c4.35-4.35 12.735-5.212 19.167-5.027.183 6.441-.678 14.821-5.025 19.168-4.349 4.349-12.734 5.211-19.167 5.026-.002-.073-.003-.147-.005-.221.018-.891.02-1.816.002-2.768.155-5.859 1.329-12.479 5.028-16.178zm-44.243 14.141c-4.35-4.349-5.208-12.733-5.027-19.167 6.438-.184 14.822.678 19.169 5.025 3.695 3.694 4.87 10.3 5.029 16.149-.019.978-.017 1.926.002 2.839-.001.059-.002.12-.004.179-6.46.184-14.823-.678-19.169-5.025zm29.193 75.041c13.557 0 26.675 2.137 38.992 6.351 16.283 5.569 34.218 5.57 50.503 0 12.316-4.213 25.435-6.35 38.991-6.35 13.557 0 26.675 2.137 38.992 6.351 16.283 5.569 34.218 5.57 50.503 0 12.316-4.213 25.435-6.35 38.991-6.35 30.842 0 59.394 11.379 77.5 30h-411.976c18.107-18.623 46.661-30.002 77.504-30.002zm-107.514-227h472l.013 29.999s-.004.001-.013.001h-472z"/><path d="m284.28 94.221c2.557 0 5.114-.975 7.066-2.924 3.908-3.903 3.912-10.234.009-14.142-9.437-9.449-21.993-14.653-35.355-14.653s-25.919 5.204-35.355 14.653c-3.903 3.908-3.899 10.239.009 14.142 3.907 3.902 10.24 3.899 14.142-.009 5.659-5.665 13.189-8.786 21.205-8.786s15.546 3.121 21.205 8.786c1.951 1.955 4.513 2.933 7.074 2.933z"/><path d="m206.501 63.002c13.221-13.22 30.8-20.501 49.499-20.501s36.278 7.281 49.499 20.501c1.953 1.953 4.512 2.929 7.071 2.929s5.118-.977 7.071-2.929c3.905-3.905 3.905-10.237 0-14.142-16.998-16.998-39.6-26.358-63.642-26.358s-46.644 9.361-63.642 26.358c-3.905 3.905-3.905 10.237 0 14.142 3.908 3.906 10.238 3.906 14.144 0z"/><circle cx="482" cy="315.999" r="10"/><circle cx="255.999" cy="112.499" r="10"/></g></svg>