<svg id="Capa_1" enable-background="new 0 0 512 512" height="512" viewBox="0 0 512 512" width="512" xmlns="http://www.w3.org/2000/svg"><g><path d="m173.166 48.133h33.134c4.143 0 7.5-3.358 7.5-7.5s-3.357-7.5-7.5-7.5h-33.134c-4.143 0-7.5 3.358-7.5 7.5s3.357 7.5 7.5 7.5z"/><path d="m239.433 48.133c4.143 0 7.5-3.358 7.5-7.5s-3.357-7.5-7.5-7.5h-8.283c-4.143 0-7.5 3.358-7.5 7.5s3.357 7.5 7.5 7.5z"/><path d="m355.4 171.19c-16.306-9.38-36.735-6.763-50.189 6.604-7.784 7.734-12.082 18.161-12.1 29.359-.018 11.284 4.5 22.285 12.396 30.182l37.67 37.669c3.37 3.37 7.796 5.054 12.223 5.054s8.854-1.685 12.225-5.055l37.668-37.669c7.897-7.896 12.415-18.897 12.398-30.181-.019-11.198-4.316-21.626-12.101-29.36-13.455-13.366-33.884-15.984-50.19-6.603zm39.285 55.538-37.668 37.669c-.892.891-2.343.893-3.234 0l-37.669-37.669c-5.098-5.098-8.015-12.224-8.003-19.551.012-7.183 2.736-13.839 7.672-18.742 5.181-5.147 11.973-7.807 18.835-7.807 4.872 0 9.781 1.341 14.172 4.086 4.078 2.549 9.145 2.548 13.22-.001 10.575-6.609 24.147-5.08 33.007 3.722 4.936 4.904 7.661 11.561 7.673 18.744.011 7.325-2.906 14.451-8.005 19.549z"/><path d="m438.233 132.533h-75.334l-.001-91.9c0-22.405-18.227-40.633-40.632-40.633h-231.933c-22.405 0-40.633 18.228-40.633 40.633v430.733c0 22.406 18.228 40.634 40.633 40.634h148.167c4.143 0 7.5-3.358 7.5-7.5s-3.357-7.5-7.5-7.5h-148.167c-14.134 0-25.633-11.499-25.633-25.633v-430.734c0-14.134 11.499-25.633 25.633-25.633h231.933c14.134 0 25.633 11.499 25.633 25.633l.001 91.9h-18.133v-75.333c0-13.27-10.797-24.066-24.067-24.066h-28.014c-6.017 0-11.428 3.344-14.116 8.725l-9.698 19.397c-1.546 3.092-4.653 5.012-8.11 5.012h-78.922c-3.457 0-6.564-1.92-8.11-5.012l-9.697-19.396c-2.689-5.382-8.1-8.726-14.117-8.726h-28.015c-13.271 0-24.066 10.796-24.066 24.066v31.819c0 4.142 3.357 7.5 7.5 7.5s7.5-3.358 7.5-7.5v-31.819c0-4.999 4.067-9.066 9.066-9.066h28.015c.294 0 .568.169.7.433l9.698 19.397c4.104 8.205 12.352 13.303 21.526 13.303h78.922c9.175 0 17.423-5.098 21.526-13.304l9.699-19.398c.133-.266.4-.431.699-.431h28.014c5 0 9.067 4.067 9.067 9.066v75.333h-18.134v-17.35c0-8.703-7.08-15.783-15.783-15.783h-149.1c-8.703 0-15.783 7.08-15.783 15.783v215.367c0 8.703 7.08 15.784 15.783 15.784h149.1c8.703 0 15.783-7.081 15.783-15.784v-17.35h18.134l.001 141.6c0 4.999-4.067 9.066-9.066 9.066h-198.803c-4.999 0-9.066-4.067-9.066-9.066v-330.442c0-4.142-3.357-7.5-7.5-7.5s-7.5 3.358-7.5 7.5v330.442c0 13.27 10.796 24.066 24.066 24.066h198.802c13.271 0 24.066-10.796 24.066-24.066l-.001-133.898 11.517 23.033c1.49 2.981 3.817 5.333 6.616 6.841l.001 120.59c0 14.134-11.499 25.633-25.634 25.633h-48.766c-4.143 0-7.5 3.358-7.5 7.5s3.357 7.5 7.5 7.5h48.767c22.405 0 40.634-18.228 40.634-40.633l-.001-120.589c2.8-1.508 5.127-3.86 6.617-6.842l15.153-30.305c.133-.266.4-.431.699-.431h52.864c13.271 0 24.066-10.796 24.066-24.067v-132.532c.001-13.27-10.795-24.067-24.066-24.067zm-156.6 198.017c0 .432-.352.784-.783.784h-149.1c-.432 0-.783-.352-.783-.784v-215.367c0-.432.352-.783.783-.783h149.1c.432 0 .783.352.783.783v17.35h-9.066c-13.271 0-24.066 10.796-24.066 24.067v132.533c0 13.27 10.796 24.067 24.066 24.067h9.066zm165.667-41.417c0 4.999-4.067 9.067-9.066 9.067h-52.864c-6.018 0-11.428 3.344-14.116 8.725l-15.152 30.303c-.07.141-.217.433-.701.433-.483 0-.63-.292-.7-.433l-15.151-30.304c-2.691-5.381-8.101-8.724-14.117-8.724h-52.864c-4.999 0-9.066-4.067-9.066-9.067v-132.533c0-5 4.067-9.067 9.066-9.067h165.667c4.999 0 9.066 4.067 9.066 9.067v132.533z"/><path d="m181.733 412.6c8.547 0 15.5-6.953 15.5-15.5v-17.133c0-8.547-6.953-15.5-15.5-15.5h-50.267c-8.547 0-15.5 6.953-15.5 15.5v17.133c0 8.547 6.953 15.5 15.5 15.5zm-50.766-15.5v-17.133c0-.276.225-.5.5-.5h50.267c.275 0 .5.224.5.5v17.133c0 .276-.225.5-.5.5h-50.267c-.276 0-.5-.224-.5-.5z"/><path d="m281.133 412.6c8.547 0 15.5-6.953 15.5-15.5v-17.133c0-8.547-6.953-15.5-15.5-15.5h-50.266c-8.547 0-15.5 6.953-15.5 15.5v17.133c0 8.547 6.953 15.5 15.5 15.5zm-50.766-15.5v-17.133c0-.276.225-.5.5-.5h50.266c.275 0 .5.224.5.5v17.133c0 .276-.225.5-.5.5h-50.266c-.275 0-.5-.224-.5-.5z"/></g></svg>