<svg id="Capa_1" enable-background="new 0 0 512 512" height="512" viewBox="0 0 512 512" width="512" xmlns="http://www.w3.org/2000/svg"><g><path d="m465.5 20c0-11.028-8.972-20-20-20h-344c-30.327 0-55 24.673-55 55v402c0 30.327 24.673 55 55 55h344c11.028 0 20-8.972 20-20v-240.999c0-5.523-4.477-10-10-10s-10 4.477-10 10v150.999h-314v-382h314v151.001c0 5.523 4.477 10 10 10s10-4.477 10-10zm-20 427h-344c-5.523 0-10 4.477-10 10s4.477 10 10 10h344v25h-344c-19.299 0-35-15.701-35-35s15.701-35 35-35h344zm-334-45h-10c-13.285 0-25.484 4.735-35 12.605v-359.605c0-19.299 15.701-35 35-35h10z"/><path d="m378.5 173c5.523 0 10-4.477 10-10s-4.477-10-10-10h-14.101c-.941-9.434-8.465-16.958-17.899-17.899v-14.101c0-5.523-4.477-10-10-10s-10 4.477-10 10v14h-28v-14c0-5.523-4.477-10-10-10s-10 4.477-10 10v14h-28v-14c0-5.523-4.477-10-10-10s-10 4.477-10 10v14.101c-9.434.941-16.958 8.465-17.899 17.899h-14.101c-5.523 0-10 4.477-10 10s4.477 10 10 10h14v28h-14c-5.523 0-10 4.477-10 10s4.477 10 10 10h14v28h-14c-5.523 0-10 4.477-10 10s4.477 10 10 10h14.101c.941 9.434 8.465 16.957 17.899 17.899v14.101c0 5.523 4.477 10 10 10s10-4.477 10-10v-14h28v14c0 5.523 4.477 10 10 10s10-4.477 10-10v-14h28v14c0 5.523 4.477 10 10 10s10-4.477 10-10v-14.101c9.434-.941 16.957-8.465 17.899-17.899h14.101c5.523 0 10-4.477 10-10s-4.477-10-10-10h-14v-28h14c5.523 0 10-4.477 10-10s-4.477-10-10-10h-14v-28zm-33.988 86.234.001 7.766s-.004 0-.013 0h-112v-112h112l.001 7.982c0 .006-.001.012-.001.018s.001.012.001.018l.005 47.857c0 .042-.006.083-.006.125s.006.084.006.126l.005 47.641c-.002.078-.012.154-.012.233.001.079.011.155.013.234z"/><circle cx="455.5" cy="211" r="10"/></g></svg>