<svg id="Capa_1" enable-background="new 0 0 512 512" height="512" viewBox="0 0 512 512" width="512" xmlns="http://www.w3.org/2000/svg"><g><path d="m462.299 338.835c0-40.675-33.092-73.766-73.767-73.766-12.786 0-25.387 3.325-36.439 9.615-3.6 2.049-4.858 6.628-2.809 10.228 2.05 3.6 6.629 4.857 10.228 2.808 8.795-5.005 18.83-7.651 29.02-7.651 32.404 0 58.767 26.362 58.767 58.766s-26.362 58.767-58.767 58.767c-32.395 0-58.751-26.348-58.766-58.74 0-.008.001-.017.001-.025 0-.01-.002-.02-.002-.03.005-10.234 2.677-20.307 7.731-29.13 2.058-3.594.812-8.177-2.781-10.235-3.597-2.06-8.178-.813-10.236 2.781-5.114 8.93-8.284 18.873-9.328 29.114h-7.677l-27.409-13.704v-21.378c37.167-3.77 66.268-35.244 66.268-73.388 0-1.989-.79-3.897-2.197-5.303l-8.105-8.105c6.222-4.355 10.303-11.57 10.303-19.725v-33.134c0-10.652-6.959-19.704-16.567-22.864v-26.836c0-33.756-22.8-62.268-53.802-70.999-8.643-21.639-29.471-35.901-53.099-35.901s-44.456 14.262-53.097 35.901c-31.002 8.73-53.802 37.243-53.802 70.999v26.836c-9.608 3.16-16.566 12.212-16.566 22.864v33.133c0 8.154 4.08 15.369 10.302 19.725l-8.106 8.105c-1.407 1.407-2.197 3.315-2.197 5.304 0 38.143 29.101 69.617 66.267 73.388v21.379l-27.408 13.704h-14.792c-40.673 0-73.763 33.09-73.763 73.763l-.002 82.834c0 13.271 10.796 24.067 24.066 24.067h20.047c4.143 0 7.5-3.358 7.5-7.5s-3.357-7.5-7.5-7.5h-20.047c-4.999 0-9.066-4.067-9.066-9.067l.002-82.834c0-32.402 26.361-58.763 58.763-58.763h9.381c3.826 46.313 42.736 82.831 90.019 82.831s86.193-36.518 90.019-82.831h2.26c1.492 14.702 7.326 28.137 16.187 39.012v77.721c0 5.832 3.194 11.164 8.336 13.916 5.143 2.752 11.35 2.452 16.202-.784l20.279-13.519c.005-.004.011-.007.016-.011l4.865-3.243.001 28.504c0 5-4.067 9.067-9.066 9.067h-243.15c-4.142 0-7.5 3.358-7.5 7.5s3.358 7.5 7.5 7.5h243.15c13.271 0 24.066-10.796 24.066-24.067l-.001-28.506 4.859 3.239c.013.008.025.017.038.025l20.267 13.511c2.646 1.764 5.694 2.655 8.753 2.655 2.552 0 5.111-.621 7.449-1.871 5.142-2.752 8.336-8.084 8.336-13.916v-77.72c10.347-12.702 16.566-28.894 16.566-46.516zm-208.828-212.478c6.907 12.607 20.301 21.176 35.662 21.176h9.067l-.001 58.767v.003c0 41.538-33.794 75.332-75.332 75.332s-75.332-33.794-75.332-75.332l-.001-58.77h61.548c17.896 0 33.892-8.266 44.389-21.176zm-72.805 162.796c0-.007.001-.013.001-.019 0-.007-.001-.013-.001-.019v-2.964c12.604 6.688 26.966 10.485 42.201 10.485 15.234 0 29.595-3.796 42.198-10.483v36.117c0 23.269-18.931 42.2-42.199 42.2-23.27 0-42.2-18.931-42.2-42.2zm99.399-8.013v-4.974c18.399-15.091 30.75-37.293 32.82-62.366h6.274l12.096 12.096c-1.454 28.49-23.299 51.673-51.19 55.244zm51.268-91.407c0 4.999-4.067 9.066-9.066 9.067-.001 0-.003 0-.004 0h-9.064l.001-51.267h9.065c5 0 9.067 4.067 9.067 9.067v33.133zm-108.467-174.733c14.19 0 27.008 6.973 34.726 18.174-.532-.011-1.059-.04-1.593-.04h-66.266c-.534 0-1.062.029-1.593.04 7.719-11.201 20.537-18.174 34.726-18.174zm-33.133 33.133h66.266c32.404 0 58.767 26.363 58.767 58.767v25.633h-9.066-16.566c-13.812 0-25.1-10.981-25.609-24.67 1.784-5.528 2.759-11.416 2.759-17.53 0-4.142-3.357-7.5-7.5-7.5s-7.5 3.358-7.5 7.5c0 23.269-18.931 42.2-42.2 42.2h-69.038c-.003 0-.006 0-.01 0h-9.067v-25.633c-.002-32.404 26.36-58.767 58.764-58.767zm-75.333 108.467c0-4.999 4.067-9.067 9.067-9.067h9.067l.001 51.267h-9.067c-5 0-9.067-4.067-9.067-9.067v-33.133zm.077 69.296 12.098-12.096h6.275c2.07 25.072 14.42 47.272 32.817 62.363v4.977c-27.891-3.572-49.736-26.754-51.19-55.244zm108.389 188.272c-40.005 0-72.827-31.346-75.196-70.766l19.169-9.584c5.356 26.023 28.443 45.651 56.028 45.651s50.671-19.628 56.027-45.651l19.169 9.585c-2.37 39.418-35.192 70.765-75.197 70.765zm124.684 49.554c-.128.084-.392.26-.804.039-.414-.221-.414-.538-.414-.69v-63.786c5.539 3.878 11.629 7.012 18.133 9.264v43.897zm32.227-21.485-.312.208v-30.422c2.974.366 5.996.577 9.067.577s6.092-.211 9.066-.577v30.421l-.311-.208c-5.318-3.544-12.191-3.545-17.51.001zm50.54 21.524c-.411.222-.675.046-.804-.039l-16.915-11.277v-43.896c6.503-2.252 12.594-5.385 18.133-9.263v63.785c0 .152 0 .469-.414.69z"/><path d="m429.165 338.835c0-22.405-18.228-40.633-40.633-40.633s-40.634 18.228-40.634 40.633 18.228 40.633 40.634 40.633 40.633-18.228 40.633-40.633zm-66.267 0c0-14.134 11.499-25.633 25.634-25.633 14.134 0 25.633 11.499 25.633 25.633s-11.499 25.633-25.633 25.633c-14.135 0-25.634-11.499-25.634-25.633z"/><path d="m189.733 165.666c-4.143 0-7.5 3.358-7.5 7.5v8.283c0 4.142 3.357 7.5 7.5 7.5s7.5-3.358 7.5-7.5v-8.283c0-4.142-3.357-7.5-7.5-7.5z"/><path d="m256 188.949c4.143 0 7.5-3.358 7.5-7.5v-8.283c0-4.142-3.357-7.5-7.5-7.5s-7.5 3.358-7.5 7.5v8.283c0 4.142 3.357 7.5 7.5 7.5z"/><path d="m204.764 208.096c-3.584 2.077-4.806 6.666-2.729 10.25 4.299 7.416 12.281 12.022 20.832 12.022s16.533-4.606 20.832-12.022c2.077-3.584.856-8.173-2.728-10.25-3.583-2.077-8.172-.855-10.25 2.728-1.624 2.803-4.634 4.544-7.854 4.544s-6.23-1.741-7.854-4.544c-2.077-3.584-6.666-4.805-10.249-2.728z"/></g></svg>