<svg id="Capa_1" enable-background="new 0 0 512 512" height="512" viewBox="0 0 512 512" width="512" xmlns="http://www.w3.org/2000/svg"><g><path d="m418.001 216h-20v-72c0-25.026-18.484-45.815-42.515-49.438l-25.737-80.643c-2.658-8.326-10.315-13.919-19.054-13.919h-149.389c-8.739 0-16.396 5.593-19.053 13.919l-25.737 80.643c-24.032 3.623-42.515 24.412-42.515 49.438v71.999c0 5.523 4.477 10 10 10s10-4.477 10-10v-71.999c0-16.542 13.458-30 30-30h224c16.542 0 30 13.458 30 30v224c0 16.542-13.458 30-30 30h-224c-16.542 0-30-13.458-30-30v-71.999c0-5.523-4.477-10-10-10s-10 4.477-10 10v71.999c0 25.026 18.483 45.815 42.515 49.438l25.737 80.643c2.657 8.326 10.314 13.919 19.053 13.919h149.389c8.739 0 16.396-5.593 19.053-13.919l25.737-80.643c24.032-3.623 42.515-24.412 42.515-49.438v-72h20c11.028 0 20-8.972 20-20v-40c.001-11.028-8.972-20-19.999-20zm-256.695-196h149.389l23.617 74h-196.623zm149.389 472h-149.389l-23.617-74h196.623zm107.306-216h-20v-40h20z"/><path d="m211.001 67h50c5.523 0 10-4.477 10-10s-4.477-10-10-10h-50c-5.523 0-10 4.477-10 10s4.477 10 10 10z"/><path d="m261.001 445h-50c-5.523 0-10 4.477-10 10s4.477 10 10 10h50c5.523 0 10-4.477 10-10s-4.477-10-10-10z"/><circle cx="83.999" cy="256" r="10"/><path d="m157.192 271.476c-16.58 0-30.01 13.44-30.01 30.01 0 16.58 13.43 30.02 30.01 30.02 16.57 0 30.01-13.44 30.01-30.02 0-1.87-.18-3.697-.507-5.472l20.787-12.002c5.015 5.105 11.381 8.879 18.518 10.722v23.986c-11.639 4.128-20 15.243-20 28.28 0 16.542 13.458 30 30 30s30-13.458 30-30c0-13.036-8.361-24.152-20-28.28v-23.986c7.137-1.844 13.503-5.617 18.518-10.722l20.787 12.001c-.327 1.775-.507 3.602-.507 5.472 0 16.58 13.43 30.02 30.01 30.02 16.57 0 30.01-13.44 30.01-30.02 0-16.57-13.44-30.01-30.01-30.01-7.452 0-14.262 2.721-19.508 7.215l-20.766-11.989c.948-3.408 1.465-6.994 1.465-10.701 0-3.706-.517-7.292-1.465-10.701l20.771-11.992c5.245 4.493 12.054 7.213 19.505 7.213 16.57 0 30.01-13.44 30.01-30.02 0-16.57-13.44-30.01-30.01-30.01-16.58 0-30.01 13.44-30.01 30.01 0 1.874.18 3.706.508 5.485l-20.79 12.003c-5.015-5.105-11.381-8.879-18.518-10.722v-23.986c11.639-4.128 20-15.243 20-28.28 0-16.542-13.458-30-30-30s-30 13.458-30 30c0 13.036 8.361 24.152 20 28.28v23.986c-7.137 1.844-13.503 5.617-18.518 10.722l-20.788-12.002c.328-1.778.508-3.608.508-5.481 0-16.57-13.44-30.01-30.01-30.01-16.58 0-30.01 13.44-30.01 30.01 0 16.58 13.43 30.02 30.01 30.02 7.448 0 14.258-2.721 19.505-7.217l20.769 11.991c-.948 3.409-1.465 6.995-1.465 10.701 0 3.707.517 7.293 1.465 10.701l-20.768 11.991c-5.247-4.495-12.058-7.216-19.506-7.216zm157.617 20.01c5.52 0 10 4.48 10 10 0 5.53-4.48 10.01-10 10.01-5.53 0-10.01-4.48-10.01-10.01 0-5.52 4.48-10 10.01-10zm.002-90.986c5.52 0 10 4.48 10 10 0 5.53-4.48 10.01-10 10.01-5.53 0-10.01-4.48-10.01-10.01 0-5.52 4.48-10 10.01-10zm-157.619 20.015c-5.53 0-10.01-4.48-10.01-10.01 0-5.52 4.48-10 10.01-10 5.52 0 10 4.48 10 10 0 5.53-4.48 10.01-10 10.01zm78.809 136.485c-5.514 0-10-4.486-10-10s4.486-10 10-10 10 4.486 10 10-4.486 10-10 10zm0-202c5.514 0 10 4.486 10 10s-4.486 10-10 10-10-4.486-10-10 4.485-10 10-10zm0 81c11.028 0 20 8.972 20 20s-8.972 20-20 20-20-8.972-20-20 8.972-20 20-20zm-78.809 75.496c-5.53 0-10.01-4.48-10.01-10.01 0-5.52 4.48-10 10.01-10 5.52 0 10 4.48 10 10 0 5.53-4.48 10.01-10 10.01z"/></g></svg>