<svg id="Capa_1" enable-background="new 0 0 512 512" height="512" viewBox="0 0 512 512" width="512" xmlns="http://www.w3.org/2000/svg"><g><path d="m488.496 356.186h-30.341v-50.482c0-13.271-10.796-24.066-24.066-24.066h-153.239c-.432 0-.783-.352-.783-.783v-33.9h25.916c8.547 0 15.5-6.953 15.5-15.5v-9.133c0-6.267-2.471-11.964-6.483-16.182 4.017-4.302 6.483-10.071 6.483-16.408 0-11.437-8.022-21.029-18.732-23.463-8.633-21.954-13.414-44.935-14.253-68.435h.635c13.27 0 24.066-10.796 24.066-24.066 0-11.105-7.563-20.474-17.808-23.236.81-3.225 1.242-6.547 1.242-9.897 0-22.407-18.228-40.635-40.633-40.635s-40.633 18.228-40.633 40.633c0 3.35.431 6.672 1.242 9.897-10.245 2.762-17.808 12.131-17.808 23.236 0 13.27 10.796 24.066 24.066 24.066h.646c-.276 7.589-.968 15.187-2.068 22.674-.602 4.098 2.232 7.908 6.33 8.511.37.054.737.081 1.1.081 3.66 0 6.863-2.682 7.411-6.411 1.206-8.206 1.95-16.537 2.232-24.854h34.971c.773 23.223 5.137 45.974 13.012 67.832h-60.991c.801-2.228 1.57-4.467 2.296-6.705 1.277-3.941-.882-8.17-4.822-9.447-3.943-1.277-8.169.882-9.447 4.822-1.297 4.003-2.739 8.009-4.281 11.932-10.713 2.433-18.737 12.026-18.737 23.464 0 6.337 2.466 12.106 6.483 16.408-4.012 4.218-6.483 9.915-6.483 16.182v9.133c0 8.547 6.953 15.5 15.5 15.5h25.916v33.9c0 .432-.352.783-.783.783h-153.241c-13.271 0-24.066 10.796-24.066 24.066v50.482h-30.341c-12.958 0-23.5 10.542-23.5 23.5v108.815c0 12.958 10.542 23.5 23.5 23.5h108.815c12.958 0 23.5-10.542 23.5-23.5v-108.814c0-12.958-10.542-23.5-23.5-23.5h-30.341v-25.633c0-.432.352-.783.783-.783h128.39c.432 0 .783.352.783.783v25.633h-30.341c-12.958 0-23.5 10.542-23.5 23.5v11.274c0 4.142 3.358 7.5 7.5 7.5s7.5-3.358 7.5-7.5v-11.274c0-4.687 3.813-8.5 8.5-8.5h108.814c4.687 0 8.5 3.813 8.5 8.5v55.369l-23.442-18.753c-6.289-5.031-15.325-4.531-21.02 1.164l-14.893 14.893-15.022-9.559c-5.847-3.72-13.587-3.146-18.821 1.397l-32.617 28.318v-26.555c0-4.142-3.358-7.5-7.5-7.5s-7.5 3.358-7.5 7.5v62.54c0 12.958 10.542 23.5 23.5 23.5h108.814c12.958 0 23.5-10.542 23.5-23.5v-108.814c0-12.958-10.542-23.5-23.5-23.5h-30.341v-25.633c0-.432.352-.783.783-.783h128.39c.432 0 .783.352.783.783v25.633h-30.341c-12.958 0-23.5 10.542-23.5 23.5v108.814c0 12.958 10.542 23.5 23.5 23.5h108.814c12.958 0 23.5-10.542 23.5-23.5v-108.814c.002-12.959-10.54-23.5-23.498-23.5zm-232.496-341.186c14.134 0 25.633 11.499 25.633 25.633 0 3.109-.581 6.181-1.673 9.066h-47.92c-1.093-2.886-1.673-5.957-1.673-9.066 0-14.134 11.499-25.633 25.633-25.633zm-42.199 58.766c0-4.999 4.067-9.066 9.066-9.066h66.266c4.999 0 9.066 4.067 9.066 9.066s-4.067 9.066-9.066 9.066h-66.266c-4.999 0-9.066-4.067-9.066-9.066zm71.251 354.306c.283-.282.73-.308 1.043-.058l32.812 26.249v15.866l-46.391-29.522zm25.355 68.928h-108.814c-4.687 0-8.5-3.813-8.5-8.5v-16.121l42.451-36.857c.26-.226.644-.254.934-.069l19.988 12.72c.009.006.019.012.028.018l62.413 39.718v.591c0 4.687-3.813 8.5-8.5 8.5zm-95.844-316.335c.006 0 .012.001.019.001.009 0 .017-.002.026-.002h82.785c.009 0 .017.002.026.002.006 0 .013-.001.019-.001 4.989.012 9.045 4.073 9.045 9.065 0 4.999-4.067 9.066-9.066 9.066h-82.832c-4.999 0-9.066-4.067-9.066-9.066-.001-4.991 4.055-9.053 9.044-9.065zm-9.045 50.788v-9.133c0-4.687 3.813-8.5 8.5-8.5h83.965c4.687 0 8.5 3.813 8.5 8.5v9.133c0 .276-.224.5-.5.5h-99.965c-.276 0-.5-.224-.5-.5zm-64.7 148.233v108.814c0 4.687-3.813 8.5-8.5 8.5h-108.814c-4.687 0-8.5-3.813-8.5-8.5v-108.814c0-4.687 3.813-8.5 8.5-8.5h108.815c4.686 0 8.499 3.813 8.499 8.5zm268.421-64.916h-128.389c-8.703 0-15.783 7.081-15.783 15.783v25.633h-18.133v-25.633c0-8.703-7.08-15.783-15.783-15.783h-128.39c-8.703 0-15.783 7.081-15.783 15.783v25.633h-18.133v-50.482c0-4.999 4.067-9.066 9.066-9.066h153.239c8.703 0 15.783-7.08 15.783-15.783v-33.9h18.133v33.9c0 8.703 7.08 15.783 15.783 15.783h153.239c4.999 0 9.066 4.067 9.066 9.066v50.482h-18.133v-25.633c.001-8.703-7.079-15.783-15.782-15.783zm87.757 173.73c0 4.687-3.813 8.5-8.5 8.5h-108.814c-4.687 0-8.5-3.813-8.5-8.5v-108.814c0-4.687 3.813-8.5 8.5-8.5h108.814c4.687 0 8.5 3.813 8.5 8.5z"/><path d="m46.957 394.397c-3.457 2.137-5.521 5.839-5.521 9.903v59.585c0 4.064 2.064 7.766 5.521 9.903 1.882 1.163 3.994 1.749 6.114 1.749 1.775 0 3.557-.411 5.213-1.24l59.584-29.792c3.97-1.984 6.436-5.974 6.437-10.412 0-4.438-2.466-8.428-6.436-10.413l-59.585-29.792c-3.635-1.818-7.869-1.627-11.327.509zm9.479 64.054v-48.717l48.717 24.358z"/><path d="m471.363 393.46h-74.549c-4.142 0-7.5 3.358-7.5 7.5s3.358 7.5 7.5 7.5h74.549c4.142 0 7.5-3.358 7.5-7.5s-3.358-7.5-7.5-7.5z"/><path d="m471.363 426.593h-74.549c-4.142 0-7.5 3.358-7.5 7.5s3.358 7.5 7.5 7.5h74.549c4.142 0 7.5-3.358 7.5-7.5s-3.358-7.5-7.5-7.5z"/><path d="m454.797 459.726h-41.416c-4.142 0-7.5 3.358-7.5 7.5s3.358 7.5 7.5 7.5h41.416c4.142 0 7.5-3.358 7.5-7.5s-3.358-7.5-7.5-7.5z"/></g></svg>