<svg id="Capa_1" enable-background="new 0 0 511.989 511.989" height="512" viewBox="0 0 511.989 511.989" width="512" xmlns="http://www.w3.org/2000/svg"><g><path d="m467.791 200.052v-82.399c0-10.499-8.219-19.264-18.711-19.956-34.76-2.293-69.425-11.99-100.247-28.045-29.826-15.535-55.898-36.551-77.49-62.462-3.807-4.569-9.4-7.189-15.347-7.189-.001 0 0 0-.001 0-5.946 0-11.54 2.621-15.348 7.189-21.59 25.911-47.662 46.926-77.489 62.462-30.823 16.054-65.488 25.752-100.248 28.045-10.492.692-18.711 9.457-18.711 19.956v82.403c-1.004 55.717 11.864 110.675 37.214 158.946 47.554 90.547 124.914 133.735 166.793 151.419 2.475 1.045 5.131 1.568 7.788 1.568 2.656 0 5.313-.522 7.788-1.567 29.458-12.44 72.979-35.941 113.027-77.259 3.844-3.966 3.745-10.297-.221-14.141s-10.297-3.745-14.141.221c-37.707 38.902-78.698 61.037-106.461 72.754-39.417-16.644-112.212-57.263-156.868-142.293-30.075-57.267-35.591-112.841-34.923-149.377.001-.061.002-.122.002-.183l.027-82.49c37.504-2.474 74.909-12.939 108.171-30.264 32.188-16.766 60.32-39.442 83.581-67.397 23.296 27.956 51.429 50.632 83.615 67.397 33.262 17.325 70.667 27.791 108.198 30.263v82.491c0 .061.001.122.002.183.668 36.538-4.85 92.113-34.924 149.377-1.221 2.325-2.482 4.653-3.75 6.92-2.696 4.82-.974 10.913 3.847 13.609 4.817 2.695 10.912.974 13.608-3.847 1.353-2.418 2.699-4.902 4.002-7.382 25.351-48.271 38.22-103.234 37.217-158.952z"/><path d="m427.796 200.688-.005-56.28c0-4.908-3.561-9.091-8.407-9.872-31.159-5.033-61.115-14.886-89.029-29.407-24.753-12.893-47.44-29.168-67.431-48.375-3.871-3.718-9.986-3.718-13.856 0-19.989 19.205-42.676 35.48-67.43 48.374-27.765 14.463-57.719 24.357-89.03 29.408-4.846.782-8.408 4.964-8.408 9.872v56.01l-.005.275c-.625 34.198 4.529 86.198 32.634 139.712 36.767 70.008 93.636 108.109 134.869 127.745 1.36.647 2.83.971 4.299.971s2.939-.324 4.299-.971c41.232-19.634 98.1-57.734 134.868-127.746 28.102-53.512 33.257-105.512 32.632-139.716zm-171.801 247.314c-28.314-14.051-63.475-37.174-93.194-73.916l40.875-40.875c3.778-3.778 5.859-8.801 5.859-14.142v-31.437c13.422-4.252 23.178-16.823 23.178-31.633 0-18.293-14.882-33.176-33.175-33.176s-33.176 14.883-33.176 33.176c0 14.808 9.754 27.378 23.173 31.632l-.001 31.437-38.826 38.826c-5.725-8.321-11.155-17.232-16.174-26.789-26.135-49.763-30.927-98.188-30.344-130.044l.007-.366c.002-.062.002-.125.002-.187v-47.701c30.387-5.734 59.508-15.791 86.677-29.943 23.626-12.306 45.491-27.498 65.119-45.234 19.628 17.736 41.495 32.929 65.119 45.235 9.639 5.021 19.528 9.515 29.628 13.495l-42.429 42.429c-3.777 3.778-5.857 8.8-5.857 14.141v31.437c-13.422 4.252-23.178 16.823-23.178 31.633 0 18.293 14.883 33.176 33.176 33.176s33.175-14.883 33.175-33.176c0-14.808-9.753-27.379-23.173-31.632l.001-31.437 49.184-49.184c11.815 3.712 23.877 6.745 36.151 9.061v47.701c0 .062.001.125.002.187l.007.361c.582 31.861-4.21 80.287-30.344 130.048-32.953 62.746-83.399 98.009-121.462 116.897zm-56.458-178.826c-7.265 0-13.176-5.911-13.176-13.176s5.911-13.176 13.176-13.176 13.175 5.911 13.175 13.176-5.91 13.176-13.175 13.176zm112.916-26.352c7.265 0 13.175 5.911 13.175 13.176s-5.91 13.176-13.175 13.176c-7.266 0-13.176-5.911-13.176-13.176s5.91-13.176 13.176-13.176z"/><circle cx="395.66" cy="395.665" r="10"/></g></svg>