<svg id="Capa_1" enable-background="new 0 0 512 512" height="512" viewBox="0 0 512 512" width="512" xmlns="http://www.w3.org/2000/svg"><g><path d="m123.466 48.133h33.134c4.142 0 7.5-3.358 7.5-7.5s-3.358-7.5-7.5-7.5h-33.133c-4.142 0-7.5 3.358-7.5 7.5s3.357 7.5 7.499 7.5z"/><path d="m189.733 48.133c4.142 0 7.5-3.358 7.5-7.5s-3.358-7.5-7.5-7.5h-8.283c-4.142 0-7.5 3.358-7.5 7.5s3.358 7.5 7.5 7.5z"/><path d="m477.177 299.205-28.694-16.567c-3.587-2.073-8.174-.843-10.245 2.745-2.071 3.587-.842 8.174 2.745 10.245l28.694 16.567c1.181.682 2.471 1.006 3.743 1.006 2.592 0 5.113-1.345 6.502-3.751 2.071-3.587.842-8.174-2.745-10.245z"/><path d="m445.733 189.733c0-19.842-14.3-36.398-33.133-39.928v-84.605c0-8.547-6.953-15.5-15.5-15.5h-17.133c-8.547 0-15.5 6.953-15.5 15.5v3.931l-51.268 25.634v-54.132c0-22.405-18.228-40.633-40.634-40.633h-231.932c-22.405 0-40.633 18.228-40.633 40.633v430.733c0 22.406 18.228 40.634 40.633 40.634h133.733c4.142 0 7.5-3.358 7.5-7.5s-3.358-7.5-7.5-7.5h-133.733c-14.134 0-25.633-11.499-25.633-25.633v-430.734c0-14.134 11.499-25.633 25.633-25.633h231.932c14.134 0 25.633 11.499 25.633 25.633v61.632l-18.132 9.066v-54.132c0-13.27-10.796-24.066-24.067-24.066h-28.014c-6.018 0-11.427 3.343-14.117 8.725l-9.698 19.396c-1.546 3.092-4.654 5.012-8.11 5.012h-78.922c-3.457 0-6.564-1.92-8.11-5.012l-9.698-19.396c-2.69-5.382-8.1-8.725-14.117-8.725h-28.013c-13.27 0-24.066 10.796-24.066 24.066v32.002c0 4.142 3.358 7.5 7.5 7.5s7.5-3.358 7.5-7.5v-32.001c0-4.999 4.067-9.066 9.066-9.066h28.014c.299 0 .567.166.7.433l9.699 19.397c4.103 8.206 12.351 13.304 21.526 13.304h78.922c9.174 0 17.422-5.098 21.526-13.304l9.699-19.398c.133-.267.401-.432.7-.432h28.014c4.999 0 9.067 4.067 9.067 9.066v61.632l-27.404 13.702h-98.196c-10.546 0-19.49 6.983-22.455 16.567h-10.678c-12.958 0-23.5 10.542-23.5 23.5v34.267c0 12.958 10.542 23.5 23.5 23.5h10.678c2.965 9.584 11.91 16.566 22.455 16.566h9.633v83.9c0 8.547 6.953 15.5 15.5 15.5h17.133c8.547 0 15.5-6.953 15.5-15.5v-50.767h17.633c8.547 0 15.5-6.953 15.5-15.5v-17.634h7.296l27.404 13.702v194.165c0 4.999-4.067 9.066-9.066 9.066h-198.8c-4.999 0-9.066-4.067-9.066-9.066v-330.4c0-4.142-3.358-7.5-7.5-7.5s-7.5 3.358-7.5 7.5v330.4c0 13.27 10.796 24.066 24.066 24.066h198.801c13.27 0 24.066-10.796 24.066-24.066v-186.665l18.133 9.066.001 194.165c0 14.134-11.5 25.633-25.634 25.633h-63.485c-4.142 0-7.5 3.358-7.5 7.5s3.358 7.5 7.5 7.5h63.485c22.406 0 40.634-18.228 40.634-40.633l-.001-186.664 51.267 25.634v3.931c0 8.547 6.953 15.5 15.5 15.5h17.133c8.547 0 15.5-6.953 15.5-15.5v-84.605c18.833-3.531 33.133-20.086 33.133-39.929zm-329.767 25.634h-9.633c-4.687 0-8.5-3.813-8.5-8.5v-34.267c0-4.687 3.813-8.5 8.5-8.5h9.633zm66.267 115.466c0 .276-.224.5-.5.5h-17.133c-.276 0-.5-.224-.5-.5v-83.9h18.133v25.634zm33.134-66.266c0 .276-.224.5-.5.5h-17.633v-18.134h18.133zm16.566-32.634h-92.466c-4.687 0-8.5-3.813-8.5-8.5v-67.4c0-4.687 3.813-8.5 8.5-8.5h92.466zm15 2.865v-90.13l117.534-58.767v207.664zm150.667 79.469c0 .276-.224.5-.5.5h-17.133c-.276 0-.5-.224-.5-.5v-249.067c0-.276.224-.5.5-.5h17.133c.276 0 .5.224.5.5zm15-100.022v-49.023c10.486 3.215 18.133 12.986 18.133 24.511 0 11.526-7.647 21.297-18.133 24.512z"/><path d="m504.5 182.233h-33.133c-4.142 0-7.5 3.358-7.5 7.5s3.358 7.5 7.5 7.5h33.133c4.142 0 7.5-3.358 7.5-7.5s-3.358-7.5-7.5-7.5z"/><path d="m444.739 97.835c1.272 0 2.562-.324 3.743-1.006l28.694-16.567c3.587-2.071 4.816-6.658 2.745-10.245s-6.658-4.817-10.245-2.745l-28.694 16.567c-3.587 2.071-4.816 6.658-2.745 10.245 1.389 2.406 3.91 3.751 6.502 3.751z"/></g></svg>