<svg id="Capa_1" enable-background="new 0 0 511.996 511.996" height="512" viewBox="0 0 511.996 511.996" width="512" xmlns="http://www.w3.org/2000/svg"><g><path d="m441.868 103.258c-45.224-45.223-105.351-70.128-169.306-70.128-37.887 0-75.425 9.039-108.939 26.173l-54.675-54.677c-4.124-4.124-10.153-5.635-15.734-3.946-5.582 1.69-9.76 6.292-10.903 12.011l-6.121 30.607c-5.802-2.89-13.048-1.932-17.878 2.898l-12.116 12.115c-4.83 4.83-5.788 12.076-2.898 17.877l-30.607 6.122c-5.718 1.144-10.32 5.322-12.011 10.904-1.69 5.581-.178 11.61 3.946 15.734l2.301 2.301c2.929 2.929 7.678 2.929 10.606 0 2.929-2.929 2.929-7.678 0-10.606l-2.301-2.301c-.107-.108-.331-.332-.196-.781.136-.449.447-.511.596-.541l39.459-7.892 28.253 28.253-40.895 8.179-.055-.055c-2.929-2.929-7.678-2.929-10.606 0-2.929 2.929-2.929 7.678 0 10.606l27.513 27.513c-17.134 33.513-26.173 71.051-26.173 108.939 0 56.414 19.998 111.198 56.309 154.26 1.484 1.759 3.604 2.665 5.738 2.665 1.707 0 3.424-.58 4.831-1.766 3.167-2.67 3.569-7.402.899-10.569-34.033-40.361-52.776-91.71-52.776-144.59 0-34.323 7.923-68.327 22.944-98.917 6.27 3.743 13.439 5.726 20.768 5.726 2.658 0 5.339-.261 8.003-.794l3.499-.7c-16.174 28.824-24.655 61.221-24.655 94.685 0 106.903 86.972 193.875 193.874 193.875 106.903 0 193.875-86.972 193.875-193.875s-86.971-193.875-193.875-193.875c-33.463 0-65.861 8.481-94.684 24.656l.7-3.5c2.002-10.01.168-20.227-4.932-28.771 30.59-15.021 64.594-22.944 98.917-22.944 123.753 0 224.434 100.681 224.434 224.434s-100.682 224.433-224.435 224.433c-54.487 0-107.026-19.765-147.938-55.655-3.112-2.731-7.852-2.422-10.584.692-2.731 3.114-2.421 7.853.692 10.584 43.649 38.291 99.701 59.379 157.83 59.379 63.955 0 124.082-24.905 169.306-70.128 45.223-45.223 70.128-105.35 70.128-169.305s-24.905-124.082-70.128-169.305zm-283.487 21.088-28.253-28.253 8.179-40.895 18.553 18.553c6.074 6.074 8.694 14.729 7.01 23.153zm-61.361-108.713c.03-.149.092-.46.541-.596.45-.134.673.088.781.196l27.218 27.218-8.179 40.895-28.254-28.254zm-40.217 53.285 12.115-12.115c.098-.097.226-.146.354-.146s.256.049.354.146l47.021 47.021.021.021 162.707 162.707c3.315 3.314 3.315 8.707-.001 12.022l-.799.799c-1.606 1.606-3.741 2.49-6.012 2.49s-4.404-.884-6.01-2.49l-162.711-162.71c-.005-.005-.011-.01-.016-.016l-47.023-47.022c-.195-.195-.195-.512 0-.707zm128.104 150.024c-9.889 16.118-15.102 34.521-15.102 53.621 0 56.661 46.097 102.758 102.758 102.758s102.759-46.097 102.759-102.758c0-56.662-46.098-102.759-102.759-102.759-19.099 0-37.503 5.213-53.62 15.102l-22.096-22.096c22.279-15.445 48.283-23.565 75.716-23.565 73.511 0 133.316 59.806 133.316 133.317s-59.806 133.316-133.316 133.316-133.316-59.806-133.316-133.316c0-27.433 8.12-53.437 23.565-75.717zm105.075 37.004-24.915-24.915c2.452-.438 4.953-.668 7.496-.668 23.27 0 42.2 18.931 42.2 42.2s-18.931 42.2-42.2 42.2-42.2-18.931-42.2-42.2c0-2.543.23-5.044.668-7.497l24.914 24.915c4.439 4.438 10.34 6.883 16.617 6.883s12.179-2.444 16.619-6.885l.8-.8c9.163-9.162 9.163-24.071.001-33.233zm-74.619 16.617c0 31.54 25.66 57.2 57.2 57.2s57.2-25.66 57.2-57.2c0-31.541-25.66-57.2-57.2-57.2-6.804 0-13.396 1.184-19.673 3.491l-22.989-22.989c12.993-7.252 27.571-11.061 42.662-11.061 48.391 0 87.759 39.369 87.759 87.759s-39.368 87.758-87.759 87.758c-48.39 0-87.758-39.368-87.758-87.758 0-15.091 3.809-29.67 11.061-42.663l22.989 22.989c-2.308 6.278-3.492 12.87-3.492 19.674zm-118.46-108.694c-8.423 1.686-17.079-.936-23.153-7.01l-18.553-18.553 40.895-8.179 28.253 28.253zm175.659-70.181c98.632 0 178.875 80.243 178.875 178.875s-80.243 178.875-178.875 178.875-178.874-80.243-178.874-178.875c0-35.346 10.249-69.399 29.665-98.687l13.74-2.748 14.958 14.958c-18.212 25.28-27.805 55.035-27.805 86.476 0 81.782 66.535 148.316 148.316 148.316 81.782 0 148.316-66.535 148.316-148.316 0-81.782-66.534-148.317-148.316-148.317-31.442 0-61.196 9.593-86.476 27.805l-14.958-14.958 2.748-13.74c29.288-19.415 63.341-29.664 98.686-29.664z"/></g></svg>