<svg id="Capa_1" enable-background="new 0 0 512 512" height="512" viewBox="0 0 512 512" width="512" xmlns="http://www.w3.org/2000/svg"><g><path d="m366 356v-200c0-5.523-4.478-10-10-10h-200c-5.523 0-10 4.477-10 10v200c0 5.523 4.477 10 10 10h200c5.522 0 10-4.477 10-10zm-20-10h-180v-180h180z"/><path d="m386 106h-260c-11.028 0-20 8.972-20 20v260c0 11.028 8.972 20 20 20h90c5.523 0 10-4.477 10-10s-4.477-10-10-10h-90v-260h260v260h-90c-5.522 0-10 4.477-10 10s4.478 10 10 10h90c11.028 0 20-8.972 20-20v-260c0-11.028-8.972-20-20-20z"/><path d="m203.359 305.345c1.172.446 2.374.658 3.558.658 4.029 0 7.827-2.454 9.347-6.444l5.029-13.203h34.462l4.972 13.174c1.949 5.167 7.714 7.774 12.887 5.825 5.167-1.95 7.774-7.72 5.824-12.887l-29.767-78.876c-.034-.092-.07-.184-.108-.275-1.83-4.446-6.116-7.317-10.924-7.317h-.012c-4.812.005-9.1 2.886-10.922 7.339-.031.076-.062.152-.09.229l-30.04 78.873c-1.967 5.161.623 10.938 5.784 12.904zm35.243-64.436 9.604 25.448h-19.296z"/><path d="m305.081 306c5.522 0 10-4.477 10-10v-80c0-5.523-4.478-10-10-10s-10 4.477-10 10v80c0 5.523 4.478 10 10 10z"/><path d="m502 155.333c5.522 0 10-4.477 10-10s-4.478-10-10-10h-30v-35.333h30c5.522 0 10-4.477 10-10s-4.478-10-10-10h-30v-10c0-16.542-13.458-30-30-30h-10v-30c0-5.523-4.478-10-10-10s-10 4.477-10 10v30h-35.333v-30c0-5.523-4.477-10-10-10-5.522 0-10 4.477-10 10v30h-35.334v-30c0-5.523-4.478-10-10-10-5.523 0-10 4.477-10 10v30h-35.333v-30c0-5.523-4.478-10-10-10-5.523 0-10 4.477-10 10v30h-35.333v-30c0-5.523-4.478-10-10-10-5.523 0-10 4.477-10 10v30h-35.334v-30c0-5.523-4.477-10-10-10-5.522 0-10 4.477-10 10v30h-35.333v-30c0-5.523-4.478-10-10-10s-10 4.477-10 10v30h-10c-16.542 0-30 13.458-30 30v10h-30c-5.523 0-10 4.477-10 10s4.477 10 10 10h30v35.333h-30c-5.523 0-10 4.477-10 10s4.477 10 10 10h30v35.333h-30c-5.523 0-10 4.477-10 10s4.477 10 10 10h30v35.334h-30c-5.523 0-10 4.477-10 10s4.477 10 10 10h30v35.333h-30c-5.523 0-10 4.477-10 10s4.477 10 10 10h30v35.333h-30c-5.523 0-10 4.477-10 10s4.477 10 10 10h30v35.334h-30c-5.523 0-10 4.477-10 10s4.477 10 10 10h30v10c0 16.542 13.458 30 30 30h10v30c0 5.523 4.478 10 10 10s10-4.477 10-10v-30h35.333v30c0 5.523 4.478 10 10 10 5.523 0 10-4.477 10-10v-30h35.334v30c0 5.523 4.477 10 10 10 5.522 0 10-4.477 10-10v-30h35.333v30c0 5.523 4.477 10 10 10 5.522 0 10-4.477 10-10v-30h35.333v30c0 5.523 4.477 10 10 10 5.522 0 10-4.477 10-10v-30h35.334v30c0 5.523 4.478 10 10 10 5.523 0 10-4.477 10-10v-30h35.333v30c0 5.523 4.478 10 10 10s10-4.477 10-10v-30h10c16.542 0 30-13.458 30-30v-10h30c5.522 0 10-4.477 10-10s-4.478-10-10-10h-30v-35.333h30c5.522 0 10-4.477 10-10s-4.478-10-10-10h-30v-35.333h30c5.522 0 10-4.477 10-10s-4.478-10-10-10h-30v-35.334h30c5.522 0 10-4.477 10-10s-4.478-10-10-10h-30v-35.333h30c5.522 0 10-4.477 10-10s-4.478-10-10-10h-30v-35.333h30zm-50 286.667c0 5.514-4.486 10-10 10h-372c-5.514 0-10-4.486-10-10v-372c0-5.514 4.486-10 10-10h372c5.514 0 10 4.486 10 10z"/><circle cx="256" cy="395.999" r="10"/></g></svg>