<svg id="Capa_1" enable-background="new 0 0 512 512" height="512" viewBox="0 0 512 512" width="512" xmlns="http://www.w3.org/2000/svg"><g><path d="m511.999 40.633c0-22.405-18.228-40.633-40.633-40.633h-430.731c-22.405 0-40.633 18.228-40.633 40.633v42.581c0 4.142 3.357 7.5 7.5 7.5s7.5-3.358 7.5-7.5v-42.581c0-14.134 11.498-25.633 25.633-25.633h430.73c14.134 0 25.633 11.499 25.633 25.633v290.699h-18.131v-274.131c0-13.27-10.796-24.067-24.066-24.067h-397.601c-13.271 0-24.066 10.796-24.066 24.067v274.131h-18.132v-213.118c0-4.142-3.357-7.5-7.5-7.5s-7.5 3.358-7.5 7.5v253.753c0 22.405 18.229 40.633 40.634 40.633h149.882l.001 51.268h-42.483c-8.547 0-15.5 6.953-15.5 15.5v17.132c0 8.547 6.953 15.5 15.5 15.5h32.483c4.143 0 7.5-3.358 7.5-7.5s-3.357-7.5-7.5-7.5h-32.483c-.275 0-.5-.224-.5-.5v-17.132c0-.276.225-.5.5-.5h215.933c.275 0 .5.224.5.5v17.132c0 .276-.225.5-.5.5h-148.451c-4.143 0-7.5 3.358-7.5 7.5s3.357 7.5 7.5 7.5h148.449c8.547 0 15.5-6.953 15.5-15.5v-17.132c0-8.547-6.953-15.5-15.5-15.5h-42.483v-51.268h149.882c22.405 0 40.633-18.228 40.633-40.633zm-463.866 16.568c0-4.999 4.067-9.067 9.066-9.067h397.602c4.999 0 9.066 4.067 9.066 9.067v274.131h-415.734zm216.935 406.667h-18.134v-17.354c0-.432.352-.783.783-.783h16.567c.432 0 .783.352.783.783v17.354zm41.416 0h-26.416v-17.354c0-8.703-7.08-15.783-15.783-15.783h-16.567c-8.703 0-15.783 7.08-15.783 15.783v17.354h-26.416l-.001-51.268h100.967v51.268zm164.882-66.267h-157.363c-.007 0-.013-.001-.019-.001-.007 0-.013.001-.019.001h-115.929c-.007 0-.013-.001-.019-.001-.007 0-.013.001-.019.001h-157.363c-14.135 0-25.634-11.499-25.634-25.633v-25.635h481.997v25.635c.001 14.134-11.498 25.633-25.632 25.633z"/><path d="m272.567 364.466h-33.133c-4.143 0-7.5 3.358-7.5 7.5s3.357 7.5 7.5 7.5h33.133c4.143 0 7.5-3.358 7.5-7.5s-3.357-7.5-7.5-7.5z"/><path d="m405.1 66.267c-22.405 0-40.633 18.228-40.633 40.633 0 .367.018.729.028 1.093l-97.435 75.782c-3.519-.997-7.225-1.542-11.059-1.542-10.216 0-19.556 3.798-26.703 10.046l-85.23-18.94c-6.315-14.26-20.593-24.239-37.166-24.239-22.405 0-40.634 18.228-40.634 40.633s18.229 40.633 40.634 40.633c10.216 0 19.556-3.798 26.703-10.046l85.23 18.94c6.315 14.261 20.593 24.24 37.165 24.24 22.405 0 40.633-18.228 40.633-40.633 0-.367-.018-.729-.028-1.093l97.435-75.783c3.519.997 7.225 1.542 11.059 1.542 22.405 0 40.634-18.228 40.634-40.633s-18.228-40.633-40.633-40.633zm-323.833 123.466c0-14.134 11.499-25.633 25.634-25.633 14.134 0 25.633 11.499 25.633 25.633s-11.499 25.633-25.633 25.633c-14.135.001-25.634-11.498-25.634-25.633zm62.326 17.442c2.524-5.288 3.941-11.202 3.941-17.442 0-.087-.006-.173-.007-.26l71.781 15.951c-2.524 5.288-3.941 11.202-3.941 17.442 0 .087.006.173.007.26zm112.407 41.325c-14.134 0-25.633-11.499-25.633-25.633s11.499-25.633 25.633-25.633 25.633 11.499 25.633 25.633-11.499 25.633-25.633 25.633zm36.823-42.786c-2.605-5.57-6.432-10.456-11.141-14.308l86.596-67.352c2.605 5.57 6.432 10.456 11.141 14.308zm112.277-73.181c-14.134 0-25.633-11.499-25.633-25.633s11.499-25.633 25.633-25.633c14.135 0 25.634 11.499 25.634 25.633s-11.499 25.633-25.634 25.633z"/><path d="m123.467 281.633h-33.133c-4.143 0-7.5 3.358-7.5 7.5s3.357 7.5 7.5 7.5h33.134c4.143 0 7.5-3.358 7.5-7.5s-3.358-7.5-7.501-7.5z"/><path d="m189.734 281.633h-33.134c-4.143 0-7.5 3.358-7.5 7.5s3.357 7.5 7.5 7.5h33.134c4.143 0 7.5-3.358 7.5-7.5s-3.358-7.5-7.5-7.5z"/><path d="m430.234 265.067h-83.4c-8.547 0-15.5 6.953-15.5 15.5v17.132c0 8.547 6.953 15.5 15.5 15.5h83.4c8.547 0 15.5-6.953 15.5-15.5v-17.132c0-8.546-6.953-15.5-15.5-15.5zm.5 32.632c0 .276-.225.5-.5.5h-83.4c-.275 0-.5-.224-.5-.5v-17.132c0-.276.225-.5.5-.5h83.4c.275 0 .5.224.5.5z"/></g></svg>