<svg id="Capa_1" enable-background="new 0 0 512 512" height="512" viewBox="0 0 512 512" width="512" xmlns="http://www.w3.org/2000/svg"><g><path d="m492 411.991h-70v-147.062c8.574 3.283 18.599.299 23.853-7.677l10.997-16.702c2.938-4.462 3.964-9.801 2.886-15.034-1.077-5.232-4.128-9.732-8.589-12.67l-39.147-25.778v-78.778c0-11.028-8.972-20-20-20h-40c-11.028 0-20 8.972-20 20v26.1l-65.002-42.802c-6.68-4.398-15.314-4.398-21.998 0l-184.146 121.257c-4.461 2.938-7.512 7.438-8.589 12.67-1.078 5.233-.053 10.572 2.885 15.032l10.998 16.704c.001.001.001.001.001.001 3.84 5.83 10.227 8.994 16.734 8.994 2.396 0 4.81-.431 7.117-1.315v147.059h-70c-11.028 0-20 8.972-20 20v30c0 11.028 8.972 20 20 20h196c5.523 0 10-4.477 10-10s-4.477-10-10-10h-196v-30h472v30h-196c-5.522 0-10 4.477-10 10s4.478 10 10 10h196c11.028 0 20-8.972 20-20v-30c0-11.027-8.972-19.999-20-19.999zm-140-303.701h40v65.609l-40-26.339zm-269.141 137.973s-.003-.003-.008-.011l-10.998-16.703 184.147-121.256 184.146 121.257-10.998 16.703-167.648-110.392c-3.338-2.197-7.662-2.197-11 0zm27.141 6.06 146-96.137 146 96.137v159.668h-86v-110c0-11.028-8.972-20-20-20h-80c-11.028 0-20 8.972-20 20v110h-86zm106 114.668h10c5.523 0 10-4.477 10-10s-4.477-10-10-10h-10v-45h80v110h-80z"/><path d="m128.28 101.729c2.557 0 5.114-.975 7.066-2.924 3.908-3.902 3.912-10.234.01-14.142-9.438-9.45-21.994-14.654-35.356-14.654s-25.919 5.204-35.356 14.654c-3.902 3.908-3.899 10.24.01 14.142 3.908 3.903 10.24 3.898 14.143-.009 5.658-5.666 13.188-8.787 21.204-8.787s15.546 3.121 21.204 8.787c1.952 1.956 4.514 2.933 7.075 2.933z"/><path d="m50.501 70.511c13.221-13.221 30.8-20.502 49.499-20.502s36.278 7.281 49.499 20.501c1.953 1.953 4.512 2.929 7.071 2.929s5.118-.977 7.071-2.929c3.905-3.905 3.905-10.237 0-14.142-16.998-16.997-39.6-26.359-63.641-26.359s-46.643 9.361-63.642 26.359c-3.905 3.905-3.905 10.237 0 14.142 3.907 3.906 10.237 3.906 14.143.001z"/><circle cx="256" cy="471.99" r="10"/><circle cx="99.999" cy="120.007" r="10"/></g></svg>