<svg id="Capa_1" enable-background="new 0 0 512 512" height="512" viewBox="0 0 512 512" width="512" xmlns="http://www.w3.org/2000/svg"><g><path d="m222.867 321.481c4.142 0 7.5-3.358 7.5-7.5v-8.283c0-4.142-3.358-7.5-7.5-7.5s-7.5 3.358-7.5 7.5v8.283c0 4.142 3.358 7.5 7.5 7.5z"/><path d="m289.134 321.481c4.142 0 7.5-3.358 7.5-7.5v-8.283c0-4.142-3.358-7.5-7.5-7.5s-7.5 3.358-7.5 7.5v8.283c0 4.142 3.358 7.5 7.5 7.5z"/><path d="m256.001 362.9c8.551 0 16.533-4.607 20.831-12.022 2.077-3.584.856-8.173-2.727-10.25s-8.173-.856-10.25 2.728c-1.625 2.803-4.634 4.545-7.854 4.545s-6.229-1.742-7.854-4.545c-2.078-3.584-6.666-4.805-10.25-2.728-3.583 2.077-4.805 6.666-2.728 10.25 4.299 7.415 12.281 12.022 20.832 12.022z"/><path d="m438.233 147.533c40.675 0 73.767-33.092 73.767-73.767s-33.092-73.766-73.767-73.766c-10.38 0-20.421 2.116-29.842 6.288-3.788 1.677-5.498 6.107-3.821 9.895 1.678 3.788 6.108 5.5 9.894 3.821 7.497-3.32 15.494-5.003 23.769-5.003 32.404-.001 58.767 26.362 58.767 58.766 0 13.502-4.589 25.946-12.273 35.88-3.78-10.418-11.707-18.856-21.774-23.328 4.756-5.633 7.63-12.903 7.63-20.836 0-17.838-14.512-32.35-32.35-32.35s-32.35 14.512-32.35 32.35c0 7.932 2.875 15.203 7.63 20.836-10.067 4.472-17.994 12.91-21.774 23.328-7.684-9.934-12.273-22.378-12.273-35.88 0-12.285 3.75-24.05 10.843-34.022 2.401-3.375 1.611-8.058-1.764-10.459s-8.058-1.611-10.459 1.764c-8.911 12.526-13.621 27.297-13.621 42.717 0 11.57 2.685 22.523 7.453 32.279l-41.64 41.64c-22.825-9.748-47.932-15.152-74.28-15.152-25.9 0-51.096 5.205-74.332 15.1l-41.588-41.587c4.768-9.756 7.453-20.709 7.453-32.279.002-40.676-33.09-73.768-73.764-73.768s-73.767 33.092-73.767 73.767 33.092 73.767 73.767 73.767c11.57 0 22.523-2.685 32.279-7.453l32.872 32.872c-4.842 3.807-9.524 7.863-14.026 12.168-2.994 2.862-3.1 7.61-.237 10.604 2.862 2.994 7.61 3.1 10.603.237 32.659-31.229 75.54-48.428 120.743-48.428 96.348 0 174.733 78.385 174.733 174.733 0 50.358-21.422 95.8-55.621 127.717-6.395-1.77-13.002-2.681-19.711-2.681l-14.793.001-27.409-13.705.001-24.9c18.399-15.091 30.75-37.293 32.82-62.366h9.38c13.271 0 24.067-10.796 24.067-24.066v-33.134c0-10.652-6.959-19.704-16.567-22.864v-26.834c0-40.675-33.091-73.767-73.767-73.767l-66.267.001c-40.675 0-73.767 33.091-73.767 73.767v26.834c-9.607 3.16-16.566 12.212-16.566 22.864v33.134c0 13.27 10.796 24.066 24.066 24.066h9.381c2.07 25.072 14.42 47.272 32.818 62.364l.001 24.903-27.409 13.705-14.793-.001c-6.709 0-13.317.911-19.711 2.682-34.2-31.917-55.622-77.359-55.622-127.717 0-36.352 11.054-71.198 31.966-100.769 2.392-3.382 1.589-8.062-1.793-10.454-3.382-2.391-8.062-1.588-10.454 1.793-22.713 32.119-34.719 69.958-34.719 109.43.002 104.616 85.116 189.73 189.735 189.73s189.733-85.114 189.733-189.733c0-60.505-28.469-114.485-72.714-149.251l32.935-32.935c9.757 4.768 20.709 7.452 32.279 7.452zm-423.233-73.766c0-32.404 26.363-58.767 58.767-58.767s58.767 26.363 58.767 58.767c0 13.502-4.589 25.946-12.273 35.88-3.78-10.418-11.707-18.856-21.774-23.328 4.756-5.633 7.631-12.903 7.631-20.836 0-17.838-14.512-32.35-32.35-32.35s-32.35 14.512-32.35 32.35c0 7.932 2.875 15.203 7.631 20.836-10.067 4.472-17.994 12.91-21.774 23.328-7.686-9.934-12.275-22.378-12.275-35.88zm41.417-8.284c0-9.567 7.783-17.35 17.35-17.35s17.35 7.783 17.35 17.35-7.783 17.35-17.35 17.35-17.35-7.783-17.35-17.35zm-16.503 56.275c.883-13.34 12.01-23.924 25.57-23.924h16.566c13.56 0 24.687 10.585 25.57 23.924-9.578 6.777-21.254 10.775-33.853 10.775s-24.275-3.999-33.853-10.775zm79.171 10.149c4.781-3.735 9.088-8.042 12.822-12.822l35.402 35.402c-5.501 2.914-10.865 6.105-16.078 9.567zm236.316 330.395c1.586 0 3.164.066 4.733.191-5.002 3.724-10.213 7.18-15.605 10.362.705-3.474 1.203-6.994 1.494-10.553zm-24.202-2.934c-.468 7.901-2.161 15.577-5.039 22.91-8.428 3.71-17.198 6.781-26.256 9.133 8.293-9.927 13.295-22.694 13.295-36.611v-4.433zm33.268-137.103c0 4.999-4.067 9.066-9.067 9.066h-9.066v-51.267h9.028c.013 0 .026.002.039.002.007 0 .013-.001.019-.001 4.991.011 9.048 4.073 9.048 9.066v33.134zm-141.6-141.598 66.267-.001c32.404 0 58.767 26.363 58.767 58.767v25.631l-25.633.002c-13.812 0-25.1-10.982-25.609-24.671 1.784-5.528 2.758-11.415 2.758-17.529 0-4.142-3.358-7.5-7.5-7.5s-7.5 3.358-7.5 7.5c0 23.269-18.931 42.2-42.2 42.2l-78.116-.002v-25.631c-.001-32.403 26.362-58.766 58.766-58.766zm-75.333 141.598v-33.134c0-4.993 4.057-9.055 9.047-9.066.006 0 .013.001.019.001.013 0 .026-.002.039-.002h9.029l.001 51.267h-9.068c-4.999.001-9.067-4.067-9.067-9.066zm33.135 16.57-.001-58.768h61.548c17.896 0 33.893-8.267 44.389-21.176 6.906 12.607 20.301 21.176 35.661 21.176h9.067v58.768c0 41.538-33.794 75.332-75.332 75.332s-75.332-33.794-75.332-75.332zm75.332 90.332c15.234 0 29.595-3.796 42.198-10.483l-.001 36.117c0 23.268-18.93 42.198-42.198 42.198s-42.198-18.93-42.198-42.198l-.002-36.117c12.604 6.687 26.966 10.483 42.201 10.483zm-57.2 21.201v4.433c0 13.917 5.002 26.684 13.295 36.611-9.058-2.352-17.828-5.423-26.256-9.133-2.878-7.333-4.572-15.009-5.04-22.91zm-42.202 11.934h9.377c.291 3.559.789 7.079 1.494 10.553-5.392-3.182-10.603-6.638-15.605-10.362 1.569-.125 3.148-.191 4.734-.191zm281.634-414.169c9.567 0 17.35 7.783 17.35 17.35s-7.783 17.35-17.35 17.35-17.35-7.783-17.35-17.35 7.784-17.35 17.35-17.35zm-8.283 49.701h16.566c13.559 0 24.687 10.585 25.57 23.924-9.578 6.777-21.254 10.775-33.853 10.775s-24.275-3.999-33.853-10.775c.883-13.34 12.011-23.924 25.57-23.924zm-69.248 66.286c-5.185-3.445-10.549-6.639-16.074-9.571l35.465-35.465c3.735 4.781 8.042 9.088 12.822 12.822z"/></g></svg>