<svg id="Capa_1" enable-background="new 0 0 512 512" height="512" viewBox="0 0 512 512" width="512" xmlns="http://www.w3.org/2000/svg"><g><path d="m502 137.444h-100c-5.523 0-10 4.477-10 10s4.477 10 10 10h40v20c-11.026 0-19.997 8.97-20 19.996h-26c-.003-11.026-8.973-19.996-20-19.996h-240c-11.026 0-19.997 8.97-20 19.996h-26c-.003-11.026-8.973-19.996-20-19.996v-20h40c5.523 0 10-4.477 10-10s-4.477-10-10-10h-100c-5.523 0-10 4.477-10 10s4.477 10 10 10h40v20c-11.028 0-20 8.972-20 20v50c0 16.542 13.458 30 30 30 13.038 0 24.155-8.363 28.281-20.004h27.719v5.862c0 5.341 2.08 10.364 5.858 14.143l10 10-34.573 34.573c-3.778 3.777-5.859 8.8-5.859 14.143v28.395c0 5.523 4.477 10 10 10s10-4.477 10-10l.001-28.395 34.573-34.575 9.999 9.999c3.777 3.778 8.799 5.858 14.143 5.858h45.858c5.523 0 10-4.477 10-10s-4.477-10-10-10h-45.858l-34.142-34.141v-25.862h90v10.004c0 16.542 13.458 30 30 30s30-13.458 30-30v-10.004h90v25.862l-34.143 34.142h-45.857c-5.523 0-10 4.477-10 10s4.477 10 10 10h45.858c5.343 0 10.366-2.081 14.142-5.857l10-10.001 34.574 34.574v28.395c0 5.523 4.477 10 10 10s10-4.477 10-10v-28.395c0-5.343-2.081-10.366-5.858-14.142l-34.574-34.574 10.001-10.001c3.777-3.778 5.857-8.8 5.857-14.142v-5.862h27.719c4.127 11.641 15.243 20.004 28.281 20.004 16.542 0 30-13.458 30-30v-50c0-11.028-8.972-20-20-20v-20h40c5.523 0 10-4.477 10-10 0-5.522-4.477-9.999-10-9.999zm-432 110c0 5.514-4.486 10-10 10s-10-4.486-10-10v-50h20zm20-10.004v-20h26v20zm46-20v-19.996h90v19.996zm120 40.004c-5.514 0-10-4.486-10-10v-50h20v50c0 5.514-4.486 10-10 10zm30-40.004v-19.996h90v19.996zm110 0h26v20h-26zm66 30.004c0 5.514-4.486 10-10 10s-10-4.486-10-10v-50h20z"/><circle cx="256" cy="307.444" r="10"/></g></svg>