<svg id="Capa_1" enable-background="new 0 0 512 512" height="512" viewBox="0 0 512 512" width="512" xmlns="http://www.w3.org/2000/svg"><g><path d="m445.685 273.519c.248-4.224-1.168-8.289-3.988-11.444l-11.059-12.371c-5.75-6.434-15.703-7.034-22.186-1.339l-28.346 24.902-11.848-9.379c-.028-.022-.057-.044-.085-.066-6.553-5.036-15.694-4.232-21.267 1.864l-11.421 12.491c-2.921 3.195-4.377 7.335-4.102 11.656.276 4.321 2.249 8.242 5.55 11.037l35.624 30.198c.001.001.003.002.004.003 2.158 1.826 4.84 2.736 7.52 2.736 2.766 0 5.53-.969 7.714-2.901l52.59-46.491c3.171-2.802 5.053-6.672 5.3-10.896zm-15.235-.34-50.411 44.565-33.407-28.319c-.169-.143-.262-.328-.276-.548-.014-.221.055-.416.203-.578l11.421-12.491c.152-.167.364-.252.578-.252.16 0 .32.048.456.146l14.027 11.103c.028.022.057.044.085.065 4.396 3.38 10.612 3.175 14.777-.484l30.45-26.751c.322-.284.815-.254 1.102.066l11.059 12.371c.143.161.211.352.198.569-.013.214-.102.396-.262.538z"/><path d="m478.867 289.133c0-49.81-40.523-90.333-90.334-90.333-49.81 0-90.333 40.523-90.333 90.333s40.523 90.333 90.333 90.333c49.811.001 90.334-40.523 90.334-90.333zm-165.667 0c0-41.539 33.794-75.333 75.333-75.333s75.334 33.794 75.334 75.333-33.795 75.333-75.334 75.333-75.333-33.794-75.333-75.333z"/><path d="m488.5 99.4h-199.934c-12.958 0-23.5 10.542-23.5 23.5v109.033h-33.916c-.432 0-.783-.352-.783-.783v-153.242c0-13.27-10.797-24.066-24.067-24.066h-50.483v-30.342c0-12.958-10.542-23.5-23.5-23.5h-108.817c-12.958 0-23.5 10.542-23.5 23.5v108.817c0 12.958 10.542 23.5 23.5 23.5h108.816c12.958 0 23.5-10.542 23.5-23.5v-30.342h25.634c.432 0 .783.352.783.783v44.775c0 4.142 3.357 7.5 7.5 7.5s7.5-3.358 7.5-7.5v-44.775c0-8.703-7.08-15.783-15.783-15.783h-25.634v-18.133h50.484c5 0 9.067 4.067 9.067 9.066v153.242c0 8.703 7.08 15.783 15.783 15.783h33.916v18.134h-33.916c-8.703 0-15.783 7.081-15.783 15.783v153.242c0 4.999-4.067 9.066-9.067 9.066h-50.483v-18.133h25.634c8.703 0 15.783-7.081 15.783-15.783v-128.392c0-8.703-7.08-15.783-15.783-15.783h-25.634v-18.134h25.634c8.703 0 15.783-7.081 15.783-15.783v-48.767c0-4.142-3.357-7.5-7.5-7.5s-7.5 3.358-7.5 7.5v48.767c0 .432-.352.783-.783.783h-25.634v-30.341c0-12.958-10.542-23.5-23.5-23.5h-108.817c-12.958 0-23.5 10.542-23.5 23.5v108.816c0 12.958 10.542 23.5 23.5 23.5h108.816c12.958 0 23.5-10.542 23.5-23.5v-30.341h25.634c.432 0 .783.352.783.783v128.392c0 .432-.352.783-.783.783h-25.634v-30.342c0-12.958-10.542-23.5-23.5-23.5h-108.816c-12.958 0-23.5 10.542-23.5 23.5v108.817c0 12.958 10.542 23.5 23.5 23.5h108.816c12.958 0 23.5-10.542 23.5-23.5v-30.342h50.484c13.27 0 24.067-10.796 24.067-24.066v-153.242c0-.432.352-.783.783-.783h33.916v109.033c0 12.958 10.542 23.5 23.5 23.5h16.202c4.143 0 7.5-3.358 7.5-7.5s-3.357-7.5-7.5-7.5h-16.202c-4.686 0-8.5-3.813-8.5-8.5v-208.433h216.934v208.433c0 4.687-3.814 8.5-8.5 8.5h-148.731c-4.143 0-7.5 3.358-7.5 7.5s3.357 7.5 7.5 7.5h148.731c12.958 0 23.5-10.542 23.5-23.5v-266.2c0-12.958-10.542-23.5-23.5-23.5zm-347.684 32.917c0 4.687-3.814 8.5-8.5 8.5h-108.816c-4.687 0-8.5-3.813-8.5-8.5v-108.817c0-4.687 3.813-8.5 8.5-8.5h108.816c4.686 0 8.5 3.813 8.5 8.5zm0 159.721-46.392-29.522 12.535-12.535c.283-.284.733-.308 1.044-.059l32.813 26.25zm-117.316-98.946h108.816c4.686 0 8.5 3.813 8.5 8.5v55.37l-23.441-18.753c-6.288-5.03-15.323-4.53-21.021 1.164l-14.893 14.893-15.021-9.559c-5.848-3.723-13.588-3.146-18.846 1.418l-32.594 28.542v-73.075c0-4.687 3.813-8.5 8.5-8.5zm108.816 125.816h-108.816c-4.687 0-8.5-3.813-8.5-8.5v-15.802l42.452-37.176c.26-.226.644-.254.934-.069l19.99 12.721c.007.005.015.009.022.014l62.418 39.721v.591c0 4.687-3.813 8.5-8.5 8.5zm8.5 169.592c0 4.687-3.814 8.5-8.5 8.5h-108.816c-4.687 0-8.5-3.813-8.5-8.5v-108.817c0-4.687 3.813-8.5 8.5-8.5h108.816c4.686 0 8.5 3.813 8.5 8.5zm139.25-322.833v-42.767c0-4.687 3.814-8.5 8.5-8.5h199.934c4.686 0 8.5 3.813 8.5 8.5v42.767z"/><path d="m313.983 132.533h-8.283c-4.143 0-7.5 3.358-7.5 7.5s3.357 7.5 7.5 7.5h8.283c4.143 0 7.5-3.358 7.5-7.5s-3.357-7.5-7.5-7.5z"/><path d="m355.4 132.533h-8.283c-4.143 0-7.5 3.358-7.5 7.5s3.357 7.5 7.5 7.5h8.283c4.143 0 7.5-3.358 7.5-7.5s-3.357-7.5-7.5-7.5z"/><path d="m396.816 132.533h-8.283c-4.143 0-7.5 3.358-7.5 7.5s3.357 7.5 7.5 7.5h8.283c4.143 0 7.5-3.358 7.5-7.5s-3.357-7.5-7.5-7.5z"/><path d="m117.866 67.496-59.585-29.792c-3.634-1.818-7.868-1.629-11.326.508s-5.523 5.839-5.523 9.904v59.585c0 4.064 2.065 7.767 5.523 9.904 1.881 1.163 3.993 1.749 6.112 1.749 1.775 0 3.557-.411 5.213-1.24l59.586-29.793c3.97-1.985 6.436-5.975 6.435-10.413 0-4.439-2.466-8.428-6.435-10.412zm-61.433 34.771v-48.717l48.718 24.359z"/><path d="m115.184 393.458h-74.551c-4.143 0-7.5 3.358-7.5 7.5s3.357 7.5 7.5 7.5h74.551c4.143 0 7.5-3.358 7.5-7.5s-3.358-7.5-7.5-7.5z"/><path d="m115.184 426.592h-74.551c-4.143 0-7.5 3.358-7.5 7.5s3.357 7.5 7.5 7.5h74.551c4.143 0 7.5-3.358 7.5-7.5s-3.358-7.5-7.5-7.5z"/><path d="m98.617 459.725h-41.417c-4.143 0-7.5 3.358-7.5 7.5s3.357 7.5 7.5 7.5h41.417c4.143 0 7.5-3.358 7.5-7.5s-3.357-7.5-7.5-7.5z"/></g></svg>