<svg id="Capa_1" enable-background="new 0 0 512.001 512.001" height="512" viewBox="0 0 512.001 512.001" width="512" xmlns="http://www.w3.org/2000/svg"><g><path d="m392.947 85.854c-9.452-.229-18.897.632-28.087 2.557.005-.007.001-.018-.018-.036-18.154-21.218-41.787-36.734-68.344-44.871-5.281-1.618-10.873 1.352-12.491 6.632-1.618 5.281 1.352 10.873 6.632 12.491 22.92 7.022 43.324 20.421 59.006 38.75 4.773 5.578 12.142 8.117 19.229 6.626 7.713-1.622 15.647-2.348 23.592-2.156 55.613 1.337 100.261 47.717 99.526 103.387-.733 55.505-46.504 100.662-102.031 100.662h-292.277c-21.301 0-41.173-8.451-55.955-23.797-14.774-15.337-22.47-35.536-21.672-56.877 1.495-39.966 33.993-72.738 73.984-74.607 5.837-.274 11.705.115 17.443 1.154 9.809 1.777 19.237-3.725 22.425-13.077 13.055-38.293 43.928-68.224 82.584-80.066 5.281-1.618 8.25-7.21 6.632-12.491-1.617-5.28-7.209-8.249-12.491-6.632-44.724 13.701-80.453 48.306-95.603 92.583-7.214-1.305-14.589-1.79-21.924-1.449-50.289 2.351-91.156 43.569-93.037 93.837-1.003 26.821 8.676 52.213 27.254 71.5 18.586 19.295 43.574 29.921 70.359 29.921h68.317v20h-75c-11.028 0-20 8.972-20 20v11.72c-11.639 4.128-20 15.243-20 28.28 0 16.542 13.458 30 30 30s30-13.458 30-30c0-13.036-8.361-24.152-20-28.28v-11.72h75c11.028 0 20-8.972 20-20v-20h30v105h-26.72c-4.128-11.639-15.243-20-28.28-20-16.542 0-30 13.458-30 30s13.458 30 30 30c13.036 0 24.152-8.361 28.28-20h26.72c11.028 0 20-8.972 20-20v-105h40v105c0 11.028 8.972 20 20 20h26.72c4.128 11.639 15.243 20 28.28 20 16.542 0 30-13.458 30-30s-13.458-30-30-30c-13.036 0-24.152 8.361-28.28 20h-26.72v-105h30v20c0 11.028 8.972 20 20 20h75v11.72c-11.639 4.128-20 15.243-20 28.28 0 16.542 13.458 30 30 30s30-13.458 30-30c0-13.036-8.361-24.152-20-28.28v-11.72c0-11.028-8.972-20-20-20h-75v-20h43.96c32.312 0 62.767-12.503 85.754-35.207 22.966-22.683 35.849-52.938 36.275-85.191.88-66.577-52.522-122.044-119.042-123.643zm-311.946 334.043c-5.514 0-10-4.486-10-10s4.486-10 10-10 10 4.486 10 10-4.486 10-10 10zm80 35c-5.514 0-10-4.486-10-10s4.486-10 10-10 10 4.486 10 10-4.486 10-10 10zm190-20c5.514 0 10 4.486 10 10s-4.486 10-10 10-10-4.486-10-10 4.486-10 10-10zm80-15c-5.514 0-10-4.486-10-10s4.486-10 10-10 10 4.486 10 10-4.486 10-10 10z"/><circle cx="253.565" cy="47.105" r="10"/></g></svg>