<svg id="Capa_1" enable-background="new 0 0 512 512" height="512" viewBox="0 0 512 512" width="512" xmlns="http://www.w3.org/2000/svg"><g><path d="m416.5 447.6v-79.359c13.198-4.238 22.778-16.625 22.778-31.213 0-18.074-14.704-32.778-32.777-32.778-3.031 0-5.964.422-8.752 1.196l-40.497-61.759c10.093-5.593 16.943-16.353 16.943-28.687 0-14.587-9.58-26.974-22.777-31.212v-88.372c0-35.397-19.436-67.707-50.725-84.322-4.877-2.59-10.931-.736-13.522 4.142-2.59 4.878-.735 10.932 4.143 13.522 23.46 12.458 38.483 36.077 39.972 62.351h-32.274c-4.546-19.549-22.099-34.165-43.012-34.165s-38.465 14.616-43.01 34.166h-32.274c1.488-26.274 16.511-49.893 39.972-62.351 4.878-2.59 6.732-8.644 4.142-13.522-2.59-4.877-8.645-6.733-13.522-4.142-31.288 16.614-50.724 48.924-50.724 84.322v88.371c-13.197 4.238-22.778 16.625-22.778 31.212 0 12.333 6.85 23.094 16.943 28.687l-40.497 61.759c-2.788-.774-5.721-1.196-8.752-1.196-18.074 0-32.778 14.704-32.778 32.778 0 14.587 9.581 26.974 22.778 31.212v79.36c-19.551 4.545-34.168 22.097-34.168 43.011v1.389c0 11.028 8.972 20 20 20h48.333c11.028 0 20-8.972 20-20v-1.389c0-20.914-14.616-38.466-34.166-43.011v-79.36c13.197-4.238 22.777-16.625 22.777-31.212 0-7.8-2.743-14.969-7.31-20.603l32.515-49.586c9.658 38.219 42.433 67.332 82.518 71.526v109.235c-19.55 4.545-34.166 22.097-34.166 43.011v1.389c0 11.028 8.972 20 20 20h48.333c11.028 0 20-8.972 20-20v-1.389c0-20.914-14.616-38.466-34.167-43.011v-109.234c40.085-4.194 72.86-33.307 82.518-71.525l32.515 49.585c-4.566 5.634-7.31 12.803-7.31 20.603 0 14.587 9.58 26.973 22.777 31.212v79.36c-19.55 4.545-34.166 22.097-34.166 43.011v1.388c0 11.028 8.972 20 20 20h48.333c11.028 0 20-8.972 20-20v-1.389c.001-20.914-14.615-38.467-34.166-43.011zm-160.5-370.656c13.326 0 24.167 10.841 24.167 24.167s-10.841 24.167-24.167 24.167-24.166-10.841-24.166-24.167 10.841-24.167 24.166-24.167zm0 68.334c20.914 0 38.467-14.617 43.012-34.168h32.405v71.112h-150.833v-71.112h32.405c4.544 19.551 22.097 34.168 43.011 34.168zm-85.416 56.944h170.833c7.046 0 12.777 5.732 12.777 12.778s-5.731 12.778-12.777 12.778h-170.833c-7.046 0-12.778-5.732-12.778-12.778s5.732-12.778 12.778-12.778zm-40.918 288.389.013 1.388s-.004 0-.013 0h-48.333v-1.389c0-13.326 10.841-24.167 24.167-24.167s24.166 10.843 24.166 24.168zm-24.166-140.805c-7.046 0-12.778-5.732-12.778-12.778s5.732-12.778 12.778-12.778 12.778 5.732 12.778 12.778-5.732 12.778-12.778 12.778zm174.667 140.805.013 1.389s-.004 0-.013 0h-48.333v-1.389c0-13.326 10.841-24.167 24.166-24.167 13.326 0 24.167 10.842 24.167 24.167zm-24.167-171.722c-40.139 0-73.045-31.522-75.285-71.111h150.571c-2.24 39.588-35.147 71.111-75.286 71.111zm150.501 5.361c7.046 0 12.777 5.732 12.777 12.778s-5.731 12.778-12.777 12.778-12.778-5.732-12.778-12.778 5.732-12.778 12.778-12.778zm24.166 167.75h-48.333v-1.389c0-13.326 10.841-24.167 24.167-24.167 13.325 0 24.166 10.841 24.166 24.167l.013 1.389s-.004 0-.013 0z"/><circle cx="256" cy="10" r="10"/></g></svg>