<svg id="Capa_1" enable-background="new 0 0 512.014 512.014" height="512" viewBox="0 0 512.014 512.014" width="512" xmlns="http://www.w3.org/2000/svg"><g><path d="m471.37 149.089h-108.464v-108.456c0-22.405-18.229-40.633-40.633-40.633h-281.629c-22.405 0-40.633 18.228-40.633 40.633v69.872c0 4.142 3.358 7.5 7.5 7.5s7.5-3.358 7.5-7.5v-36.739c0-14.134 11.499-25.633 25.633-25.633h281.629c14.134 0 25.633 11.499 25.633 25.633v75.324h-158.164c-22.405 0-40.633 18.228-40.633 40.633v108.473h-21.491c-4.941 0-9.661 2.36-12.626 6.313l-32.305 43.073c-.151.201-.34.452-.874.273-.536-.178-.536-.491-.536-.743v-33.133c0-8.703-7.08-15.783-15.783-15.783h-24.85c-14.134 0-25.633-11.499-25.633-25.633v-127.059c0-4.142-3.358-7.5-7.5-7.5s-7.5 3.358-7.5 7.5v127.058c0 22.405 18.228 40.633 40.633 40.633h24.85c.432 0 .783.352.783.783v33.133c0 6.911 4.236 12.788 10.792 14.973 1.698.566 3.419.84 5.111.84 4.84-.001 9.434-2.247 12.506-6.344l32.304-43.072c.147-.196.382-.313.627-.313h21.491v108.457c0 22.405 18.228 40.633 40.633 40.633h37.439c4.142 0 7.5-3.358 7.5-7.5s-3.358-7.5-7.5-7.5h-37.439c-14.134 0-25.633-11.499-25.633-25.633v-198.797c0-14.134 11.499-25.633 25.633-25.633h281.629c14.134 0 25.633 11.499 25.633 25.633v198.797c0 14.134-11.499 25.633-25.633 25.633h-24.85c-8.703 0-15.783 7.081-15.783 15.783v33.133c0 .251 0 .564-.535.743-.535.175-.724-.072-.874-.273l-32.305-43.072c-2.965-3.953-7.685-6.314-12.626-6.314h-122.216c-4.142 0-7.5 3.358-7.5 7.5s3.358 7.5 7.5 7.5h122.216c.245 0 .479.117.626.314l32.305 43.072c3.072 4.097 7.665 6.344 12.506 6.344 1.692 0 3.414-.274 5.112-.84 6.556-2.185 10.792-8.062 10.792-14.973v-33.133c0-.432.352-.783.783-.783h24.85c22.405 0 40.633-18.228 40.633-40.633v-231.93c-.001-22.406-18.229-40.634-40.634-40.634zm-149.097-115.956h-281.629c-9.712 0-18.635 3.429-25.633 9.134v-1.634c0-14.134 11.499-25.633 25.633-25.633h281.629c14.134 0 25.633 11.499 25.633 25.633v1.634c-6.998-5.705-15.922-9.134-25.633-9.134zm149.097 149.089h-281.628c-9.712 0-18.635 3.429-25.633 9.134v-1.634c0-14.134 11.499-25.633 25.633-25.633h281.628c14.134 0 25.633 11.499 25.633 25.633v1.634c-6.998-5.705-15.921-9.134-25.633-9.134z"/><path d="m330.556 412.594c6.36 0 12.34-2.477 16.837-6.975l62.78-62.78c12.228-12.228 19.225-29.271 19.196-46.759-.028-17.325-6.666-33.445-18.69-45.392-21.386-21.248-54.161-24.939-79.705-8.975-.266.166-.57.166-.835 0-25.543-15.964-58.319-12.273-79.705 8.975-12.024 11.947-18.663 28.067-18.69 45.392-.029 17.488 6.968 34.531 19.196 46.759l62.78 62.78c4.496 4.498 10.476 6.975 16.836 6.975zm-83.813-116.489c.021-13.309 5.087-25.659 14.263-34.776 9.601-9.539 22.191-14.47 34.911-14.47 9.032 0 18.131 2.486 26.271 7.574 5.162 3.227 11.575 3.226 16.735 0 19.606-12.251 44.765-9.416 61.183 6.896 9.176 9.117 14.241 21.467 14.263 34.776.022 13.53-5.373 26.698-14.802 36.128l-62.781 62.78c-1.664 1.665-3.876 2.581-6.23 2.581s-4.566-.917-6.23-2.581l-62.78-62.78c-9.43-9.43-14.825-22.598-14.803-36.128z"/></g></svg>