<svg id="Capa_1" enable-background="new 0 0 512 512" height="512" viewBox="0 0 512 512" width="512" xmlns="http://www.w3.org/2000/svg"><g><path d="m487.933 0h-149.1c-13.27 0-24.066 10.796-24.066 24.067v15.63c0 4.142 3.358 7.5 7.5 7.5s7.5-3.358 7.5-7.5v-15.63c0-5 4.067-9.067 9.066-9.067h149.1c5 0 9.067 4.067 9.067 9.067v132.533c0 4.999-4.067 9.066-9.067 9.066h-78.4c-5.289 0-10.199 2.627-13.132 7.028l-16.934 25.4v-16.644c0-8.703-7.081-15.784-15.784-15.784h-24.85c-4.999 0-9.066-4.067-9.066-9.066v-81.902c0-4.142-3.358-7.5-7.5-7.5s-7.5 3.358-7.5 7.5v81.902c0 13.27 10.796 24.066 24.066 24.066h24.85c.432 0 .784.352.784.784v27.736c0 5.167 3.323 9.645 8.268 11.143 1.133.343 2.28.508 3.413.508 3.811 0 7.438-1.878 9.647-5.193l23.087-34.629c.146-.218.389-.349.652-.349h78.4c13.271 0 24.067-10.796 24.067-24.066v-132.533c-.001-13.27-10.797-24.067-24.068-24.067z"/><path d="m140.033 205.514c4.142 0 7.5-3.358 7.5-7.5v-8.283c0-4.142-3.358-7.5-7.5-7.5s-7.5 3.358-7.5 7.5v8.283c0 4.143 3.358 7.5 7.5 7.5z"/><path d="m206.299 205.514c4.142 0 7.5-3.358 7.5-7.5v-8.283c0-4.142-3.358-7.5-7.5-7.5s-7.5 3.358-7.5 7.5v8.283c0 4.143 3.358 7.5 7.5 7.5z"/><path d="m173.166 246.934c8.551 0 16.533-4.607 20.832-12.023 2.077-3.584.856-8.173-2.728-10.25-3.583-2.076-8.173-.855-10.25 2.728-1.625 2.803-4.634 4.545-7.854 4.545s-6.229-1.742-7.854-4.545c-2.078-3.583-6.665-4.805-10.25-2.728-3.583 2.077-4.805 6.666-2.727 10.25 4.298 7.416 12.281 12.023 20.831 12.023z"/><path d="m272.566 331.335-21.744.001-20.457-20.459v-18.147c18.399-15.091 30.75-37.293 32.82-62.366h9.38c13.27 0 24.067-10.796 24.067-24.066v-33.134c0-10.652-6.959-19.704-16.567-22.864v-26.834c0-40.675-33.091-73.767-73.767-73.767h-66.267c-40.675 0-73.767 33.091-73.767 73.767v26.834c-9.608 3.16-16.566 12.212-16.566 22.864v33.134c0 13.27 10.796 24.066 24.066 24.066h9.381c2.07 25.072 14.42 47.272 32.817 62.364v18.15l-20.456 20.458-21.744-.001c-40.673 0-73.763 33.09-73.763 73.763l.001 82.835c0 13.27 10.796 24.067 24.066 24.067h32.089c4.142 0 7.5-3.358 7.5-7.5s-3.358-7.5-7.5-7.5h-32.089c-4.999 0-9.066-4.067-9.066-9.067l.001-82.835c0-32.402 26.361-58.763 58.762-58.763l20.217.001 25.92 51.839c2.263 4.525 6.595 7.711 11.589 8.522.837.136 1.677.202 2.514.202 3.731 0 7.369-1.337 10.23-3.768l4.772 19.087-7.477 74.782h-50.261c-4.142 0-7.5 3.358-7.5 7.5s3.358 7.5 7.5 7.5h230.998c13.271 0 24.067-10.796 24.067-24.067l-.001-82.835c-.001-40.673-33.091-73.763-73.765-73.763zm-88.689 82.832h-21.422l-5.833-23.333 16.544-16.544 16.544 16.545zm-.105-50.483 39.094-39.091 15.724 15.724-25.577 51.15c-.044.089-.179.359-.575.423-.397.063-.609-.148-.679-.219zm97.86-157.385c0 4.999-4.067 9.066-9.067 9.066h-9.066v-51.267h9.027c.013 0 .026.002.039.002.007 0 .013-.001.019-.001 4.991.011 9.048 4.073 9.048 9.066zm-141.6-141.599h66.267c32.404 0 58.767 26.363 58.767 58.767v25.631l-25.633.002c-13.812 0-25.1-10.982-25.609-24.671 1.784-5.527 2.758-11.415 2.758-17.529 0-4.142-3.358-7.5-7.5-7.5s-7.5 3.358-7.5 7.5c0 23.269-18.931 42.2-42.2 42.2l-78.116-.002v-25.631c0-32.404 26.362-58.767 58.766-58.767zm-75.332 141.599v-33.134c0-4.993 4.057-9.055 9.047-9.066.006 0 .013.001.019.001.013 0 .026-.002.039-.002h9.029l.001 51.267h-9.068c-5 0-9.067-4.067-9.067-9.066zm33.134 16.569-.001-58.768h61.548c17.896 0 33.893-8.267 44.389-21.176 6.906 12.607 20.301 21.176 35.661 21.176h9.067l-.001 58.765v.003c0 41.539-33.794 75.332-75.333 75.332s-75.33-33.793-75.33-75.332zm75.332 90.332c15.234 0 29.596-3.796 42.199-10.483v8.163l-42.2 42.197-42.201-42.199v-8.162c12.604 6.688 26.967 10.484 42.202 10.484zm-39.273 78.69c-.396-.064-.531-.334-.575-.423l-25.576-51.15 15.725-15.725 39.093 39.092-27.988 27.987c-.071.07-.282.282-.679.219zm29.494 37.277h19.558l6.783 67.833h-33.125zm158.877 67.833h-117.461l-7.478-74.781 4.772-19.087c2.862 2.43 6.498 3.768 10.23 3.767.836 0 1.677-.066 2.514-.202 4.994-.811 9.327-3.996 11.589-8.522l25.921-51.839 20.217-.001c32.402 0 58.763 26.361 58.763 58.763l.001 82.835c-.001 4.999-4.068 9.067-9.068 9.067z"/><path d="m355.4 114.4h115.967c4.142 0 7.5-3.358 7.5-7.5s-3.358-7.5-7.5-7.5h-115.967c-4.142 0-7.5 3.358-7.5 7.5s3.358 7.5 7.5 7.5z"/><path d="m355.4 147.533h66.267c4.142 0 7.5-3.358 7.5-7.5s-3.358-7.5-7.5-7.5h-66.267c-4.142 0-7.5 3.358-7.5 7.5 0 4.143 3.358 7.5 7.5 7.5z"/><path d="m355.4 48.134h115.967c4.142 0 7.5-3.358 7.5-7.5s-3.358-7.5-7.5-7.5h-115.967c-4.142 0-7.5 3.358-7.5 7.5s3.358 7.5 7.5 7.5z"/><path d="m355.4 81.267h115.967c4.142 0 7.5-3.358 7.5-7.5s-3.358-7.5-7.5-7.5h-115.967c-4.142 0-7.5 3.358-7.5 7.5s3.358 7.5 7.5 7.5z"/></g></svg>