<svg id="Capa_1" enable-background="new 0 0 512 512" height="512" viewBox="0 0 512 512" width="512" xmlns="http://www.w3.org/2000/svg"><g><path d="m450.405 89.432c-39.288-45.813-93.551-76.378-152.791-86.065-5.453-.89-10.592 2.806-11.483 8.255-.891 5.451 2.805 10.591 8.255 11.483 114.506 18.724 197.614 116.67 197.614 232.895 0 130.131-105.869 236-236 236s-236-105.869-236-236c0-116.225 83.108-214.171 197.614-232.895 5.45-.892 9.145-6.032 8.255-11.483-.891-5.45-6.026-9.147-11.483-8.255-59.24 9.688-113.503 40.252-152.791 86.065-39.72 46.317-61.595 105.471-61.595 166.568 0 68.38 26.629 132.668 74.98 181.019 48.353 48.353 112.64 74.981 181.02 74.981s132.667-26.628 181.02-74.981c48.351-48.351 74.98-112.639 74.98-181.019 0-61.097-21.875-120.251-61.595-166.568z"/><path d="m256 216c-22.056 0-40 17.944-40 40s17.944 40 40 40 40-17.944 40-40-17.944-40-40-40zm0 60c-11.028 0-20-8.972-20-20s8.972-20 20-20 20 8.972 20 20-8.972 20-20 20z"/><path d="m414.87 233.308c30.42-35.07 40.167-64.57 28.189-85.312-4.781-8.273-12.618-14.278-23.338-17.923-2.732-13.755-14.863-24.123-29.421-24.123-14.057 0-25.849 9.667-29.105 22.715-11.542 1.936-23.857 4.875-36.702 8.727-2.548-10.741-5.454-20.896-8.711-30.321-15.161-43.879-35.833-67.071-59.782-67.071s-44.621 23.192-59.782 67.07c-3.257 9.425-6.163 19.58-8.711 30.321-12.845-3.852-25.161-6.792-36.703-8.727-3.255-13.048-15.048-22.714-29.105-22.714-14.558 0-26.689 10.368-29.421 24.123-10.72 3.645-18.556 9.651-23.338 17.926-11.978 20.739-2.23 50.238 28.189 85.309 6.531 7.529 13.867 15.12 21.891 22.692-8.023 7.573-15.36 15.163-21.891 22.692-30.42 35.07-40.167 64.57-28.188 85.311 4.781 8.272 12.617 14.278 23.336 17.923 2.731 13.757 14.862 24.126 29.421 24.126 14.058 0 25.851-9.668 29.105-22.717 11.542-1.935 23.857-4.875 36.703-8.727 2.548 10.741 5.454 20.896 8.711 30.321 15.162 43.879 35.834 67.071 59.783 67.071s44.621-23.192 59.782-67.07c3.257-9.426 6.164-19.582 8.712-30.325 12.846 3.851 25.156 6.782 36.698 8.717 3.25 13.056 15.046 22.731 29.108 22.731 14.559 0 26.691-10.369 29.421-24.126 10.719-3.645 18.555-9.651 23.337-17.926 11.978-20.739 2.23-50.238-28.19-85.309-6.531-7.529-13.867-15.12-21.89-22.692 8.025-7.573 15.361-15.163 21.892-22.692zm-24.57-107.358c5.52 0 10 4.47 10 10 0 5.52-4.48 10-10 10s-10-4.48-10-10c0-5.53 4.48-10 10-10zm-175.179-12.348c11.597-33.564 26.879-53.602 40.879-53.602s29.282 20.038 40.879 53.602c3.211 9.293 6.066 19.354 8.55 30.036-16.023 5.68-32.641 12.615-49.429 20.649-16.788-8.034-33.406-14.969-49.429-20.649 2.484-10.682 5.339-20.743 8.55-30.036zm102.058 142.398c0 11.771-.344 23.381-1.016 34.734-9.496 6.259-19.379 12.361-29.573 18.246-10.181 5.878-20.411 11.378-30.59 16.472-10.179-5.094-20.409-10.594-30.59-16.473-10.194-5.885-20.077-11.987-29.573-18.246-.673-11.353-1.016-22.963-1.016-34.734s.343-23.381 1.016-34.734c9.496-6.259 19.379-12.361 29.573-18.246 10.18-5.878 20.41-11.378 30.588-16.472 10.179 5.094 20.41 10.593 30.591 16.472 10.194 5.885 20.077 11.987 29.573 18.246.673 11.354 1.017 22.964 1.017 34.735zm19.66-20.41c9.209 6.706 17.934 13.532 26.097 20.41-8.163 6.879-16.889 13.704-26.097 20.41.225-6.744.34-13.553.34-20.41 0-6.858-.115-13.666-.34-20.41zm-22.744 80.213c-1.203 11.322-2.75 22.285-4.625 32.788-10.026-3.63-20.302-7.77-30.722-12.393 5.956-3.176 11.909-6.473 17.841-9.897 5.94-3.429 11.778-6.932 17.506-10.498zm-80.843 20.395c-10.419 4.623-20.696 8.763-30.722 12.393-1.874-10.503-3.422-21.467-4.625-32.789 5.728 3.566 11.567 7.07 17.505 10.498 5.932 3.425 11.885 6.722 17.842 9.898zm-58.091-59.788c-9.209-6.706-17.934-13.531-26.097-20.41 8.163-6.879 16.889-13.704 26.097-20.41-.225 6.744-.34 13.553-.34 20.41 0 6.858.115 13.666.34 20.41zm22.744-80.213c1.203-11.321 2.75-22.283 4.624-32.785 10.025 3.628 20.301 7.77 30.719 12.391-5.955 3.176-11.907 6.472-17.838 9.896-5.939 3.429-11.777 6.932-17.505 10.498zm98.685-10.497c-5.932-3.425-11.885-6.721-17.842-9.898 10.42-4.623 20.696-8.763 30.722-12.393 1.874 10.503 3.422 21.467 4.625 32.789-5.728-3.566-11.566-7.07-17.505-10.498zm-174.891-59.75c5.52 0 10 4.47 10 10 0 5.52-4.48 10-10 10s-10-4.48-10-10c0-5.53 4.48-10 10-10zm-9.461 94.253c-23.269-26.826-32.98-50.079-25.98-62.199 1.826-3.159 4.879-5.722 9.11-7.67 5.093 9.305 14.974 15.616 26.331 15.616 12.036 0 22.409-7.089 27.188-17.317 10.831 1.88 22.399 4.699 34.485 8.379-3.098 16.726-5.389 34.568-6.815 53.121-15.357 10.514-29.667 21.421-42.605 32.469-8-7.484-15.278-14.979-21.714-22.399zm9.461 165.85c-5.52 0-10-4.48-10-10 0-5.53 4.48-10 10-10s10 4.47 10 10c0 5.52-4.48 10-10 10zm27.19-22.678c-4.778-10.231-15.153-17.322-27.191-17.322-11.356 0-21.235 6.309-26.329 15.612-4.232-1.947-7.286-4.509-9.111-7.666-7.001-12.123 2.711-35.375 25.979-62.202 6.436-7.42 13.713-14.916 21.713-22.4 12.938 11.049 27.248 21.955 42.605 32.469 1.427 18.553 3.717 36.396 6.816 53.122-12.083 3.681-23.652 6.507-34.482 8.387zm147.99 35.023c-11.597 33.564-26.879 53.602-40.879 53.602s-29.282-20.038-40.879-53.602c-3.211-9.293-6.066-19.354-8.55-30.036 16.023-5.68 32.641-12.615 49.43-20.649 16.788 8.033 33.406 14.969 49.428 20.648-2.484 10.682-5.339 20.743-8.55 30.037zm93.422-12.345c-5.52 0-10-4.48-10-10 0-5.53 4.48-10 10-10s10 4.47 10 10c0 5.52-4.48 10-10 10zm9.461-94.256c23.269 26.826 32.98 50.079 25.98 62.199-1.826 3.159-4.879 5.723-9.111 7.67-5.094-9.304-14.974-15.614-26.33-15.614-12.038 0-22.412 7.091-27.19 17.322-10.829-1.88-22.399-4.706-34.483-8.387 3.099-16.726 5.389-34.569 6.815-53.122 15.357-10.514 29.667-21.421 42.605-32.469 8 7.486 15.278 14.981 21.714 22.401zm-21.714-49.194c-12.938-11.049-27.248-21.955-42.605-32.469-1.427-18.553-3.717-36.396-6.815-53.122 12.083-3.68 23.652-6.506 34.481-8.386 4.778 10.232 15.153 17.324 27.192 17.324 11.358 0 21.238-6.311 26.332-15.617 4.231 1.947 7.285 4.51 9.109 7.668 7.001 12.123-2.711 35.375-25.98 62.202-6.436 7.42-13.714 14.915-21.714 22.4z"/><circle cx="256" cy="10" r="10"/></g></svg>