<svg id="Capa_1" enable-background="new 0 0 512.018 512.018" height="512" viewBox="0 0 512.018 512.018" width="512" xmlns="http://www.w3.org/2000/svg"><g><path d="m500.559 316.374c-5.471-.783-10.533 3.021-11.311 8.489-13.801 96.856-77.413 167.155-151.255 167.155-12.371 0-24.681-1.976-36.586-5.872-29.699-9.72-61.098-9.72-90.797 0-11.904 3.897-24.214 5.872-36.586 5.872-84.898 0-153.968-92.298-153.968-205.748s69.07-205.748 153.968-205.748c26.614 0 52.87 9.277 75.928 26.828 3.578 2.724 8.535 2.724 12.113 0 23.058-17.551 49.314-26.828 75.928-26.828 73.842 0 137.454 70.299 151.255 167.156.779 5.468 5.843 9.272 11.311 8.489 5.467-.779 9.268-5.843 8.489-11.311-15.22-106.811-87.159-184.335-171.056-184.335-16.836 0-33.494 3.171-49.46 9.281 2.21-7.873 5.827-15.38 10.697-21.994 4.752-6.451 6.708-14.366 5.506-22.289-1.201-7.922-5.415-14.902-11.869-19.657-13.32-9.805-32.14-6.952-41.948 6.362-1.372 1.862-2.676 3.781-3.949 5.726-20.866-19.277-53.747-19.027-71.765-17.096-9.297.996-16.753 8.46-17.729 17.728-1.041 9.714-1.808 26.388 2.229 42.698-41.562 4.339-80.046 27.516-109.585 66.382-32.283 42.48-50.063 98.807-50.063 158.608s17.779 116.128 50.063 158.607c32.905 43.296 76.908 67.14 123.904 67.14 14.489 0 28.892-2.31 42.807-6.864 25.631-8.388 52.725-8.388 78.355 0 13.917 4.555 28.318 6.864 42.807 6.864 83.896 0 155.836-77.523 171.056-184.333.779-5.468-3.022-10.532-8.489-11.31zm-219.552-294.405c2.15 1.583 3.555 3.91 3.955 6.551.4 2.64-.251 5.277-1.836 7.429-7.621 10.352-12.879 22.397-15.399 34.942-.536-11.214-2.613-23.956-8.035-35.376 2.206-3.969 4.656-7.8 7.328-11.426 3.27-4.44 9.546-5.389 13.987-2.12zm-103.672-1.228c12.005-1.287 41.597-2.618 57.022 12.808 12.361 12.361 14.012 33.604 13.44 48.186-21.081-12.772-44.051-19.961-67.489-21.052-4.668-14.4-3.931-30.813-2.973-39.942z"/><path d="m306.009 226.27h-100c-5.523 0-10 4.477-10 10v100c0 5.523 4.477 10 10 10h100c5.522 0 10-4.477 10-10v-100c0-5.523-4.478-10-10-10zm-10 100h-80v-80h80z"/><path d="m376.009 236.27c5.522 0 10-4.477 10-10s-4.478-10-10-10h-14.667v-15.333c0-11.028-8.972-20-20-20h-15.333v-14.667c0-5.523-4.478-10-10-10s-10 4.477-10 10v14.667h-20v-14.667c0-5.523-4.478-10-10-10s-10 4.477-10 10v14.667h-20v-14.667c0-5.523-4.478-10-10-10-5.523 0-10 4.477-10 10v14.667h-20v-14.667c0-5.523-4.478-10-10-10-5.523 0-10 4.477-10 10v14.667h-15.333c-11.028 0-20 8.972-20 20v15.333h-14.667c-5.523 0-10 4.477-10 10s4.478 10 10 10h14.667v20h-14.667c-5.523 0-10 4.477-10 10s4.478 10 10 10h14.667v20h-14.667c-5.523 0-10 4.477-10 10s4.478 10 10 10h14.667v20h-14.667c-5.523 0-10 4.477-10 10s4.478 10 10 10h14.667v15.333c0 11.028 8.972 20 20 20h15.333v14.667c0 5.523 4.477 10 10 10 5.522 0 10-4.477 10-10v-14.667h20v14.667c0 5.523 4.477 10 10 10 5.522 0 10-4.477 10-10v-14.667h20v14.667c0 5.523 4.478 10 10 10s10-4.477 10-10v-14.667h20v14.667c0 5.523 4.478 10 10 10s10-4.477 10-10v-14.667h15.333c11.028 0 20-8.972 20-20v-15.333h14.667c5.522 0 10-4.477 10-10s-4.478-10-10-10h-14.667v-20h14.667c5.522 0 10-4.477 10-10s-4.478-10-10-10h-14.667v-20h14.667c5.522 0 10-4.477 10-10s-4.478-10-10-10h-14.667v-20zm-34.667 135.333h-170.666v-170.667h170.666l.013 170.666c-.001.001-.005.001-.013.001z"/><circle cx="501.961" cy="286.27" r="10"/></g></svg>