<svg id="Capa_1" enable-background="new 0 0 512 512" height="512" viewBox="0 0 512 512" width="512" xmlns="http://www.w3.org/2000/svg"><g><path d="m256 81.267c13.27 0 24.066-10.796 24.066-24.066v-33.134c0-13.271-10.796-24.067-24.066-24.067-13.271 0-24.067 10.796-24.067 24.067v33.133c0 13.27 10.796 24.067 24.067 24.067zm-9.067-57.2c0-5 4.067-9.067 9.067-9.067 4.999 0 9.066 4.067 9.066 9.067v33.133c0 4.999-4.067 9.066-9.066 9.066-5 0-9.067-4.067-9.067-9.066z"/><path d="m256 430.733c-13.271 0-24.067 10.796-24.067 24.066v33.133c0 13.272 10.796 24.068 24.067 24.068 13.27 0 24.066-10.796 24.066-24.067v-33.133c0-13.27-10.796-24.067-24.066-24.067zm9.066 57.2c0 4.999-4.067 9.067-9.066 9.067-5 0-9.067-4.067-9.067-9.067v-33.133c0-4.999 4.067-9.066 9.067-9.066 4.999 0 9.066 4.067 9.066 9.066z"/><path d="m487.934 231.933h-33.134c-13.271 0-24.066 10.796-24.066 24.067s10.796 24.067 24.066 24.067h33.134c13.27 0 24.066-10.796 24.066-24.067 0-13.27-10.796-24.067-24.066-24.067zm0 33.134h-33.134c-4.999 0-9.066-4.067-9.066-9.067 0-4.999 4.067-9.067 9.066-9.067h33.134c4.999 0 9.066 4.067 9.066 9.067s-4.067 9.067-9.066 9.067z"/><path d="m81.267 256c0-13.27-10.796-24.067-24.066-24.067h-33.134c-13.271 0-24.067 10.797-24.067 24.067 0 13.271 10.796 24.067 24.067 24.067h33.133c13.27 0 24.067-10.796 24.067-24.067zm-24.067 9.067h-33.133c-5 0-9.067-4.067-9.067-9.067 0-4.999 4.067-9.067 9.067-9.067h33.133c4.999 0 9.066 4.067 9.066 9.067.001 5-4.067 9.067-9.066 9.067z"/><path d="m413.591 379.555c-9.386-9.384-24.652-9.382-34.036 0-9.383 9.383-9.383 24.652 0 34.035l23.429 23.429c4.692 4.692 10.855 7.038 17.018 7.038s12.326-2.346 17.018-7.038c9.383-9.383 9.383-24.652 0-34.035zm12.821 46.858c-3.535 3.534-9.286 3.536-12.821 0l-23.429-23.429c-3.535-3.535-3.535-9.287 0-12.822 1.768-1.768 4.089-2.651 6.411-2.651 2.321 0 4.643.884 6.41 2.651l23.429 23.429c3.535 3.534 3.535 9.286 0 12.822z"/><path d="m98.41 132.445c4.692 4.692 10.854 7.038 17.017 7.038s12.326-2.346 17.018-7.038c9.384-9.383 9.384-24.652 0-34.035l-23.429-23.429c-9.384-9.384-24.651-9.384-34.035 0-9.384 9.383-9.384 24.652 0 34.035zm-12.823-46.858c1.768-1.768 4.089-2.651 6.411-2.651s4.644.884 6.411 2.651l23.429 23.429c3.535 3.535 3.535 9.287 0 12.822s-9.287 3.535-12.822 0l-23.429-23.428c-3.535-3.536-3.535-9.287 0-12.823z"/><path d="m98.41 379.555-23.429 23.429c-9.384 9.383-9.384 24.652 0 34.035 4.692 4.692 10.854 7.038 17.017 7.038s12.326-2.346 17.018-7.038l23.429-23.429c9.384-9.383 9.384-24.652 0-34.035-9.384-9.384-24.652-9.384-34.035 0zm23.428 23.429-23.428 23.429c-3.535 3.535-9.287 3.535-12.822 0s-3.535-9.287 0-12.822l23.429-23.429c1.768-1.768 4.089-2.651 6.411-2.651s4.644.884 6.411 2.651c3.534 3.535 3.534 9.287-.001 12.822z"/><path d="m396.573 139.482c6.162 0 12.325-2.346 17.018-7.038l23.429-23.429c9.383-9.383 9.383-24.652 0-34.035-9.384-9.383-24.65-9.384-34.036 0l-23.429 23.43c-9.383 9.383-9.383 24.652 0 34.035 4.692 4.692 10.855 7.037 17.018 7.037zm-6.411-30.466 23.429-23.429c1.768-1.768 4.089-2.651 6.41-2.651 2.322 0 4.643.884 6.411 2.651 3.535 3.535 3.535 9.287 0 12.822l-23.429 23.429c-3.535 3.537-9.286 3.535-12.821 0s-3.535-9.287 0-12.822z"/><path d="m212.37 243.429.913-.132c4.099-.594 6.94-4.399 6.346-8.499-.594-4.099-4.4-6.939-8.498-6.346l-.915.133c-6.788.986-12.321 5.651-14.44 12.174s-.385 13.55 4.527 18.337l14.872 14.497-3.511 20.469c-1.16 6.76 1.567 13.464 7.116 17.496s12.767 4.553 18.839 1.362l18.381-9.665 18.383 9.664c2.641 1.388 5.498 2.074 8.341 2.074 3.693 0 7.363-1.158 10.498-3.436 5.549-4.032 8.275-10.736 7.115-17.496l-3.511-20.469 14.873-14.498c4.911-4.788 6.646-11.814 4.526-18.337s-7.653-11.188-14.441-12.174l-20.553-2.986-9.19-18.624c-3.035-6.15-9.182-9.972-16.041-9.972s-13.005 3.821-16.041 9.972l-3.49 7.071c-1.833 3.715-.308 8.212 3.406 10.045 3.715 1.833 8.212.307 10.045-3.406l3.49-7.071c.691-1.401 1.919-1.61 2.59-1.61.67 0 1.898.21 2.59 1.61l9.729 19.712c1.85 3.746 5.422 6.341 9.558 6.942l21.752 3.161c1.546.225 2.124 1.328 2.331 1.966.208.638.389 1.871-.731 2.961l-15.739 15.342c-2.993 2.917-4.358 7.118-3.651 11.237l3.716 21.665c.264 1.54-.606 2.431-1.149 2.825-.542.395-1.659.946-3.041.22l-19.455-10.228c-3.698-1.946-8.117-1.946-11.815-.001l-19.456 10.229c-1.384.727-2.499.175-3.042-.22-.542-.394-1.413-1.285-1.149-2.825l3.716-21.664c.707-4.119-.658-8.319-3.651-11.236l-15.74-15.343c-1.119-1.09-.938-2.323-.731-2.961.206-.638.784-1.741 2.328-1.965z"/><path d="m391.619 334.3c4.61-7.985 4.69-17.565.216-25.627l-9.791-17.639c-.462-.831-.185-1.865.63-2.354l17.299-10.379c7.906-4.744 12.627-13.081 12.627-22.301s-4.721-17.557-12.627-22.301l-17.298-10.379c-.815-.489-1.093-1.523-.631-2.355l9.791-17.638c4.475-8.062 4.395-17.642-.216-25.627-4.61-7.985-12.866-12.844-22.085-13l-20.171-.339c-.95-.016-1.708-.773-1.724-1.724l-.34-20.171c-.154-9.219-5.014-17.475-12.999-22.085-7.986-4.611-17.565-4.689-25.628-.216l-17.639 9.792c-.83.462-1.865.184-2.354-.631l-10.379-17.299c-4.744-7.906-13.081-12.626-22.302-12.626-9.22 0-17.557 4.72-22.3 12.626l-10.379 17.299c-.489.816-1.523 1.093-2.355.631l-17.639-9.791c-8.062-4.476-17.641-4.395-25.626.215s-12.845 12.866-13 22.085l-.062 3.715c-.07 4.141 3.231 7.555 7.373 7.625 4.097.046 7.555-3.231 7.625-7.373l.062-3.715c.066-3.96 2.072-7.367 5.502-9.347s7.383-2.014 10.846-.091l17.638 9.791c7.941 4.409 17.824 1.761 22.498-6.028l10.379-17.299c2.038-3.396 5.478-5.344 9.439-5.344s7.401 1.948 9.438 5.344l10.38 17.299c4.674 7.79 14.556 10.436 22.497 6.028l17.638-9.792c3.467-1.923 7.419-1.889 10.848.091 3.43 1.98 5.435 5.387 5.501 9.347l.34 20.171c.153 9.082 7.387 16.316 16.47 16.469l20.171.339c3.96.066 7.366 2.072 9.347 5.502 1.98 3.43 2.014 7.384.091 10.847l-9.791 17.638c-4.408 7.942-1.761 17.824 6.028 22.498l17.299 10.379c3.396 2.038 5.344 5.478 5.344 9.439 0 3.96-1.948 7.401-5.344 9.439l-17.3 10.379c-7.788 4.674-10.436 14.556-6.027 22.497l9.791 17.638c1.923 3.463 1.89 7.416-.091 10.847-1.98 3.43-5.387 5.435-9.347 5.501l-20.171.339c-9.083.153-16.316 7.387-16.47 16.469l-.34 20.172c-.066 3.96-2.071 7.367-5.501 9.347-3.432 1.981-7.385 2.014-10.847.092l-17.639-9.793c-7.938-4.407-17.823-1.761-22.498 6.029l-10.379 17.299c-2.037 3.396-5.478 5.344-9.438 5.344s-7.401-1.948-9.439-5.344l-10.379-17.3c-4.674-7.789-14.557-10.436-22.498-6.027l-17.639 9.792c-3.463 1.922-7.416 1.889-10.846-.091s-5.436-5.387-5.502-9.347l-.339-20.172c-.153-9.082-7.387-16.316-16.47-16.469l-20.171-.339c-3.96-.066-7.367-2.072-9.347-5.502s-2.014-7.383-.091-10.846l9.792-17.639c4.408-7.941 1.76-17.823-6.028-22.497l-17.3-10.379c-3.396-2.038-5.344-5.478-5.344-9.439 0-3.96 1.948-7.401 5.344-9.439l17.3-10.379c7.788-4.674 10.436-14.556 6.027-22.497l-9.792-17.639c-1.922-3.463-1.889-7.416.091-10.846s5.387-5.436 9.348-5.502l5.841-.099c4.142-.07 7.442-3.484 7.372-7.625s-3.449-7.405-7.626-7.373l-5.841.099c-9.219.155-17.475 5.015-22.085 13s-4.691 17.564-.215 25.626l9.791 17.639c.462.831.185 1.866-.631 2.355l-17.299 10.379c-7.903 4.745-12.623 13.082-12.623 22.302s4.72 17.557 12.627 22.301l17.299 10.379c.815.489 1.092 1.524.631 2.355l-9.792 17.639c-4.476 8.062-4.395 17.641.215 25.626s12.866 12.845 22.085 13l20.171.339c.951.016 1.708.773 1.724 1.724l.339 20.171c.155 9.219 5.015 17.475 13 22.085 7.984 4.611 17.564 4.691 25.626.215l17.639-9.792c.829-.463 1.865-.185 2.355.631l10.379 17.299c4.744 7.907 13.08 12.627 22.3 12.627h.001c9.22 0 17.558-4.721 22.302-12.627l10.378-17.299c.49-.815 1.524-1.093 2.355-.631l17.638 9.792c8.061 4.474 17.641 4.395 25.628-.216 7.985-4.61 12.845-12.866 12.999-22.084l.34-20.171c.016-.951.773-1.708 1.724-1.724l20.171-.339c9.219-.155 17.475-5.015 22.085-13z"/></g></svg>