<svg id="Capa_1" enable-background="new 0 0 512 512" height="512" viewBox="0 0 512 512" width="512" xmlns="http://www.w3.org/2000/svg"><g><path d="m448.917 104.145-49.497-49.497c-3.777-3.778-8.8-5.858-14.142-5.858s-10.365 2.081-14.143 5.858l-21.21 21.21-10.001-10.001c-3.778-3.777-8.8-5.857-14.142-5.857h-65.858v-40c0-11.028-8.972-20-20-20h-162.689c-11.028 0-20 8.972-20 20v472c0 11.028 8.972 20 20 20h138.77c5.523 0 10-4.477 10-10s-4.477-10-10-10h-138.77v-472h162.69v50c0 5.523 4.477 10 10 10l75.858-.001 97.782 97.783v314.218h-127.56c-5.523 0-10 4.477-10 10s4.477 10 10 10h127.56c11.028 0 20-8.972 20-20v-314.218c0-5.342-2.081-10.365-5.858-14.142l-10-10 21.21-21.211c7.797-7.798 7.797-20.486 0-28.284zm-35.353 35.353-49.496-49.498 21.21-21.21 49.497 49.497z"/><path d="m219.925 90v-40c0-5.523-4.477-10-10-10h-102.69c-5.523 0-10 4.477-10 10v40c0 5.523 4.477 10 10 10h102.69c5.523 0 10-4.477 10-10zm-20-10h-82.69v-20h82.69z"/><path d="m155.4 433.835h190c11.028 0 20-8.972 20-20v-220c0-11.028-8.972-20-20-20h-190c-11.028 0-20 8.972-20 20v220c0 11.028 8.972 20 20 20zm0-240h190v220h-190l-.013-220z"/><path d="m196.49 367.745c2.559 0 5.119-.977 7.071-2.929l7.443-7.443c1.242.041 2.691.07 4.323.07 16.414 0 51.024-2.919 73.55-25.444 12.482-12.482 20.77-30.822 23.968-53.037.984-6.834 1.477-13.85 1.464-20.851-.018-10.095-.591-11.088-1.633-12.892-1.62-2.805-4.498-4.652-7.723-4.956-2.151-.203-53.003-4.618-82.718 25.096-24.768 24.768-25.83 64.138-25.374 77.872l-7.444 7.444c-3.905 3.905-3.905 10.237 0 14.143 1.954 1.951 4.514 2.927 7.073 2.927zm39.888-88.245c16.686-16.686 43.969-19.36 57.907-19.551-.191 13.942-2.866 41.223-19.551 57.908-11.747 11.744-28.742 16.543-42.638 18.424l28.874-28.874c3.905-3.905 3.905-10.237 0-14.143-3.905-3.905-10.237-3.905-14.143 0l-28.874 28.874c1.881-13.897 6.679-30.892 18.425-42.638z"/><circle cx="256.005" cy="501.999" r="10"/></g></svg>