<svg id="Capa_1" enable-background="new 0 0 512 512" height="512" viewBox="0 0 512 512" width="512" xmlns="http://www.w3.org/2000/svg"><g><path d="m222.867 205.514c4.143 0 7.5-3.358 7.5-7.5v-8.283c0-4.142-3.357-7.5-7.5-7.5s-7.5 3.358-7.5 7.5v8.283c0 4.143 3.358 7.5 7.5 7.5z"/><path d="m289.134 205.514c4.143 0 7.5-3.358 7.5-7.5v-8.283c0-4.142-3.357-7.5-7.5-7.5s-7.5 3.358-7.5 7.5v8.283c0 4.143 3.357 7.5 7.5 7.5z"/><path d="m256.001 246.934c8.551 0 16.533-4.607 20.832-12.023 2.077-3.584.855-8.173-2.729-10.25-3.583-2.077-8.172-.856-10.25 2.728-1.624 2.803-4.634 4.545-7.853 4.545-3.22 0-6.23-1.742-7.854-4.545-2.078-3.583-6.666-4.804-10.25-2.728-3.584 2.077-4.806 6.666-2.729 10.25 4.3 7.416 12.282 12.023 20.833 12.023z"/><path d="m355.401 331.336h-21.745l-20.458-20.459v-18.146c18.399-15.091 30.75-37.293 32.82-62.366h9.38c13.27 0 24.067-10.796 24.067-24.066v-33.134c0-10.652-6.958-19.704-16.566-22.864v-26.834c0-40.675-33.092-73.767-73.768-73.767h-66.266c-40.676 0-73.768 33.092-73.768 73.767v26.834c-9.607 3.16-16.565 12.212-16.565 22.864v33.134c0 13.27 10.796 24.066 24.066 24.066h9.382c2.07 25.072 14.42 47.272 32.817 62.364v18.149l-20.457 20.458h-21.744c-40.673 0-73.763 33.09-73.763 73.763l-.001 82.833c-.001 6.429 2.503 12.473 7.049 17.019 4.545 4.546 10.589 7.049 17.018 7.049h15.633c4.143 0 7.5-3.358 7.5-7.5s-3.357-7.5-7.5-7.5h-15.633c-2.422 0-4.699-.943-6.411-2.656-1.713-1.712-2.655-3.989-2.655-6.411l.001-82.835c0-32.402 26.36-58.763 58.763-58.763h20.217l25.92 51.84c2.264 4.525 6.596 7.71 11.59 8.521.837.136 1.677.202 2.513.202 3.731 0 7.369-1.337 10.231-3.767l4.772 19.088-7.477 74.781h-66.829c-4.143 0-7.5 3.358-7.5 7.5s3.357 7.5 7.5 7.5h247.564c6.429 0 12.473-2.503 17.018-7.049 4.546-4.546 7.05-10.59 7.049-17.018l-.001-82.835c0-40.672-33.09-73.762-73.763-73.762zm-88.691 82.831h-21.42l-5.833-23.333 16.543-16.543 16.543 16.543zm-.103-50.483 39.094-39.091 15.723 15.724-25.575 51.149c-.044.089-.18.36-.576.424-.394.064-.609-.149-.679-.219zm97.86-157.385c0 4.999-4.067 9.066-9.067 9.066h-9.066l.001-51.267h9.028c.013 0 .026.002.039.002.006 0 .012-.001.019-.001 4.991.011 9.048 4.073 9.048 9.066v33.134zm-141.6-141.599h66.266c32.404 0 58.768 26.363 58.768 58.767v25.631l-25.634.002c-13.812 0-25.1-10.981-25.609-24.67 1.785-5.528 2.759-11.416 2.759-17.53 0-4.142-3.357-7.5-7.5-7.5s-7.5 3.358-7.5 7.5c0 23.269-18.931 42.2-42.2 42.2l-78.116-.002v-25.631c-.001-32.404 26.362-58.767 58.766-58.767zm-75.333 141.599v-33.134c0-4.993 4.057-9.055 9.047-9.066.006 0 .013.001.019.001.013 0 .026-.002.039-.002h9.03l.001 51.267h-9.068c-5 0-9.068-4.067-9.068-9.066zm33.135 16.569-.001-58.768h61.548c17.896 0 33.892-8.267 44.389-21.176 6.906 12.607 20.302 21.176 35.662 21.176h9.067l-.001 58.765v.003c0 41.539-33.794 75.332-75.332 75.332s-75.332-33.793-75.332-75.332zm75.332 90.332c15.234 0 29.595-3.796 42.198-10.483v8.164l-42.199 42.196-42.2-42.2v-8.162c12.603 6.689 26.966 10.485 42.201 10.485zm-39.274 78.69c-.396-.064-.532-.335-.576-.423l-25.575-51.15 15.724-15.725 39.093 39.092-27.987 27.987c-.069.069-.281.283-.679.219zm29.494 37.277h19.559l6.782 67.833h-33.124zm165.289 65.177c-1.713 1.712-3.989 2.656-6.411 2.656h-117.462l-7.478-74.78 4.772-19.088c2.862 2.43 6.499 3.767 10.231 3.767.835 0 1.676-.066 2.513-.202 4.994-.81 9.326-3.996 11.59-8.522l25.92-51.839h20.217c32.401 0 58.763 26.361 58.763 58.763l.001 82.835c-.001 2.421-.943 4.698-2.656 6.41z"/><path d="m114.4 306.267v-108.817c0-12.958-10.542-23.5-23.5-23.5h-67.4c-12.958 0-23.5 10.542-23.5 23.5v108.816c0 12.958 10.542 23.5 23.5 23.5h67.4c12.958.001 23.5-10.541 23.5-23.499zm-99.4 0v-108.817c0-4.687 3.813-8.5 8.5-8.5h67.4c4.687 0 8.5 3.813 8.5 8.5v108.816c0 4.687-3.813 8.5-8.5 8.5h-67.4c-4.687.001-8.5-3.812-8.5-8.499z"/><path d="m73.767 211.225h-33.133c-4.143 0-7.5 3.358-7.5 7.5s3.357 7.5 7.5 7.5h33.133c4.143 0 7.5-3.358 7.5-7.5s-3.358-7.5-7.5-7.5z"/><path d="m73.767 244.359h-33.133c-4.143 0-7.5 3.358-7.5 7.5s3.357 7.5 7.5 7.5h33.133c4.143 0 7.5-3.358 7.5-7.5s-3.358-7.5-7.5-7.5z"/><path d="m65.483 277.492h-16.566c-4.143 0-7.5 3.358-7.5 7.5s3.357 7.5 7.5 7.5h16.566c4.143 0 7.5-3.358 7.5-7.5s-3.357-7.5-7.5-7.5z"/><path d="m496.5 198.8h-83.4c-8.547 0-15.5 6.953-15.5 15.5v17.633h-21.634c-6.341 0-11.5 5.159-11.5 11.5v29.706c0 12.958 10.542 23.5 23.5 23.5h9.634v9.628c0 12.958 10.542 23.5 23.5 23.5h67.4c12.958 0 23.5-10.542 23.5-23.5v-91.967c0-8.547-6.953-15.5-15.5-15.5zm-108.534 82.839c-4.686 0-8.5-3.813-8.5-8.5v-26.206h18.134v34.706zm109.034 24.628c0 4.687-3.814 8.5-8.5 8.5h-67.4c-4.687 0-8.5-3.813-8.5-8.5v-91.967c0-.276.225-.5.5-.5h83.4c.275 0 .5.224.5.5z"/><path d="m23.5 114.4h83.967c12.958 0 23.5-10.542 23.5-23.5v-67.4c0-12.958-10.542-23.5-23.5-23.5h-83.967c-12.958 0-23.5 10.542-23.5 23.5v67.4c0 12.958 10.542 23.5 23.5 23.5zm83.967-15h-83.967c-4.687 0-8.5-3.813-8.5-8.5v-67.093l34.821 29.847c4.538 3.889 10.1 5.833 15.662 5.833s11.124-1.945 15.662-5.834l34.821-29.847v67.094c.001 4.687-3.813 8.5-8.499 8.5zm-79.693-84.4h75.418l-31.808 27.264c-3.42 2.931-8.383 2.93-11.801 0z"/><path d="m496.217 16.567h-17.351v-5.067c0-6.341-5.159-11.5-11.5-11.5h-41.699c-6.341 0-11.5 5.159-11.5 11.5v5.067h-17.351c-8.703 0-15.783 7.081-15.783 15.783v21.415c0 4.142 3.357 7.5 7.5 7.5s7.5-3.358 7.5-7.5v-21.415c0-.432.352-.783.783-.783h17.351v5.066c0 6.341 5.159 11.5 11.5 11.5h41.699c6.341 0 11.5-5.159 11.5-11.5v-5.066h17.351c.432 0 .783.352.783.783v115.967c0 .432-.352.783-.783.783h-99.4c-.432 0-.783-.352-.783-.783v-59.552c0-4.142-3.357-7.5-7.5-7.5s-7.5 3.358-7.5 7.5v59.552c0 8.703 7.08 15.783 15.783 15.783h99.4c8.703 0 15.783-7.08 15.783-15.783v-115.967c0-8.703-7.08-15.783-15.783-15.783zm-32.351 16.567h-34.699v-18.134h34.699z"/><path d="m421.667 81.267h49.699c4.143 0 7.5-3.358 7.5-7.5s-3.357-7.5-7.5-7.5h-49.699c-4.143 0-7.5 3.358-7.5 7.5s3.357 7.5 7.5 7.5z"/><path d="m421.667 114.4h49.699c4.143 0 7.5-3.358 7.5-7.5s-3.357-7.5-7.5-7.5h-49.699c-4.143 0-7.5 3.358-7.5 7.5s3.357 7.5 7.5 7.5z"/></g></svg>