<svg id="Capa_1" enable-background="new 0 0 512 512" height="512" viewBox="0 0 512 512" width="512" xmlns="http://www.w3.org/2000/svg"><g><path d="m492 243.04h-4.122l-79.903-143.538c-7.061-12.671-20.452-20.542-34.945-20.542h-47.28c-8.01 0-15.543 3.121-21.212 8.789-5.667 5.668-8.788 13.201-8.788 21.211 0 16.542 13.458 30 30 30h34.737l43.434 104.08h-107.921c-5.523 0-10 4.477-10 10s4.477 10 10 10h76v20h-352v-20h196c5.523 0 10-4.477 10-10s-4.477-10-10-10h-107.921l43.434-104.08h34.737c16.542 0 30-13.458 30-30 0-8.01-3.121-15.543-8.789-21.212-5.668-5.667-13.201-8.788-21.211-8.788h-47.28c-14.494 0-27.884 7.871-34.948 20.546l-79.9 143.533h-4.122c-11.028 0-20 8.972-20 20v20c0 11.028 8.972 20 20 20v80c0 27.57 22.43 50 50 50h121.28c16.77 0 32.327-8.328 41.611-22.274l14.794-22.197c1.884-2.832 4.915-4.456 8.315-4.456s6.43 1.624 8.319 4.463l14.787 22.186c9.287 13.95 24.844 22.278 41.614 22.278h121.28c27.57 0 50-22.43 50-50v-40c11.028 0 20-8.972 20-20v-60c0-11.027-8.972-19.999-20-19.999zm-370.505-133.802c3.534-6.34 10.23-10.278 17.476-10.278h47.28c2.668 0 5.179 1.041 7.068 2.931 1.891 1.89 2.932 4.401 2.932 7.069 0 5.514-4.486 10-10 10h-41.4c-4.035 0-7.675 2.425-9.229 6.149l-49.215 117.931h-39.395zm254.883 15.871c-1.554-3.724-5.193-6.149-9.229-6.149h-41.4c-5.514 0-10-4.486-10-10 0-2.669 1.041-5.179 2.931-7.068 1.891-1.891 4.401-2.932 7.069-2.932h47.28c7.246 0 13.942 3.938 17.473 10.274l74.485 133.806h-39.396zm95.622 257.931c0 16.542-13.458 30-30 30h-121.28c-10.063 0-19.396-4.995-24.969-13.366l-14.786-22.184c-5.573-8.377-14.906-13.378-24.966-13.378s-19.393 5.001-24.961 13.372l-14.793 22.195c-5.57 8.366-14.903 13.361-24.966 13.361h-121.279c-16.542 0-30-13.458-30-30v-80h332v20c0 11.028 8.972 20 20 20h80zm20-60h-100v-60h100l.013 59.999s-.004.001-.013.001z"/><circle cx="256" cy="253.039" r="10"/><circle cx="422" cy="293.04" r="10"/><circle cx="462" cy="293.04" r="10"/></g></svg>