<svg id="Capa_1" enable-background="new 0 0 512 512" height="512" viewBox="0 0 512 512" width="512" xmlns="http://www.w3.org/2000/svg"><g><path d="m225.848 368.755c1.464 1.464 3.384 2.196 5.303 2.196s3.839-.732 5.304-2.197l8.686-8.687c3.265 1.659 6.954 2.6 10.86 2.6s7.595-.941 10.86-2.6l8.686 8.687c1.465 1.464 3.384 2.197 5.304 2.197 1.919 0 3.839-.732 5.303-2.196 2.93-2.929 2.93-7.678.001-10.607l-8.687-8.687c1.658-3.265 2.6-6.953 2.6-10.859s-.941-7.594-2.6-10.859l8.687-8.687c2.929-2.929 2.929-7.678-.001-10.607-2.928-2.929-7.677-2.928-10.606.001l-8.686 8.687c-3.265-1.659-6.953-2.6-10.86-2.6-3.906 0-7.594.941-10.86 2.6l-8.686-8.687c-2.929-2.928-7.678-2.929-10.606-.001-2.93 2.929-2.93 7.678-.001 10.607l8.687 8.687c-1.659 3.265-2.6 6.953-2.6 10.859s.941 7.594 2.6 10.859l-8.687 8.687c-2.931 2.929-2.931 7.678-.001 10.607zm39.218-30.154c0 4.999-4.067 9.067-9.066 9.067s-9.066-4.067-9.066-9.067c0-4.999 4.067-9.066 9.066-9.066s9.066 4.067 9.066 9.066z"/><path d="m479.934 463.867h-12.15c3.367-8.7 3.732-18.444.7-27.54l-19.448-58.345c3.619-4.101 4.975-9.929 3.144-15.424l-11.176-33.526c-5.108-15.326-15.122-28.519-28.402-37.586v-35.446c0-13.27-10.796-24.067-24.066-24.067h-22.368c8.562-12.274 13.3-26.974 13.3-42.2 0-1.989-.79-3.897-2.197-5.303l-8.105-8.105c6.222-4.355 10.303-11.571 10.303-19.725v-33.134c0-10.651-6.958-19.703-16.566-22.863v-26.836c-.003-40.676-33.094-73.767-73.77-73.767h-66.267c-11.649 0-23.252 2.787-33.556 8.059-3.688 1.887-5.147 6.406-3.261 10.093 1.887 3.688 6.404 5.147 10.093 3.26 8.316-4.255 17.307-6.412 26.724-6.412h66.267c32.404 0 58.768 26.363 58.768 58.767v25.633h-25.634c-13.811 0-25.1-10.981-25.609-24.67 1.785-5.528 2.759-11.416 2.759-17.53 0-4.142-3.357-7.5-7.5-7.5s-7.5 3.358-7.5 7.5c0 23.269-18.931 42.2-42.2 42.2h-78.117v-25.633c0-11.163 3.141-22.021 9.082-31.399 2.217-3.499 1.177-8.133-2.322-10.35-3.496-2.214-8.133-1.178-10.35 2.322-7.465 11.784-11.41 25.417-11.41 39.427v26.837c-9.607 3.16-16.565 12.212-16.565 22.863v33.133c0 8.154 4.08 15.37 10.302 19.725l-8.106 8.105c-1.407 1.406-2.197 3.314-2.197 5.303 0 15.226 4.738 29.926 13.299 42.2h-22.367c-13.271 0-24.066 10.796-24.066 24.067l.001 35.445c-13.28 9.067-23.295 22.261-28.403 37.587l-11.176 33.526c-1.832 5.495-.475 11.323 3.144 15.424l-19.448 58.344c-3.032 9.096-2.667 18.84.7 27.54h-12.15c-8.547 0-15.5 6.953-15.5 15.5v17.134c0 8.547 6.953 15.5 15.5 15.5h59.75c4.143 0 7.5-3.358 7.5-7.5s-3.357-7.5-7.5-7.5h-59.75c-.275 0-.5-.224-.5-.5v-17.133c0-.276.225-.5.5-.5h447.867c.275 0 .5.224.5.5v17.133c0 .276-.225.5-.5.5h-353.119c-4.143 0-7.5 3.358-7.5 7.5s3.357 7.5 7.5 7.5h353.117c8.547 0 15.5-6.953 15.5-15.5v-17.133c.001-8.547-6.953-15.5-15.499-15.5zm-29.002 0h-23.545c1.143-2.8 1.779-5.86 1.779-9.067v-18.637c0-7.561-6.151-13.712-13.712-13.712h-2.853v-26.178l23.16-10.678 18.492 55.476c2.575 7.723 1.281 16.193-3.321 22.796zm-24.16-130.092 11.176 33.526c.126.379-.052.792-.415.959l-.385.177c-.007.003-.013.006-.02.009l-24.528 11.308v-68.903c6.388 6.402 11.275 14.23 14.172 22.924zm-102.118-101.842c12.345-14.332 19.82-32.117 21.371-51.266h6.269l12.095 12.095c-.766 14.819-7.131 28.827-17.797 39.171zm39.813-75.333c0 4.999-4.067 9.066-9.066 9.067-.001 0-.003 0-.004 0h-9.064l.001-51.267h9.065c5 0 9.067 4.067 9.067 9.066v33.134zm-77.862-63.376c6.906 12.607 20.301 21.176 35.662 21.176h9.067l-.001 58.767v.003c0 23.108-10.245 44.376-28.195 58.763h-94.275c-17.948-14.388-28.193-35.665-28.193-58.763l-.001-58.77h61.548c17.895 0 33.891-8.267 44.388-21.176zm-139.071 30.242c0-4.999 4.067-9.066 9.066-9.066h9.068l.001 51.267h-9.066c-.001 0-.002 0-.004 0-4.998-.001-9.065-4.068-9.065-9.067zm.077 69.296 12.095-12.095h6.271c1.551 19.143 9.029 36.932 21.374 51.266h-21.942c-10.667-10.344-17.033-24.35-17.798-39.171zm-24.145 54.171h265.069c4.999 0 9.066 4.067 9.066 9.067l-.001 166.45h-283.199l-.002-166.45c0-4.999 4.068-9.067 9.067-9.067zm-49.414 120.369 11.176-33.526c2.898-8.695 7.785-16.523 14.173-22.924l.001 68.905-24.53-11.309c-.007-.003-.013-.006-.02-.009l-.385-.177c-.363-.169-.541-.581-.415-.96zm-16.305 73.768 18.492-55.476 23.162 10.678v26.177h-2.854c-7.562 0-13.713 6.151-13.713 13.712v18.639c0 3.207.635 6.267 1.779 9.067h-23.545c-4.602-6.603-5.896-15.073-3.321-22.797zm49.154 22.797c-5 0-9.067-4.067-9.067-9.067v-17.35h316.331v17.35c0 4.999-4.067 9.067-9.066 9.067z"/><path d="m222.867 155.816c4.143 0 7.5-3.358 7.5-7.5v-8.283c0-4.142-3.357-7.5-7.5-7.5s-7.5 3.358-7.5 7.5v8.283c0 4.142 3.358 7.5 7.5 7.5z"/><path d="m289.134 155.816c4.143 0 7.5-3.358 7.5-7.5v-8.283c0-4.142-3.357-7.5-7.5-7.5s-7.5 3.358-7.5 7.5v8.283c0 4.142 3.357 7.5 7.5 7.5z"/><path d="m256.001 197.235c8.551 0 16.533-4.606 20.832-12.022 2.077-3.584.855-8.173-2.729-10.25s-8.172-.856-10.25 2.728c-1.624 2.803-4.634 4.544-7.853 4.544-3.22 0-6.23-1.741-7.854-4.544-2.078-3.583-6.667-4.804-10.25-2.728-3.584 2.077-4.806 6.666-2.729 10.25 4.3 7.416 12.282 12.022 20.833 12.022z"/></g></svg>