<svg id="Capa_1" enable-background="new 0 0 512 512" height="512" viewBox="0 0 512 512" width="512" xmlns="http://www.w3.org/2000/svg"><g><path d="m452 156c-23.923 0-44.613 14.077-54.241 34.38h-101.759c-5.522 0-10 4.477-10 10s4.478 10 10 10h96.272c-.173 1.852-.272 3.724-.272 5.62v24.38h-51.78c-29.57 0-53.672 23.804-54.195 53.258-19.804-4.264-40.245-4.264-60.049 0-.523-29.454-24.625-53.257-54.195-53.257h-51.781v-24.381c0-1.896-.099-3.769-.272-5.62h96.272c5.523 0 10-4.477 10-10s-4.477-10-10-10h-101.758c-9.629-20.303-30.319-34.38-54.242-34.38-33.084 0-60 26.916-60 60v50c0 11.028 8.972 20 20 20v30c0 22.056 17.944 40 40 40s40-17.944 40-40v-20.621l42.531 17.72c24.18 10.085 51.04 11.253 75.629 3.294 12.155-3.935 25.24-6.014 37.84-6.014s25.685 2.08 37.84 6.014c10.776 3.488 21.986 5.223 33.218 5.223 14.397 0 28.826-2.852 42.408-8.516l42.534-17.721v20.621c0 22.056 17.944 40 40 40s40-17.944 40-40v-30c11.028 0 20-8.972 20-20v-50c0-33.084-26.916-60-60-60zm-432 60c0-22.056 17.944-40 40-40s40 17.944 40 40l.013 50s-.004 0-.013 0h-80zm40 120c-11.028 0-20-8.972-20-20v-30h40v30c0 11.028-8.972 20-20 20zm90.226-41.361-35.739-14.89c3.407-3.588 5.513-8.423 5.513-13.749v-5.62h51.78c18.869 0 34.22 15.355 34.22 34.23v4.441c-18.373 4.522-37.946 3.023-55.774-4.412zm211.546.002c-17.826 7.434-37.4 8.933-55.772 4.41v-4.441c0-18.874 15.351-34.23 34.22-34.23h51.78v5.62c0 5.326 2.106 10.161 5.513 13.749zm110.228 21.359c0 11.028-8.972 20-20 20s-20-8.972-20-20v-30h40zm20-50h-80v-50c0-22.056 17.944-40 40-40s40 17.944 40 40l.013 50s-.004 0-.013 0z"/><path d="m246 260.38h20c5.522 0 10-4.477 10-10s-4.478-10-10-10h-20c-5.523 0-10 4.477-10 10s4.477 10 10 10z"/><circle cx="256" cy="200.38" r="10"/></g></svg>