<svg id="Capa_1" enable-background="new 0 0 512 512" height="512" viewBox="0 0 512 512" width="512" xmlns="http://www.w3.org/2000/svg"><g><path d="m222.867 188.949c4.142 0 7.5-3.357 7.5-7.5v-8.284c0-4.142-3.358-7.5-7.5-7.5s-7.5 3.358-7.5 7.5v8.284c0 4.143 3.358 7.5 7.5 7.5z"/><path d="m289.134 188.949c4.142 0 7.5-3.357 7.5-7.5v-8.284c0-4.142-3.358-7.5-7.5-7.5s-7.5 3.358-7.5 7.5v8.284c0 4.143 3.358 7.5 7.5 7.5z"/><path d="m256.001 230.368c8.55 0 16.532-4.606 20.831-12.021 2.078-3.584.857-8.173-2.727-10.25-3.583-2.078-8.173-.857-10.25 2.727-1.625 2.804-4.635 4.545-7.854 4.545s-6.229-1.741-7.854-4.545c-2.078-3.584-6.666-4.803-10.25-2.729-3.583 2.078-4.805 6.667-2.728 10.25 4.299 7.416 12.281 12.023 20.832 12.023z"/><path d="m429.164 388.532c0-40.674-33.09-73.764-73.763-73.764l-14.793.001-27.409-13.705.001-24.9c14.226-11.668 24.834-27.587 29.874-45.797h28.894c13.271 0 24.067-10.797 24.067-24.067v-49.702c0-10.652-6.958-19.704-16.566-22.863v-26.836c-.002-58.944-47.957-106.899-106.902-106.899h-33.131c-24.484 0-47.521 8.055-66.622 23.295-3.238 2.583-3.769 7.302-1.186 10.54 2.584 3.238 7.303 3.769 10.54 1.185 16.417-13.097 36.219-20.02 57.268-20.02h33.131c50.674 0 91.9 41.226 91.9 91.899v25.633h-18.133v-25.633c0-40.675-33.091-73.767-73.767-73.767h-33.131c-40.675 0-73.767 33.092-73.767 73.767l-.002 25.633h-18.132v-25.633c0-16.763 4.554-33.164 13.169-47.432 2.141-3.546 1.002-8.156-2.544-10.297-3.547-2.143-8.156-1.002-10.297 2.543-10.028 16.606-15.329 35.689-15.329 55.185v26.835c-9.61 3.159-16.57 12.212-16.57 22.865v49.702c0 13.271 10.796 24.067 24.067 24.067h28.896c5.039 18.209 15.646 34.127 29.871 45.795l.001 24.902-27.406 13.705-14.796-.001c-40.673 0-73.763 33.09-73.763 73.764l-.002 99.4c0 13.271 10.796 24.067 24.067 24.067h32.201c4.142 0 7.5-3.357 7.5-7.5s-3.358-7.5-7.5-7.5h-32.201c-5 0-9.067-4.067-9.067-9.067l.002-99.4c0-32.402 26.361-58.764 58.762-58.764l9.385.001c3.826 46.313 42.735 82.831 90.018 82.831s86.193-36.519 90.019-82.831l9.381-.001c32.402 0 58.763 26.361 58.763 58.764l.002 99.4c0 5-4.067 9.067-9.067 9.067h-230.995c-4.142 0-7.5 3.357-7.5 7.5s3.358 7.5 7.5 7.5h230.997c13.271 0 24.067-10.797 24.067-24.067zm-48.13-182.231c0 5-4.067 9.067-9.067 9.067h-26.087c.299-2.982.453-6.007.453-9.066v-58.77h25.595c.013 0 .026.002.039.002.007 0 .013-.001.019-.001 4.991.011 9.047 4.073 9.047 9.065v49.703zm-141.598-158.168h33.131c32.404 0 58.767 26.363 58.767 58.768v25.634h-9.067c-13.812 0-25.101-10.982-25.609-24.672 1.784-5.528 2.758-11.415 2.758-17.529 0-4.143-3.358-7.5-7.5-7.5s-7.5 3.357-7.5 7.5c0 23.27-18.931 42.2-42.2 42.2h-61.548l.002-25.635c-.001-32.404 26.362-58.766 58.766-58.766zm-99.403 167.235c-4.999 0-9.067-4.067-9.067-9.067v-49.702c0-4.993 4.058-9.056 9.049-9.066.007 0 .014.001.021.001.013 0 .026-.002.039-.002h25.593l.001 58.77c0 3.06.155 6.084.453 9.066zm40.636-9.066-.001-58.768h61.548c17.896 0 33.893-8.267 44.389-21.176 6.906 12.607 20.301 21.176 35.662 21.176h9.067v58.768c0 41.539-33.794 75.333-75.332 75.333s-75.333-33.794-75.333-75.333zm75.332 90.333c15.234 0 29.595-3.796 42.198-10.483l-.001 36.116c0 23.268-18.93 42.198-42.198 42.198s-42.198-18.93-42.198-42.198l-.002-36.118c12.604 6.688 26.966 10.485 42.201 10.485zm0 100.966c-40.004 0-72.826-31.347-75.195-70.767l17.995-8.999v4.432c0 31.539 25.659 57.198 57.198 57.198s57.198-25.659 57.198-57.198v-4.433l17.999 9c-2.368 39.42-35.19 70.767-75.195 70.767z"/></g></svg>