<svg id="Capa_1" enable-background="new 0 0 512 512" height="512" viewBox="0 0 512 512" width="512" xmlns="http://www.w3.org/2000/svg"><g><path d="m505.979 270.366c3.883-3.82 6.021-8.922 6.021-14.366s-2.138-10.546-6.021-14.366c-13.841-13.619-45.431-42.437-88.42-68.138v-18.056c0-10.752 6.983-19.898 16.649-23.159 4.469 10.966 15.239 18.719 27.792 18.719 16.542 0 30-13.458 30-30s-13.458-30-30-30c-13.347 0-24.681 8.763-28.563 20.836-20.42 4.003-35.877 22.029-35.877 43.604v6.812c-40.567-21.366-89.173-38.232-141.56-38.232s-100.993 16.866-141.56 38.231v-6.812c0-21.571-15.455-39.578-35.87-43.583-3.876-12.083-15.216-20.856-28.57-20.856-16.542 0-30 13.458-30 30s13.458 30 30 30c12.553 0 23.323-7.753 27.791-18.719 9.667 3.261 16.649 12.407 16.649 23.159v18.055c-42.991 25.703-74.582 54.522-88.42 68.139-3.882 3.82-6.02 8.922-6.02 14.366s2.138 10.546 6.021 14.366c13.838 13.616 45.429 42.436 88.42 68.139v18.055c0 10.753-6.983 19.897-16.651 23.156-4.469-10.965-15.239-18.716-27.79-18.716-16.542 0-30 13.458-30 30s13.458 30 30 30c13.347 0 24.681-8.763 28.563-20.836 20.42-4.003 35.877-22.029 35.877-43.604v-6.812c40.566 21.365 89.172 38.231 141.56 38.231s100.993-16.866 141.56-38.231v6.812c0 21.574 15.456 39.594 35.875 43.598 3.88 12.076 15.216 20.842 28.565 20.842 16.542 0 30-13.458 30-30s-13.458-30-30-30c-12.551 0-23.321 7.751-27.79 18.715-9.667-3.259-16.651-12.403-16.651-23.155v-18.055c42.992-25.703 74.582-54.522 88.42-68.139zm-43.979-159.366c5.514 0 10 4.486 10 10s-4.486 10-10 10-10-4.486-10-10 4.486-10 10-10zm-412 20c-5.514 0-10-4.486-10-10s4.486-10 10-10 10 4.486 10 10-4.486 10-10 10zm0 270c-5.514 0-10-4.486-10-10s4.486-10 10-10 10 4.486 10 10-4.486 10-10 10zm412-20c5.514 0 10 4.486 10 10s-4.486 10-10 10-10-4.486-10-10 4.486-10 10-10zm30-125c0 .063-.022.084-.048.11-18.973 18.669-72.955 67.381-143.373 93.947 14.181-13.934 25.332-31.161 32.138-50.778 1.811-5.218-.951-10.915-6.169-12.725-5.225-1.813-10.915.953-12.726 6.169-15.618 45.013-58.146 75.256-105.822 75.256-61.746 0-111.98-50.234-111.98-111.979s50.234-111.98 111.98-111.98c47.678 0 90.204 30.243 105.822 75.256 1.811 5.217 7.506 7.981 12.726 6.169 5.218-1.81 7.979-7.507 6.169-12.725-6.812-19.633-17.977-36.868-32.178-50.803 70.44 26.563 124.436 75.298 143.413 93.971.026.028.048.049.048.112zm-472 0c0-.063.021-.084.048-.11 18.988-18.684 73.039-67.459 143.54-94.012-24.404 23.961-39.567 57.301-39.567 94.122 0 36.828 15.175 70.165 39.586 94.127-70.51-26.55-124.569-75.331-143.559-94.016-.027-.027-.048-.048-.048-.111z"/><path d="m316.99 245.67c5.522 0 10-4.477 10-10s-4.478-10-10-10h-10.33v-.33c0-11.028-8.972-20-20-20h-.33v-10.33c0-5.523-4.478-10-10-10-5.523 0-10 4.477-10 10v10.33h-20.66v-10.33c0-5.523-4.478-10-10-10s-10 4.477-10 10v10.33h-.33c-11.028 0-20 8.972-20 20v.33h-10.33c-5.522 0-10 4.477-10 10s4.478 10 10 10h10.33v20.66h-10.33c-5.522 0-10 4.477-10 10s4.478 10 10 10h10.33v.33c0 11.028 8.972 20 20 20h.33v10.33c0 5.523 4.478 10 10 10s10-4.477 10-10v-10.33h20.66v10.33c0 5.523 4.477 10 10 10 5.522 0 10-4.477 10-10v-10.33h.33c11.028 0 20-8.972 20-20v-.33h10.33c5.522 0 10-4.477 10-10s-4.478-10-10-10h-10.33v-20.66zm-30.33 40.99h-61.32v-61.32h61.32l.013 61.319s-.004.001-.013.001z"/><circle cx="377.98" cy="256" r="10"/></g></svg>