<svg id="Capa_1" enable-background="new 0 0 512 512" height="512" viewBox="0 0 512 512" width="512" xmlns="http://www.w3.org/2000/svg"><g><path d="m371.966 0h-231.933c-22.405 0-40.633 18.229-40.633 40.634v48.766c0 4.143 3.358 7.5 7.5 7.5s7.5-3.357 7.5-7.5v-48.766c0-14.135 11.499-25.634 25.633-25.634h231.933c14.134 0 25.633 11.499 25.633 25.633l.001 430.733c0 14.135-11.499 25.634-25.633 25.634h-44.855c-4.142 0-7.5 3.357-7.5 7.5s3.358 7.5 7.5 7.5h44.855c22.405 0 40.633-18.228 40.633-40.634l-.001-430.733c0-22.405-18.228-40.633-40.633-40.633z"/><path d="m292.112 497h-152.079c-14.134 0-25.633-11.499-25.633-25.634v-346.458c0-4.143-3.358-7.5-7.5-7.5s-7.5 3.357-7.5 7.5v346.458c0 22.405 18.228 40.634 40.633 40.634h152.079c4.142 0 7.5-3.357 7.5-7.5s-3.358-7.5-7.5-7.5z"/><path d="m222.867 48.133h33.133c4.142 0 7.5-3.357 7.5-7.5s-3.358-7.5-7.5-7.5h-33.133c-4.142 0-7.5 3.357-7.5 7.5s3.358 7.5 7.5 7.5z"/><path d="m289.133 48.133c4.142 0 7.5-3.357 7.5-7.5s-3.358-7.5-7.5-7.5h-8.283c-4.142 0-7.5 3.357-7.5 7.5s3.358 7.5 7.5 7.5z"/><path d="m208.429 61.254-9.698-19.396c-2.691-5.382-8.1-8.725-14.117-8.725h-28.014c-13.27 0-24.066 10.797-24.066 24.067v397.6c0 13.271 10.796 24.067 24.066 24.067h198.801c13.271 0 24.066-10.797 24.066-24.067l-.001-397.6c0-13.271-10.796-24.067-24.067-24.067h-28.014c-6.017 0-11.426 3.343-14.117 8.725l-9.698 19.396c-1.546 3.092-4.653 5.013-8.11 5.013h-78.922c-3.456 0-6.563-1.921-8.109-5.013zm87.032 20.013c9.175 0 17.423-5.098 21.526-13.304l9.698-19.396c.134-.268.402-.434.701-.434h28.014c5 0 9.067 4.067 9.067 9.067l.001 397.6c0 5-4.067 9.067-9.066 9.067h-198.802c-4.999 0-9.066-4.067-9.066-9.067v-397.6c0-5 4.067-9.067 9.066-9.067h28.014c.294 0 .569.17.701.434l9.698 19.396c4.102 8.207 12.351 13.305 21.526 13.305h78.922z"/><path d="m487.933 231.934h-33.133c-13.27 0-24.066 10.796-24.066 24.066 0 13.271 10.796 24.066 24.066 24.066h33.133c13.271 0 24.067-10.795 24.067-24.066 0-13.27-10.796-24.066-24.067-24.066zm0 33.132h-33.133c-4.999 0-9.066-4.067-9.066-9.066s4.067-9.066 9.066-9.066h33.133c5 0 9.067 4.067 9.067 9.066s-4.067 9.066-9.067 9.066z"/><path d="m471.817 379.555v.001c-4.545-4.546-10.589-7.05-17.018-7.05-6.428 0-12.472 2.504-17.018 7.049-9.384 9.384-9.384 24.652 0 34.036l23.429 23.429c4.692 4.691 10.855 7.037 17.018 7.037s12.326-2.346 17.018-7.037c9.384-9.384 9.384-24.652 0-34.036zm12.823 46.857c-3.535 3.535-9.288 3.535-12.823 0l-23.429-23.429c-3.535-3.534-3.535-9.287 0-12.821 1.712-1.713 3.989-2.656 6.411-2.656s4.699.943 6.411 2.655v.001l23.429 23.429c3.536 3.534 3.536 9.287.001 12.821z"/><path d="m454.8 139.494c6.429 0 12.473-2.504 17.018-7.049l23.429-23.429c9.384-9.384 9.384-24.652 0-34.036-9.384-9.382-24.652-9.382-34.036 0l-23.429 23.429c-9.384 9.384-9.384 24.652 0 34.036 4.546 4.545 10.59 7.049 17.018 7.049zm-6.411-30.477 23.429-23.429c1.768-1.768 4.089-2.651 6.412-2.651 2.322 0 4.644.884 6.411 2.651 3.535 3.534 3.535 9.287 0 12.821l-23.43 23.43c-1.712 1.712-3.989 2.655-6.411 2.655s-4.699-.943-6.411-2.656c-3.536-3.534-3.536-9.287 0-12.821z"/><path d="m57.2 231.934h-33.133c-13.271 0-24.067 10.796-24.067 24.066 0 13.271 10.796 24.066 24.067 24.066h33.133c13.27 0 24.066-10.796 24.066-24.066.001-13.27-10.796-24.066-24.066-24.066zm0 33.132h-33.133c-5 0-9.067-4.067-9.067-9.066s4.067-9.066 9.067-9.066h33.133c4.999 0 9.066 4.067 9.066 9.066s-4.067 9.066-9.066 9.066z"/><path d="m40.182 379.555-23.429 23.429c-9.384 9.384-9.384 24.652 0 34.036 4.545 4.545 10.589 7.049 17.018 7.049s12.473-2.504 17.018-7.049l23.429-23.429c9.384-9.384 9.384-24.652 0-34.036-9.384-9.382-24.652-9.384-34.036 0zm23.429 23.428-23.43 23.43c-1.712 1.712-3.989 2.655-6.411 2.655s-4.699-.943-6.411-2.656c-3.535-3.534-3.535-9.287 0-12.821l23.429-23.429c1.768-1.768 4.089-2.651 6.411-2.651s4.644.884 6.412 2.651c3.535 3.534 3.535 9.287 0 12.821z"/><path d="m40.182 132.445c4.692 4.691 10.855 7.037 17.018 7.037s12.326-2.346 17.018-7.037c9.384-9.384 9.384-24.652 0-34.036l-23.429-23.428c-4.545-4.546-10.589-7.05-17.018-7.05-6.428 0-12.472 2.504-17.018 7.049-9.384 9.384-9.384 24.652 0 34.036zm-12.822-46.857c1.712-1.713 3.989-2.656 6.411-2.656s4.699.943 6.411 2.656l23.429 23.429c3.535 3.534 3.535 9.287 0 12.821-3.535 3.535-9.287 3.535-12.823 0l-23.428-23.429c-3.535-3.534-3.535-9.287 0-12.821z"/><path d="m200.301 259.097 14.872 14.496-3.511 20.47c-1.159 6.761 1.568 13.465 7.117 17.496 3.135 2.278 6.804 3.436 10.497 3.436 2.843 0 5.701-.687 8.341-2.074l18.383-9.666 18.383 9.665c6.071 3.191 13.289 2.671 18.837-1.361 5.55-4.031 8.277-10.735 7.118-17.496l-3.511-20.47 14.872-14.496c4.912-4.788 6.646-11.815 4.526-18.339-2.12-6.522-7.653-11.188-14.44-12.173l-20.552-2.987-9.192-18.624c-3.036-6.15-9.182-9.971-16.041-9.971s-13.005 3.82-16.041 9.971l-9.192 18.624-20.551 2.987c-6.788.985-12.321 5.65-14.441 12.173-2.12 6.524-.386 13.551 4.526 18.339zm9.739-13.702c.207-.638.786-1.741 2.332-1.966l21.753-3.161c4.136-.602 7.709-3.198 9.557-6.944l9.728-19.711c.691-1.4 1.919-1.609 2.59-1.609.67 0 1.898.209 2.59 1.609l9.728 19.71c1.849 3.747 5.421 6.344 9.558 6.945l21.753 3.161c1.545.225 2.124 1.328 2.331 1.966s.388 1.87-.73 2.96l-15.741 15.344c-2.992 2.917-4.357 7.117-3.65 11.235l3.716 21.664c.264 1.54-.607 2.432-1.149 2.825-.543.395-1.658.947-3.041.22l-19.455-10.228c-3.7-1.948-8.117-1.947-11.815-.001l-19.456 10.229c-1.381.727-2.498.176-3.041-.22-.542-.394-1.414-1.285-1.149-2.825l3.716-21.664c.707-4.118-.658-8.318-3.651-11.236l-15.74-15.343c-1.122-1.09-.941-2.323-.734-2.96z"/></g></svg>