<svg id="Capa_1" enable-background="new 0 0 512 512" height="512" viewBox="0 0 512 512" width="512" xmlns="http://www.w3.org/2000/svg"><g><path d="m173.322 197.234c4.142 0 7.5-3.357 7.5-7.5v-66.267c0-4.143-3.358-7.5-7.5-7.5h-14.164c-4.142 0-7.5 3.357-7.5 7.5s3.358 7.5 7.5 7.5h6.664v58.767c0 4.143 3.358 7.5 7.5 7.5z"/><path d="m153.868 243.635c4.062.796 8.006-1.849 8.805-5.913.837-4.261 4.605-7.354 8.96-7.354 4.898 0 8.908 3.877 9.122 8.724l-.2 1.562c-.808 3.192-2.713 6.948-5.667 11.169-10.293 14.707-16.435 22.749-19.735 27.069-4.101 5.369-5.972 7.819-4.696 11.969.75 2.439 2.597 4.312 5.07 5.138.997.332 1.952.651 14.607.651 4.96 0 11.718-.049 20.978-.166 4.142-.052 7.457-3.451 7.405-7.594-.052-4.142-3.446-7.483-7.594-7.404-6.465.081-13.321.135-19.034.146 3.599-4.816 8.58-11.626 15.287-21.209 4.164-5.949 6.879-11.573 8.071-16.717.057-.245.102-.493.133-.742l.321-2.514c.04-.315.061-.633.061-.951 0-13.306-10.825-24.131-24.131-24.131-11.504 0-21.463 8.185-23.678 19.461-.797 4.065 1.851 8.007 5.915 8.806z"/><path d="m405.098 16.565h-67.048v-1.065c0-8.547-6.953-15.5-15.5-15.5h-133.098c-8.547 0-15.5 6.953-15.5 15.5v1.065h-67.051c-22.405 0-40.633 18.227-40.633 40.633v414.17c0 22.405 18.228 40.633 40.633 40.633h74.118c4.142 0 7.5-3.357 7.5-7.5s-3.358-7.5-7.5-7.5h-74.118c-14.134 0-25.633-11.499-25.633-25.633v-414.171c0-14.134 11.499-25.633 25.633-25.633h67.051v18.136h-50.485c-13.27 0-24.067 10.796-24.067 24.067v15.635c0 4.143 3.358 7.5 7.5 7.5s7.5-3.357 7.5-7.5v-15.635c0-4.999 4.067-9.066 9.067-9.066h51.529c2.964 9.586 11.909 16.569 22.456 16.569h117.098c10.547 0 19.491-6.984 22.456-16.569h51.527c4.999 0 9.066 4.067 9.066 9.066v381.035c0 4.999-4.067 9.066-9.066 9.066h-25.633v-45.385c10.348-12.701 16.567-28.893 16.567-46.515 0-40.675-33.092-73.767-73.767-73.767s-73.767 33.092-73.767 73.767c0 17.622 6.219 33.813 16.566 46.514v45.386h-125.032c-5 0-9.067-4.067-9.067-9.066v-330.553c0-4.143-3.358-7.5-7.5-7.5s-7.5 3.357-7.5 7.5v330.553c0 13.271 10.796 24.066 24.067 24.066h125.033v17.335c0 .267.014.532.027.797h-32.508c-4.142 0-7.5 3.357-7.5 7.5s3.358 7.5 7.5 7.5h189.08c22.405 0 40.634-18.228 40.634-40.633v-414.17c-.001-22.405-18.229-40.632-40.635-40.632zm-82.048 41.205c0 4.687-3.814 8.5-8.5 8.5h-51.049v-9.067c0-4.142-3.357-7.5-7.5-7.5-4.142 0-7.5 3.358-7.5 7.5v9.067h-51.048c-4.687 0-8.5-3.813-8.5-8.5v-42.27c0-.275.224-.5.5-.5h133.097c.275 0 .5.225.5.5zm-29.744 438.053c.011-.008.023-.015.034-.023l11.925-7.95c.264-.176.605-.176.869 0l11.919 7.946c.015.01.031.021.046.031l1.759 1.173h-28.318zm-28.588 1.031c-.128.084-.393.26-.805.039-.413-.222-.413-.538-.413-.69v-63.786c5.539 3.878 11.629 7.012 18.133 9.263v43.897zm31.915-51.698c2.974.366 5.996.577 9.067.577s6.092-.211 9.066-.577v30.422l-.311-.208c-5.318-3.545-12.191-3.545-17.51 0l-.312.208zm51.266 51.047c0 .152 0 .469-.413.69-.412.223-.677.046-.805-.039l-16.915-11.277v-43.897c6.503-2.252 12.594-5.385 18.133-9.263zm-42.199-183.002c32.404 0 58.767 26.362 58.767 58.767 0 32.403-26.362 58.766-58.767 58.766s-58.767-26.362-58.767-58.766 26.363-58.767 58.767-58.767zm125.032 158.166c0 14.134-11.499 25.633-25.634 25.633h-42.226c.013-.265.027-.53.027-.797v-17.335h25.633c13.271 0 24.066-10.796 24.066-24.066v-381.035c0-13.271-10.796-24.066-24.066-24.066h-50.482v-18.136h67.049c14.135 0 25.634 11.499 25.634 25.633v414.169z"/><path d="m379.467 148.602v-17.134c0-8.547-6.953-15.5-15.5-15.5h-133.1c-8.547 0-15.5 6.953-15.5 15.5v17.134c0 8.547 6.953 15.5 15.5 15.5h133.1c8.546 0 15.5-6.954 15.5-15.5zm-149.101 0v-17.134c0-.275.224-.5.5-.5h133.1c.275 0 .5.225.5.5v17.134c0 .275-.225.5-.5.5h-133.1c-.275 0-.5-.225-.5-.5z"/><path d="m305.7 412.601c22.405 0 40.633-18.227 40.633-40.633s-18.228-40.634-40.633-40.634-40.634 18.228-40.634 40.634 18.229 40.633 40.634 40.633zm0-66.267c14.134 0 25.633 11.499 25.633 25.634 0 14.134-11.499 25.633-25.633 25.633-14.135 0-25.634-11.499-25.634-25.633 0-14.135 11.499-25.634 25.634-25.634z"/><path d="m231.15 182.234c-4.142 0-7.5 3.357-7.5 7.5s3.358 7.5 7.5 7.5h41.416c4.143 0 7.5-3.357 7.5-7.5s-3.357-7.5-7.5-7.5z"/><path d="m215.366 248.001c0 8.547 6.953 15.5 15.5 15.5h133.1c8.547 0 15.5-6.953 15.5-15.5v-17.133c0-8.547-6.953-15.5-15.5-15.5h-133.1c-8.547 0-15.5 6.953-15.5 15.5zm15-17.133c0-.275.224-.5.5-.5h133.1c.275 0 .5.225.5.5v17.133c0 .275-.225.5-.5.5h-133.1c-.276 0-.5-.225-.5-.5z"/><path d="m231.15 281.634c-4.142 0-7.5 3.357-7.5 7.5s3.358 7.5 7.5 7.5h41.416c4.143 0 7.5-3.357 7.5-7.5s-3.357-7.5-7.5-7.5z"/></g></svg>