<svg id="Capa_1" enable-background="new 0 0 512 512" height="512" viewBox="0 0 512 512" width="512" xmlns="http://www.w3.org/2000/svg"><g><path d="m452 104.931c-22.159 0-41.536 12.084-51.927 29.999h-59.903c-13.443 0-27.102 3.255-39.497 9.413-2.841 1.411-5.782 2.705-8.743 3.848-5.153 1.988-7.718 7.777-5.729 12.93 1.531 3.969 5.317 6.403 9.331 6.403 1.197 0 2.415-.217 3.598-.673 3.536-1.364 7.048-2.91 10.44-4.595 9.646-4.792 20.229-7.325 30.601-7.325h52.68c-.549 3.255-.85 6.592-.85 10.001v9.999h-21.533c-17.332 0-33.628 6.749-45.886 19.006l-20.993 20.994h-95.177l-20.994-20.994c-12.257-12.256-28.553-19.006-45.885-19.006h-21.533v-9.999c0-3.408-.301-6.746-.85-10.001h52.51c10.381 0 20.955 2.529 30.579 7.315 3.292 1.636 6.701 3.143 10.133 4.478 1.191.464 2.418.684 3.625.684 4.003 0 7.782-2.42 9.321-6.375 2.003-5.147-.546-10.943-5.692-12.946-2.874-1.118-5.729-2.38-8.483-3.749-12.375-6.153-26.028-9.406-39.482-9.406h-59.733c-10.392-17.917-29.769-30.001-51.928-30.001-33.084 0-60 26.916-60 60v50c0 10.45 8.06 19.04 18.288 19.913-1.559 4.55-2.388 9.346-2.388 14.176 0 7.627 2.06 15.228 5.959 21.98l29.48 51.07c1.786 3.094 5.087 5 8.66 5s6.874-1.906 8.66-5l29.482-51.07c6.561-11.364 7.65-24.396 3.678-36.069 15.115-.002 293.306-.002 308.443 0-1.54 4.525-2.361 9.289-2.361 14.089 0 7.627 2.061 15.228 5.959 21.98l29.48 51.07c1.786 3.094 5.087 5 8.66 5s6.874-1.906 8.66-5l29.481-51.07c6.579-11.394 7.641-24.462 3.632-36.159 10.2-.901 18.228-9.481 18.228-19.91v-50c-.001-33.084-26.917-60-60.001-60zm0 20c22.056 0 40 17.944 40 40l.013 49.999s-.004.001-.013.001h-80v-50c0-22.056 17.944-40 40-40zm-113.277 83.148c8.48-8.479 19.754-13.148 31.744-13.148h21.533v20h-60.128zm-197.19-13.149c11.99 0 23.264 4.669 31.743 13.148l6.852 6.852h-60.128v-20zm-121.533-29.999c0-22.056 17.944-40 40-40s40 17.944 40 40v50h-80zm60.82 96.069-20.82 36.067-20.82-36.067c-2.176-3.769-3.279-7.799-3.279-11.98 0-5.019 1.642-9.982 4.581-14.089h39.025c4.795 6.731 6.783 16.596 1.313 26.069zm392 0-20.82 36.067-20.82-36.067c-2.176-3.769-3.279-7.799-3.279-11.98 0-5.019 1.642-9.982 4.581-14.089h39.025c4.795 6.731 6.783 16.596 1.313 26.069z"/><path d="m452 347.069c-5.522 0-10 4.477-10 10v40c0 5.523 4.478 10 10 10s10-4.477 10-10v-40c0-5.523-4.478-10-10-10z"/><path d="m492 327.069c-5.522 0-10 4.477-10 10v20c0 5.523 4.478 10 10 10s10-4.477 10-10v-20c0-5.523-4.478-10-10-10z"/><path d="m412 327.069c-5.522 0-10 4.477-10 10v20c0 5.523 4.478 10 10 10s10-4.477 10-10v-20c0-5.523-4.478-10-10-10z"/><path d="m60 347.069c-5.522 0-10 4.477-10 10v40c0 5.523 4.478 10 10 10s10-4.477 10-10v-40c0-5.523-4.478-10-10-10z"/><path d="m100 327.069c-5.522 0-10 4.477-10 10v20c0 5.523 4.478 10 10 10s10-4.477 10-10v-20c0-5.523-4.478-10-10-10z"/><path d="m20 327.069c-5.523 0-10 4.477-10 10v20c0 5.523 4.477 10 10 10s10-4.477 10-10v-20c0-5.523-4.478-10-10-10z"/><circle cx="256" cy="164.93" r="10"/></g></svg>