<svg id="Capa_1" enable-background="new 0 0 512 512" height="512" viewBox="0 0 512 512" width="512" xmlns="http://www.w3.org/2000/svg"><g><path d="m496.212 381.023h-17.35v-42.191c0-13.271-10.796-24.066-24.066-24.066h-173.947c-.432 0-.783-.352-.783-.783v-35.996c65.786-11.443 115.965-68.946 115.965-137.955 0-77.215-62.818-140.032-140.032-140.032-25.897 0-51.195 7.127-73.16 20.609-3.53 2.167-4.635 6.785-2.468 10.315 2.166 3.529 6.784 4.637 10.315 2.468 19.603-12.032 42.188-18.392 65.313-18.392 68.942 0 125.031 56.089 125.031 125.031s-56.089 125.031-125.031 125.031-125.031-56.089-125.031-125.031c0-31.953 12.048-62.364 33.925-85.631 2.838-3.018 2.691-7.765-.326-10.602-3.017-2.835-7.764-2.691-10.602.326-24.503 26.06-37.997 60.12-37.997 95.906 0 69.009 50.179 126.512 115.965 137.955v35.996c0 .432-.352.783-.783.783h-123.314c-4.143 0-7.5 3.358-7.5 7.5 0 4.143 3.357 7.5 7.5 7.5h123.314c8.703 0 15.783-7.08 15.783-15.783v-34.221c2.999.193 6.02.302 9.066.302s6.068-.109 9.066-.302v34.221c0 8.703 7.08 15.783 15.783 15.783h173.947c4.999 0 9.066 4.067 9.066 9.066v42.191h-18.131v-17.342c0-8.703-7.08-15.783-15.783-15.783h-149.098c-8.703 0-15.783 7.08-15.783 15.783v17.342h-18.133v-17.342c0-8.703-7.08-15.783-15.783-15.783h-149.098c-8.703 0-15.783 7.08-15.783 15.783v17.342h-18.133v-42.191c0-4.999 4.067-9.066 9.066-9.066h15.634c4.143 0 7.5-3.357 7.5-7.5 0-4.142-3.357-7.5-7.5-7.5h-15.633c-13.271 0-24.066 10.796-24.066 24.066v42.191h-17.349c-8.703 0-15.783 7.08-15.783 15.783v99.41c0 8.703 7.08 15.783 15.783 15.783h54.551c4.215 0 8.178-1.641 11.161-4.622l44.845-44.847c2.982-2.98 4.625-6.944 4.625-11.161v-54.563c0-8.703-7.08-15.783-15.783-15.783h-33.918v-17.342c0-.432.352-.783.783-.783h149.098c.432 0 .783.352.783.783v17.342h-25.633c-8.703 0-15.783 7.08-15.783 15.783v99.41c0 8.703 7.08 15.783 15.783 15.783h54.552c4.215 0 8.178-1.641 11.161-4.622l44.845-44.847c2.981-2.98 4.624-6.943 4.624-11.161v-54.563c0-8.703-7.08-15.783-15.783-15.783h-25.633v-17.342c0-.432.352-.783.783-.783h149.098c.432 0 .783.352.783.783v17.342h-33.916c-8.703 0-15.783 7.08-15.783 15.783v99.41c0 8.703 7.08 15.783 15.783 15.783h54.552c4.216 0 8.179-1.642 11.16-4.622l44.848-44.848c2.98-2.982 4.622-6.944 4.622-11.16v-54.563c0-8.701-7.081-15.781-15.784-15.781zm-414.942 105.37v-23.309c0-.432.352-.783.783-.783h23.308zm34.699-89.586v50.494h-33.916c-8.703 0-15.783 7.08-15.783 15.783v33.916h-50.482c-.432 0-.783-.352-.783-.783v-99.41c0-.432.351-.783.783-.783h99.398c.432-.001.783.351.783.783zm155.814 89.587v-23.31c0-.432.352-.783.783-.783h23.309zm34.699-89.587v50.494h-33.916c-8.703 0-15.783 7.08-15.783 15.783v33.916h-50.483c-.432 0-.783-.352-.783-.783v-99.41c0-.432.352-.783.783-.783h99.398c.432-.001.784.351.784.783zm89.549 99.41v-99.41c0-.432.352-.783.783-.783h99.398c.432 0 .783.352.783.783v50.494h-33.915c-8.703 0-15.783 7.08-15.783 15.783v33.916h-50.482c-.433 0-.784-.352-.784-.783zm66.265-9.824v-23.309c0-.432.352-.783.783-.783h23.309z"/><path d="m471.363 429.156c4.143 0 7.5-3.358 7.5-7.5 0-4.143-3.357-7.5-7.5-7.5h-49.699c-4.143 0-7.5 3.357-7.5 7.5 0 4.142 3.357 7.5 7.5 7.5z"/><path d="m223.65 421.656c0 4.142 3.357 7.5 7.5 7.5h49.699c4.143 0 7.5-3.358 7.5-7.5 0-4.143-3.357-7.5-7.5-7.5h-49.699c-4.143 0-7.5 3.358-7.5 7.5z"/><path d="m33.137 421.656c0 4.142 3.357 7.5 7.5 7.5h49.699c4.143 0 7.5-3.358 7.5-7.5 0-4.143-3.357-7.5-7.5-7.5h-49.699c-4.142 0-7.5 3.358-7.5 7.5z"/><path d="m255.999 246.93c58.944 0 106.898-47.954 106.898-106.898s-47.954-106.898-106.898-106.898-106.898 47.953-106.898 106.897c0 58.945 47.954 106.899 106.898 106.899zm-25.632-18.642v-21.991c0-4.143-3.357-7.5-7.5-7.5s-7.5 3.357-7.5 7.5v16.145c-6.517-3.226-12.6-7.201-18.133-11.815v-20.897c0-14.134 11.499-25.633 25.633-25.633h66.266c14.134 0 25.633 11.499 25.633 25.633v20.897c-5.533 4.614-11.616 8.588-18.133 11.815v-16.145c0-4.143-3.357-7.5-7.5-7.5s-7.5 3.357-7.5 7.5v21.991c-8.139 2.368-16.74 3.642-25.633 3.642s-17.494-1.275-25.633-3.642zm25.632-79.19c-18.701 0-33.916-15.215-33.916-33.916s15.215-33.916 33.916-33.916 33.916 15.215 33.916 33.916-15.214 33.916-33.916 33.916zm0-100.965c50.673 0 91.898 41.226 91.898 91.898 0 20.496-6.746 39.445-18.133 54.747v-5.047c0-21.729-17.144-39.527-38.616-40.582 8.513-8.806 13.766-20.781 13.766-33.967 0-26.973-21.943-48.916-48.916-48.916s-48.916 21.943-48.916 48.916c0 13.186 5.253 25.161 13.766 33.967-21.472 1.055-38.615 18.853-38.615 40.582v5.047c-11.386-15.302-18.133-34.251-18.133-54.747.001-50.673 41.227-91.898 91.899-91.898z"/></g></svg>