<svg id="Capa_1" enable-background="new 0 0 512 512" height="512" viewBox="0 0 512 512" width="512" xmlns="http://www.w3.org/2000/svg"><g><path d="m466.543 412h-70.543v-22.056c0-9.895-8.049-17.944-17.944-17.944h-244.112c-9.895 0-17.944 8.049-17.944 17.944v22.056h-70.543c-10.728 0-19.457 8.728-19.457 19.457v61.086c0 10.729 8.729 19.457 19.457 19.457h170.543c5.523 0 10-4.477 10-10s-4.477-10-10-10h-170v-60h420v60h-170c-5.523 0-10 4.477-10 10s4.477 10 10 10h170.543c10.728 0 19.457-8.728 19.457-19.457v-61.086c0-10.729-8.729-19.457-19.457-19.457zm-330.543-20h240v20h-240z"/><path d="m486.492 102.315c-4.934-2.48-10.945-.491-13.426 4.443l-116 230.751c-2.48 4.935-.491 10.946 4.443 13.426 1.441.725 2.974 1.067 4.484 1.067 3.66 0 7.186-2.017 8.942-5.51l116-230.751c2.48-4.934.491-10.946-4.443-13.426z"/><path d="m146.008 352.002c1.51 0 3.043-.343 4.484-1.067 4.934-2.48 6.923-8.492 4.443-13.426l-116-230.751c-2.48-4.934-8.491-6.922-13.426-4.443-4.934 2.48-6.923 8.492-4.443 13.426l116 230.751c1.756 3.493 5.281 5.51 8.942 5.51z"/><path d="m256 280c77.196 0 140-62.804 140-140s-62.804-140-140-140-140 62.804-140 140 62.804 140 140 140zm-86.377-56.788c7.39-2.499 15.187-4.664 23.302-6.477 2.392 6.957 5.112 13.548 8.169 19.662 2.577 5.154 5.338 9.879 8.258 14.166-15.055-6.377-28.545-15.746-39.729-27.351zm-33.203-73.212h44.783c.607 16.596 2.706 32.636 6.193 47.49-10.943 2.494-21.369 5.587-31.083 9.241-11.072-16.488-18.163-35.86-19.893-56.731zm19.894-76.731c9.713 3.653 20.14 6.746 31.083 9.241-3.488 14.854-5.587 30.894-6.193 47.49h-44.784c1.73-20.871 8.821-40.243 19.894-56.731zm219.266 56.731h-44.783c-.607-16.596-2.706-32.636-6.193-47.49 10.943-2.494 21.369-5.587 31.082-9.241 11.073 16.488 18.164 35.86 19.894 56.731zm-19.894 76.731c-9.713-3.653-20.14-6.746-31.082-9.241 3.487-14.854 5.587-30.894 6.193-47.49h44.783c-1.73 20.871-8.821 40.243-19.894 56.731zm-109.686-16.559c-13.269.406-26.346 1.605-38.957 3.565-3.251-13.58-5.229-28.357-5.831-43.736h44.788zm0 20.008v47.592c-9.802-4.336-19.29-14.864-27.018-30.321-2.252-4.503-4.301-9.311-6.151-14.365 10.754-1.56 21.872-2.541 33.169-2.906zm20 47.592v-47.592c11.297.365 22.415 1.346 33.168 2.908-1.85 5.054-3.899 9.861-6.15 14.363-7.728 15.457-17.216 25.985-27.018 30.321zm0-67.6v-40.172h44.788c-.602 15.379-2.58 30.156-5.831 43.736-12.611-1.959-25.688-3.159-38.957-3.564zm44.788-60.172h-44.788v-40.172c13.269-.406 26.346-1.605 38.957-3.565 3.25 13.581 5.229 28.358 5.831 43.737zm-44.788-60.18v-47.592c9.802 4.336 19.29 14.864 27.018 30.321 2.252 4.503 4.301 9.311 6.151 14.365-10.754 1.56-21.872 2.541-33.169 2.906zm-20-47.592v47.592c-11.297-.366-22.415-1.347-33.167-2.91 1.85-5.053 3.899-9.859 6.15-14.362 7.727-15.456 17.215-25.985 27.017-30.32zm0 67.6v40.172h-44.788c.602-15.379 2.58-30.156 5.831-43.736 12.611 1.959 25.688 3.159 38.957 3.564zm56.647 160.734c2.921-4.286 5.682-9.012 8.259-14.166 3.057-6.113 5.777-12.703 8.168-19.659 8.114 1.813 15.91 3.979 23.3 6.478-11.184 11.604-24.672 20.971-39.727 27.347zm39.73-193.774c-7.39 2.499-15.187 4.664-23.302 6.477-2.392-6.957-5.112-13.548-8.169-19.662-2.578-5.155-5.34-9.879-8.261-14.167 15.056 6.377 28.547 15.746 39.732 27.352zm-133.021-27.351c-2.922 4.288-5.685 9.012-8.263 14.167-3.056 6.113-5.776 12.702-8.167 19.658-8.113-1.814-15.91-3.979-23.298-6.479 11.184-11.604 24.674-20.971 39.728-27.346z"/><path d="m246 310v32c0 5.523 4.477 10 10 10s10-4.477 10-10v-32c0-5.523-4.477-10-10-10s-10 4.477-10 10z"/><circle cx="256" cy="501.999" r="10"/></g></svg>