<svg id="Capa_1" enable-background="new 0 0 512 512" height="512" viewBox="0 0 512 512" width="512" xmlns="http://www.w3.org/2000/svg"><g><path d="m217.62 40.614c-42.428 0-76.946 34.517-76.946 76.945 0 5.523 4.477 10 10 10s10-4.477 10-10c0-31.4 25.546-56.945 56.946-56.945s56.946 25.545 56.946 56.945c0 5.523 4.477 10 10 10s10-4.477 10-10c0-42.427-34.518-76.945-76.946-76.945z"/><path d="m144.448 209.564c1.841 1.465 4.038 2.176 6.22 2.176 2.942 0 5.857-1.293 7.831-3.774 3.439-4.322 2.724-10.613-1.598-14.051-23.413-18.63-36.841-46.462-36.841-76.358 0-53.793 43.763-97.557 97.556-97.557 53.798 0 97.566 43.764 97.566 97.557 0 3.718-.207 7.395-.614 10.926-.633 5.486 3.301 10.447 8.788 11.081 5.485.631 10.447-3.301 11.08-8.788.495-4.29.746-8.737.746-13.219.001-64.821-52.739-117.557-117.566-117.557-64.82 0-117.556 52.736-117.556 117.557 0 36.025 16.179 69.561 44.388 92.007z"/><path d="m411.94 232.886c0-20.033-16.298-36.331-36.332-36.331-6.06 0-11.777 1.491-16.806 4.126-2.815-17.251-17.823-30.458-35.857-30.458-13.962 0-26.11 7.917-32.191 19.497-5.833-3.993-12.885-6.331-20.472-6.331-5.87 0-11.419 1.399-16.332 3.882v-69.711c0-20.033-16.298-36.331-36.332-36.331s-36.332 16.298-36.332 36.331v144.516c-4.914-2.484-10.46-3.893-16.332-3.893-20.033 0-36.331 16.298-36.331 36.332v67.181c0 16.738 6.518 32.475 18.353 44.309l29.526 29.527c3.085 3.084 4.784 7.185 4.784 11.548v44.92c0 11.028 8.972 20 20 20h164.321c11.028 0 20-8.972 20-20v-33.886c0-12 3.965-23.897 11.165-33.498 9.78-13.04 15.165-29.197 15.165-45.497v-27.977c0-5.523-4.477-10-10-10s-10 4.477-10 10v27.977c0 12-3.965 23.897-11.165 33.497-9.78 13.04-15.165 29.198-15.165 45.498v33.886h-164.319v-44.922c0-9.705-3.779-18.828-10.641-25.69l-29.526-29.527c-8.058-8.058-12.496-18.771-12.496-30.167v-67.181c0-9.005 7.326-16.332 16.331-16.332s16.332 7.326 16.332 16.332v49.103c0 5.523 4.477 10 10 10s10-4.477 10-10v-226.056c0-9.005 7.326-16.331 16.332-16.331 9.005 0 16.332 7.326 16.332 16.331v165.889c0 5.523 4.477 10 10 10s10-4.477 10-10v-63.729c0-9.005 7.326-16.331 16.332-16.331s16.332 7.326 16.332 16.331v50.563c0 5.523 4.477 10 10 10s10-4.477 10-10v-63.729c0-9.005 7.326-16.331 16.331-16.331s16.332 7.326 16.332 16.331v76.894c0 5.523 4.477 10 10 10s10-4.477 10-10v-50.563c0-9.005 7.326-16.331 16.332-16.331 9.005 0 16.331 7.326 16.331 16.331v37.397c0 5.523 4.477 10 10 10s10-4.477 10-10v-37.396z"/><circle cx="401.939" cy="310.001" r="10"/></g></svg>