<svg id="Capa_1" enable-background="new 0 0 512 512" height="512" viewBox="0 0 512 512" width="512" xmlns="http://www.w3.org/2000/svg"><g><path d="m256 164.1c22.405 0 40.633-18.228 40.633-40.633s-18.228-40.633-40.633-40.633-40.633 18.228-40.633 40.633 18.228 40.633 40.633 40.633zm0-66.266c14.134 0 25.633 11.499 25.633 25.633s-11.499 25.633-25.633 25.633-25.633-11.499-25.633-25.633 11.499-25.633 25.633-25.633z"/><path d="m256 197.233c40.675 0 73.767-33.092 73.767-73.767s-33.092-73.766-73.767-73.766-73.767 33.092-73.767 73.767 33.092 73.766 73.767 73.766zm0-132.533c32.404 0 58.767 26.363 58.767 58.767s-26.363 58.766-58.767 58.766-58.767-26.363-58.767-58.767 26.363-58.766 58.767-58.766z"/><path d="m145.721 156.868 8.777 1.463c.278.046.519.271.63.588 1.343 3.822 2.921 7.605 4.689 11.242.148.304.139.626-.023.859l-5.117 7.355c-4.369 6.28-3.613 14.764 1.796 20.173l24.832 24.833c5.477 5.477 14.029 6.185 20.334 1.683l7.237-5.17c.228-.164.561-.176.866-.029 3.644 1.751 7.436 3.311 11.268 4.637.317.109.536.342.586.622l1.583 8.816c1.352 7.53 7.885 12.995 15.535 12.995h35.118c7.748 0 14.295-5.546 15.568-13.188l1.463-8.777c.046-.278.272-.52.587-.631 3.816-1.34 7.599-2.918 11.244-4.689.304-.148.626-.139.858.023l7.355 5.117c.535.372 1.091.694 1.656.992l22.545 22.545c1.464 1.464 3.384 2.197 5.303 2.197s3.839-.733 5.303-2.197c2.929-2.929 2.929-7.678 0-10.607l-14.682-14.682c.016-.016.033-.029.049-.044l24.491-24.49 95.581 95.581c2.199 2.199 5.122 3.41 8.232 3.41 3.109 0 6.033-1.211 8.232-3.41l4.037-4.037 8.179 57.253-57.252-8.179 4.036-4.037c4.539-4.539 4.539-11.924 0-16.463l-56.153-56.153c-2.929-2.929-7.678-2.929-10.607 0s-2.929 7.678 0 10.606l53.778 53.778-6.411 6.411c-3.138 3.138-4.216 7.703-2.812 11.913 1.403 4.21 5.004 7.216 9.398 7.844l68.335 9.762c.563.081 1.124.12 1.682.12 3.064 0 5.982-1.2 8.196-3.413 2.615-2.616 3.815-6.216 3.293-9.878l-9.762-68.334c-.628-4.394-3.634-7.995-7.844-9.398-4.211-1.403-8.775-.325-11.912 2.813l-6.411 6.411-100.003-100.003c-.461-1.135-1.047-2.237-1.788-3.275l-5.169-7.237c-.164-.23-.175-.562-.029-.866 1.751-3.645 3.311-7.436 4.637-11.268.11-.317.342-.537.621-.587l8.816-1.582c7.529-1.352 12.995-7.885 12.995-15.535v-35.117c0-7.747-5.546-14.294-13.189-15.569l-8.776-1.462c-.278-.046-.519-.271-.631-.589-1.343-3.823-2.921-7.605-4.689-11.242-.148-.304-.139-.624.023-.858l5.117-7.355c4.369-6.28 3.613-14.765-1.796-20.173l-24.832-24.832c-5.478-5.478-14.03-6.187-20.334-1.683l-7.237 5.17c-.229.164-.562.174-.866.029-3.645-1.751-7.436-3.311-11.268-4.637-.317-.109-.536-.342-.586-.622l-1.583-8.816c-1.352-7.53-7.885-12.995-15.535-12.995h-35.118c-7.748 0-14.295 5.547-15.568 13.188l-1.463 8.777c-.046.278-.271.519-.589.631-3.824 1.343-7.607 2.921-11.24 4.689-.305.148-.625.14-.86-.023l-7.355-5.117c-6.279-4.369-14.764-3.613-20.173 1.796l-24.832 24.832c-5.479 5.478-6.186 14.03-1.683 20.334l5.17 7.237c.167.233.177.557.029.866-1.752 3.646-3.312 7.437-4.637 11.269-.109.317-.342.536-.621.586l-8.816 1.583c-7.529 1.352-12.995 7.885-12.995 15.535v35.117c-.001 7.747 5.546 14.295 13.187 15.568zm1.812-50.686c0-.379.271-.704.645-.771l8.816-1.583c5.612-1.007 10.267-5.01 12.147-10.446 1.139-3.292 2.478-6.547 3.982-9.678 2.515-5.237 2-11.398-1.345-16.08l-5.169-7.237c-.224-.313-.188-.737.084-1.009l24.832-24.832c.269-.268.689-.306 1.002-.089l7.354 5.116c4.68 3.257 10.804 3.718 15.984 1.2 3.122-1.518 6.371-2.873 9.653-4.026 5.479-1.923 9.469-6.644 10.414-12.317l1.463-8.776c.063-.379.388-.654.773-.654h35.118c.379 0 .704.271.771.645l1.582 8.815c1.007 5.612 5.01 10.267 10.446 12.147 3.292 1.139 6.547 2.478 9.678 3.982 5.239 2.515 11.398 1.999 16.079-1.345l7.237-5.169c.312-.224.736-.189 1.009.083l24.832 24.833c.268.268.306.689.089 1l-5.116 7.355c-3.258 4.682-3.718 10.806-1.201 15.983 1.518 3.123 2.874 6.372 4.027 9.656 1.924 5.478 6.644 9.467 12.317 10.413l8.775 1.462c.379.063.655.388.655.773v35.117c0 .38-.271.704-.645.771l-8.816 1.582c-5.612 1.007-10.267 5.01-12.147 10.447-1.139 3.292-2.478 6.547-3.982 9.677-2.515 5.237-2 11.398 1.345 16.08l5.169 7.237c.223.312.189.737-.083 1.009l-24.832 24.832c-.269.268-.69.305-1.001.089l-7.355-5.116c-4.681-3.258-10.806-3.718-15.982-1.201-3.13 1.521-6.379 2.876-9.657 4.027-5.477 1.924-9.467 6.645-10.412 12.317l-1.463 8.776c-.063.379-.388.654-.772.654h-35.118c-.379 0-.704-.271-.771-.645l-1.583-8.815c-1.007-5.612-5.01-10.267-10.446-12.147-3.292-1.139-6.548-2.479-9.677-3.982-2.204-1.059-4.572-1.58-6.924-1.58-3.236 0-6.444.988-9.156 2.925l-7.236 5.169c-.314.225-.739.188-1.01-.083l-24.831-24.832c-.269-.269-.306-.689-.089-1.001l5.117-7.355c3.257-4.682 3.717-10.806 1.2-15.983-1.519-3.124-2.874-6.373-4.027-9.654-1.923-5.478-6.644-9.468-12.317-10.413l-8.776-1.463c-.379-.063-.654-.388-.654-.772v-35.118z"/><path d="m496.217 463.867h-50.483v-83.617c0-8.703-7.081-15.783-15.784-15.783h-49.7c-8.703 0-15.783 7.08-15.783 15.783v83.617h-18.133v-133.6c0-8.547-6.953-15.5-15.5-15.5h-50.267c-8.547 0-15.5 6.953-15.5 15.5v133.6h-18.134v-183.3c0-8.547-6.953-15.5-15.5-15.5h-50.267c-8.547 0-15.5 6.953-15.5 15.5v183.3h-18.133v-232.631c0-8.547-6.953-15.5-15.5-15.5h-50.266c-8.547 0-15.5 6.953-15.5 15.5v232.631h-17.35c-.432 0-.783-.351-.783-.783v-298.2c0-8.703-7.08-15.783-15.783-15.783h-16.568c-8.702-.001-15.783 7.079-15.783 15.782v323.05c0 13.271 10.796 24.067 24.067 24.067h396.667c4.142 0 7.5-3.358 7.5-7.5s-3.358-7.5-7.5-7.5h-396.667c-5 0-9.067-4.067-9.067-9.067v-323.05c0-.432.352-.783.783-.783h16.567c.432 0 .783.352.783.783v298.2c0 8.703 7.08 15.783 15.783 15.783h447.3c.432 0 .783.352.783.783v16.567c0 .432-.352.783-.783.783h-40.483c-4.142 0-7.5 3.358-7.5 7.5s3.358 7.5 7.5 7.5h40.483c8.703 0 15.783-7.08 15.783-15.783v-16.566c.001-8.703-7.08-15.783-15.782-15.783zm-414.95 0v-232.631c0-.276.224-.5.5-.5h50.267c.276 0 .5.224.5.5v232.631zm99.399 0v-183.3c0-.276.224-.5.5-.5h50.267c.276 0 .5.224.5.5v183.3zm99.401 0v-133.6c0-.276.224-.5.5-.5h50.267c.276 0 .5.224.5.5v133.6zm99.4 0v-83.617c0-.432.352-.783.783-.783h49.7c.432 0 .784.352.784.783v83.617z"/></g></svg>