<svg id="Capa_1" enable-background="new 0 0 512 512" height="512" viewBox="0 0 512 512" width="512" xmlns="http://www.w3.org/2000/svg"><g><path d="m504.833 195.607c-1.298-5.367-6.702-8.668-12.07-7.369-5.368 1.298-8.667 6.702-7.369 12.07 3.607 14.913 5.725 30.242 6.372 45.692h-40.018c-2.349-46.52-20.998-88.812-50.331-121.274l28.413-28.413c9.069 9.896 17.377 20.645 24.801 32.186 2.987 4.645 9.175 5.987 13.82 3 4.645-2.988 5.988-9.175 3-13.82-47.403-73.687-127.945-117.679-215.451-117.679-68.38 0-132.667 26.628-181.019 74.981-48.353 48.352-74.981 112.639-74.981 181.019s26.628 132.667 74.981 181.019c48.352 48.353 112.639 74.981 181.019 74.981s132.667-26.628 181.02-74.981c48.351-48.352 74.98-112.639 74.98-181.019 0-20.41-2.411-40.73-7.167-60.393zm-238.833-135.354v-40.038c56.384 2.352 109.089 24.53 149.703 61.94l-28.43 28.429c-32.462-29.333-74.753-47.982-121.273-50.331zm-20 0c-46.52 2.349-88.811 20.998-121.273 50.331l-28.298-28.297c39.751-36.544 92.029-59.649 149.571-62.06zm-135.416 64.474c-29.333 32.462-47.982 74.753-50.331 121.273h-40.026c2.412-57.542 25.517-109.82 62.06-149.571zm-50.331 141.273c2.349 46.521 20.998 88.811 50.331 121.273l-28.297 28.297c-36.544-39.75-59.649-92.028-62.06-149.57zm64.474 135.416c32.462 29.333 74.753 47.982 121.273 50.331v40.026c-57.542-2.412-109.82-25.517-149.571-62.06zm141.273 50.331c46.52-2.349 88.811-20.998 121.273-50.331l28.297 28.297c-39.75 36.543-92.029 59.648-149.571 62.06v-40.026zm135.416-64.473c29.333-32.462 47.982-74.753 50.331-121.274h40.026c-2.412 57.542-25.517 109.82-62.06 149.571zm-145.416 44.726c-97.047 0-176-78.953-176-176s78.953-176 176-176 176 78.953 176 176-78.953 176-176 176z"/><path d="m328.97 214.929c0-24.739-17.682-45.42-41.071-50.082v-16.989c0-5.523-4.478-10-10-10s-10 4.477-10 10v16h-38.869v-16c0-5.523-4.477-10-10-10s-10 4.477-10 10v16h-16c-5.523 0-10 4.478-10 10s4.477 10 10 10h16v144.286h-16c-5.523 0-10 4.477-10 10 0 5.522 4.477 10 10 10h16v16c0 5.523 4.477 10 10 10s10-4.477 10-10v-16h38.869v16c0 5.523 4.478 10 10 10s10-4.477 10-10v-16.989c23.389-4.663 41.071-25.344 41.071-50.083 0-16.819-8.176-31.76-20.758-41.071 12.582-9.312 20.758-24.253 20.758-41.072zm-20 82.142c0 17.133-13.938 31.072-31.071 31.072h-48.869v-62.143h48.869c17.132 0 31.071 13.939 31.071 31.071zm-31.072-51.071h-48.868v-62.143h48.869c17.133 0 31.071 13.939 31.071 31.072s-13.939 31.071-31.072 31.071z"/><circle cx="482.498" cy="159.857" r="10"/></g></svg>