<svg id="Capa_1" enable-background="new 0 0 512 512" height="512" viewBox="0 0 512 512" width="512" xmlns="http://www.w3.org/2000/svg"><g><path d="m177.854 246.934c4.143 0 7.5-3.357 7.5-7.5s-3.357-7.5-7.5-7.5h-27.922c-4.143 0-7.5 3.357-7.5 7.5v66.266c0 4.143 3.357 7.5 7.5 7.5h27.922c4.143 0 7.5-3.357 7.5-7.5s-3.357-7.5-7.5-7.5h-20.422v-18.134h18.363c4.143 0 7.5-3.357 7.5-7.5s-3.357-7.5-7.5-7.5h-18.363v-18.133h20.422z"/><path d="m105.208 266.053c-8.263-3.048-15.946-6.37-18.174-7.347-1.545-1.204-2.286-3.078-1.996-5.103.189-1.318 1.136-4.536 5.82-5.947 9.767-2.944 18.731 4.175 18.959 4.359 3.171 2.633 7.876 2.215 10.532-.944 2.665-3.171 2.256-7.902-.915-10.567-.613-.515-15.201-12.545-32.902-7.211-8.853 2.667-15.114 9.633-16.342 18.179-1.148 8.001 2.318 15.695 9.048 20.083.331.216.679.405 1.04.566.383.17 9.485 4.223 19.738 8.004 3.091 1.141 10.172 4.387 9.188 9.895-.718 4.021-5.532 8.181-12.347 8.181-6.804 0-13.358-2.751-17.535-7.36-2.783-3.068-7.525-3.301-10.594-.521-3.069 2.782-3.303 7.525-.521 10.595 6.974 7.693 17.684 12.286 28.65 12.286 13.585 0 24.988-8.64 27.113-20.544 1.595-8.928-2.496-20.605-18.762-26.604z"/><path d="m244.12 231.934c-22.405 0-40.633 18.228-40.633 40.633s18.228 40.633 40.633 40.633 40.634-18.228 40.634-40.634-18.229-40.632-40.634-40.632zm0 66.266c-14.134 0-25.633-11.499-25.633-25.634 0-14.134 11.499-25.633 25.633-25.633 14.135 0 25.634 11.499 25.634 25.633 0 14.135-11.499 25.634-25.634 25.634z"/><path d="m255.999 364.466h-33.134c-4.143 0-7.5 3.357-7.5 7.5s3.357 7.5 7.5 7.5h33.134c4.143 0 7.5-3.357 7.5-7.5s-3.357-7.5-7.5-7.5z"/><path d="m511.999 98.617c0-54.378-44.239-98.617-98.617-98.617-36.588 0-68.585 20.03-85.605 49.699h-287.143c-22.405 0-40.633 18.228-40.633 40.634v39.551c0 4.143 3.357 7.5 7.5 7.5s7.5-3.357 7.5-7.5v-39.551c0-14.135 11.499-25.634 25.633-25.634h280.143c-2.134 5.809-3.731 11.875-4.742 18.135h-258.837c-13.271 0-24.066 10.796-24.066 24.066v224.433h-18.131v-166.449c0-4.143-3.358-7.5-7.5-7.5-4.143 0-7.5 3.357-7.5 7.5v207.084c0 22.405 18.228 40.634 40.633 40.634h133.315v51.267h-42.483c-8.547 0-15.5 6.953-15.5 15.5v17.131c0 8.547 6.953 15.5 15.5 15.5h215.933c8.547 0 15.5-6.953 15.5-15.5v-17.132c0-8.547-6.953-15.5-15.5-15.5h-42.483v-51.267h133.314c22.405 0 40.634-18.229 40.634-40.634v-199.68c20.314-18.077 33.135-44.402 33.135-73.67zm-98.617-83.617c46.107 0 83.617 37.511 83.617 83.617s-37.511 83.616-83.617 83.616-83.616-37.51-83.616-83.616 37.509-83.617 83.616-83.617zm-130.66 190.849c-3.535-3.534-3.535-9.286-.001-12.821l19.999-19.998c.152-.152.338-.229.554-.229.215 0 .4.077.553.23l35.143 35.142c.306.306.306.804 0 1.108l-19.997 19.997c-1.712 1.713-3.989 2.656-6.411 2.656s-4.698-.943-6.41-2.655c0 0 0 0 0-.001zm42.872-32.265 11.973-11.973c3.874 4.654 8.167 8.947 12.821 12.821l-11.973 11.973zm-277.462-66.684c0-4.999 4.067-9.066 9.066-9.066h257.577c-.002.261-.01.521-.01.783 0 18.48 5.114 35.786 13.995 50.586l-13.773 13.774-.554-.554c-2.98-2.981-6.944-4.624-11.16-4.624-4.217 0-8.181 1.643-11.16 4.623l-19.999 19.997c-9.383 9.384-9.383 24.652 0 34.036l23.429 23.428c4.545 4.546 10.589 7.05 17.018 7.05s12.473-2.504 17.019-7.049l19.997-19.998c6.152-6.154 6.152-16.166 0-22.321l-.554-.554 13.773-13.773c14.8 8.881 32.106 13.995 50.586 13.995 5.918 0 11.716-.525 17.351-1.529v135.629h-382.601zm299.766 372.468v17.132c0 .275-.225.5-.5.5h-215.932c-.275 0-.5-.225-.5-.5v-17.132c0-.275.225-.5.5-.5h215.933c.275 0 .499.225.499.5zm-99.399-15.5h-18.133v-17.354c0-.432.352-.783.783-.783h16.566c.432 0 .783.352.783.783v17.354zm41.416 0h-26.416v-17.354c0-8.703-7.08-15.783-15.783-15.783h-16.566c-8.703 0-15.783 7.08-15.783 15.783v17.354h-26.417v-51.267h100.966v51.267zm148.314-66.266h-397.595c-14.134 0-25.633-11.499-25.633-25.634v-25.635h448.862v25.635c0 14.135-11.499 25.634-25.634 25.634zm25.634-66.269h-18.131v-139.556c6.364-2.216 12.433-5.066 18.131-8.476z"/><path d="m413.382 164.101c36.107 0 65.483-29.376 65.483-65.483s-29.376-65.483-65.483-65.483-65.483 29.376-65.483 65.483 29.375 65.483 65.483 65.483zm0-115.967c27.837 0 50.483 22.646 50.483 50.483s-22.647 50.483-50.483 50.483c-27.837 0-50.483-22.646-50.483-50.483s22.646-50.483 50.483-50.483z"/></g></svg>