<svg id="Capa_1" enable-background="new 0 0 512 512" height="512" viewBox="0 0 512 512" width="512" xmlns="http://www.w3.org/2000/svg"><g><path d="m257.079 364.466h-33.133c-4.142 0-7.5 3.357-7.5 7.5s3.358 7.5 7.5 7.5h33.133c4.142 0 7.5-3.357 7.5-7.5s-3.358-7.5-7.5-7.5z"/><path d="m387.452 82.834c-22.405 0-40.633 18.228-40.633 40.633s18.228 40.634 40.633 40.634 40.633-18.229 40.633-40.634-18.227-40.633-40.633-40.633zm0 66.267c-14.134 0-25.633-11.499-25.633-25.634 0-14.134 11.499-25.633 25.633-25.633s25.633 11.499 25.633 25.633c.001 14.135-11.498 25.634-25.633 25.634z"/><path d="m387.452 49.7c-40.675 0-73.767 33.092-73.767 73.767s33.092 73.767 73.767 73.767 73.767-33.092 73.767-73.767-33.092-73.767-73.767-73.767zm0 132.533c-32.404 0-58.767-26.362-58.767-58.767s26.364-58.766 58.767-58.766 58.767 26.362 58.767 58.767-26.363 58.766-58.767 58.766z"/><path d="m497.731 90.066-8.776-1.464c-.278-.046-.52-.271-.63-.586-1.341-3.818-2.918-7.602-4.689-11.243-.148-.305-.14-.626.022-.859l5.116-7.355c4.37-6.28 3.615-14.765-1.795-20.174l-24.832-24.832c-5.479-5.479-14.031-6.185-20.335-1.683l-7.238 5.17c-.233.165-.556.176-.867.028-3.649-1.753-7.44-3.312-11.266-4.636-.313-.108-.539-.346-.588-.62l-1.582-8.817c-1.351-7.53-7.884-12.995-15.534-12.995h-35.117c-7.748 0-14.295 5.547-15.568 13.189l-1.463 8.776c-.046.278-.271.52-.588.631-3.819 1.341-7.601 2.919-11.242 4.69-.304.146-.625.139-.859-.024l-7.355-5.116c-6.281-4.369-14.765-3.612-20.173 1.796l-24.832 24.832c-.299.299-.577.611-.848.927h-244.978c-22.405 0-40.633 18.228-40.633 40.634v39.551c0 4.143 3.358 7.5 7.5 7.5s7.5-3.357 7.5-7.5v-39.553c0-14.135 11.499-25.634 25.633-25.634h241.945c.491 1.539 1.212 3.029 2.197 4.408l5.169 7.236c.164.23.175.562.029.867-.885 1.842-1.719 3.721-2.501 5.623h-230.274c-13.271 0-24.067 10.796-24.067 24.066v224.433h-18.131v-166.448c0-4.143-3.358-7.5-7.5-7.5s-7.5 3.357-7.5 7.5v207.084c0 22.405 18.228 40.634 40.633 40.634h133.315v51.267h-42.483c-8.547 0-15.5 6.953-15.5 15.5v17.131c0 8.547 6.953 15.5 15.5 15.5h32.713c4.142 0 7.5-3.357 7.5-7.5s-3.358-7.5-7.5-7.5h-32.713c-.276 0-.5-.225-.5-.5v-17.132c0-.275.224-.5.5-.5h215.933c.276 0 .5.225.5.5v17.132c0 .275-.224.5-.5.5h-148.219c-4.142 0-7.5 3.357-7.5 7.5s3.358 7.5 7.5 7.5h148.219c8.547 0 15.5-6.953 15.5-15.5v-17.132c0-8.547-6.953-15.5-15.5-15.5h-42.483v-51.267h133.314c22.405 0 40.633-18.229 40.633-40.634v-166.383l7.422-7.422c5.479-5.477 6.188-14.03 1.684-20.335l-5.169-7.237c-.164-.229-.175-.562-.029-.867 1.753-3.65 3.313-7.441 4.636-11.268.108-.312.346-.537.621-.587l8.815-1.582c7.53-1.351 12.996-7.884 12.996-15.535v-35.117c0-7.748-5.547-14.296-13.188-15.568zm-448.519 16.834c0-4.999 4.067-9.066 9.067-9.066h208.106c-1.521 2.437-2.4 5.3-2.4 8.349v35.117c0 7.747 5.546 14.295 13.189 15.569l8.773 1.461c.279.047.522.272.633.589 1.342 3.82 2.919 7.604 4.689 11.243.148.304.139.625-.023.857l-5.116 7.355c-4.37 6.279-3.615 14.765 1.795 20.175l24.831 24.831c5.479 5.479 14.03 6.184 20.335 1.683l7.235-5.169c.229-.165.563-.177.867-.029 3.648 1.752 7.44 3.312 11.27 4.637.317.109.536.342.586.621l1.582 8.816c1.352 7.53 7.885 12.995 15.535 12.995h35.118c7.747 0 14.295-5.547 15.568-13.189l1.462-8.774c.046-.278.272-.52.588-.632 3.008-1.056 5.992-2.265 8.908-3.595v110.59h-382.6v-224.434zm200.367 356.968h-18.133v-17.354c0-.433.352-.784.783-.784h16.567c.432 0 .783.352.783.784zm41.416 0h-26.416v-17.354c0-8.703-7.08-15.784-15.783-15.784h-16.567c-8.703 0-15.783 7.081-15.783 15.784v17.354h-26.417v-51.267h100.966zm148.315-66.266h-397.596c-14.134 0-25.633-11.499-25.633-25.634v-25.635h448.862v25.635c0 14.135-11.499 25.634-25.633 25.634zm25.633-66.269h-18.131v-104.402c5.445 1.648 11.513.27 15.722-3.938l2.409-2.409zm30.976-190.582c0 .38-.271.704-.645.771l-8.816 1.582c-5.611 1.007-10.266 5.01-12.147 10.447-1.137 3.286-2.477 6.543-3.982 9.677-2.515 5.236-2 11.398 1.344 16.08l5.169 7.237c.223.312.189.736-.083 1.008l-24.832 24.832c-.27.269-.69.306-1.002.089l-7.354-5.115c-.009-.007-.02-.012-.029-.019-.043-.03-.089-.057-.133-.086-4.659-3.157-10.701-3.582-15.819-1.096-3.13 1.521-6.379 2.876-9.658 4.027-5.476 1.925-9.465 6.645-10.412 12.318l-1.462 8.775c-.064.379-.388.654-.772.654h-35.118c-.379 0-.704-.271-.771-.645l-1.582-8.816c-1.008-5.612-5.011-10.266-10.447-12.145-3.289-1.138-6.544-2.478-9.679-3.982-2.203-1.059-4.57-1.58-6.922-1.58-3.236 0-6.444.988-9.157 2.925l-7.236 5.17c-.313.221-.738.186-1.009-.085l-24.832-24.831c-.268-.269-.306-.689-.089-1.001l5.117-7.356c3.256-4.682 3.716-10.806 1.199-15.982-1.52-3.126-2.875-6.374-4.027-9.655-1.924-5.477-6.643-9.466-12.318-10.414l-8.774-1.461c-.379-.063-.655-.389-.655-.773v-35.117c0-.38.272-.704.645-.771l8.815-1.582c5.347-.959 9.819-4.642 11.857-9.689.45-.762.769-1.609.927-2.513.993-2.691 2.11-5.349 3.346-7.922 2.515-5.236 1.999-11.398-1.345-16.08l-5.169-7.236c-.224-.312-.188-.737.083-1.009l24.832-24.833c.268-.269.689-.306 1.001-.088l7.355 5.115c4.682 3.257 10.806 3.717 15.983 1.201 3.128-1.52 6.376-2.876 9.654-4.027 5.478-1.923 9.469-6.644 10.414-12.317l1.463-8.776c.063-.379.388-.654.772-.654h35.117c.38 0 .704.271.771.644l1.583 8.817c1.007 5.61 5.009 10.265 10.447 12.146 3.287 1.137 6.543 2.477 9.676 3.981 5.237 2.517 11.399 2.003 16.081-1.344l7.237-5.17c.313-.223.737-.188 1.009.085l24.832 24.832c.268.268.305.688.088 1l-5.117 7.356c-3.256 4.681-3.716 10.805-1.199 15.982 1.521 3.128 2.875 6.377 4.027 9.656 1.924 5.477 6.644 9.467 12.317 10.411l8.777 1.464c.379.062.654.388.654.771z"/><path d="m199.663 157.384h-108.817c-12.958 0-23.5 10.542-23.5 23.5v108.816c0 12.958 10.542 23.5 23.5 23.5h108.816c12.958 0 23.5-10.542 23.5-23.5v-108.816c.001-12.958-10.541-23.5-23.499-23.5zm8.5 113.945-46.392-29.522 12.536-12.536c.283-.283.73-.31 1.044-.059l32.812 26.25zm-117.317-98.945h108.816c4.687 0 8.5 3.813 8.5 8.5v55.37l-23.442-18.754c-6.288-5.029-15.325-4.529-21.02 1.164l-14.893 14.893-15.022-9.559c-5.846-3.723-13.586-3.146-18.845 1.418l-32.593 28.543v-73.075c-.001-4.687 3.812-8.5 8.499-8.5zm108.817 125.816h-108.817c-4.687 0-8.5-3.814-8.5-8.5v-15.803l42.45-37.175c.261-.225.645-.255.936-.07l19.979 12.714c.019.012.038.024.056.036l62.395 39.706v.592c.001 4.687-3.812 8.5-8.499 8.5z"/><path d="m340.195 265.067h-83.4c-8.547 0-15.5 6.953-15.5 15.5v17.132c0 8.547 6.953 15.5 15.5 15.5h83.4c8.547 0 15.5-6.953 15.5-15.5v-17.132c.001-8.546-6.953-15.5-15.5-15.5zm.5 32.632c0 .275-.224.5-.5.5h-83.4c-.276 0-.5-.225-.5-.5v-17.132c0-.275.224-.5.5-.5h83.4c.276 0 .5.225.5.5z"/></g></svg>