<svg id="Capa_1" enable-background="new 0 0 511.999 511.999" height="512" viewBox="0 0 511.999 511.999" width="512" xmlns="http://www.w3.org/2000/svg"><g><path d="m506.016 122.625-37.105-37.105 7.071-7.071c11.696-11.697 11.696-30.729 0-42.427-11.697-11.696-30.729-11.698-42.427 0l-7.071 7.071-37.105-37.103c-4.138-4.139-9.867-6.301-15.706-5.947-5.8.356-11.17 3.18-14.733 7.746-29.985 38.428-28.721 92.359 1.767 129.366l-14.487 14.486-26.265-26.265c-7.799-7.798-20.486-7.798-28.285 0l-64.836 64.836-125.905-125.905c-3.852-3.851-8.972-5.972-14.418-5.972s-10.566 2.121-14.418 5.972l-66.121 66.121c-3.851 3.852-5.972 8.972-5.972 14.418 0 5.447 2.121 10.567 5.972 14.418l125.905 125.906-64.836 64.836c-7.798 7.798-7.798 20.486 0 28.284l-14.142 14.142c-3.777 3.778-5.857 8.8-5.857 14.142s2.08 10.365 5.857 14.143l38.389 38.388c3.777 3.777 8.8 5.857 14.143 5.857 5.342 0 10.364-2.08 14.142-5.857l14.143-14.142c3.778 3.777 8.8 5.858 14.142 5.858 5.343 0 10.365-2.081 14.143-5.858l64.837-64.837 125.907 125.906c3.975 3.975 9.195 5.962 14.417 5.962 5.221 0 10.442-1.987 14.418-5.962l66.121-66.121c7.95-7.95 7.95-20.886 0-28.836l-125.909-125.906 64.836-64.836c7.798-7.798 7.798-20.486 0-28.285l-26.265-26.265 14.493-14.493c5.784 4.77 12.038 8.903 18.704 12.307 4.918 2.512 10.942.56 13.454-4.358 2.512-4.919.561-10.942-4.358-13.454-7.76-3.962-14.853-9.129-21.08-15.356-29.77-29.769-32.722-77.203-6.868-110.336.029-.037.061-.079.191-.086.214-.013.299.088.337.126l116.637 116.635c.038.038.139.138.126.337-.008.13-.05.163-.088.192-5.471 4.27-11.461 7.84-17.804 10.613-5.06 2.212-7.369 8.107-5.157 13.168 1.643 3.757 5.314 5.997 9.168 5.997 1.338 0 2.697-.27 4.001-.84 7.874-3.442 15.308-7.873 22.096-13.17 4.566-3.563 7.39-8.933 7.746-14.732.359-5.844-1.808-11.569-5.945-15.708zm-318.663 268.714-66.68-66.68 145.651-145.651 66.674 66.674zm-.926-160.719-20.938-20.939 26.265-26.265 20.938 20.938zm-84.304-56.019-26.265 26.265-20.939-20.938 26.265-26.265zm-6.796-35.081 26.265-26.265 20.939 20.939-26.265 26.265zm20.938 49.223 20.938 20.938-26.265 26.265-20.938-20.938zm14.143-14.142 26.265-26.265 20.939 20.938-26.265 26.265zm-44.173-96.152c.152-.152.398-.152.551 0l20.663 20.663-26.265 26.265-20.938-20.938zm-66.235 66.397c0-.161.077-.239.114-.275l25.989-25.989 20.938 20.938-26.265 26.265-20.664-20.664c-.036-.037-.112-.114-.112-.275zm105.081 105.243 26.265-26.265 20.938 20.938-26.265 26.265zm-19.651 194.874-38.389-38.388 14.143-14.142 38.388 38.388zm42.436-14.133s-.003-.003-.009-.008c-.001 0-.001 0-.001-.001l-66.673-66.672 25.347-25.347 66.681 66.681zm119.376-91.111 20.938 20.939-26.265 26.265-20.938-20.939zm84.304 56.02 26.265-26.265 20.939 20.939-26.265 26.265zm6.796 35.081-26.265 26.265-20.938-20.939 26.265-26.265zm-20.938-49.224-20.938-20.938 26.265-26.265 20.938 20.938zm-14.143 14.143-26.265 26.265-20.938-20.938 26.265-26.265zm44.174 96.151c-.152.152-.401.152-.552.001l-20.663-20.663 26.265-26.265 20.939 20.939zm66.12-66.121-25.989 25.99-20.939-20.939 26.265-26.265 20.663 20.663c.152.151.152.399 0 .551zm-104.967-105.518-26.265 26.264-20.939-20.939 26.265-26.265zm18.551-88.712-66.673-66.674 25.347-25.347 66.672 66.672zm100.558-181.374c3.897-3.899 10.242-3.9 14.142 0 3.899 3.899 3.899 10.243 0 14.142l-7.071 7.071-14.142-14.142z"/><circle cx="438.111" cy="164.887" r="10"/></g></svg>