<svg id="Capa_1" enable-background="new 0 0 512 512" height="512" viewBox="0 0 512 512" width="512" xmlns="http://www.w3.org/2000/svg"><g><path d="m140.033 182.232c-4.142 0-7.5 3.357-7.5 7.5v8.283c0 4.143 3.358 7.5 7.5 7.5s7.5-3.357 7.5-7.5v-8.283c0-4.143-3.358-7.5-7.5-7.5z"/><path d="m206.299 182.232c-4.142 0-7.5 3.357-7.5 7.5v8.283c0 4.143 3.358 7.5 7.5 7.5s7.5-3.357 7.5-7.5v-8.283c0-4.143-3.358-7.5-7.5-7.5z"/><path d="m191.27 224.663c-3.583-2.077-8.173-.857-10.25 2.728-1.624 2.803-4.634 4.544-7.854 4.544s-6.229-1.741-7.854-4.544c-2.078-3.584-6.665-4.806-10.25-2.728-3.583 2.077-4.805 6.666-2.727 10.249 4.298 7.416 12.28 12.022 20.831 12.022s16.533-4.606 20.832-12.022c2.077-3.583.856-8.172-2.728-10.249z"/><path d="m478.867 100.106v-84.606c0-8.547-6.953-15.5-15.5-15.5h-17.133c-8.547 0-15.5 6.953-15.5 15.5v4.214l-110.459 63.12h-52.452c-13.218-19.946-35.855-33.133-61.524-33.133h-66.267c-12.829 0-25.467 3.347-36.548 9.678-3.596 2.055-4.846 6.636-2.792 10.233 2.055 3.597 6.636 4.848 10.233 2.791 8.818-5.038 18.883-7.701 29.107-7.701h66.267c32.404 0 58.767 26.362 58.767 58.767v25.631l-25.633.003c-13.812 0-25.1-10.982-25.609-24.672 1.784-5.527 2.758-11.415 2.758-17.529 0-4.143-3.358-7.5-7.5-7.5s-7.5 3.357-7.5 7.5c0 23.269-18.931 42.2-42.2 42.2l-78.116-.003v-25.631c0-10.224 2.663-20.289 7.702-29.107 2.055-3.597.806-8.178-2.791-10.232-3.595-2.055-8.177-.806-10.232 2.791-6.331 11.08-9.678 23.719-9.678 36.549v26.834c-9.608 3.16-16.566 12.212-16.566 22.863v33.134c0 13.27 10.796 24.067 24.066 24.067h9.381c2.07 25.072 14.42 47.272 32.817 62.363v18.15l-20.456 20.457-21.745-.001c-40.673 0-73.763 33.09-73.763 73.763l-.001 82.834c0 13.271 10.796 24.067 24.067 24.067h32.198c4.142 0 7.5-3.357 7.5-7.5s-3.358-7.5-7.5-7.5h-32.198c-5 0-9.067-4.067-9.067-9.066l.001-82.835c0-32.402 26.361-58.763 58.762-58.763l20.217.001 25.921 51.84c2.262 4.524 6.595 7.71 11.589 8.521.837.136 1.677.202 2.513.202 3.732 0 7.37-1.337 10.231-3.767l4.772 19.088-7.478 74.779h-50.263c-4.142 0-7.5 3.357-7.5 7.5s3.358 7.5 7.5 7.5h230.999c13.271 0 24.067-10.796 24.067-24.066l-.001-82.835c0-40.673-33.09-73.763-73.763-73.763l-21.745.001-20.457-20.458v-18.147c18.399-15.091 30.75-37.293 32.82-62.366h9.38c13.27 0 24.067-10.797 24.067-24.067v-9.064h23.643l110.458 63.119v4.214c0 8.547 6.953 15.5 15.5 15.5h17.133c8.547 0 15.5-6.953 15.5-15.5v-84.605c18.834-3.531 33.134-20.087 33.134-39.929s-14.3-36.398-33.133-39.928zm-414.167 106.192v-33.134c0-4.992 4.057-9.055 9.047-9.065.006 0 .013.001.019.001.013 0 .026-.002.039-.002h9.029l.001 51.268h-9.068c-5 0-9.067-4.068-9.067-9.068zm69.193 185.592c-.396-.064-.531-.334-.575-.423l-25.576-51.15 15.724-15.725 39.093 39.092-27.987 27.987c-.071.07-.283.29-.679.219zm49.984 22.278h-21.422l-5.833-23.333 16.544-16.544 16.544 16.544zm-20.49 15h19.558l6.783 67.832h-33.125zm109.18-82.832c32.402 0 58.763 26.36 58.763 58.763l.001 82.835c0 4.999-4.067 9.066-9.067 9.066h-117.461l-7.478-74.78 4.772-19.088c2.861 2.431 6.499 3.767 10.231 3.767.835 0 1.676-.066 2.513-.202 4.994-.811 9.327-3.996 11.589-8.521l25.921-51.84zm-59.553 45.131c-.044.089-.179.358-.575.423-.395.07-.608-.149-.679-.22l-27.987-27.986 39.094-39.092 15.723 15.725zm2.351-80.587-42.2 42.198-42.201-42.2v-8.162c12.604 6.688 26.967 10.485 42.202 10.485 15.234 0 29.596-3.796 42.199-10.483zm-42.199-12.679c-41.539 0-75.332-33.794-75.332-75.332l-.001-58.768h61.548c17.896 0 33.893-8.267 44.389-21.176 6.906 12.607 20.301 21.176 35.662 21.176l9.067-.001-.001 58.765v.003c.001 41.539-33.793 75.333-75.332 75.333zm108.466-91.903c0 5-4.067 9.067-9.067 9.067h-9.066v-51.268h9.027c.013 0 .026.002.039.002.007 0 .013-.001.019-.001 4.991.011 9.048 4.073 9.048 9.065zm33.135-24.064h-18.134v-9.069c0-10.652-6.959-19.704-16.567-22.864v-26.834c0-9.01-1.63-17.645-4.601-25.634h39.302zm15 3.148v-90.696l100.967-57.695v206.086zm134.1 79.185c0 .275-.224.5-.5.5h-17.133c-.276 0-.5-.225-.5-.5v-249.067c0-.275.224-.5.5-.5h17.133c.276 0 .5.225.5.5zm15-100.021v-49.023c10.486 3.215 18.133 12.986 18.133 24.511 0 11.526-7.647 21.297-18.133 24.512z"/><path d="m467.452 327.985-20.553-2.987-9.191-18.623c-3.036-6.15-9.182-9.971-16.041-9.971s-13.005 3.82-16.041 9.971l-9.191 18.623-20.553 2.987c-6.788.986-12.321 5.651-14.44 12.175-2.119 6.523-.384 13.55 4.527 18.336l14.872 14.498-3.511 20.47c-1.16 6.76 1.567 13.463 7.116 17.495 3.136 2.277 6.804 3.436 10.498 3.436 2.843 0 5.701-.687 8.341-2.074l18.382-9.664 18.383 9.664c6.071 3.192 13.29 2.669 18.839-1.361 5.549-4.032 8.276-10.735 7.116-17.495l-3.511-20.47 14.871-14.497c4.912-4.788 6.646-11.814 4.527-18.337-2.12-6.525-7.653-11.19-14.44-12.176zm-.557 19.77-15.738 15.342c-2.994 2.916-4.359 7.117-3.652 11.236l3.716 21.665c.264 1.539-.606 2.431-1.149 2.824-.543.395-1.659.947-3.042.22l-19.458-10.23c-3.696-1.941-8.112-1.942-11.812.001l-19.456 10.229c-1.383.727-2.499.175-3.042-.22-.542-.394-1.413-1.285-1.149-2.824l3.716-21.666c.706-4.12-.66-8.32-3.651-11.233l-15.74-15.345c-1.119-1.09-.938-2.322-.731-2.96s.786-1.741 2.332-1.966l21.749-3.16c4.138-.6 7.712-3.196 9.561-6.944l9.728-19.711c.691-1.4 1.919-1.609 2.59-1.609.67 0 1.898.209 2.59 1.609l9.729 19.711c1.85 3.749 5.424 6.345 9.557 6.943l21.752 3.161c1.546.225 2.125 1.328 2.332 1.966.206.638.387 1.871-.732 2.961z"/></g></svg>