<svg id="Capa_1" enable-background="new 0 0 512 512" height="512" viewBox="0 0 512 512" width="512" xmlns="http://www.w3.org/2000/svg"><g><path d="m371 60c11.028 0 20-8.972 20-20v-20c0-11.028-8.972-20-20-20h-75c-5.522 0-10 4.477-10 10s4.478 10 10 10h75v20h-230v-20h75c5.523 0 10-4.477 10-10s-4.477-10-10-10h-75c-11.028 0-20 8.972-20 20v20c0 11.028 8.972 20 20 20h75v20h-75c-11.028 0-20 8.972-20 20v145c0 11.028 8.972 20 20 20h1.929c4.54 24.734 16.978 47.417 35.609 64.614 21.119 19.495 48.485 30.286 77.058 30.386.137.001.269.001.404.001 28.741 0 56.241-10.649 77.467-30.008 18.913-17.25 31.41-40.064 35.782-64.992h1.751c11.028 0 20-8.972 20-20v-145c0-11.028-8.972-20-20-20h-75v-20.001zm-114.992 280.001c-.111 0-.231 0-.343-.001-44.844-.157-82.756-31.7-92.326-75h185.537c-9.179 43.492-47.299 75.001-92.868 75.001zm114.992-95h-230v-60h230.007l.006 59.999s-.004.001-.013.001zm.006-80h-230.006v-65h230zm-95.006-85h-40v-20.001h40z"/><path d="m290.987 395.347c3.902-3.908 3.898-10.24-.01-14.142-3.908-3.903-10.24-3.898-14.143.009-5.658 5.666-13.188 8.786-21.204 8.786s-15.546-3.121-21.204-8.787c-3.902-3.908-10.234-3.912-14.143-.009-3.908 3.902-3.912 10.234-.01 14.142 9.438 9.45 21.994 14.654 35.357 14.654s25.919-5.204 35.357-14.653z"/><path d="m184.209 417.279c-3.905 3.905-3.905 10.237 0 14.143 19.074 19.074 44.439 29.578 71.421 29.578 26.981 0 52.347-10.504 71.422-29.579 3.905-3.905 3.905-10.237 0-14.142s-10.235-3.905-14.143 0c-15.296 15.297-35.639 23.721-57.279 23.721s-41.982-8.424-57.278-23.721c-3.906-3.905-10.237-3.905-14.143 0z"/><path d="m348.971 453.338c-24.942 24.932-58.091 38.662-93.341 38.662s-68.399-13.73-93.341-38.662c-3.904-3.905-10.237-3.903-14.142.002-3.904 3.906-3.903 10.238.003 14.142 28.719 28.708 66.889 44.518 107.48 44.518s78.761-15.81 107.479-44.518c3.906-3.904 3.907-10.236.003-14.142-3.906-3.905-10.237-3.907-14.141-.002z"/><circle cx="256" cy="10" r="10"/><circle cx="296" cy="215.001" r="10"/><circle cx="256" cy="215.001" r="10"/><circle cx="216" cy="215.001" r="10"/></g></svg>