<svg id="Capa_1" enable-background="new 0 0 512 512" height="512" viewBox="0 0 512 512" width="512" xmlns="http://www.w3.org/2000/svg"><g><path d="m509.733 287.571c0-19.299-15.701-35-35-35-9.296 0-17.75 3.65-24.024 9.583l-51.301-29.619c.62-2.604.958-5.316.958-8.107 0-15.823-10.558-29.22-24.997-33.536v-46.122c0-5.523-4.477-10-10-10s-10 4.477-10 10v46.12c-14.442 4.313-25.003 17.712-25.003 33.538 0 2.792.338 5.505.959 8.11l-75.325 43.486-75.326-43.485c.621-2.605.959-5.318.959-8.11 0-15.826-10.561-29.225-25.003-33.538v-59.211c14.442-4.313 25.003-17.712 25.003-33.538 0-2.793-.338-5.506-.959-8.112l51.302-29.614c6.274 5.934 14.728 9.584 24.024 9.584s17.75-3.65 24.024-9.583l40.727 23.512c1.575.909 3.293 1.342 4.99 1.342 3.456 0 6.818-1.794 8.67-5.002 2.761-4.783 1.122-10.899-3.661-13.66l-40.709-23.501c.621-2.605.959-5.317.959-8.108 0-19.299-15.701-35-35-35s-35 15.701-35 35c0 2.791.338 5.503.958 8.107l-51.304 29.616c-6.273-5.932-14.727-9.58-24.021-9.58-19.299 0-35 15.701-35 35 0 15.823 10.558 29.22 24.997 33.536v59.215c-14.439 4.315-24.997 17.713-24.997 33.536 0 2.791.338 5.503.958 8.107l-75.321 43.487c-6.168 3.562-10.001 10.198-10.001 17.321v86.976c-14.442 4.313-25.003 17.712-25.003 33.538 0 19.299 15.701 35 35 35 9.294 0 17.747-3.648 24.02-9.579l51.304 29.616c-.62 2.603-.958 5.315-.958 8.105 0 19.299 15.701 35 35 35s35-15.701 35-35c0-2.792-.338-5.504-.959-8.109l51.303-29.615c6.274 5.932 14.727 9.581 24.022 9.581s17.749-3.649 24.022-9.581l51.303 29.615c-.62 2.604-.959 5.317-.959 8.109 0 19.299 15.701 35 35 35s35-15.701 35-35c0-2.79-.338-5.502-.958-8.106l75.322-43.488c6.168-3.562 9.999-10.198 9.999-17.319v-86.978c14.445-4.314 25.006-17.713 25.006-33.539zm-144.366-78.142c8.271 0 15 6.729 15 15s-6.729 15-15 15-15-6.729-15-15 6.729-15 15-15zm-109.367-189.429c8.271 0 15 6.729 15 15s-6.729 15-15 15-15-6.729-15-15 6.729-15 15-15zm-124.367 78.143c0-8.271 6.729-15 15-15s15 6.729 15 15-6.729 15-15 15-15-6.729-15-15zm15 111.286c8.271 0 15 6.729 15 15s-6.729 15-15 15-15-6.729-15-15 6.729-15 15-15zm-24.024 40.417c6.274 5.933 14.728 9.583 24.024 9.583 9.295 0 17.749-3.649 24.022-9.581l75.345 43.496v86.977c-14.44 4.314-25 17.712-25 33.537 0 2.792.338 5.505.959 8.11l-51.302 29.615c-6.274-5.933-14.728-9.582-24.023-9.582-9.297 0-17.752 3.65-24.025 9.585l-51.302-29.616c.621-2.606.96-5.32.96-8.113 0-15.823-10.558-29.22-24.997-33.536v-86.978zm-85.342 179.011c-8.271 0-15-6.728-15-15 0-8.271 6.729-15 15-15s15 6.729 15 15c0 8.272-6.729 15-15 15zm109.366 63.143c-8.271 0-15-6.728-15-15s6.729-15 15-15 15 6.728 15 15-6.729 15-15 15zm109.367-63.143c-8.271 0-15-6.728-15-15 0-8.271 6.729-15 15-15s15 6.729 15 15c0 8.272-6.729 15-15 15zm109.367 63.143c-8.271 0-15-6.728-15-15s6.729-15 15-15 15 6.728 15 15-6.729 15-15 15zm24.025-40.416c-6.274-5.934-14.729-9.584-24.025-9.584-9.295 0-17.749 3.649-24.023 9.582l-51.303-29.615c.621-2.605.959-5.318.959-8.11 0-15.824-10.56-29.223-25-33.537v-86.977l75.345-43.496c6.274 5.932 14.727 9.581 24.022 9.581 9.296 0 17.75-3.65 24.024-9.583l51.301 29.619c-.62 2.604-.958 5.316-.958 8.107 0 15.823 10.558 29.22 24.997 33.536v86.98zm85.341-149.013c-8.271 0-15-6.728-15-15 0-8.271 6.729-15 15-15s15 6.729 15 15c0 8.272-6.729 15-15 15z"/><circle cx="364.227" cy="99.283" r="10"/></g></svg>