<svg id="Capa_1" enable-background="new 0 0 512 512" height="512" viewBox="0 0 512 512" width="512" xmlns="http://www.w3.org/2000/svg"><g><path d="m140.033 362.606c13.271 0 24.067-10.796 24.067-24.066 0-13.271-10.796-24.066-24.067-24.066-13.27 0-24.066 10.796-24.066 24.066s10.796 24.066 24.066 24.066zm0-33.132c5 0 9.067 4.067 9.067 9.066s-4.067 9.066-9.067 9.066c-4.999 0-9.066-4.067-9.066-9.066s4.067-9.066 9.066-9.066z"/><path d="m371.967 147.826c13.271 0 24.066-10.797 24.066-24.067s-10.796-24.066-24.066-24.066-24.067 10.795-24.067 24.066 10.796 24.067 24.067 24.067zm0-33.134c4.999 0 9.066 4.067 9.066 9.066 0 5-4.067 9.067-9.066 9.067s-9.066-4.067-9.066-9.067c-.001-4.998 4.067-9.066 9.066-9.066z"/><path d="m118.164 194.744c1.464 1.464 3.384 2.196 5.303 2.196s3.839-.732 5.303-2.196l11.263-11.264 11.263 11.264c1.464 1.464 3.384 2.196 5.303 2.196s3.839-.732 5.303-2.196c2.929-2.93 2.929-7.678 0-10.607l-11.263-11.263 11.263-11.263c2.929-2.93 2.929-7.678 0-10.607-2.929-2.928-7.678-2.928-10.606 0l-11.263 11.264-11.263-11.264c-2.928-2.928-7.677-2.928-10.606 0-2.929 2.93-2.929 7.678 0 10.607l11.263 11.263-11.263 11.263c-2.93 2.929-2.93 7.677 0 10.607z"/><path d="m261.304 267.556c-2.929-2.928-7.678-2.928-10.607 0l-11.263 11.263-11.264-11.263c-2.929-2.928-7.678-2.928-10.606 0-2.929 2.93-2.929 7.678 0 10.607l11.263 11.263-11.263 11.263c-2.929 2.93-2.929 7.678 0 10.607 1.464 1.464 3.384 2.196 5.303 2.196s3.839-.732 5.303-2.196l11.264-11.263 11.263 11.263c1.464 1.464 3.384 2.196 5.303 2.196s3.839-.732 5.304-2.196c2.929-2.93 2.929-7.678 0-10.607l-11.263-11.263 11.263-11.263c2.928-2.93 2.928-7.678 0-10.607z"/><path d="m393.837 267.556c-2.93-2.928-7.678-2.928-10.607 0l-11.263 11.263-11.263-11.263c-2.93-2.928-7.678-2.928-10.607 0-2.929 2.93-2.929 7.678 0 10.607l11.263 11.263-11.263 11.263c-2.929 2.93-2.929 7.678 0 10.607 1.465 1.464 3.385 2.196 5.304 2.196s3.839-.732 5.304-2.196l11.263-11.263 11.263 11.263c1.465 1.464 3.385 2.196 5.304 2.196s3.839-.732 5.304-2.196c2.929-2.93 2.929-7.678 0-10.607l-11.263-11.263 11.263-11.263c2.927-2.93 2.927-7.678-.002-10.607z"/><path d="m366.663 167.174-16.566 16.566c-2.929 2.93-2.929 7.678 0 10.607 2.93 2.928 7.678 2.928 10.607 0l3.763-3.763v32.574c0 .432-.352.783-.783.783h-215.368c-8.703 0-15.783 7.08-15.783 15.783v49.7c0 4.143 3.358 7.5 7.5 7.5s7.5-3.357 7.5-7.5v-49.7c0-.432.352-.783.783-.783h215.367c8.703 0 15.783-7.08 15.783-15.783v-32.574l3.763 3.763c1.465 1.464 3.385 2.196 5.304 2.196s3.839-.732 5.304-2.196c2.929-2.93 2.929-7.678 0-10.607l-16.566-16.566c-.395-.372-2.36-2.149-5.399-2.112-2.918.036-4.793 1.719-5.209 2.112z"/><path d="m496.5 0h-372.1c-4.142 0-7.5 3.357-7.5 7.5s3.358 7.5 7.5 7.5h322.9v34.699h-382.6v-34.699h24.7c4.142 0 7.5-3.357 7.5-7.5s-3.358-7.5-7.5-7.5h-73.9c-8.547 0-15.5 6.953-15.5 15.5v33.699c0 8.547 6.953 15.5 15.5 15.5h1.067v324.4c0 12.958 10.542 23.5 23.5 23.5h49.333c4.142 0 7.5-3.357 7.5-7.5s-3.358-7.5-7.5-7.5h-49.333c-4.687 0-8.5-3.814-8.5-8.5v-324.4h448.866v324.4c0 4.686-3.814 8.5-8.5 8.5h-347.533c-4.142 0-7.5 3.357-7.5 7.5s3.358 7.5 7.5 7.5h93.031c-11.442 10.466-18.632 25.508-18.632 42.2 0 31.54 25.66 57.2 57.2 57.2s57.2-25.66 57.2-57.2c0-16.692-7.19-31.734-18.632-42.2h177.365c12.958 0 23.5-10.542 23.5-23.5v-324.4h1.066c8.547 0 15.5-6.953 15.5-15.5v-33.699c.002-8.547-6.951-15.5-15.498-15.5zm-198.3 454.8c0 23.27-18.931 42.2-42.2 42.2s-42.2-18.931-42.2-42.2 18.931-42.2 42.2-42.2 42.2 18.93 42.2 42.2zm-274.133-405.101h-8.567c-.276 0-.5-.225-.5-.5v-33.699c0-.275.224-.5.5-.5h34.2v34.699zm472.933-.5c0 .275-.225.5-.5.5h-8.566-25.634v-34.699h34.2c.275 0 .5.225.5.5z"/><path d="m256 478.866c13.27 0 24.066-10.796 24.066-24.066s-10.796-24.067-24.066-24.067c-13.271 0-24.067 10.796-24.067 24.066s10.796 24.067 24.067 24.067zm0-33.133c4.999 0 9.066 4.067 9.066 9.066s-4.067 9.066-9.066 9.066c-5 0-9.067-4.067-9.067-9.066s4.067-9.066 9.067-9.066z"/></g></svg>