<svg id="Capa_1" enable-background="new 0 0 512 512" height="512" viewBox="0 0 512 512" width="512" xmlns="http://www.w3.org/2000/svg"><g><path d="m509.803 108.661c-3.076-5.552-8.931-9-15.277-9h-39.426l31.894-82.687c1.48-3.841.975-8.16-1.355-11.555-2.329-3.393-6.177-5.419-10.293-5.419h-84.341c-8.182 0-15.364 5.807-17.079 13.807l-15.011 70.051c-33.625-27.687-74.333-44.769-117.451-49.418v-10.374c0-13.27-10.797-24.066-24.067-24.066-13.271 0-24.066 10.796-24.066 24.066v10.358c-36.374 3.903-71.071 16.639-101.495 37.422-3.42 2.337-4.299 7.004-1.963 10.424 2.336 3.419 7.003 4.299 10.424 1.963 25.268-17.262 53.701-28.567 83.586-33.406-8.134 9.251-15.622 22.048-22.281 38.223-12.935 31.421-21.878 74.011-25.42 120.723-.192-.084-.385-.161-.575-.25l-42.901-20.038c-10.929-5.104-23.463-5.103-34.39.001l-42.183 19.701c-.155.07-.441.206-.816-.099-.395-.321-.315-.662-.276-.826 9.208-39.186 29.56-74.682 58.856-102.648 2.996-2.86 3.106-7.608.246-10.604-2.861-2.998-7.609-3.106-10.604-.246-31.406 29.98-53.227 68.041-63.101 110.066-1.399 5.953.677 12.046 5.419 15.898 4.731 3.845 11.1 4.63 16.623 2.048l42.183-19.7c6.893-3.22 14.8-3.221 21.694-.001l42.901 20.037c10.929 5.105 23.463 5.103 34.39 0l29.682-13.862v24.76c-17.97 3.119-35.186 9.716-50.708 19.538-3.501 2.215-4.543 6.848-2.328 10.348 2.216 3.502 6.848 4.542 10.348 2.328 19.946-12.62 43.029-19.291 66.755-19.291 68.944 0 125.034 56.09 125.034 125.033s-56.09 125.034-125.034 125.034c-68.943 0-125.033-56.09-125.033-125.033 0-31.366 11.664-61.363 32.845-84.467 2.799-3.054 2.593-7.798-.46-10.597-3.055-2.8-7.799-2.594-10.597.46-23.724 25.877-36.788 59.475-36.788 94.603-.001 77.216 62.818 140.034 140.033 140.034s140.034-62.818 140.034-140.033c0-69.01-50.18-126.513-115.967-137.956v-24.76l29.682 13.863c5.464 2.552 11.329 3.828 17.194 3.828 5.866 0 11.732-1.276 17.195-3.828l42.901-20.036c6.895-3.221 14.801-3.221 21.693 0l42.181 19.699c.074.034.15.06.224.093l-2.975 17.853c-.992 5.947 2.254 11.592 7.893 13.727 1.483.561 3.002.831 4.495.831 4.184 0 8.155-2.121 10.511-5.89l76.878-123.006c3.364-5.382 3.543-12.173.467-17.724zm-301.473-84.595c0-4.999 4.067-9.066 9.066-9.066 5 0 9.067 4.067 9.067 9.066v9.261c-3.015-.121-6.036-.195-9.067-.195-3.03 0-6.053.065-9.066.186zm9.067 207.868c-3.033 0-6.056.11-9.066.304v-29.902c5.852-2.219 12.28-2.219 18.134-.001v29.901c-3-.194-6.022-.302-9.068-.302zm17.195-42.449c-10.929-5.104-23.463-5.103-34.39.001l-42.901 20.037c-1.999.934-4.085 1.588-6.206 1.98 3.39-45.401 11.971-86.605 24.378-116.744 12.198-29.632 27.479-46.627 41.924-46.627s29.727 16.995 41.925 46.627c12.407 30.138 20.987 71.342 24.377 116.743-2.121-.392-4.206-1.046-6.205-1.979zm141.886.001c-10.926-5.104-23.461-5.104-34.389 0l-42.901 20.037c-.19.089-.384.166-.576.25-3.541-46.712-12.484-89.302-25.419-120.724-6.656-16.168-14.14-28.961-22.27-38.211 38.644 6.281 74.785 23.367 104.421 49.687l-7.044 32.873c-1.11 5.183.164 10.519 3.497 14.641 3.332 4.121 8.282 6.485 13.582 6.485h33.436c7.583 13.528 13.627 27.864 17.993 42.705l-1.715 10.29zm45.341-22.324c-1.859-4.272-3.852-8.486-5.978-12.637h8.084zm74.797-48.727-70.185 112.297 12.778-76.672c.604-3.627-.413-7.316-2.789-10.12-2.377-2.806-5.848-4.414-9.524-4.414h-61.519c-1.024 0-1.642-.574-1.918-.916s-.708-1.066-.493-2.067l25.627-119.593c.241-1.13 1.256-1.949 2.411-1.949h80.673l-31.893 82.685c-1.482 3.841-.977 8.16 1.352 11.556 2.329 3.395 6.177 5.421 10.294 5.421h43.095c1.265 0 1.895.796 2.157 1.271.263.472.605 1.428-.066 2.501z"/><path d="m145.564 451.069c.382.423.807.805 1.276 1.132 9.989 8.795 21.624 15.758 34.382 20.36.344.153.702.278 1.071.378 11.001 3.836 22.812 5.928 35.104 5.928s24.102-2.092 35.103-5.927c.37-.101.73-.226 1.075-.379 12.755-4.601 24.389-11.564 34.377-20.357.469-.328.896-.711 1.279-1.135 21.53-19.569 35.066-47.784 35.066-79.102 0-58.945-47.955-106.9-106.9-106.9-58.944 0-106.899 47.955-106.899 106.9-.001 31.318 13.536 59.533 35.066 79.102zm46.2 9.156v-21.992c0-4.143-3.357-7.5-7.5-7.5s-7.5 3.357-7.5 7.5v16.147c-6.517-3.226-12.6-7.201-18.134-11.815v-20.898c0-14.135 11.499-25.634 25.634-25.634h66.267c14.134 0 25.633 11.499 25.633 25.634v20.898c-5.533 4.614-11.616 8.588-18.133 11.815v-16.146c0-4.143-3.357-7.5-7.5-7.5s-7.5 3.357-7.5 7.5v21.992c-8.14 2.368-16.74 3.642-25.634 3.642-8.894-.001-17.494-1.275-25.633-3.643zm25.633-79.192c-18.701 0-33.916-15.215-33.916-33.916 0-18.702 15.215-33.917 33.916-33.917 18.702 0 33.917 15.215 33.917 33.917 0 18.701-15.215 33.916-33.917 33.916zm0-100.967c50.674 0 91.9 41.227 91.9 91.9 0 20.497-6.747 39.446-18.134 54.749v-5.048c0-21.729-17.144-39.528-38.616-40.582 8.513-8.806 13.766-20.781 13.766-33.967 0-26.973-21.944-48.917-48.917-48.917s-48.916 21.944-48.916 48.917c0 13.186 5.253 25.161 13.766 33.967-21.472 1.055-38.616 18.854-38.616 40.582v5.047c-11.386-15.302-18.133-34.251-18.133-54.748 0-50.673 41.226-91.9 91.9-91.9z"/><path d="m429.175 338.833v-33.133c0-13.271-10.797-24.067-24.067-24.067-13.271 0-24.066 10.797-24.066 24.067v33.133c0 13.27 10.796 24.067 24.066 24.067s24.067-10.797 24.067-24.067zm-15 0c0 5-4.067 9.067-9.067 9.067-4.999 0-9.066-4.067-9.066-9.067v-33.133c0-5 4.067-9.067 9.066-9.067 5 0 9.067 4.067 9.067 9.067z"/><path d="m471.375 281.633c-13.27 0-24.067 10.797-24.067 24.067v33.133c0 13.27 10.797 24.067 24.067 24.067 13.271 0 24.066-10.797 24.066-24.067v-33.133c.001-13.27-10.795-24.067-24.066-24.067zm9.067 57.2c0 5-4.067 9.067-9.066 9.067-5 0-9.067-4.067-9.067-9.067v-33.133c0-5 4.067-9.067 9.067-9.067 4.999 0 9.066 4.067 9.066 9.067z"/><path d="m438.241 381.033c-13.271 0-24.066 10.796-24.066 24.066v33.134c0 13.271 10.796 24.066 24.066 24.066s24.066-10.796 24.066-24.066v-33.133c.001-13.271-10.795-24.067-24.066-24.067zm9.067 57.2c0 4.999-4.067 9.066-9.066 9.066s-9.066-4.067-9.066-9.066v-33.133c0-4.999 4.067-9.066 9.066-9.066s9.066 4.067 9.066 9.066z"/></g></svg>