<svg id="Capa_1" enable-background="new 0 0 512 512" height="512" viewBox="0 0 512 512" width="512" xmlns="http://www.w3.org/2000/svg"><g><path d="m462 279.109c-11.234 0-21.613 3.726-29.97 10.004v-83.866c3.324 1.485 6.993 2.053 10.695 1.571 5.297-.688 10.01-3.399 13.269-7.632l12.201-15.848c6.727-8.737 5.091-21.319-3.647-28.049l-196.317-151.139c-7.184-5.531-17.219-5.531-24.401 0l-196.378 151.187c-4.233 3.259-6.943 7.972-7.632 13.27s.727 10.546 3.985 14.779l12.201 15.848c3.259 4.232 7.972 6.943 13.269 7.632.876.114 1.75.171 2.62.17 2.823 0 5.583-.603 8.135-1.752v83.877c-8.368-6.306-18.769-10.051-30.03-10.051-27.57 0-50 22.43-50 50v38c0 9.462 6.612 17.392 15.454 19.459-.3 1.832-.454 3.685-.454 5.54 0 6.065 1.632 12.099 4.72 17.45l21.62 37.44c1.786 3.094 5.087 4.999 8.66 4.999 3.572 0 6.873-1.905 8.66-4.999l21.622-37.444c4.002-6.937 5.406-14.845 4.314-22.445h131.404c5.523 0 10-4.478 10-10s-4.477-10-10-10h-116v-20.001h312v20.001h-116c-5.523 0-10 4.478-10 10s4.477 10 10 10h131.376c-.244 1.655-.376 3.326-.376 4.999 0 6.065 1.632 12.099 4.72 17.45l21.62 37.44c1.786 3.094 5.087 4.999 8.66 4.999s6.874-1.905 8.66-4.999l21.622-37.444c4.095-7.099 5.462-15.214 4.224-22.976 8.861-2.052 15.493-9.992 15.493-19.469v-38c.001-27.571-22.429-50.001-49.999-50.001zm-390.147-92.077-12.201-15.848 196.379-151.186 196.316 151.14-12.19 15.855s-.003-.002-.01-.008c0 0 0 0-.001 0l-178.015-137.05c-3.597-2.768-8.605-2.768-12.201 0zm-8.893 212.525-12.96 22.444-12.959-22.442c-1.355-2.346-2.041-4.853-2.041-7.45 0-1.693.312-3.387.889-4.999h28.22c1.286 3.581 1.403 8.024-1.149 12.447zm-42.96-32.448v-38c0-16.542 13.458-30 30-30s30 13.458 30 30v38zm80.03-176.529 156-120.101 156 120.101v136.529h-101v-99.999c0-11.028-8.972-20-20-20h-70c-11.028 0-20 8.972-20 20v99.999h-101zm121 96.529h10c5.523 0 10-4.478 10-10s-4.477-10-10-10h-10v-40h70v99.999h-70zm211 40.827c.619-16 13.822-28.826 29.97-28.826 16.542 0 30 13.458 30 30l.013 37.999s-.004.001-.013.001h-60c0-.001.005-38.612.03-39.174zm42.93 71.621-12.96 22.444-12.959-22.442c-1.355-2.346-2.041-4.853-2.041-7.45 0-1.693.312-3.387.889-4.999h28.22c1.286 3.581 1.403 8.024-1.149 12.447z"/><path d="m502 441.998c-5.523 0-10 4.478-10 10v20c0 5.522 4.477 10 10 10s10-4.478 10-10v-20c0-5.522-4.477-10-10-10z"/><path d="m462 471.998c-5.523 0-10 4.478-10 10v20c0 5.522 4.477 10 10 10s10-4.478 10-10v-20c0-5.522-4.477-10-10-10z"/><path d="m50 471.998c-5.523 0-10 4.478-10 10v20c0 5.522 4.477 10 10 10s10-4.478 10-10v-20c0-5.522-4.477-10-10-10z"/><path d="m422 441.998c-5.523 0-10 4.478-10 10v20c0 5.522 4.477 10 10 10s10-4.478 10-10v-20c0-5.522-4.477-10-10-10z"/><path d="m90 441.998c-5.523 0-10 4.478-10 10v20c0 5.522 4.477 10 10 10s10-4.478 10-10v-20c0-5.522-4.477-10-10-10z"/><path d="m10 441.998c-5.523 0-10 4.478-10 10v20c0 5.522 4.477 10 10 10s10-4.478 10-10v-20c0-5.522-4.477-10-10-10z"/><circle cx="256" cy="377.11" r="10"/></g></svg>