<svg id="Capa_1" enable-background="new 0 0 512 512" height="512" viewBox="0 0 512 512" width="512" xmlns="http://www.w3.org/2000/svg"><g><path d="m140.034 205.516c4.143 0 7.5-3.357 7.5-7.5v-8.283c0-4.143-3.357-7.5-7.5-7.5s-7.5 3.357-7.5 7.5v8.283c0 4.142 3.357 7.5 7.5 7.5z"/><path d="m206.3 205.516c4.143 0 7.5-3.357 7.5-7.5v-8.283c0-4.143-3.357-7.5-7.5-7.5s-7.5 3.357-7.5 7.5v8.283c0 4.142 3.358 7.5 7.5 7.5z"/><path d="m173.167 246.935c8.551 0 16.533-4.607 20.832-12.023 2.077-3.583.855-8.172-2.729-10.249-3.584-2.079-8.173-.858-10.25 2.727-1.624 2.803-4.634 4.544-7.854 4.544s-6.229-1.741-7.854-4.544c-2.078-3.585-6.667-4.807-10.25-2.727-3.584 2.077-4.806 6.666-2.729 10.249 4.301 7.416 12.284 12.023 20.834 12.023z"/><path d="m487.933 0h-149.101c-13.27 0-24.066 10.796-24.066 24.066v15.632c0 4.143 3.357 7.5 7.5 7.5s7.5-3.357 7.5-7.5v-15.632c0-4.999 4.067-9.066 9.066-9.066h149.101c4.999 0 9.066 4.067 9.066 9.066v463.867c0 4.999-4.067 9.066-9.066 9.066h-143.381c1.144-2.801 1.779-5.86 1.779-9.067l-.001-82.835c0-17.62-6.218-33.811-16.564-46.511v-283.888c0-4.142-3.357-7.5-7.5-7.5s-7.5 3.358-7.5 7.5v269.953c-11.967-8.38-26.513-13.316-42.199-13.316l-14.793.001-27.409-13.705.001-24.899c18.399-15.091 30.75-37.293 32.82-62.366h9.38c13.271 0 24.066-10.797 24.066-24.067v-33.134c0-10.652-6.958-19.704-16.566-22.863v-26.834c0-40.675-33.092-73.767-73.767-73.767h-66.267c-40.675 0-73.767 33.092-73.767 73.767v26.834c-9.607 3.16-16.565 12.212-16.565 22.863v33.134c0 13.271 10.796 24.067 24.066 24.067h9.381c2.07 25.072 14.42 47.272 32.818 62.363l.001 24.902-27.406 13.705-14.796-.001c-40.673 0-73.763 33.09-73.763 73.763l-.002 82.835c0 13.271 10.796 24.066 24.066 24.066h32.199c4.143 0 7.5-3.357 7.5-7.5s-3.357-7.5-7.5-7.5h-32.197c-4.999 0-9.066-4.067-9.066-9.066l.002-82.835c0-32.402 26.361-58.763 58.763-58.763h9.384c3.826 46.313 42.735 82.831 90.018 82.831s86.192-36.518 90.018-82.831h9.381c32.402 0 58.764 26.36 58.764 58.763l.001 82.835c0 4.999-4.067 9.066-9.066 9.066h-231c-4.143 0-7.5 3.357-7.5 7.5s3.357 7.5 7.5 7.5h230.999c2.915 0 5.71-.521 8.297-1.475 2.638.964 5.437 1.476 8.27 1.476h149.101c13.271 0 24.067-10.796 24.067-24.066v-463.868c0-13.27-10.796-24.066-24.067-24.066zm-206.301 206.299c0 5-4.067 9.067-9.066 9.067h-9.066v-51.268h9.028c.013 0 .026.002.039.002.007 0 .013-.001.019-.001 4.99.011 9.047 4.073 9.047 9.065v33.135zm-141.599-141.598h66.267c32.404 0 58.767 26.362 58.767 58.767v25.631l-25.633.003c-13.812 0-25.1-10.981-25.609-24.67 1.784-5.528 2.759-11.416 2.759-17.53 0-4.143-3.357-7.5-7.5-7.5s-7.5 3.357-7.5 7.5c0 23.27-18.931 42.2-42.2 42.2l-78.116-.003v-25.631c-.002-32.405 26.36-58.767 58.765-58.767zm-75.332 141.598v-33.134c0-4.992 4.057-9.054 9.047-9.065.006 0 .013.001.019.001.013 0 .026-.002.039-.002h9.029l.001 51.268h-9.067c-5.001-.001-9.068-4.068-9.068-9.068zm33.134 16.57-.001-58.768h61.549c17.896 0 33.893-8.267 44.389-21.176 6.906 12.607 20.301 21.176 35.662 21.176h9.066v58.768c0 41.538-33.794 75.332-75.332 75.332-41.54 0-75.333-33.794-75.333-75.332zm75.332 90.332c15.234 0 29.595-3.796 42.198-10.483l-.001 36.116c0 23.268-18.93 42.198-42.197 42.198-23.269 0-42.198-18.93-42.198-42.198l-.002-36.117c12.603 6.688 26.966 10.484 42.2 10.484zm0 100.965c-40.004 0-72.826-31.346-75.195-70.766l17.996-8.999v4.432c0 31.539 25.659 57.198 57.198 57.198s57.197-25.659 57.197-57.198v-4.433l17.999 8.999c-2.368 39.421-35.191 70.767-75.195 70.767z"/><path d="m473.608 93.457c-2.119-6.523-7.652-11.188-14.44-12.175l-20.553-2.987-9.191-18.623c-3.035-6.151-9.182-9.972-16.04-9.972-6.859 0-13.006 3.82-16.041 9.971l-9.191 18.624-20.554 2.987c-6.787.986-12.32 5.651-14.439 12.175-2.12 6.523-.385 13.55 4.526 18.337l14.872 14.496-3.512 20.47c-1.159 6.761 1.568 13.465 7.118 17.496 3.135 2.278 6.804 3.436 10.497 3.436 2.843 0 5.7-.687 8.341-2.074l18.383-9.665 18.382 9.665c6.071 3.191 13.29 2.669 18.838-1.361 5.55-4.031 8.277-10.735 7.117-17.496l-3.511-20.47 14.871-14.496c4.912-4.788 6.647-11.815 4.527-18.338zm-14.997 7.595-15.741 15.345c-2.991 2.917-4.355 7.116-3.648 11.234l3.715 21.664c.265 1.54-.606 2.432-1.149 2.825-.542.395-1.661.946-3.041.22l-19.455-10.229c-1.85-.973-3.879-1.458-5.908-1.458-2.028 0-4.058.486-5.907 1.458l-19.457 10.229c-1.381.727-2.499.176-3.041-.22-.543-.394-1.414-1.285-1.15-2.825l3.717-21.664c.706-4.118-.658-8.317-3.65-11.236l-15.741-15.343c-1.118-1.09-.938-2.322-.73-2.96.207-.638.785-1.741 2.332-1.966l21.752-3.161c4.134-.6 7.706-3.196 9.558-6.943l9.728-19.713c.691-1.399 1.919-1.608 2.59-1.608.67 0 1.897.209 2.589 1.608v.001l9.729 19.714c1.851 3.745 5.423 6.341 9.558 6.941l21.751 3.161c1.547.225 2.125 1.328 2.332 1.966.205.637.386 1.87-.733 2.96z"/><path d="m357.684 259.097 14.872 14.496-3.512 20.47c-1.159 6.761 1.568 13.465 7.118 17.496 3.135 2.278 6.804 3.436 10.497 3.436 2.843 0 5.7-.687 8.341-2.074l18.383-9.665 18.382 9.665c6.071 3.191 13.29 2.67 18.838-1.361 5.55-4.031 8.277-10.735 7.117-17.496l-3.511-20.47 14.871-14.496c4.912-4.788 6.647-11.815 4.527-18.338s-7.653-11.189-14.44-12.174l-20.552-2.987-9.192-18.623c-3.035-6.151-9.182-9.972-16.04-9.972-6.859 0-13.006 3.82-16.041 9.971l-9.192 18.624-20.552 2.987c-6.787.985-12.32 5.65-14.44 12.174-2.12 6.522-.386 13.549 4.526 18.337zm9.739-13.703c.207-.637.785-1.74 2.332-1.965l21.752-3.161c4.135-.602 7.708-3.197 9.558-6.944l9.728-19.712c.691-1.399 1.919-1.608 2.59-1.608.67 0 1.897.209 2.589 1.608v.001l9.729 19.711c1.85 3.747 5.423 6.343 9.559 6.944l21.752 3.161c1.546.225 2.124 1.328 2.331 1.965.207.638.388 1.871-.731 2.961l-15.741 15.345c-2.991 2.917-4.355 7.116-3.648 11.234l3.715 21.664c.265 1.54-.606 2.432-1.149 2.825-.542.395-1.661.946-3.041.22l-19.455-10.229c-1.85-.973-3.879-1.458-5.908-1.458-2.028 0-4.058.486-5.907 1.458l-19.455 10.229c-1.381.727-2.499.176-3.041-.22-.543-.394-1.414-1.285-1.15-2.825l3.717-21.664c.706-4.118-.658-8.317-3.65-11.236l-15.741-15.343c-1.122-1.09-.942-2.324-.735-2.961z"/><path d="m473.608 388.061c-2.119-6.523-7.652-11.189-14.44-12.175l-20.552-2.986-9.192-18.623c-3.035-6.151-9.182-9.972-16.04-9.972-6.859 0-13.006 3.82-16.041 9.971l-9.193 18.624-20.553 2.986c-6.787.986-12.32 5.651-14.439 12.175-2.12 6.523-.385 13.551 4.526 18.338l14.872 14.496-3.512 20.47c-1.158 6.76 1.568 13.464 7.117 17.495s12.767 4.554 18.839 1.362l18.383-9.665 18.383 9.665c2.641 1.388 5.497 2.073 8.34 2.073 3.693 0 7.363-1.157 10.498-3.435 5.549-4.031 8.275-10.735 7.116-17.495l-3.511-20.47 14.871-14.496c4.913-4.787 6.648-11.814 4.528-18.338zm-14.997 7.596-15.741 15.345c-2.991 2.917-4.355 7.116-3.648 11.234l3.715 21.664c.265 1.54-.606 2.431-1.148 2.825s-1.658.947-3.042.22l-19.455-10.229c-1.85-.973-3.879-1.458-5.908-1.458-2.028 0-4.058.486-5.907 1.458l-19.454 10.229c-1.384.727-2.499.174-3.043-.22-.542-.395-1.413-1.285-1.149-2.825l3.717-21.664c.706-4.118-.658-8.317-3.65-11.236l-15.741-15.343c-1.118-1.09-.938-2.323-.73-2.961.207-.638.786-1.741 2.331-1.966l21.753-3.16c4.135-.602 7.708-3.197 9.558-6.944l9.728-19.712c.691-1.4 1.919-1.608 2.59-1.608.67 0 1.897.209 2.589 1.608v.001l9.729 19.711c1.85 3.747 5.423 6.343 9.559 6.944l21.751 3.16c1.546.225 2.125 1.328 2.332 1.966.202.638.383 1.871-.736 2.961z"/></g></svg>