<svg id="Capa_1" enable-background="new 0 0 512 512" height="512" viewBox="0 0 512 512" width="512" xmlns="http://www.w3.org/2000/svg"><g><path d="m452 442c-5.522 0-10 4.478-10 10v20c0 5.522 4.478 10 10 10s10-4.478 10-10v-20c0-5.522-4.478-10-10-10z"/><path d="m412 472c-5.522 0-10 4.478-10 10v20c0 5.522 4.478 10 10 10s10-4.478 10-10v-20c0-5.522-4.478-10-10-10z"/><path d="m372 442c-5.522 0-10 4.478-10 10v20c0 5.522 4.478 10 10 10s10-4.478 10-10v-20c0-5.522-4.478-10-10-10z"/><path d="m140 442c-5.523 0-10 4.478-10 10v20c0 5.522 4.477 10 10 10s10-4.478 10-10v-20c0-5.522-4.477-10-10-10z"/><path d="m100 472c-5.523 0-10 4.478-10 10v20c0 5.522 4.477 10 10 10s10-4.478 10-10v-20c0-5.522-4.477-10-10-10z"/><path d="m60 442c-5.523 0-10 4.478-10 10v20c0 5.522 4.477 10 10 10s10-4.478 10-10v-20c0-5.522-4.477-10-10-10z"/><path d="m482 277.111v-10.001c0-60.654-49.346-110-110-110h-34.67c-44.112 0-80-35.888-80-80v-7.11c11.028 0 20-8.972 20-20v-30c0-11.028-8.972-20-20-20h-227.33c-11.028 0-20 8.972-20 20v30c0 11.028 8.972 20 20 20v207.111c-11.028 0-20 8.972-20 20v30c0 11.028 8.972 20 20 20h20v19.999c0 9.462 6.612 17.392 15.454 19.459-.3 1.832-.454 3.686-.454 5.541 0 6.065 1.632 12.099 4.72 17.45l21.62 37.441c1.787 3.094 5.088 4.999 8.66 4.999s6.873-1.905 8.66-4.999l21.622-37.444c4.095-7.1 5.462-15.214 4.224-22.977 8.862-2.052 15.494-9.992 15.494-19.469v-19.999h66c5.523 0 10-4.478 10-10s-4.477-10-10-10h-186v-30h452v30h-186c-5.522 0-10 4.478-10 10s4.478 10 10 10h66v19.999c0 9.462 6.612 17.392 15.454 19.459-.3 1.832-.454 3.686-.454 5.541 0 6.066 1.632 12.1 4.72 17.45l21.62 37.441c1.787 3.094 5.088 4.999 8.66 4.999s6.873-1.905 8.66-4.999l21.622-37.444c4.096-7.1 5.463-15.215 4.225-22.977 8.862-2.052 15.493-9.992 15.493-19.469v-19.999h20c11.028 0 20-8.972 20-20v-30c0-11.03-8.972-20.002-20-20.002zm-369.04 122.448-12.96 22.444-12.959-22.443c-1.354-2.346-2.041-4.852-2.041-7.45 0-1.693.312-3.388.89-5h28.22c1.285 3.583 1.402 8.025-1.15 12.449zm17.04-32.449h-60v-19.999h60zm294.96 32.449-12.96 22.444-12.96-22.442c-1.354-2.346-2.04-4.852-2.04-7.45 0-1.693.312-3.388.89-5h28.22c1.285 3.581 1.403 8.023-1.15 12.448zm17.04-32.449h-60v-19.999h60zm20-100v10.001h-95.107c-6.494-8.899-16.517-26.45-16.517-50 0-23.548 10.025-41.101 16.518-50.001h5.106c49.626 0 90 40.374 90 90zm-171.408-101.617c-3.782 2.822-8.255 4.686-13.102 5.361-8.792 1.225-17.488-1.629-23.854-7.83-1.377-1.342-2.715-2.713-4.019-4.107l16.503-11.672c7.151 7.257 15.398 13.43 24.472 18.248zm-37.045-33.853-16.359 11.569c-5.675-8.539-10.198-17.717-13.481-27.353l19.296-5.544c2.671 7.566 6.227 14.717 10.544 21.328zm-15.267-40.779-19.402 5.574c-1.02-6.328-1.548-12.783-1.548-19.323v-7.112h20v7.11c0 4.665.329 9.254.95 13.751zm-208.28-70.861h227.33l.013 29.999s-.004.001-.013.001h-227.33zm167.33 50v7.111c0 38.027 15.04 73.625 42.349 100.236 9.175 8.94 21.198 13.789 33.763 13.789 2.256 0 4.53-.157 6.808-.474 12.195-1.698 23.014-7.804 30.669-17.1 8.418 2.308 17.272 3.547 26.412 3.547h5.893c-6.74 12.299-12.847 29.179-12.847 50.001 0 20.876 6.366 37.943 12.932 50h-66.984c-4.646-22.795-24.847-40-48.994-40h-177.331v-20h37.33c16.542 0 30-13.458 30-30s-13.458-30-30-30h-37.33v-87.11zm-147.33 107.111h37.33c5.514 0 10 4.486 10 10s-4.486 10-10 10h-37.33zm0 80h177.33c13.036 0 24.152 8.361 28.28 20h-205.61z"/><path d="m167.33 217.111c16.542 0 30-13.458 30-30s-13.458-30-30-30-30 13.458-30 30 13.458 30 30 30zm0-40c5.514 0 10 4.486 10 10s-4.486 10-10 10-10-4.486-10-10c0-5.513 4.486-10 10-10z"/><circle cx="256" cy="337.11" r="10"/></g></svg>