<svg id="Capa_1" enable-background="new 0 0 512 512" height="512" viewBox="0 0 512 512" width="512" xmlns="http://www.w3.org/2000/svg"><g><path d="m497 90c0-49.626-40.374-90-90-90-24.029 0-46.63 9.36-63.644 26.361-16.223 16.235-25.467 37.567-26.277 60.371-20.789 9.871-35.965 29.688-39.354 53.268h-43.451c-3.389-23.58-18.565-43.397-39.354-53.268-.81-22.803-10.055-44.136-26.282-60.376-17.008-16.996-39.609-26.356-63.638-26.356-49.626 0-90 40.374-90 90v133.43c0 44.112 35.888 80 80 80v.005c0 11.028 8.972 20 20 20h2.688c-5.707 14.131-4.805 30.305 3.271 44.285l35.381 61.28c1.786 3.094 5.088 5 8.66 5s6.874-1.906 8.66-5l35.38-61.279c4.501-7.795 6.88-16.567 6.88-25.371 0-6.485-1.294-12.918-3.704-18.915h2.784c11.028 0 20-8.972 20-20h42c0 11.028 8.972 20 20 20h2.784c-2.41 5.997-3.704 12.43-3.704 18.915 0 8.804 2.379 17.576 6.88 25.37l35.38 61.28c1.786 3.094 5.088 5 8.66 5s6.874-1.906 8.66-5l35.379-61.278c8.077-13.982 8.979-30.156 3.272-44.287h2.689c11.028 0 20-8.972 20-20v-.005c44.112 0 80-35.888 80-80v-31.719c0-5.522-4.478-10-10-10s-10 4.478-10 10v31.719c0 33.084-26.916 60-60 60v-20c22.056 0 40-17.944 40-40v-133.43c0-13.349-5.202-25.903-14.649-35.352-9.448-9.446-22.002-14.648-35.351-14.648-24.443 0-44.831 17.634-49.145 40.845-3.539-.553-7.163-.845-10.855-.845-3.177 0-6.3.233-9.366.645 2.012-15.146 8.879-29.149 19.864-40.142 13.231-13.222 30.812-20.503 49.502-20.503 38.598 0 70 31.402 70 70v21.719c0 5.522 4.478 10 10 10s10-4.478 10-10zm-282 60v10h-100v-10c0-27.57 22.43-50 50-50s50 22.43 50 50zm-120 93.43c-11.028 0-20-8.972-20-20v-133.43c0-8.008 3.122-15.54 8.79-21.209 5.67-5.669 13.202-8.791 21.21-8.791 15.476 0 28.251 11.78 29.833 26.844-23.539 11.288-39.833 35.354-39.833 63.156zm-60-20v-133.43c0-38.599 31.402-70 70-70 18.69 0 36.27 7.281 49.497 20.498 10.989 10.997 17.857 25.001 19.869 40.147-3.066-.412-6.189-.645-9.366-.645-3.692 0-7.316.292-10.855.845-4.314-23.211-24.702-40.845-49.145-40.845-13.349 0-25.903 5.202-35.352 14.649-9.446 9.448-14.648 22.002-14.648 35.351v133.43c0 22.056 17.944 40 40 40v20c-33.084 0-60-26.916-60-60zm160.92 118.92c0 5.372-1.413 10.544-4.2 15.37l-26.72 46.28-26.721-46.282c-7.251-12.552-4.29-25.641 2.305-34.283h48.838c4.16 5.422 6.498 12.127 6.498 18.915zm-80.92-38.915v-123.435h100v123.435zm120-20v-123.435h42v123.435zm138.72 74.285-26.72 46.28-26.72-46.281c-2.787-4.825-4.2-9.997-4.2-15.369 0-6.788 2.338-13.492 6.497-18.915h48.838c6.596 8.642 9.557 21.731 2.305 34.285zm23.28-54.285h-100v-123.435h100.002l.01 123.434c.001 0-.003.001-.012.001zm10-243.435c8.008 0 15.54 3.122 21.209 8.79 5.669 5.67 8.791 13.202 8.791 21.21v133.43c0 11.028-8.972 20-20 20v-93.43c0-27.802-16.294-51.868-39.833-63.156 1.583-15.064 14.357-26.844 29.833-26.844zm-10 90 .001 10h-100.001v-10c0-27.57 22.43-50 50-50s50 22.43 50 50z"/><path d="m347 454c-5.522 0-10 4.478-10 10v38c0 5.522 4.478 10 10 10s10-4.478 10-10v-38c0-5.522-4.478-10-10-10z"/><path d="m387 430c-5.522 0-10 4.478-10 10v24c0 5.522 4.478 10 10 10s10-4.478 10-10v-24c0-5.522-4.478-10-10-10z"/><path d="m307 430c-5.522 0-10 4.478-10 10v24c0 5.522 4.478 10 10 10s10-4.478 10-10v-24c0-5.522-4.478-10-10-10z"/><path d="m347 216.718c-5.522 0-10 4.477-10 10v30c0 5.522 4.478 10 10 10s10-4.478 10-10v-30c0-5.523-4.478-10-10-10z"/><path d="m165 454c-5.523 0-10 4.478-10 10v38c0 5.522 4.477 10 10 10s10-4.478 10-10v-38c0-5.522-4.477-10-10-10z"/><path d="m125 430c-5.522 0-10 4.478-10 10v24c0 5.522 4.478 10 10 10 5.523 0 10-4.478 10-10v-24c0-5.522-4.477-10-10-10z"/><path d="m205 430c-5.523 0-10 4.478-10 10v24c0 5.522 4.477 10 10 10s10-4.478 10-10v-24c0-5.522-4.477-10-10-10z"/><path d="m165 216.718c-5.523 0-10 4.477-10 10v30c0 5.522 4.477 10 10 10s10-4.478 10-10v-30c0-5.523-4.477-10-10-10z"/><circle cx="486.999" cy="151.715" r="10"/></g></svg>