<svg id="Capa_1" enable-background="new 0 0 511.989 511.989" height="512" viewBox="0 0 511.989 511.989" width="512" xmlns="http://www.w3.org/2000/svg"><g><path d="m471.355 99.401h-58.766v-17.634c0-8.547-6.953-15.5-15.5-15.5h-1.066v-42.2c0-13.271-10.797-24.067-24.067-24.067h-114.997c-4.142 0-7.5 3.357-7.5 7.5s3.358 7.5 7.5 7.5h114.997c5 0 9.067 4.067 9.067 9.066v42.2h-18.133v-17.35c0-8.703-7.081-15.783-15.784-15.783h-115.968c-8.703 0-15.783 7.08-15.783 15.783v17.35h-18.133v-42.2c0-4.999 4.067-9.066 9.066-9.066h15.671c4.142 0 7.5-3.357 7.5-7.5s-3.358-7.5-7.5-7.5h-15.671c-13.27 0-24.066 10.796-24.066 24.066v42.2h-1.067c-8.547 0-15.5 6.953-15.5 15.5v17.634h-58.766c-22.405 0-40.633 18.229-40.633 40.634v68.617c0 7.251 3.166 13.768 8.283 18.194v71.465c-15.451 17.415-24.85 40.315-24.85 65.373 0 18.48 5.114 35.786 13.995 50.586l-13.774 13.775-.553-.553c-2.981-2.981-6.945-4.624-11.161-4.624s-8.18 1.643-11.161 4.623l-19.997 19.996c-9.384 9.384-9.384 24.652 0 34.035l23.428 23.429v.001c4.692 4.692 10.854 7.037 17.018 7.037 6.162 0 12.326-2.347 17.018-7.037l19.998-19.998c6.152-6.154 6.152-16.166-.001-22.321l-.554-.554 13.773-13.773c14.8 8.881 32.106 13.995 50.586 13.995 29.267 0 55.591-12.82 73.668-33.133h51.783c4.142 0 7.5-3.357 7.5-7.5s-3.358-7.5-7.5-7.5h-40.768c8.843-14.777 13.934-32.046 13.934-50.483 0-18.811-5.297-36.406-14.473-51.378 2.038.579 4.186.895 6.407.895h100.534c12.958 0 23.5-10.542 23.5-23.5v-37.461l125.816-19.358v155.652c0 14.135-11.499 25.634-25.633 25.634h-154.316c-4.142 0-7.5 3.357-7.5 7.5s3.358 7.5 7.5 7.5h154.317c22.405 0 40.633-18.228 40.633-40.634v-161.689c5.117-4.425 8.283-10.943 8.283-18.194v-68.617c0-22.405-18.228-40.633-40.634-40.633zm-74.266-18.134c.276 0 .5.225.5.5v17.634h-51.267v-17.634c0-.275.224-.5.5-.5zm-166.734-32.35c0-.432.352-.783.783-.783h115.968c.432 0 .784.352.784.783v17.35h-1.067c-8.547 0-15.5 6.953-15.5 15.5v17.634h-84.401v-17.634c0-8.547-6.953-15.5-15.5-15.5h-1.066v-17.35zm-49.7 32.85c0-.275.224-.5.5-.5h50.267c.276 0 .5.225.5.5v17.634h-51.267zm34.701 170.473v37.46c0 .61.031 1.213.077 1.811-17.617-16.397-41.219-26.445-67.128-26.445-22.002 0-42.343 7.245-58.767 19.471v-51.657zm-141.464 222.107-19.998 19.997c-3.536 3.535-9.288 3.535-12.823 0v.001l-23.428-23.43c-3.535-3.534-3.535-9.286 0-12.821l19.998-19.998c.304-.305.801-.307 1.107.001l5.852 5.852c.002.002.003.003.005.005s.003.003.005.005l29.28 29.28c.308.305.308.803.002 1.108zm-.554-22.875-12.821-12.821 11.973-11.973c3.874 4.655 8.167 8.948 12.822 12.822zm74.967-4.172c-46.106 0-83.617-37.51-83.617-83.616s37.51-83.617 83.617-83.617 83.617 37.511 83.617 83.617-37.511 83.616-83.617 83.616zm199.584-157.6c0 4.686-3.813 8.5-8.5 8.5h-100.533c-4.687 0-8.5-3.814-8.5-8.5v-100.534c0-4.686 3.813-8.5 8.5-8.5h100.534c4.687 0 8.5 3.814 8.5 8.5v100.534zm-8.5-124.034h-100.533c-12.958 0-23.5 10.542-23.5 23.5v47.896l-126.412-19.45c-.825-.127-1.607-.36-2.335-.684-.513-.395-1.075-.731-1.681-.984-2.25-1.656-3.672-4.31-3.672-7.293v-68.617c0-14.135 11.499-25.634 25.633-25.634h364.466c14.134 0 25.633 11.499 25.633 25.634v68.617c0 2.983-1.422 5.637-3.672 7.293-.606.253-1.168.589-1.681.984-.728.323-1.51.557-2.335.684l-126.411 19.45v-47.896c0-12.958-10.542-23.5-23.5-23.5z"/><path d="m314.256 198.8h-50.267c-8.547 0-15.5 6.953-15.5 15.5v50.267c0 8.547 6.953 15.5 15.5 15.5h50.267c8.547 0 15.5-6.953 15.5-15.5v-50.267c0-8.547-6.953-15.5-15.5-15.5zm.5 65.767c0 .275-.224.5-.5.5h-50.267c-.276 0-.5-.225-.5-.5v-50.267c0-.275.224-.5.5-.5h50.267c.276 0 .5.225.5.5z"/><path d="m446.789 396.033c8.547 0 15.5-6.953 15.5-15.5v-17.133c0-8.547-6.953-15.5-15.5-15.5h-50.267c-8.547 0-15.5 6.953-15.5 15.5v17.133c0 8.547 6.953 15.5 15.5 15.5zm-50.767-15.5v-17.133c0-.275.224-.5.5-.5h50.267c.276 0 .5.225.5.5v17.133c0 .275-.224.5-.5.5h-50.267c-.276 0-.5-.224-.5-.5z"/><path d="m148.305 298.2c-36.108 0-65.483 29.376-65.483 65.483s29.376 65.483 65.483 65.483 65.483-29.376 65.483-65.483-29.375-65.483-65.483-65.483zm0 115.967c-27.836 0-50.483-22.646-50.483-50.483s22.647-50.483 50.483-50.483 50.483 22.647 50.483 50.483c0 27.837-22.647 50.483-50.483 50.483z"/></g></svg>