<svg id="Capa_1" enable-background="new 0 0 512 512" height="512" viewBox="0 0 512 512" width="512" xmlns="http://www.w3.org/2000/svg"><g><path d="m499.7 127.356c-7.929-7.716-18.402-11.806-29.47-11.492-21.779.597-39.497 19.126-39.497 41.307v9.083c-18.833 3.53-33.133 20.086-33.133 39.928v33.534c-1.769 1.309-3.451 2.763-5.021 4.372l-65.438 65.442c-7.981 7.728-12.375 18.089-12.375 29.186v91.899h-1.066c-8.547 0-15.5 6.953-15.5 15.5v50.267c0 8.547 6.953 15.5 15.5 15.5h133.1c8.547 0 15.5-6.953 15.5-15.5v-50.267c0-8.547-6.953-15.5-15.5-15.5h-1.066v-11.908c0-6.847 2.666-13.284 7.508-18.125l42.005-42.006c10.803-10.804 16.753-25.169 16.753-40.447v-161.648c0-11.064-4.368-21.408-12.3-29.125zm-87.1 78.826c0-11.526 7.647-21.297 18.133-24.512v51.177c-2.918-.668-5.95-1.032-9.067-1.032-3.093 0-6.127.354-9.066 1.021zm34.2 290.699h-133.1c-.276 0-.5-.225-.5-.5v-17.633h134.1v17.633c0 .275-.224.5-.5.5zm.5-50.767v17.634h-134.1v-17.634c0-.275.224-.5.5-.5h133.1c.276 0 .5.225.5.5zm49.7-127.985c0 11.271-4.39 21.869-12.36 29.839l-42.005 42.006c-7.675 7.675-11.901 17.879-11.901 28.732v11.908h-100.967v-91.899c0-7.012 2.785-13.561 7.842-18.441.032-.03.064-.061.095-.094l65.517-65.52c.025-.024.049-.049.074-.074 4.873-5.011 11.397-7.771 18.373-7.771 14.134 0 25.633 11.499 25.633 25.634 0 6.976-2.759 13.5-7.77 18.373-.025.024-.05.049-.075.074l-42.513 42.517c-2.929 2.929-2.928 7.678 0 10.606 1.465 1.464 3.384 2.196 5.303 2.196s3.839-.732 5.304-2.197l42.478-42.482c7.915-7.718 12.272-18.045 12.272-29.088 0-13.404-6.527-25.308-16.566-32.714v-82.564c0-14.133 11.173-25.936 24.908-26.312 6.981-.21 13.597 2.382 18.599 7.249 5.004 4.869 7.76 11.395 7.76 18.374v161.648z"/><path d="m198.3 430.614h-1.066v-91.899c0-11.097-4.394-21.458-12.375-29.186l-65.438-65.442c-1.569-1.609-3.251-3.063-5.021-4.372v-33.534c0-19.842-14.3-36.398-33.133-39.928v-9.083c0-22.181-17.718-40.711-39.497-41.307-11.074-.312-21.541 3.777-29.47 11.492-7.932 7.718-12.3 18.062-12.3 29.126v15.143c0 4.143 3.358 7.5 7.5 7.5s7.5-3.357 7.5-7.5v-15.143c0-6.979 2.756-13.505 7.76-18.374 5.002-4.866 11.608-7.446 18.6-7.249 13.734.376 24.907 12.18 24.907 26.312v82.564c-10.04 7.406-16.567 19.31-16.567 32.714 0 11.043 4.357 21.37 12.272 29.088l42.478 42.482c1.465 1.465 3.384 2.197 5.304 2.197 1.919 0 3.839-.732 5.303-2.196 2.929-2.929 2.929-7.678.001-10.606l-42.513-42.517c-.025-.025-.05-.05-.075-.074-5.011-4.873-7.77-11.397-7.77-18.373 0-14.135 11.499-25.634 25.633-25.634 6.975 0 13.5 2.76 18.373 7.771.024.025.049.05.074.074l65.517 65.52c.031.032.063.064.095.094 5.057 4.881 7.842 11.43 7.842 18.441v91.899h-100.967v-11.908c0-10.854-4.227-21.058-11.901-28.732l-42.006-42.006c-7.97-7.97-12.36-18.568-12.36-29.839v-110.955c0-4.143-3.358-7.5-7.5-7.5s-7.5 3.357-7.5 7.5v110.955c0 15.278 5.95 29.643 16.753 40.446l42.005 42.006c4.841 4.841 7.508 11.278 7.508 18.125v11.908h-1.066c-8.547 0-15.5 6.953-15.5 15.5v50.267c0 8.547 6.953 15.5 15.5 15.5h133.1c8.547 0 15.5-6.953 15.5-15.5v-50.267c0-8.547-6.953-15.5-15.5-15.5zm-117.033-197.767v-51.177c10.486 3.215 18.133 12.986 18.133 24.512v26.653c-2.939-.666-5.973-1.021-9.066-1.021-3.118 0-6.15.365-9.067 1.033zm-16.067 212.767h133.1c.276 0 .5.225.5.5v17.634h-134.1v-17.634c0-.275.224-.5.5-.5zm133.1 51.267h-133.1c-.276 0-.5-.225-.5-.5v-17.633h134.1v17.633c0 .275-.224.5-.5.5z"/><path d="m396.033 156.719v-132.534c0-13.27-10.796-24.066-24.066-24.066h-231.934c-13.27 0-24.066 10.796-24.066 24.066v13.916c0 4.142 3.358 7.5 7.5 7.5s7.5-3.358 7.5-7.5v-13.916c0-4.999 4.067-9.066 9.066-9.066h231.934c4.999 0 9.066 4.067 9.066 9.066v132.533c0 4.999-4.067 9.066-9.066 9.066h-85.998c-6.017 0-11.426 3.343-14.117 8.725l-15.152 30.304c-.07.141-.216.433-.701.433-.484 0-.63-.292-.701-.433l-15.152-30.304c-2.69-5.382-8.1-8.725-14.117-8.725h-85.998c-4.999 0-9.066-4.067-9.066-9.066v-83.616c0-4.143-3.358-7.5-7.5-7.5s-7.5 3.357-7.5 7.5v83.617c0 13.271 10.796 24.066 24.066 24.066h85.998c.298 0 .567.166.701.434l15.152 30.304c2.69 5.381 8.1 8.724 14.116 8.724h.001c6.016 0 11.426-3.343 14.117-8.724l15.152-30.304c.134-.268.402-.434.701-.434h85.998c13.27 0 24.066-10.796 24.066-24.066z"/><path d="m156.6 114.519h198.8c4.142 0 7.5-3.357 7.5-7.5s-3.358-7.5-7.5-7.5h-198.8c-4.142 0-7.5 3.357-7.5 7.5 0 4.142 3.358 7.5 7.5 7.5z"/><path d="m156.6 147.652h66.267c4.142 0 7.5-3.357 7.5-7.5s-3.358-7.5-7.5-7.5h-66.267c-4.142 0-7.5 3.357-7.5 7.5s3.358 7.5 7.5 7.5z"/><path d="m156.6 48.252h198.8c4.142 0 7.5-3.357 7.5-7.5s-3.358-7.5-7.5-7.5h-198.8c-4.142 0-7.5 3.357-7.5 7.5s3.358 7.5 7.5 7.5z"/><path d="m156.6 81.386h198.8c4.142 0 7.5-3.357 7.5-7.5 0-4.142-3.358-7.5-7.5-7.5h-198.8c-4.142 0-7.5 3.358-7.5 7.5s3.358 7.5 7.5 7.5z"/></g></svg>