<svg id="Capa_1" enable-background="new 0 0 512 512" height="512" viewBox="0 0 512 512" width="512" xmlns="http://www.w3.org/2000/svg"><g><path d="m81 256c0 96.495 78.505 175 175 175s175-78.505 175-175-78.505-175-175-175-175 78.505-175 175zm165-153.381v67.096c-16.535-.418-32.804-1.87-48.436-4.286 2.663-7.664 5.682-14.905 9.044-21.63 11.05-22.099 25.005-36.541 39.392-41.18zm0 87.103v56.278h-62.342c.659-21.61 3.447-42.356 8.167-61.241 17.47 2.832 35.685 4.516 54.175 4.963zm-82.354 56.278h-62.315c1.844-28.818 11.596-55.516 27.109-77.946 13.531 5.216 28.213 9.555 43.677 12.954-4.847 19.803-7.809 41.724-8.471 64.992zm0 20c.662 23.268 3.623 45.189 8.471 64.992-15.464 3.399-30.146 7.738-43.677 12.954-15.513-22.43-25.265-49.128-27.109-77.946zm20.012 0h62.342v56.278c-18.49.447-36.705 2.131-54.175 4.963-4.72-18.885-7.508-39.631-8.167-61.241zm62.342 76.285v67.096c-14.387-4.639-28.342-19.081-39.392-41.18-3.363-6.725-6.381-13.966-9.044-21.63 15.632-2.417 31.901-3.868 48.436-4.286zm20 67.096v-67.096c16.535.418 32.804 1.87 48.436 4.286-2.663 7.664-5.682 14.905-9.044 21.63-11.05 22.099-25.005 36.54-39.392 41.18zm0-87.103v-56.278h62.342c-.659 21.61-3.447 42.356-8.167 61.241-17.47-2.832-35.685-4.516-54.175-4.963zm82.354-56.278h62.315c-1.844 28.818-11.596 55.516-27.109 77.946-13.531-5.216-28.213-9.555-43.677-12.954 4.847-19.803 7.809-41.724 8.471-64.992zm0-20c-.662-23.268-3.623-45.189-8.471-64.992 15.464-3.399 30.146-7.738 43.677-12.954 15.513 22.43 25.265 49.128 27.109 77.946zm-20.012 0h-62.342v-56.278c18.49-.447 36.705-2.131 54.175-4.963 4.72 18.885 7.508 39.631 8.167 61.241zm-62.342-76.285v-67.096c14.387 4.639 28.342 19.081 39.392 41.18 3.363 6.725 6.381 13.966 9.044 21.63-15.632 2.417-31.901 3.868-48.436 4.286zm-61.504-59.907c-10.808 13.485-19.96 31.177-26.857 51.944-12.679-2.737-24.784-6.139-36.09-10.169 17.059-18.682 38.621-33.179 62.947-41.775zm-62.947 250.609c11.306-4.029 23.411-7.432 36.09-10.169 6.896 20.767 16.049 38.459 26.857 51.944-24.326-8.596-45.888-23.093-62.947-41.775zm165.955 41.775c10.807-13.485 19.96-31.177 26.857-51.944 12.679 2.737 24.784 6.139 36.09 10.169-17.059 18.682-38.621 33.179-62.947 41.775zm62.947-250.609c-11.306 4.029-23.411 7.432-36.09 10.169-6.896-20.767-16.049-38.458-26.857-51.944 24.326 8.596 45.888 23.093 62.947 41.775z"/><path d="m487 314.004v-116.008c14.44-4.314 25-17.712 25-33.537 0-19.299-15.701-35-35-35-6.02 0-11.69 1.528-16.642 4.217l-82.033-82.034c2.688-4.952 4.216-10.622 4.216-16.642 0-19.299-15.701-35-35-35-15.824 0-29.223 10.56-33.537 25h-18.004c-5.523 0-10 4.478-10 10s4.477 10 10 10h18.004c4.314 14.44 17.712 25 33.537 25 6.02 0 11.689-1.528 16.641-4.216l82.034 82.035c-2.688 4.952-4.216 10.621-4.216 16.64 0 15.824 10.56 29.223 25 33.537v116.009c-14.44 4.314-25 17.712-25 33.537 0 6.019 1.528 11.688 4.216 16.64l-82.034 82.035c-4.952-2.689-10.622-4.217-16.641-4.217-15.824 0-29.223 10.56-33.537 25h-116.008c-4.314-14.44-17.712-25-33.537-25-6.02 0-11.689 1.528-16.641 4.216l-82.034-82.035c2.688-4.952 4.216-10.621 4.216-16.64 0-15.824-10.56-29.223-25-33.537v-116.008c14.44-4.314 25-17.712 25-33.537 0-6.019-1.528-11.688-4.216-16.64l82.034-82.035c4.952 2.688 10.621 4.216 16.641 4.216 15.824 0 29.222-10.56 33.537-25h18.004c5.523 0 10-4.478 10-10s-4.477-10-10-10h-18.004c-4.314-14.44-17.712-25-33.537-25-19.299 0-35 15.701-35 35 0 6.02 1.528 11.689 4.216 16.642l-82.033 82.034c-4.953-2.688-10.622-4.217-16.642-4.217-19.299 0-35 15.701-35 35 0 15.824 10.56 29.223 25 33.537v116.009c-14.44 4.314-25 17.712-25 33.537 0 19.299 15.701 35 35 35 6.02 0 11.69-1.528 16.642-4.217l82.033 82.034c-2.688 4.952-4.216 10.622-4.216 16.642 0 19.299 15.701 35 35 35 15.824 0 29.222-10.56 33.537-25h116.009c4.314 14.44 17.712 25 33.537 25 19.299 0 35-15.701 35-35 0-6.02-1.528-11.689-4.216-16.642l82.033-82.034c4.953 2.689 10.622 4.217 16.642 4.217 19.299 0 35-15.701 35-35-.001-15.825-10.561-29.224-25.001-33.538zm-322.541-294.004c8.271 0 15 6.729 15 15s-6.729 15-15 15-15-6.729-15-15 6.729-15 15-15zm-144.459 144.459c0-8.271 6.729-15 15-15s15 6.729 15 15-6.729 15-15 15-15-6.729-15-15zm15 198.082c-8.271 0-15-6.728-15-15 0-8.271 6.729-15 15-15s15 6.729 15 15-6.729 15-15 15zm129.459 129.459c-8.271 0-15-6.728-15-15s6.729-15 15-15 15 6.728 15 15-6.729 15-15 15zm183.082-442c-8.271 0-15-6.729-15-15s6.729-15 15-15 15 6.729 15 15-6.729 15-15 15zm114.459 114.459c0-8.271 6.729-15 15-15s15 6.729 15 15-6.729 15-15 15-15-6.729-15-15zm-114.459 327.541c-8.271 0-15-6.728-15-15s6.729-15 15-15 15 6.728 15 15-6.729 15-15 15zm129.459-129.459c-8.271 0-15-6.728-15-15 0-8.271 6.729-15 15-15s15 6.729 15 15-6.729 15-15 15z"/><circle cx="256" cy="34.999" r="10"/></g></svg>