<svg id="Capa_1" enable-background="new 0 0 511.999 511.999" height="512" viewBox="0 0 511.999 511.999" width="512" xmlns="http://www.w3.org/2000/svg"><g><path d="m504.956 30.476-23.429-23.428c-9.385-9.384-24.651-9.382-34.036 0l-34.887 34.887v-26.152c0-8.703-7.08-15.783-15.783-15.783h-281.633c-8.703 0-15.783 7.08-15.783 15.783v33.915h-58.766c-22.405 0-40.633 18.228-40.633 40.634v39.551c0 4.143 3.358 7.5 7.5 7.5s7.5-3.357 7.5-7.5v-39.551c0-14.135 11.499-25.634 25.633-25.634h58.766v18.135h-42.201c-13.27 0-24.066 10.796-24.066 24.066v224.433h-18.132v-166.449c0-4.143-3.358-7.5-7.5-7.5s-7.5 3.357-7.5 7.5v207.084c0 22.405 18.228 40.634 40.633 40.634h133.315l.001 51.267h-42.483c-8.547 0-15.5 6.953-15.5 15.5v17.132c0 8.547 6.953 15.5 15.5 15.5h32.75c4.142 0 7.5-3.357 7.5-7.5s-3.358-7.5-7.5-7.5h-32.75c-.276 0-.5-.225-.5-.5v-17.132c0-.275.224-.5.5-.5h215.932c.275 0 .5.225.5.5v17.132c0 .275-.225.5-.5.5h-148.182c-4.142 0-7.5 3.357-7.5 7.5s3.358 7.5 7.5 7.5h148.182c8.547 0 15.5-6.953 15.5-15.5v-17.132c0-8.547-6.953-15.5-15.5-15.5h-42.483v-51.267h133.314c22.405 0 40.634-18.229 40.634-40.634v-281.367l2.658-2.658 23.429-23.429c9.383-9.384 9.383-24.653 0-34.037zm-92.352 300.856v-174.468l18.134-18.134v192.602zm-92.743-102.939-6.318-19.324 115.823-115.824 12.821 12.821zm-71.661 35.106c.05.052.096.106.147.157 3.021 3.022 7.018 4.634 11.125 4.634 1.677 0 3.372-.268 5.027-.82l11.913-3.971h87.277c.432 0 .783.352.783.783v33.134c0 .432-.352.783-.783.783h-215.368c-.432 0-.783-.352-.783-.783v-33.134c0-.432.352-.783.783-.783zm157.737-193.683 12.821 12.821-115.823 115.824-19.324-6.318zm-146.983 183.234c-.343-.342-.239-.652-.189-.801l6.258-18.774 13.507 13.507-18.774 6.258c-.152.049-.46.152-.802-.19zm14.37-44.479c.006-.02.013-.038.019-.058l1.186-3.558 24.507 8.013 8.012 24.507-12.608 4.203-24.115-24.113zm179.47-113.112-36.25-36.25 12.822-12.822 36.25 36.25zm-338.389-79.676c0-.432.351-.783.783-.783h281.633c.432 0 .783.351.783.783v41.151l-42.465 42.465h-198.534c-4.142 0-7.5 3.357-7.5 7.5s3.358 7.5 7.5 7.5h183.535l-18.134 18.134h-165.401c-4.142 0-7.5 3.357-7.5 7.5s3.358 7.5 7.5 7.5h150.401l-18.133 18.133h-132.268c-4.142 0-7.5 3.357-7.5 7.5s3.358 7.5 7.5 7.5h117.268l-6.572 6.572c-2.627 2.628-4.638 5.88-5.813 9.405v.001l-.718 2.155h-54.464c-4.142 0-7.5 3.357-7.5 7.5s3.358 7.5 7.5 7.5h49.464l-11.235 33.705c-.11.33-.206.662-.294.994h-95.919c-8.703 0-15.783 7.08-15.783 15.783v33.134c0 8.703 7.08 15.783 15.783 15.783h215.367c8.703 0 15.783-7.08 15.783-15.783v-33.134c0-8.703-7.08-15.783-15.783-15.783h-43.884c1.808-1.048 3.486-2.32 4.962-3.796l72.839-72.839v159.468h-283.201zm-66.267 91.116c0-4.999 4.067-9.066 9.066-9.066h42.201v233.499h-51.267zm200.367 356.968h-18.133v-17.354c0-.432.352-.783.783-.783h16.567c.432 0 .783.352.783.783zm41.416 0h-26.416v-17.354c0-8.703-7.08-15.783-15.783-15.783h-16.567c-8.703 0-15.783 7.08-15.783 15.783v17.354h-26.416l-.001-51.267h100.966zm148.314-66.266h-397.596c-14.134 0-25.633-11.499-25.633-25.634v-25.635h448.863v25.635c0 14.135-11.499 25.634-25.634 25.634zm25.634-66.269h-18.131v-207.602l18.131-18.131zm30.479-277.427-18.125 18.125-36.25-36.25 18.125-18.125c3.537-3.535 9.288-3.534 12.821 0l23.429 23.429c3.536 3.535 3.536 9.287 0 12.821z"/><path d="m256.004 364.465h-33.133c-4.142 0-7.5 3.357-7.5 7.5s3.358 7.5 7.5 7.5h33.133c4.142 0 7.5-3.357 7.5-7.5s-3.358-7.5-7.5-7.5z"/><path d="m212.305 81.267h87.4c7.444 0 13.5-6.056 13.5-13.5v-21.134c0-7.444-6.056-13.5-13.5-13.5h-87.4c-7.444 0-13.5 6.056-13.5 13.5v21.134c0 7.444 6.056 13.5 13.5 13.5zm1.5-33.134h84.4v18.134h-84.4z"/></g></svg>