<svg id="Capa_1" enable-background="new 0 0 512 512" height="512" viewBox="0 0 512 512" width="512" xmlns="http://www.w3.org/2000/svg"><g><path d="m251.859 396.033h16.565c31.54 0 57.199-25.659 57.199-57.199v-49.701c0-22.405-18.228-40.634-40.634-40.634h-33.131c-4.143 0-7.5 3.357-7.5 7.5s3.357 7.5 7.5 7.5h33.131c14.135 0 25.634 11.499 25.634 25.634v49.701c0 23.268-18.931 42.199-42.199 42.199h-16.565c-4.143 0-7.5 3.357-7.5 7.5s3.358 7.5 7.5 7.5z"/><path d="m268.425 347.9h-16.566c-4.143 0-7.5 3.357-7.5 7.5s3.357 7.5 7.5 7.5h16.566c13.271 0 24.066-10.797 24.066-24.067v-33.134c0-13.27-10.796-24.066-24.066-24.066h-16.565c-4.143 0-7.5 3.357-7.5 7.5s3.357 7.5 7.5 7.5h16.565c4.999 0 9.066 4.067 9.066 9.066v33.134c0 5-4.067 9.067-9.066 9.067z"/><path d="m359.542 197.233c54.377 0 98.616-44.239 98.616-98.617 0-54.377-44.239-98.616-98.616-98.616-54.378 0-98.617 44.239-98.617 98.616 0 18.481 5.114 35.788 13.995 50.588l-13.773 13.772-.553-.553c-6.154-6.153-16.166-6.153-22.322-.001l-19.998 19.998c-4.545 4.546-7.049 10.59-7.049 17.019 0 5.928 2.134 11.527 6.031 15.928h-28.606l55.613-88.982c3.363-5.382 3.542-12.173.465-17.724-3.076-5.551-8.93-8.999-15.276-8.999h-39.427l31.895-82.687c1.48-3.841.975-8.16-1.354-11.555-2.331-3.394-6.178-5.42-10.295-5.42h-84.341c-8.182 0-15.364 5.807-17.078 13.807l-3.606 16.824c-.867 4.05 1.712 8.037 5.763 8.904 4.042.872 8.037-1.71 8.904-5.762l3.606-16.824c.241-1.13 1.256-1.949 2.411-1.949h80.673l-31.895 82.687c-1.48 3.841-.975 8.16 1.355 11.555 2.329 3.394 6.177 5.42 10.293 5.42h43.095c1.264 0 1.893.796 2.157 1.271.263.475.604 1.431-.066 2.503l-60.582 96.932h-7.043l10.216-61.304c.605-3.626-.41-7.315-2.787-10.122-2.376-2.806-5.849-4.415-9.525-4.415h-61.519c-1.024 0-1.642-.573-1.918-.916-.276-.342-.707-1.064-.492-2.066l14.521-67.77c.867-4.05-1.712-8.037-5.763-8.905-4.038-.861-8.036 1.712-8.905 5.763l-14.521 67.769c-1.111 5.183.162 10.519 3.494 14.64 3.332 4.122 8.282 6.486 13.583 6.486h58.547l-10.14 60.841h-21.098c-13.271 0-24.067 10.796-24.067 24.065l-.002 20.691c0 1.489-.372 2.971-1.076 4.283l-43.8 81.668c-3.156 5.885-4.824 12.526-4.824 19.204v6.689c0 13.271 10.796 24.067 24.066 24.067h25.636l.001 42.198c0 22.405 18.228 40.633 40.633 40.633l25.63-.001v17.353c0 8.703 7.081 15.783 15.784 15.783h66.864c4.143 0 7.5-3.357 7.5-7.5s-3.357-7.5-7.5-7.5h-66.864c-.433 0-.784-.352-.784-.783v-17.816c24.587-3.041 45.102-20.853 51.238-45.396l6.523-26.086c1.004-4.019-1.439-8.091-5.457-9.096-4.018-1-8.09 1.439-9.096 5.457l-6.522 26.086c-5.076 20.304-23.232 34.487-44.158 34.499-.009 0-.018-.001-.028-.001l-33.13.001c-14.134 0-25.633-11.499-25.633-25.633l-.001-42.198h9.066c13.271 0 24.067-10.797 24.067-24.067v-8.284c0-8.703-7.08-15.783-15.783-15.783h-18.637c-4.143 0-7.5 3.357-7.5 7.5s3.357 7.5 7.5 7.5h18.637c.432 0 .783.352.783.783v8.284c0 5-4.067 9.067-9.067 9.067h-16.566-4.139-28.996c-4.999 0-9.066-4.067-9.066-9.067v-6.689c0-4.213 1.053-8.403 3.043-12.115l43.8-81.667c1.869-3.485 2.857-7.418 2.857-11.372l.002-20.691c0-4.999 4.067-9.066 9.067-9.066h265.064c4.999 0 9.066 4.067 9.066 9.066v107.685c0 36.977-20.258 70.823-52.869 88.33-13.375 7.181-21.683 20.953-21.682 35.94l.001 24.829c0 .432-.352.783-.783.783h-38.952c-4.143 0-7.5 3.357-7.5 7.5s3.357 7.5 7.5 7.5h38.952c8.703 0 15.783-7.08 15.783-15.783l-.001-24.83c-.001-9.453 5.278-18.16 13.777-22.723 37.486-20.125 60.773-59.036 60.773-101.547v-107.686c0-13.271-10.796-24.066-24.066-24.066h-93.793c.956-2.056 1.476-4.305 1.476-6.64 0-4.216-1.643-8.18-4.623-11.161l-.554-.554 13.773-13.773c14.801 8.88 32.108 13.994 50.589 13.994zm0-182.233c46.106 0 83.616 37.51 83.616 83.616s-37.51 83.617-83.616 83.617c-46.107 0-83.617-37.511-83.617-83.617s37.51-83.616 83.617-83.616zm-121.144 200.366-9.518-9.518c-3.535-3.534-3.535-9.287 0-12.821l19.998-19.998c.151-.152.338-.229.553-.229.216 0 .402.077.555.23l35.142 35.143c.306.305.306.803 0 1.107l-6.086 6.086zm46.177-28.961-12.822-12.822 11.973-11.972c3.874 4.654 8.167 8.948 12.822 12.822z"/><path d="m359.542 164.1c36.107 0 65.483-29.376 65.483-65.483s-29.376-65.483-65.483-65.483-65.483 29.376-65.483 65.483 29.376 65.483 65.483 65.483zm0-115.967c27.837 0 50.483 22.646 50.483 50.483s-22.646 50.484-50.483 50.484-50.483-22.646-50.483-50.483 22.646-50.484 50.483-50.484z"/></g></svg>