<svg id="Capa_1" enable-background="new 0 0 512 512" height="512" viewBox="0 0 512 512" width="512" xmlns="http://www.w3.org/2000/svg"><g><path d="m342.088 181.857h-40c-11.028 0-20 8.972-20 20v160c0 11.028 8.972 20 20 20h40c11.028 0 20-8.972 20-20v-160c0-11.028-8.972-20-20-20zm0 180h-40v-30h10c5.523 0 10-4.477 10-10 0-5.522-4.477-10-10-10h-10v-20h10c5.523 0 10-4.477 10-10 0-5.522-4.477-10-10-10h-10v-20h10c5.523 0 10-4.478 10-10s-4.477-10-10-10h-10v-30h40l.013 159.999s-.004.001-.013.001z"/><path d="m482.091 432v-78.13c0-37.435-3.258-74.777-9.677-111.602 10.79-14.024 19.563-29.407 26.096-45.795 8.117-20.354 12.65-41.884 13.475-63.993.201-5.414-1.839-10.755-5.596-14.653-3.801-3.944-8.911-6.117-14.388-6.117h-53.028c-12.948-31.291-37.616-55.802-69.072-68.63v-23.08c0-11.028-8.972-20-20-20h-55.626c-11.028 0-20 8.972-20 20v23.08c-31.451 12.828-56.118 37.338-69.066 68.63h-63.118c-33.084 0-60 26.916-60 60v96.94c0 10.687 3.333 20.892 9.639 29.514l70.361 96.173v37.663h-.003c-11.028 0-20 8.972-20 20v40c0 11.028 8.972 20 20 20h120.913c5.523 0 10-4.478 10-10s-4.477-10-10-10h-120.913v-40h320v40h-119.086c-5.523 0-10 4.478-10 10s4.477 10 10 10h119.087c11.028 0 20-8.972 20-20v-40c-.001-11.027-8.971-19.998-19.998-20zm-2.158-242.934c-3.564 8.939-7.896 17.531-12.904 25.733-2.385-10.892-5.046-21.73-7.992-32.498l-13.841-50.586 46.802.022c-.738 19.817-4.797 39.105-12.065 57.329zm-185.658-169.066h55.626v20h-55.626zm-8.257 40h72.139c25.794 9.31 46.593 27.733 58.806 51.71h-189.698c12.245-23.756 33.374-42.524 58.753-51.71zm-121.347 236.24-22.579-30.86v-93.67h45.953l-2.897 10.59c-10.218 37.313-17.052 75.454-20.477 113.94zm-56.798-9.884c-3.782-5.172-5.781-11.294-5.781-17.706v-96.94c0-22.056 17.944-40 40-40h56.897l-5.472 20h-51.425c-11.028 0-20 8.972-20 20v93.67c0 4.297 1.342 8.389 3.859 11.805l36.704 50.17c-.36 8.83-.563 17.669-.563 26.516v6.596zm74.218 67.514c0-56.188 7.518-112.135 22.346-166.291l15.286-55.869h204.737l15.286 55.87c14.827 54.189 22.345 110.137 22.345 166.29v78.13h-280z"/><path d="m87.776 68.786c1.953 1.956 4.514 2.934 7.076 2.934 2.557 0 5.114-.975 7.066-2.925 3.908-3.902 3.912-10.234.009-14.142-9.437-9.449-21.993-14.653-35.356-14.653s-25.918 5.204-35.355 14.653c-3.903 3.907-3.899 10.239.009 14.142 3.907 3.903 10.238 3.898 14.142-.009 5.659-5.666 13.189-8.786 21.204-8.786 8.016 0 15.546 3.12 21.205 8.786z"/><path d="m116.071 40.501c1.953 1.952 4.512 2.929 7.071 2.929s5.119-.977 7.071-2.929c3.905-3.905 3.905-10.237-.001-14.143-16.998-16.997-39.599-26.358-63.641-26.358s-46.642 9.361-63.64 26.358c-3.905 3.905-3.906 10.237 0 14.143 3.906 3.904 10.238 3.905 14.142 0 13.22-13.221 30.799-20.501 49.498-20.501 18.7 0 36.279 7.28 49.5 20.501z"/><circle cx="66.57" cy="89.997" r="10"/><circle cx="323.002" cy="502" r="10"/></g></svg>