<svg id="Capa_1" enable-background="new 0 0 511.981 511.981" height="512" viewBox="0 0 511.981 511.981" width="512" xmlns="http://www.w3.org/2000/svg"><g><path d="m508.001 20.3c-1.426-8.336-7.984-14.894-16.321-16.32-14.117-2.415-51.755-7.301-96.209-.55-55.47 8.425-102.317 31.419-139.242 68.343l-23.466 23.466c-34.515-1.055-68.505 4.175-101.095 15.606-32.224 11.303-61.828 28.242-87.987 50.346-4.254 3.595-6.827 8.849-7.061 14.416-.234 5.578 1.896 11.042 5.845 14.99l47.47 47.469-7.087 7.087c-7.798 7.799-7.798 20.487 0 28.285l22.278 22.278c-17.992 2.155-35.286 9.138-49.672 20.366-4.478 3.488-7.25 8.75-7.604 14.434-.357 5.732 1.765 11.351 5.829 15.425l27.896 27.897c1.953 1.952 4.512 2.929 7.071 2.929s5.119-.977 7.071-2.929c3.905-3.905 3.906-10.237.001-14.143l-27.876-27.91c16.062-12.501 36.647-18.381 56.958-16.396l71.793 71.792c1.986 20.314-3.899 40.905-16.41 56.978l-27.895-27.896c-3.905-3.904-10.237-3.904-14.143 0-3.905 3.905-3.905 10.237 0 14.143l27.904 27.904c3.771 3.762 8.876 5.859 14.169 5.859.415 0 .832-.014 1.249-.039 5.684-.355 10.944-3.126 14.428-7.598 11.231-14.39 18.215-31.688 20.37-49.68l22.28 22.28c3.899 3.9 9.02 5.848 14.142 5.848s10.244-1.949 14.143-5.848l7.087-7.087 47.47 47.47c3.752 3.752 8.872 5.861 14.158 5.861.276 0 .554-.006.831-.017 5.567-.234 10.822-2.808 14.416-7.061 22.103-26.156 39.042-55.759 50.347-87.986 11.431-32.588 16.664-66.577 15.607-101.095l23.465-23.465c36.924-36.925 59.918-83.773 68.343-139.242 6.749-44.455 1.862-82.092-.553-96.21zm-19.713 3.372c3.142 18.377 8.341 63.382-4.032 113.379l-109.328-109.328c49.995-12.375 94.994-7.181 113.36-4.051zm-431.699 152.796c24.293-20.527 51.78-36.256 81.699-46.75 24.097-8.453 49.021-13.251 74.36-14.365l-108.573 108.573zm196.096 238.522-155.695-155.694 28.317-28.317 155.695 155.695zm129.578-41.298c-10.495 29.921-26.225 57.408-46.736 81.681l-47.47-47.47 108.573-108.573c-1.113 25.34-5.914 50.265-14.367 74.362zm43.802-132.083-130.921 130.922-155.695-155.694 130.922-130.922c25.715-25.715 54.523-41.838 82.752-51.711l124.652 124.652c-9.872 28.23-25.994 57.038-51.71 82.753z"/><path d="m316.373 120.607c-20.033 0-38.867 7.802-53.033 21.968-29.242 29.242-29.242 76.823 0 106.066 14.622 14.621 33.828 21.932 53.033 21.932 19.206 0 38.412-7.31 53.033-21.932 14.166-14.166 21.968-33 21.968-53.033s-7.802-38.867-21.968-53.033c-14.166-14.167-33-21.968-53.033-21.968zm38.891 113.891c-10.723 10.724-24.805 16.085-38.891 16.083-14.082-.001-28.17-5.362-38.891-16.083-21.444-21.444-21.444-56.338 0-77.781 10.389-10.389 24.2-16.11 38.891-16.11s28.503 5.722 38.891 16.11c10.389 10.388 16.11 24.199 16.11 38.891 0 14.69-5.722 28.501-16.11 38.89z"/><path d="m88.649 423.332c-3.905-3.903-10.237-3.904-14.142 0l-71.578 71.577c-3.905 3.905-3.906 10.237 0 14.143 1.953 1.952 4.512 2.929 7.071 2.929s5.119-.977 7.071-2.929l71.578-71.577c3.905-3.906 3.905-10.238 0-14.143z"/><path d="m10 441.27c2.559 0 5.119-.977 7.071-2.929l36.222-36.222c3.905-3.905 3.906-10.237 0-14.143-3.905-3.903-10.237-3.904-14.142 0l-36.222 36.222c-3.905 3.905-3.906 10.237 0 14.143 1.953 1.952 4.511 2.929 7.071 2.929z"/><path d="m109.861 458.688-36.221 36.221c-3.905 3.905-3.905 10.237 0 14.143 1.953 1.952 4.512 2.929 7.071 2.929s5.119-.977 7.071-2.929l36.222-36.222c3.905-3.905 3.905-10.237 0-14.143-3.905-3.904-10.237-3.904-14.143.001z"/><circle cx="116.93" cy="395.051" r="10"/></g></svg>