<svg id="Capa_1" enable-background="new 0 0 512 512" height="512" viewBox="0 0 512 512" width="512" xmlns="http://www.w3.org/2000/svg"><g><g><g><g><path d="m247.55 300.674c-2.68 0-5.361-.91-7.519-2.735-.002-.002-.004-.003-.005-.004l-35.625-30.198c-3.301-2.795-5.273-6.716-5.549-11.037s1.181-8.461 4.103-11.656l11.419-12.49c5.574-6.096 14.716-6.898 21.266-1.864.029.022.057.044.085.066l11.849 9.379 28.345-24.902c6.482-5.696 16.434-5.096 22.186 1.337l11.059 12.372c2.819 3.155 4.236 7.218 3.988 11.442s-2.129 8.094-5.298 10.897l-52.591 46.492c-2.183 1.932-4.947 2.901-7.713 2.901zm-21.528-58.255c-.212 0-.423.087-.578.257l-11.419 12.49c-.149.163-.218.358-.204.578.014.221.107.406.276.548l33.408 28.319 50.411-44.565c.16-.141.248-.323.261-.539s-.054-.407-.197-.568l-11.059-12.372c-.284-.319-.778-.348-1.102-.065l-30.45 26.751c-4.167 3.66-10.382 3.863-14.778.485-.028-.021-.057-.044-.085-.066l-14.028-11.104c-.137-.101-.297-.149-.456-.149z"/></g></g></g><g><path d="m222.867 48.133h33.133c4.143 0 7.5-3.358 7.5-7.5s-3.357-7.5-7.5-7.5h-33.133c-4.142 0-7.5 3.358-7.5 7.5s3.358 7.5 7.5 7.5z"/><path d="m280.85 48.133h8.283c4.143 0 7.5-3.358 7.5-7.5s-3.357-7.5-7.5-7.5h-8.283c-4.143 0-7.5 3.358-7.5 7.5s3.357 7.5 7.5 7.5z"/><path d="m204.402 267.737 35.625 30.198c.001.001.003.003.005.004 2.158 1.825 4.839 2.735 7.519 2.735 2.766 0 5.53-.969 7.713-2.9l52.591-46.492c3.169-2.803 5.05-6.673 5.298-10.897s-1.169-8.288-3.988-11.442l-11.059-12.372c-5.752-6.433-15.703-7.034-22.186-1.337l-28.345 24.902-11.849-9.379c-.028-.022-.056-.044-.085-.066-6.55-5.034-15.692-4.231-21.266 1.864l-11.419 12.49c-2.922 3.195-4.379 7.335-4.103 11.656.275 4.32 2.248 8.24 5.549 11.036zm9.623-12.572 11.419-12.49c.155-.169.365-.257.578-.257.159 0 .319.049.458.148l14.028 11.104c.028.022.057.044.085.066 4.396 3.378 10.61 3.175 14.778-.485l30.45-26.751c.323-.282.817-.253 1.102.065l11.059 12.372c.143.161.21.352.197.568s-.101.398-.261.539l-50.411 44.565-33.408-28.319c-.169-.143-.262-.327-.276-.548-.015-.219.053-.414.202-.577z"/><path d="m438.233 182.233c-9.01 0-17.645 1.63-25.634 4.601l-.001-146.201c.001-22.405-18.227-40.633-40.632-40.633h-231.933c-22.405 0-40.633 18.228-40.633 40.633v146.2c-7.989-2.97-16.623-4.6-25.633-4.6-40.675 0-73.767 33.092-73.767 73.767s33.092 73.767 73.767 73.767c9.01 0 17.645-1.63 25.633-4.6v146.2c0 22.405 18.228 40.633 40.633 40.633h37.289c4.142 0 7.5-3.358 7.5-7.5s-3.358-7.5-7.5-7.5h-37.289c-14.134 0-25.633-11.499-25.633-25.633v-153.843c6.959-4.612 13.094-10.367 18.133-17.002v154.278c0 13.27 10.796 24.066 24.066 24.066h198.801c13.271 0 24.067-10.796 24.067-24.066l-.001-154.278c5.039 6.635 11.174 12.39 18.133 17.002v153.842c0 14.134-11.499 25.633-25.633 25.633h-159.644c-4.142 0-7.5 3.358-7.5 7.5s3.358 7.5 7.5 7.5h159.645c22.405 0 40.633-18.228 40.633-40.633v-146.2c7.989 2.97 16.624 4.601 25.634 4.601 40.674 0 73.766-33.092 73.766-73.767s-33.092-73.767-73.767-73.767zm-323.833-141.6c0-14.134 11.499-25.633 25.633-25.633h231.933c14.134 0 25.633 11.499 25.633 25.633l.001 153.843c-6.959 4.611-13.094 10.367-18.133 17.002l-.001-154.278c0-13.27-10.796-24.066-24.066-24.066h-28.014c-6.017 0-11.426 3.343-14.117 8.725l-9.698 19.398c-1.546 3.091-4.653 5.011-8.109 5.011h-78.922c-3.457 0-6.564-1.92-8.11-5.012l-9.698-19.397c-2.691-5.382-8.1-8.725-14.117-8.725h-28.015c-13.27 0-24.066 10.796-24.066 24.066v28.35c0 4.142 3.358 7.5 7.5 7.5s7.5-3.358 7.5-7.5v-28.35c0-4.999 4.067-9.066 9.066-9.066h28.014c.299 0 .567.166.7.433l9.699 19.397c4.103 8.206 12.351 13.304 21.526 13.304h78.922c9.175 0 17.424-5.098 21.525-13.304l9.698-19.396c.134-.267.402-.433.701-.433h28.014c4.999 0 9.066 4.067 9.066 9.066l.001 174.733h-21.394c-10.561-38.164-45.594-66.267-87.073-66.267s-76.512 28.103-87.073 66.267h-21.394v-111.384c0-4.142-3.358-7.5-7.5-7.5s-7.5 3.358-7.5 7.5v90.927c-5.039-6.635-11.174-12.391-18.133-17.002v-153.842zm32.556 224.434c.366-2.974.577-5.995.577-9.067s-.211-6.093-.577-9.067h19.164c-.299 2.983-.453 6.007-.453 9.067s.155 6.084.453 9.067zm33.71-9.067c0-41.539 33.794-75.333 75.334-75.333s75.333 33.794 75.333 75.333-33.794 75.333-75.333 75.333-75.334-33.794-75.334-75.333zm165.214-9.067h19.164c-.366 2.974-.577 5.995-.577 9.067s.211 6.093.577 9.067h-19.164c.299-2.983.453-6.007.453-9.067s-.155-6.084-.453-9.067zm-305.967 57.058c.883-13.34 12.011-23.924 25.57-23.924h16.567c13.56 0 24.687 10.585 25.57 23.924-9.578 6.777-21.254 10.775-33.853 10.775s-24.275-3.998-33.854-10.775zm33.854-38.924c-9.567 0-17.35-7.783-17.35-17.35s7.783-17.35 17.35-17.35 17.35 7.783 17.35 17.35-7.784 17.35-17.35 17.35zm46.493 26.813c-3.78-10.418-11.707-18.856-21.774-23.328 4.756-5.633 7.63-12.904 7.63-20.836 0-17.838-14.512-32.35-32.35-32.35s-32.35 14.512-32.35 32.35c0 7.932 2.875 15.203 7.631 20.836-10.067 4.472-17.994 12.91-21.774 23.328-7.684-9.934-12.273-22.378-12.273-35.88 0-32.404 26.363-58.767 58.767-58.767s58.767 26.363 58.767 58.767c-.001 13.502-4.59 25.946-12.274 35.88zm235.14 171.987h-198.8c-4.999 0-9.066-4.067-9.066-9.066v-174.734h21.394c10.561 38.164 45.594 66.267 87.073 66.267 41.478 0 76.511-28.103 87.073-66.267h21.394l.001 174.733c-.001 4.999-4.069 9.067-9.069 9.067zm48.98-159.876c.883-13.34 12.011-23.924 25.57-23.924h16.566c13.56 0 24.687 10.585 25.57 23.924-9.578 6.777-21.254 10.776-33.854 10.776s-24.274-3.999-33.852-10.776zm33.853-38.924c-9.567 0-17.351-7.783-17.351-17.35s7.783-17.35 17.351-17.35c9.566 0 17.35 7.783 17.35 17.35s-7.783 17.35-17.35 17.35zm46.494 26.813c-3.78-10.417-11.707-18.856-21.774-23.327 4.756-5.633 7.63-12.904 7.63-20.836 0-17.838-14.512-32.35-32.35-32.35s-32.351 14.512-32.351 32.35c0 7.932 2.875 15.203 7.631 20.836-10.067 4.472-17.994 12.91-21.774 23.327-7.684-9.934-12.273-22.378-12.273-35.88 0-32.404 26.362-58.767 58.767-58.767s58.767 26.363 58.767 58.767c0 13.502-4.589 25.946-12.273 35.88z"/></g></g></svg>