<svg id="Capa_1" enable-background="new 0 0 512 512" height="512" viewBox="0 0 512 512" width="512" xmlns="http://www.w3.org/2000/svg"><g><path d="m438.232 231.935c-9.712 0-18.636 3.429-25.634 9.135v-183.873c0-22.405-18.229-40.634-40.634-40.634h-67.049v-1.063c0-8.547-6.953-15.5-15.5-15.5h-133.097c-8.547 0-15.5 6.953-15.5 15.5v1.063h-67.05c-22.405 0-40.633 18.229-40.633 40.634v414.17c0 22.405 18.228 40.633 40.633 40.633h107.252c4.143 0 7.5-3.357 7.5-7.5s-3.357-7.5-7.5-7.5h-107.252c-14.134 0-25.633-11.499-25.633-25.633v-414.17c0-14.135 11.499-25.634 25.633-25.634h67.051v18.137h-50.485c-13.271 0-24.067 10.796-24.067 24.066v15.634c0 4.143 3.357 7.5 7.5 7.5s7.5-3.357 7.5-7.5v-15.633c0-4.999 4.067-9.066 9.067-9.066h51.529c2.965 9.585 11.909 16.568 22.456 16.568h58.529c.007 0 .013.001.019.001.007 0 .013-.001.019-.001h58.529c10.546 0 19.491-6.983 22.456-16.568h51.527c4.999 0 9.066 4.067 9.066 9.066v225.687l-64.272 49.99c-3.519-.997-7.226-1.543-11.06-1.543-10.216 0-19.556 3.798-26.703 10.046l-85.231-18.94c-6.315-14.26-20.593-24.238-37.166-24.238-22.405 0-40.634 18.227-40.634 40.633s18.229 40.634 40.634 40.634c10.216 0 19.556-3.798 26.703-10.046l85.23 18.94c6.315 14.26 20.594 24.239 37.167 24.239 22.405 0 40.633-18.227 40.633-40.633 0-.367-.018-.729-.028-1.094l34.727-27.009v94.371c0 4.999-4.067 9.066-9.066 9.066h-265.064c-5 0-9.067-4.067-9.067-9.066v-330.079c0-4.143-3.357-7.5-7.5-7.5s-7.5 3.357-7.5 7.5v330.077c0 13.271 10.797 24.066 24.067 24.066h265.064c13.271 0 24.066-10.796 24.066-24.066v-106.038l18.134-14.104v136.707c0 14.134-11.499 25.633-25.634 25.633h-155.944c-4.143 0-7.5 3.357-7.5 7.5s3.357 7.5 7.5 7.5h155.945c22.405 0 40.634-18.228 40.634-40.633v-148.373l14.575-11.336c3.519.997 7.225 1.542 11.059 1.542 22.405 0 40.633-18.228 40.633-40.633-.001-22.405-18.228-40.632-40.634-40.632zm-148.316-174.166c0 4.687-3.813 8.5-8.5 8.5h-51.049v-9.067c0-4.142-3.357-7.5-7.5-7.5s-7.5 3.358-7.5 7.5v9.067h-51.049c-4.687 0-8.5-3.813-8.5-8.5v-42.269c0-.275.225-.5.5-.5h133.098c.275 0 .5.225.5.5zm65.482-8.069h-50.482v-18.137h67.049c14.135 0 25.634 11.499 25.634 25.634v216.485l-18.134 14.104v-214.019c0-13.271-10.796-24.067-24.067-24.067zm-240.999 305.7c0-14.134 11.499-25.633 25.634-25.633 14.134 0 25.633 11.499 25.633 25.633 0 14.135-11.499 25.634-25.633 25.634-14.135 0-25.634-11.499-25.634-25.634zm62.326 17.442c2.524-5.288 3.941-11.202 3.941-17.442 0-.087-.006-.173-.007-.26l71.781 15.952c-2.524 5.288-3.941 11.202-3.941 17.442 0 .087.006.172.007.259zm112.408 41.325c-14.135 0-25.634-11.499-25.634-25.633 0-14.135 11.499-25.634 25.634-25.634 14.134 0 25.633 11.499 25.633 25.634 0 14.134-11.499 25.633-25.633 25.633zm36.822-42.787c-2.605-5.57-6.432-10.456-11.141-14.307l86.596-67.352c2.605 5.57 6.432 10.457 11.141 14.308zm112.277-73.18c-14.134 0-25.633-11.499-25.633-25.633s11.499-25.633 25.633-25.633 25.633 11.499 25.633 25.633-11.499 25.633-25.633 25.633z"/><path d="m214.3 147.534h66.833c8.547 0 15.5-6.953 15.5-15.5v-17.133c0-8.547-6.953-15.5-15.5-15.5h-66.833c-8.547 0-15.5 6.953-15.5 15.5v17.133c0 8.547 6.953 15.5 15.5 15.5zm-.5-32.633c0-.275.225-.5.5-.5h66.833c.275 0 .5.225.5.5v17.133c0 .275-.225.5-.5.5h-66.833c-.275 0-.5-.225-.5-.5z"/><path d="m206.3 180.668h132.533c4.143 0 7.5-3.357 7.5-7.5s-3.357-7.5-7.5-7.5h-132.533c-4.143 0-7.5 3.357-7.5 7.5s3.357 7.5 7.5 7.5z"/><path d="m206.3 213.801h132.533c4.143 0 7.5-3.357 7.5-7.5s-3.357-7.5-7.5-7.5h-132.533c-4.143 0-7.5 3.357-7.5 7.5 0 4.142 3.357 7.5 7.5 7.5z"/><path d="m206.3 246.935h66.267c4.143 0 7.5-3.357 7.5-7.5s-3.357-7.5-7.5-7.5h-66.267c-4.143 0-7.5 3.357-7.5 7.5 0 4.142 3.357 7.5 7.5 7.5z"/></g></svg>