<svg id="Capa_1" enable-background="new 0 0 512 512" height="512" viewBox="0 0 512 512" width="512" xmlns="http://www.w3.org/2000/svg"><g><path d="m371.504 0h-231.008c-21.778 0-39.496 17.718-39.496 39.496v433.008c0 21.778 17.718 39.496 39.496 39.496h75.504c5.523 0 10-4.478 10-10s-4.477-10-10-10h-75.504c-10.75 0-19.496-8.746-19.496-19.496v-40.504h270v40.504c0 10.75-8.746 19.496-19.496 19.496h-75.504c-5.522 0-10 4.478-10 10s4.478 10 10 10h75.504c21.778 0 39.496-17.718 39.496-39.496v-433.008c0-21.778-17.718-39.496-39.496-39.496zm-175.504 20h120v10c0 5.514-4.486 10-10 10h-100c-5.514 0-10-4.486-10-10zm-75 392v-372.504c0-10.75 8.746-19.496 19.496-19.496h35.504v10c0 16.542 13.458 30 30 30h100c16.542 0 30-13.458 30-30v-10h35.504c10.75 0 19.496 8.746 19.496 19.496v372.504z"/><path d="m296 462c0-5.522-4.478-10-10-10h-60c-5.523 0-10 4.478-10 10s4.477 10 10 10h60c5.522 0 10-4.478 10-10z"/><path d="m217.952 261h76.096c12.104 0 21.952-9.848 21.952-21.952v-56.096c0-11.446-8.807-20.869-20-21.861v-10.091c0-22.056-17.944-40-40-40s-40 17.944-40 40v10.092c-11.193.992-20 10.414-20 21.861v56.096c0 12.103 9.848 21.951 21.952 21.951zm38.048-130c11.028 0 20 8.972 20 20v10h-40v-10c0-11.028 8.972-20 20-20zm-40 51.952c0-1.076.876-1.952 1.952-1.952h76.096c1.076 0 1.952.876 1.952 1.952v56.096c0 1.076-.876 1.952-1.952 1.952h-76.096c-1.076 0-1.952-.876-1.952-1.952z"/><path d="m336.742 291h-161.484c-10.619 0-19.258 8.639-19.258 19.258v31.484c0 10.619 8.639 19.258 19.258 19.258h161.484c10.619 0 19.258-8.639 19.258-19.258v-31.484c0-10.619-8.639-19.258-19.258-19.258zm-.742 50h-160v-30h160z"/><circle cx="256" cy="501.999" r="10"/></g></svg>