<svg id="Capa_1" enable-background="new 0 0 512 512" height="512" viewBox="0 0 512 512" width="512" xmlns="http://www.w3.org/2000/svg"><g><path d="m173.167 48.133h33.133c4.142 0 7.5-3.357 7.5-7.5s-3.358-7.5-7.5-7.5h-33.133c-4.142 0-7.5 3.357-7.5 7.5s3.357 7.5 7.5 7.5z"/><path d="m239.433 48.133c4.142 0 7.5-3.357 7.5-7.5s-3.358-7.5-7.5-7.5h-8.283c-4.142 0-7.5 3.357-7.5 7.5s3.358 7.5 7.5 7.5z"/><path d="m421.667 132.533h-58.767v-91.9c-.001-22.405-18.229-40.633-40.634-40.633h-231.932c-22.406 0-40.634 18.229-40.634 40.634v48.766c0 4.143 3.358 7.5 7.5 7.5s7.5-3.357 7.5-7.5v-48.766c0-14.135 11.499-25.634 25.634-25.634h231.932c14.134 0 25.633 11.499 25.633 25.633l.001 91.9h-18.133v-75.333c0-13.271-10.796-24.067-24.066-24.067h-28.014c-6.016 0-11.425 3.343-14.117 8.725l-9.699 19.398c-1.545 3.091-4.652 5.012-8.109 5.012h-78.923c-3.457 0-6.563-1.921-8.109-5.013l-9.699-19.397c-2.691-5.381-8.101-8.724-14.117-8.724h-28.014c-13.271 0-24.067 10.797-24.067 24.067v397.6c0 13.271 10.796 24.067 24.067 24.067h198.801c13.27 0 24.067-10.797 24.067-24.067v-91.908h18.132v108.475c0 14.135-11.499 25.634-25.633 25.634h-231.933c-14.135-.002-25.634-11.501-25.634-25.636v-346.966c0-4.143-3.358-7.5-7.5-7.5s-7.5 3.357-7.5 7.5v346.966c0 22.406 18.228 40.634 40.634 40.634h231.933c22.405 0 40.633-18.228 40.633-40.634v-108.475h58.767c22.405 0 40.633-18.228 40.633-40.633v-149.091c0-22.405-18.228-40.634-40.633-40.634zm-106.899 322.267c0 5-4.067 9.067-9.067 9.067h-198.801c-5 0-9.067-4.067-9.067-9.067v-397.6c0-5 4.067-9.067 9.067-9.067h28.014c.299 0 .567.166.701.434l9.698 19.396c4.103 8.207 12.351 13.305 21.526 13.305h78.923c9.175 0 17.423-5.098 21.525-13.304l9.698-19.395c.134-.269.403-.435.702-.435h28.013c4.999 0 9.066 4.067 9.066 9.067v75.333h-57.833c-4.142 0-7.5 3.357-7.5 7.5s3.358 7.5 7.5 7.5h164.733c14.134 0 25.633 11.499 25.633 25.634v1.634c-6.998-5.705-15.921-9.134-25.633-9.134h-231.933c-9.712 0-18.635 3.429-25.633 9.134v-1.634c0-14.135 11.499-25.634 25.633-25.634h32.2c4.142 0 7.5-3.357 7.5-7.5s-3.358-7.5-7.5-7.5h-32.2c-22.405 0-40.633 18.229-40.633 40.634v149.092c0 22.405 18.228 40.633 40.633 40.633h24.85c.432 0 .783.352.783.784v33.133c0 6.91 4.236 12.787 10.792 14.973 1.698.566 3.42.841 5.112.841 4.84 0 9.434-2.247 12.506-6.344l32.305-43.073c.147-.196.382-.314.627-.314h38.059zm132.532-132.541c0 14.134-11.499 25.633-25.633 25.633h-144.959c-4.941 0-9.662 2.36-12.627 6.314l-32.305 43.073c-.151.2-.337.452-.875.273-.536-.179-.536-.492-.536-.743v-33.133c0-8.703-7.081-15.784-15.783-15.784h-24.85c-14.134 0-25.633-11.499-25.633-25.633v-115.959c0-14.134 11.499-25.633 25.633-25.633h231.933c14.134 0 25.633 11.499 25.633 25.633v115.959z"/><path d="m206.3 248.5c-13.271 0-24.066 10.796-24.066 24.066s10.796 24.066 24.066 24.066 24.067-10.796 24.067-24.066-10.797-24.066-24.067-24.066zm0 33.133c-4.999 0-9.066-4.067-9.066-9.066s4.067-9.066 9.066-9.066 9.067 4.067 9.067 9.066-4.068 9.066-9.067 9.066z"/><path d="m272.567 248.5c-13.271 0-24.067 10.796-24.067 24.066s10.796 24.066 24.067 24.066c13.27 0 24.066-10.796 24.066-24.066s-10.796-24.066-24.066-24.066zm0 33.133c-4.999 0-9.067-4.067-9.067-9.066s4.067-9.066 9.067-9.066c4.999 0 9.066 4.067 9.066 9.066s-4.067 9.066-9.066 9.066z"/><path d="m338.833 248.5c-13.271 0-24.067 10.796-24.067 24.066s10.796 24.066 24.067 24.066c13.27 0 24.066-10.796 24.066-24.066s-10.795-24.066-24.066-24.066zm0 33.133c-4.999 0-9.067-4.067-9.067-9.066s4.067-9.066 9.067-9.066c4.999 0 9.066 4.067 9.066 9.066s-4.067 9.066-9.066 9.066z"/><path d="m405.1 248.5c-13.271 0-24.067 10.796-24.067 24.066s10.796 24.066 24.067 24.066c13.27 0 24.066-10.796 24.066-24.066s-10.796-24.066-24.066-24.066zm0 33.133c-4.999 0-9.067-4.067-9.067-9.066s4.067-9.066 9.067-9.066c4.999 0 9.066 4.067 9.066 9.066s-4.067 9.066-9.066 9.066z"/></g></svg>