<svg id="Capa_1" enable-background="new 0 0 512 512" height="512" viewBox="0 0 512 512" width="512" xmlns="http://www.w3.org/2000/svg"><g><path d="m371.504 0h-231.008c-21.778 0-39.496 17.718-39.496 39.496v433.008c0 21.778 17.718 39.496 39.496 39.496h75.504c5.523 0 10-4.478 10-10s-4.477-10-10-10h-75.504c-10.75 0-19.496-8.746-19.496-19.496v-40.504h270v40.504c0 10.75-8.746 19.496-19.496 19.496h-75.504c-5.522 0-10 4.478-10 10s4.478 10 10 10h75.504c21.778 0 39.496-17.718 39.496-39.496v-433.008c0-21.778-17.718-39.496-39.496-39.496zm-58.806 285.256-47.542-108.276c-1.596-3.633-5.189-5.98-9.156-5.98s-7.561 2.347-9.156 5.98l-12.946 29.485-40.107-40.114 62.208-62.208 135.001 135v124.424zm-56.698-79.382 29.048 66.156-25.163-10.609c-1.242-.523-2.564-.785-3.885-.785s-2.643.262-3.885.785l-25.163 10.609zm68.31-61.707 66.69-66.691v133.382zm-128.31-124.167h120v10c0 5.514-4.486 10-10 10h-100c-5.514 0-10-4.486-10-10zm-55.504 0h35.504v10c0 16.542 13.458 30 30 30h100c16.542 0 30-13.458 30-30v-10h35.504c10.75 0 19.496 8.746 19.496 19.496v9.694l-80.833 80.834-40.025-40.025c-7.799-7.797-20.484-7.797-28.283 0l-120.859 120.858v-171.361c0-10.75 8.746-19.496 19.496-19.496zm-19.496 219.143 58.65-58.651 45.618 45.627-26.722 60.861c-1.646 3.749-.841 8.123 2.033 11.039 2.874 2.918 7.238 3.785 11.008 2.196l44.413-18.727 30.717 12.952-117.56 117.56h-48.157zm76.442 172.857 106.858-106.857 86.7 86.709v20.148z"/><path d="m296 462c0-5.522-4.478-10-10-10h-60c-5.523 0-10 4.478-10 10s4.477 10 10 10h60c5.522 0 10-4.478 10-10z"/><circle cx="256" cy="502" r="10"/></g></svg>