<svg id="Capa_1" enable-background="new 0 0 512 512" height="512" viewBox="0 0 512 512" width="512" xmlns="http://www.w3.org/2000/svg"><g><path d="m506.473 186.195c-3.761-3.937-9.039-6.194-14.483-6.194h-20.021c-5.218-100.137-88.326-180.001-189.738-180.001s-184.519 79.864-189.737 180h-20.024c-5.444 0-10.723 2.258-14.484 6.195-3.747 3.922-5.753 9.273-5.505 14.691 2.762 59.128 27.886 114.28 70.745 155.299 35.699 34.166 80.687 55.572 129.004 61.86v21.898h-84.999c-11.028 0-20 8.972-20 20v32.057c0 11.028 8.972 20 20 20h75c5.523 0 10-4.477 10-10s-4.477-10-10-10h-75v-32.057h230v32.057h-75c-5.523 0-10 4.477-10 10 0 5.522 4.477 10 10 10h75c11.028 0 20-8.972 20-20v-32.057c0-11.028-8.972-20-20-20h-85.001v-21.898c48.319-6.288 93.308-27.694 129.008-61.86 42.861-41.02 67.984-96.173 70.742-155.309.247-5.408-1.76-10.76-5.507-14.681zm-224.242-166.195c93.738 0 170 76.262 170 170s-76.262 170-170 170-170-76.262-170-170 76.262-170 170-170zm0 360c3.354 0 6.687-.09 9.999-.263v20.024c-3.315.155-6.648.238-10 .238s-6.685-.084-10-.238v-20.024c3.313.173 6.647.263 10.001.263zm-209.761-180h20.024c4.693 90.057 72.388 163.708 159.736 177.623v20.25c-98.37-14.006-175.005-95.904-179.76-197.873zm219.76 239.944h-20v-20.168c3.323.143 6.656.225 10 .225s6.677-.082 10-.225zm20-42.07v-20.25c87.354-13.915 155.054-87.573 159.74-177.639l20.031-.031c-4.757 102.012-81.393 183.914-179.771 197.92z"/><path d="m282.231 340c82.711 0 150-67.29 150-150s-67.289-150-150-150c-82.71 0-150 67.29-150 150s67.29 150 150 150zm0-280c71.682 0 130 58.317 130 130s-58.318 130-130 130-130-58.317-130-130 58.318-130 130-130z"/><path d="m87.774 68.786c1.953 1.956 4.514 2.934 7.076 2.934 2.557 0 5.114-.975 7.066-2.925 3.908-3.902 3.912-10.234.009-14.142-9.436-9.449-21.993-14.653-35.355-14.653s-25.918 5.204-35.355 14.653c-3.903 3.907-3.898 10.239.009 14.142 3.907 3.902 10.238 3.899 14.142-.009 5.658-5.666 13.189-8.786 21.204-8.786s15.546 3.12 21.204 8.786z"/><path d="m116.069 40.501c1.953 1.952 4.512 2.929 7.071 2.929s5.119-.977 7.071-2.929c3.905-3.905 3.905-10.237-.001-14.143-16.997-16.997-39.599-26.358-63.64-26.358s-46.643 9.361-63.641 26.359c-3.905 3.905-3.906 10.237 0 14.143 3.906 3.904 10.238 3.905 14.142 0 13.221-13.221 30.8-20.502 49.499-20.502 18.7 0 36.279 7.281 49.499 20.501z"/><circle cx="282.232" cy="501.999" r="10"/><circle cx="66.569" cy="89.997" r="10"/></g></svg>