<svg id="Capa_1" enable-background="new 0 0 512 512" height="512" viewBox="0 0 512 512" width="512" xmlns="http://www.w3.org/2000/svg"><g><path d="m354.709 430.734h-9.082c-3.53-18.833-20.085-33.133-39.927-33.133h-33.533c-1.309-1.77-2.763-3.452-4.373-5.021l-65.439-65.435c-7.727-7.981-18.089-12.376-29.185-12.376h-91.9v-1.066c0-8.547-6.953-15.5-15.5-15.5h-50.266c-8.547 0-15.5 6.953-15.5 15.5v133.098c0 8.547 6.953 15.5 15.5 15.5h50.266c8.547 0 15.5-6.953 15.5-15.5v-1.066h11.909c6.846 0 13.283 2.666 18.125 7.508l42.005 42.005c10.802 10.802 25.167 16.752 40.445 16.752h99.52c4.142 0 7.5-3.357 7.5-7.5s-3.358-7.5-7.5-7.5h-99.52c-11.271 0-21.869-4.39-29.839-12.36l-42.005-42.005c-7.675-7.674-17.879-11.9-28.731-11.9h-11.909v-100.965h91.898c7.012 0 13.56 2.785 18.44 7.842.031.032.062.064.094.096l65.52 65.516c.025.024.05.049.075.073 5.011 4.872 7.77 11.397 7.77 18.372 0 14.134-11.499 25.633-25.633 25.633-6.976 0-13.5-2.76-18.373-7.77-.024-.025-.049-.05-.074-.075l-42.516-42.512c-2.93-2.928-7.678-2.929-10.607.001-2.929 2.929-2.928 7.678 0 10.606l42.481 42.477c7.716 7.915 18.044 12.273 29.088 12.273 13.404 0 25.308-6.527 32.713-16.566h82.562c14.132 0 25.935 11.174 26.312 24.908.192 6.991-2.383 13.596-7.249 18.598-4.869 5.004-11.394 7.76-18.374 7.76h-27.125c-4.142 0-7.5 3.357-7.5 7.5s3.358 7.5 7.5 7.5h27.125c11.064 0 21.408-4.368 29.125-12.3 7.714-7.929 11.795-18.395 11.492-29.469-.596-21.781-19.125-39.499-41.305-39.499zm-339.705 16.067v-133.098c0-.275.224-.5.5-.5h17.633v134.098h-17.633c-.276 0-.5-.225-.5-.5zm51.266 0c0 .275-.224.5-.5.5h-17.633v-134.098h17.633c.276 0 .5.225.5.5zm212.776-34.199h26.653c11.525 0 21.296 7.647 24.511 18.133h-51.176c.668-2.918 1.032-5.949 1.032-9.066 0-3.094-.354-6.128-1.02-9.067z"/><path d="m301.784 129.19-20.552-2.987-9.191-18.623c-3.036-6.15-9.182-9.971-16.041-9.971s-13.005 3.82-16.041 9.971l-9.191 18.623-20.552 2.987c-6.788.986-12.321 5.651-14.44 12.175-2.119 6.523-.385 13.549 4.526 18.336l14.872 14.497-3.511 20.47c-1.16 6.76 1.567 13.463 7.116 17.495 3.135 2.278 6.804 3.436 10.497 3.436 2.843 0 5.701-.687 8.341-2.074l18.383-9.665 18.382 9.664c6.072 3.193 13.29 2.67 18.838-1.361 5.549-4.032 8.276-10.735 7.116-17.495l-3.511-20.47 14.872-14.496c4.912-4.788 6.646-11.813 4.527-18.337-2.119-6.523-7.652-11.188-14.44-12.175zm-.556 19.771-15.74 15.343c-2.992 2.917-4.357 7.117-3.65 11.235l3.715 21.664c.264 1.54-.606 2.431-1.149 2.824-.542.395-1.66.945-3.041.22l-19.458-10.23c-3.696-1.941-8.112-1.942-11.812.001l-19.456 10.229c-1.382.726-2.499.175-3.041-.22-.543-.393-1.413-1.284-1.149-2.824l3.715-21.664c.706-4.118-.658-8.318-3.65-11.235l-15.74-15.344c-1.118-1.09-.938-2.322-.731-2.96s.786-1.741 2.332-1.966l21.749-3.16c4.136-.6 7.71-3.195 9.561-6.944l9.728-19.711c.691-1.4 1.919-1.609 2.59-1.609.67 0 1.898.209 2.59 1.609l9.728 19.711c1.85 3.749 5.424 6.345 9.557 6.943l21.752 3.161c1.546.225 2.124 1.328 2.331 1.966s.387 1.87-.731 2.961z"/><path d="m152.687 129.19-20.553-2.987-9.191-18.623c-3.036-6.15-9.182-9.971-16.041-9.971s-13.005 3.82-16.041 9.971l-9.191 18.623-20.552 2.987c-6.788.986-12.321 5.651-14.441 12.175-2.119 6.523-.385 13.549 4.526 18.336l14.872 14.497-3.511 20.47c-1.16 6.76 1.567 13.463 7.116 17.495 3.135 2.278 6.804 3.436 10.497 3.436 2.843 0 5.701-.687 8.341-2.074l18.382-9.664 18.382 9.664c6.072 3.193 13.289 2.67 18.838-1.361 5.549-4.032 8.276-10.735 7.116-17.495l-3.511-20.47 14.872-14.496c4.912-4.788 6.646-11.814 4.527-18.337-2.117-6.524-7.649-11.189-14.437-12.176zm-.557 19.771-15.74 15.343c-2.992 2.917-4.357 7.117-3.65 11.235l3.715 21.664c.264 1.54-.607 2.431-1.149 2.824-.542.395-1.66.945-3.041.22l-19.458-10.23c-3.696-1.941-8.112-1.942-11.812.001l-19.455 10.229c-1.382.726-2.499.175-3.041-.22-.542-.393-1.413-1.284-1.149-2.824l3.715-21.664c.707-4.118-.658-8.318-3.65-11.235l-15.74-15.344c-1.118-1.09-.938-2.322-.73-2.96.207-.638.786-1.741 2.332-1.966l21.749-3.16c4.137-.6 7.711-3.196 9.561-6.944l9.727-19.711c.691-1.4 1.919-1.609 2.59-1.609s1.898.209 2.59 1.609l9.728 19.711c1.85 3.749 5.424 6.345 9.557 6.943l21.753 3.161c1.545.225 2.124 1.328 2.331 1.966.205.638.386 1.87-.733 2.961z"/><path d="m450.882 129.19-20.552-2.987-9.191-18.623c-3.036-6.15-9.182-9.971-16.041-9.971s-13.005 3.82-16.041 9.971l-9.191 18.623-20.553 2.987c-6.788.986-12.32 5.651-14.44 12.175-2.119 6.522-.385 13.549 4.526 18.336l14.872 14.497-3.511 20.47c-1.159 6.76 1.568 13.464 7.117 17.495s12.767 4.551 18.838 1.361l18.382-9.664 18.382 9.664c2.641 1.389 5.498 2.074 8.341 2.074 3.693-.001 7.362-1.158 10.497-3.436 5.549-4.032 8.276-10.735 7.116-17.495l-3.511-20.47 14.872-14.496c4.912-4.788 6.646-11.813 4.527-18.337-2.118-6.522-7.652-11.187-14.439-12.174zm-.557 19.771-15.74 15.343c-2.991 2.916-4.356 7.115-3.651 11.235l3.716 21.664c.264 1.54-.607 2.431-1.149 2.824-.542.395-1.66.945-3.041.22l-19.458-10.23c-3.696-1.941-8.112-1.942-11.812.001l-19.456 10.229c-1.382.726-2.498.175-3.042-.22-.542-.393-1.413-1.285-1.149-2.824l3.716-21.664c.707-4.118-.658-8.318-3.65-11.235l-15.74-15.344c-1.118-1.09-.938-2.322-.73-2.96.207-.638.786-1.741 2.331-1.966l21.749-3.16c4.137-.6 7.711-3.195 9.561-6.944l9.727-19.711c.691-1.4 1.919-1.609 2.59-1.609.67 0 1.898.209 2.59 1.609l9.727 19.71c1.85 3.749 5.424 6.346 9.558 6.944l21.752 3.161c1.546.225 2.124 1.328 2.332 1.966.207.638.388 1.87-.731 2.961z"/><path d="m471.363 0h-430.726c-22.405 0-40.633 18.228-40.633 40.633v198.797c0 22.405 18.228 40.633 40.633 40.633h190.513c.432 0 .783.352.783.783v33.133c0 6.91 4.236 12.788 10.793 14.973 1.698.566 3.419.841 5.111.841 4.84 0 9.434-2.247 12.506-6.344l32.305-43.072c.148-.196.381-.314.627-.314h178.089c22.405 0 40.633-18.228 40.633-40.633v-198.797c-.001-22.405-18.229-40.633-40.634-40.633zm25.633 239.43c0 14.134-11.499 25.633-25.633 25.633h-178.089c-4.941 0-9.662 2.36-12.627 6.314l-32.305 43.072c-.151.201-.341.451-.874.273-.536-.179-.536-.492-.536-.743v-33.133c0-8.703-7.081-15.783-15.783-15.783h-190.512c-14.134 0-25.633-11.499-25.633-25.633v-165.664c0-14.134 11.499-25.633 25.633-25.633h15.63c4.142 0 7.5-3.357 7.5-7.5s-3.358-7.5-7.5-7.5h-15.63c-9.712 0-18.635 3.429-25.633 9.134v-1.634c0-14.134 11.499-25.633 25.633-25.633h430.727c14.134 0 25.633 11.499 25.633 25.633v1.634c-6.998-5.705-15.921-9.134-25.633-9.134h-380.097c-4.142 0-7.5 3.357-7.5 7.5s3.358 7.5 7.5 7.5h380.097c14.134 0 25.633 11.499 25.633 25.633v165.664z"/></g></svg>