<svg id="Capa_1" enable-background="new 0 0 512 512" height="512" viewBox="0 0 512 512" width="512" xmlns="http://www.w3.org/2000/svg"><g><path d="m492 391v-104c0-55.723-19.786-109.811-55.713-152.299-35.502-41.985-84.699-70.403-138.529-80.018-5.432-.96-10.631 2.649-11.602 8.087-.971 5.437 2.649 10.631 8.086 11.602 103 18.397 177.758 107.819 177.758 212.628v104h-56v-100c0-11.028-8.972-20-20-20h-60v-60c0-11.028-8.972-20-20-20v-20c0-11.028-8.972-20-20-20h-80c-11.028 0-20 8.972-20 20v20c-11.028 0-20 8.972-20 20v60h-60c-11.028 0-20 8.972-20 20v100h-56v-104c0-104.809 74.758-194.231 177.758-212.628 5.436-.971 9.057-6.165 8.086-11.602-.971-5.438-6.167-9.051-11.602-8.087-53.83 9.614-103.027 38.032-138.529 80.018-35.927 42.488-55.713 96.576-55.713 152.299v104c-11.028 0-20 8.972-20 20v30c0 11.028 8.972 20 20 20h472c11.028 0 20-8.972 20-20v-30c0-11.028-8.972-20-20-20zm-96-100v100h-60v-100zm-180-120h80v20h-80zm-20 40h120v180h-120zm-80 80h60v100h-60zm376 150h-472v-30h472l.013 29.999s-.004.001-.013.001z"/><path d="m236 231h-10c-5.523 0-10 4.477-10 10s4.477 10 10 10h10c5.523 0 10-4.477 10-10s-4.477-10-10-10z"/><path d="m286 231h-10c-5.523 0-10 4.477-10 10s4.477 10 10 10h10c5.523 0 10-4.477 10-10s-4.477-10-10-10z"/><path d="m236 271h-10c-5.523 0-10 4.478-10 10s4.477 10 10 10h10c5.523 0 10-4.478 10-10s-4.477-10-10-10z"/><path d="m286 271h-10c-5.523 0-10 4.478-10 10s4.477 10 10 10h10c5.523 0 10-4.478 10-10s-4.477-10-10-10z"/><path d="m236 311h-10c-5.523 0-10 4.478-10 10s4.477 10 10 10h10c5.523 0 10-4.478 10-10s-4.477-10-10-10z"/><path d="m286 311h-10c-5.523 0-10 4.478-10 10s4.477 10 10 10h10c5.523 0 10-4.478 10-10s-4.477-10-10-10z"/><path d="m236 351h-10c-5.523 0-10 4.478-10 10s4.477 10 10 10h10c5.523 0 10-4.478 10-10s-4.477-10-10-10z"/><path d="m286 351h-10c-5.523 0-10 4.478-10 10s4.477 10 10 10h10c5.523 0 10-4.478 10-10s-4.477-10-10-10z"/><path d="m361 331h10c5.523 0 10-4.478 10-10s-4.477-10-10-10h-10c-5.523 0-10 4.478-10 10s4.477 10 10 10z"/><path d="m371 351h-10c-5.523 0-10 4.478-10 10s4.477 10 10 10h10c5.523 0 10-4.478 10-10s-4.477-10-10-10z"/><path d="m141 331h10c5.523 0 10-4.478 10-10s-4.477-10-10-10h-10c-5.523 0-10 4.478-10 10s4.477 10 10 10z"/><path d="m151 351h-10c-5.523 0-10 4.478-10 10s4.477 10 10 10h10c5.523 0 10-4.478 10-10s-4.477-10-10-10z"/><circle cx="256" cy="61" r="10"/></g></svg>