<svg id="Capa_1" enable-background="new 0 0 512 512" height="512" viewBox="0 0 512 512" width="512" xmlns="http://www.w3.org/2000/svg"><g><path d="m256.001 478.867c13.27 0 24.066-10.796 24.066-24.066s-10.796-24.067-24.066-24.067c-13.271 0-24.067 10.797-24.067 24.067s10.796 24.066 24.067 24.066zm0-33.133c4.999 0 9.066 4.067 9.066 9.067 0 4.999-4.067 9.066-9.066 9.066-5 0-9.067-4.067-9.067-9.066 0-5 4.067-9.067 9.067-9.067z"/><path d="m496.217 64.699c8.703 0 15.783-7.08 15.783-15.783v-33.132c0-8.703-7.08-15.784-15.783-15.784h-371.816c-4.142 0-7.5 3.357-7.5 7.5s3.358 7.5 7.5 7.5h322.9v34.699h-28.971c-15.653-10.459-34.449-16.566-54.646-16.566s-38.993 6.107-54.645 16.566h-244.339v-34.699h24.701c4.142 0 7.5-3.357 7.5-7.5s-3.358-7.5-7.5-7.5h-73.617c-8.703 0-15.784 7.081-15.784 15.784v33.132c0 8.703 7.081 15.783 15.784 15.783h.784v323.834c0 13.271 10.796 24.067 24.067 24.067h48.767c4.142 0 7.5-3.357 7.5-7.5s-3.358-7.5-7.5-7.5h-48.768c-5 0-9.067-4.067-9.067-9.067v-323.834h259.873c-16.354 17.609-26.373 41.18-26.373 67.051 0 54.378 44.239 98.617 98.616 98.617 18.481 0 35.788-5.114 50.588-13.995l13.773 13.774-.553.553c-2.981 2.98-4.624 6.944-4.624 11.16 0 4.217 1.643 8.181 4.623 11.16l19.997 19.999c4.546 4.545 10.59 7.049 17.019 7.049 5.929-.001 11.527-2.134 15.928-6.031v114.497c0 5-4.067 9.067-9.066 9.067h-346.967c-4.142 0-7.5 3.357-7.5 7.5s3.358 7.5 7.5 7.5h93.031c-11.442 10.466-18.632 25.508-18.632 42.2 0 31.54 25.66 57.199 57.2 57.199s57.2-25.659 57.2-57.199c0-16.692-7.19-31.734-18.632-42.2h176.799c13.271 0 24.066-10.797 24.066-24.067v-129.425l9.518-9.519c9.383-9.383 9.383-24.651-.001-34.036l-9.518-9.518v-141.336zm-198.016 390.102c0 23.268-18.931 42.199-42.2 42.199s-42.2-18.931-42.2-42.199c0-23.27 18.931-42.2 42.2-42.2s42.2 18.931 42.2 42.2zm164.1-439.801h33.916c.432 0 .783.352.783.784v33.132c0 .432-.352.783-.783.783h-33.916zm-447.301 33.916v-33.132c0-.432.352-.784.784-.784h33.916v34.699h-33.916c-.432 0-.784-.351-.784-.783zm265.068 82.834c0-46.106 37.51-83.617 83.616-83.617s83.617 37.511 83.617 83.617-37.511 83.617-83.617 83.617-83.616-37.51-83.616-83.617zm146.61 75.816c4.654-3.874 8.948-8.167 12.821-12.822l11.973 11.973-12.821 12.822zm67.667 31.416-23.429 23.429v.001c-1.713 1.713-3.989 2.656-6.411 2.656-2.421 0-4.698-.943-6.41-2.655l-19.998-19.999c-.152-.152-.23-.338-.23-.554 0-.215.077-.4.23-.554l29.277-29.278c.003-.003.006-.005.008-.008.003-.003.005-.006.008-.008l5.849-5.849c.152-.153.353-.23.554-.23.2 0 .401.076.555.23l19.997 19.996c3.535 3.537 3.535 9.289 0 12.823zm-13.911-46.573c-2.056-.956-4.306-1.477-6.641-1.477-4.216 0-8.18 1.643-11.161 4.624l-.553.553-13.773-13.773c8.881-14.8 13.995-32.106 13.995-50.586 0-25.871-10.019-49.442-26.373-67.051h18.854c.007 0 .013.001.019.001.007 0 .013-.001.019-.001h25.613v127.71z"/><path d="m363.684 66.267c-36.107 0-65.483 29.376-65.483 65.483s29.376 65.483 65.483 65.483 65.483-29.376 65.483-65.483-29.375-65.483-65.483-65.483zm0 115.967c-27.837 0-50.483-22.646-50.483-50.483s22.647-50.483 50.483-50.483c27.837 0 50.483 22.646 50.483 50.483s-22.646 50.483-50.483 50.483z"/><path d="m49.7 363.967c0 8.547 6.953 15.5 15.5 15.5h50.267c8.547 0 15.5-6.953 15.5-15.5v-33.7c0-8.547-6.953-15.5-15.5-15.5h-50.267c-8.547 0-15.5 6.953-15.5 15.5zm15-33.7c0-.275.224-.5.5-.5h50.267c.276 0 .5.225.5.5v33.7c0 .275-.224.5-.5.5h-50.267c-.276 0-.5-.225-.5-.5z"/><path d="m164.6 248.5c-8.547 0-15.5 6.953-15.5 15.5v99.967c0 8.547 6.953 15.5 15.5 15.5h50.267c8.547 0 15.5-6.953 15.5-15.5v-99.967c0-8.547-6.953-15.5-15.5-15.5zm50.767 15.5v99.967c0 .275-.224.5-.5.5h-50.267c-.276 0-.5-.225-.5-.5v-99.967c0-.275.224-.5.5-.5h50.267c.276 0 .5.225.5.5z"/><path d="m264.001 314.767c-8.547 0-15.5 6.953-15.5 15.5v33.7c0 8.547 6.953 15.5 15.5 15.5h50.267c8.547 0 15.5-6.953 15.5-15.5v-33.7c0-8.547-6.953-15.5-15.5-15.5zm50.766 15.5v33.7c0 .275-.225.5-.5.5h-50.267c-.275 0-.5-.225-.5-.5v-33.7c0-.275.225-.5.5-.5h50.267c.276 0 .5.224.5.5z"/><path d="m289.134 215.366c-4.878 0-9.556.865-13.893 2.448l-44.922-29.948c-.979-21.542-18.807-38.767-40.586-38.767-21.78 0-39.607 17.225-40.586 38.767l-44.922 29.948c-4.336-1.583-9.015-2.448-13.892-2.448-22.405 0-40.633 18.229-40.633 40.634s18.228 40.634 40.633 40.634c21.779 0 39.606-17.225 40.586-38.767l44.922-29.949c4.336 1.582 9.015 2.447 13.892 2.447s9.555-.865 13.892-2.447l44.922 29.949c.98 21.542 18.807 38.767 40.586 38.767 22.405 0 40.633-18.229 40.633-40.634s-18.226-40.634-40.632-40.634zm-198.8 66.268c-14.135 0-25.634-11.499-25.634-25.634s11.499-25.634 25.633-25.634c13.627 0 24.8 10.689 25.585 24.123.003.034.005.068.008.102.025.467.04.936.04 1.409.001 14.135-11.498 25.634-25.632 25.634zm37.979-40.056c-2.198-5.768-5.673-10.906-10.078-15.075l33.519-22.346c2.198 5.768 5.673 10.906 10.078 15.075zm35.836-50.319c-.003-.041-.005-.083-.009-.124-.025-.464-.04-.931-.04-1.401 0-14.135 11.499-25.634 25.634-25.634 14.134 0 25.633 11.499 25.633 25.634 0 .47-.015.937-.04 1.401-.004.041-.006.082-.009.124-.792 13.426-11.962 24.108-25.584 24.108-13.622-.001-24.792-10.682-25.585-24.108zm63.564 12.898 33.519 22.346c-4.405 4.169-7.88 9.308-10.078 15.075l-33.519-22.346c4.406-4.17 7.881-9.308 10.078-15.075zm61.421 77.477c-14.135 0-25.634-11.499-25.634-25.634 0-.473.015-.943.04-1.41.003-.033.005-.066.008-.099.784-13.435 11.958-24.125 25.586-24.125 14.134 0 25.633 11.499 25.633 25.634s-11.499 25.634-25.633 25.634z"/></g></svg>