<svg id="Capa_1" enable-background="new 0 0 512 512" height="512" viewBox="0 0 512 512" width="512" xmlns="http://www.w3.org/2000/svg"><g><path d="m298.663 5.756c-5.326-1.473-10.83 1.654-12.301 6.978-1.47 5.323 1.654 10.831 6.978 12.301 60.439 16.686 102.65 72.186 102.65 134.965 0 35.894-13.568 70.025-38.204 96.108-14.056 14.88-21.796 34.117-21.796 54.168v11.724c0 5.514-4.486 10-10 10h-40v-50c0-13.036-8.361-24.152-20-28.28v-49.031c12.767-.999 34.422-5.017 49.548-20.142 22.205-22.209 20.475-58.519 20.39-60.053-.28-5.09-4.345-9.153-9.434-9.434-1.536-.093-37.844-1.818-60.052 20.391-4.337 4.337-7.751 9.214-10.452 14.262-2.701-5.048-6.115-9.925-10.452-14.262-22.209-22.209-58.518-20.482-60.053-20.391-5.089.28-9.153 4.344-9.434 9.434-.084 1.535-1.818 37.845 20.391 60.053 15.125 15.123 36.782 19.142 49.548 20.141v49.031c-11.639 4.128-20 15.243-20 28.28v50h-40c-5.514 0-10-4.486-10-10v-11.209c0-20.297-7.837-39.82-22.068-54.972-24.48-26.063-37.951-60.119-37.932-95.895.032-62.811 42.248-118.288 102.66-134.91 5.325-1.465 8.454-6.97 6.989-12.295-1.464-5.323-6.967-8.453-12.294-6.988-33.11 9.11-62.959 29.157-84.047 56.449-21.771 28.177-33.289 61.973-33.308 97.734-.021 40.886 15.375 79.808 43.354 109.596 10.735 11.43 16.646 26.09 16.646 41.28v11.211c0 7.678 2.912 14.678 7.674 19.988-4.768 5.314-7.674 12.329-7.674 20.012 0 7.678 2.902 14.689 7.663 20-4.761 5.311-7.663 12.322-7.663 20 0 13.036 8.361 24.152 20 28.28v21.72c0 11.028 8.972 20 20 20h2.57c8.798 23.591 31.781 40 57.43 40s48.631-16.409 57.429-40h2.571c11.028 0 20-8.972 20-20v-21.72c11.639-4.128 20-15.244 20-28.28 0-7.678-2.902-14.689-7.663-20 4.761-5.311 7.663-12.322 7.663-20 0-7.684-2.907-14.699-7.674-20.013 4.763-5.31 7.674-12.31 7.674-19.987v-11.724c0-14.923 5.801-29.283 16.335-40.435 28.158-29.81 43.665-68.818 43.665-109.841 0-71.744-48.247-135.172-117.327-154.244zm-18.078 143.839c9.986-9.987 25.108-13.175 34.973-14.164-.988 9.871-4.176 24.989-14.162 34.975-9.979 9.979-25.083 13.17-34.948 14.161 1.009-9.888 4.212-25.048 14.137-34.972zm-104.595 212.405c0-5.514 4.486-10 10-10h140c5.514 0 10 4.486 10 10s-4.486 10-10 10h-140c-5.514 0-10-4.486-10-10zm34.595-191.595c-9.987-9.986-13.174-25.108-14.164-34.974 9.871.989 24.99 4.178 34.975 14.163 9.987 9.986 13.174 25.108 14.163 34.974-9.871-.989-24.99-4.177-34.974-14.163zm35.405 111.595c0-5.514 4.486-10 10-10s10 4.486 10 10v50h-20zm10 210c-14.626 0-27.959-7.927-35.302-20h70.604c-7.343 12.073-20.676 20-35.302 20zm-60-40v-20h120v20zm130-40h-140c-5.514 0-10-4.486-10-10s4.486-10 10-10h140c5.514 0 10 4.486 10 10s-4.486 10-10 10z"/><path d="m114.569 32.722c1.953 1.952 4.512 2.929 7.071 2.929s5.119-.977 7.071-2.929c3.905-3.905 3.906-10.237.001-14.143l-15.65-15.65c-3.905-3.903-10.237-3.904-14.142 0-3.905 3.905-3.906 10.237 0 14.143z"/><path d="m75.048 101.161-21.42-5.74c-5.333-1.431-10.818 1.736-12.248 7.07-1.43 5.335 1.736 10.818 7.071 12.248l21.42 5.74c.867.232 1.738.344 2.595.344 4.415 0 8.456-2.947 9.653-7.414 1.43-5.335-1.736-10.818-7.071-12.248z"/><path d="m69.872 199.52-21.42 5.74c-5.335 1.43-8.5 6.913-7.071 12.248 1.197 4.468 5.237 7.414 9.653 7.414.856 0 1.728-.111 2.595-.344l21.42-5.74c5.335-1.43 8.501-6.913 7.071-12.248-1.43-5.333-6.913-8.5-12.248-7.07z"/><path d="m114.569 287.278-15.65 15.65c-3.905 3.905-3.905 10.237 0 14.143 1.953 1.952 4.512 2.929 7.071 2.929s5.119-.977 7.071-2.929l15.65-15.65c3.905-3.905 3.905-10.237-.001-14.143-3.904-3.904-10.236-3.904-14.141 0z"/><path d="m399.068 3.089-15.489 15.49c-3.905 3.906-3.905 10.237 0 14.143 1.953 1.952 4.512 2.929 7.071 2.929s5.119-.977 7.071-2.929l15.489-15.49c3.905-3.906 3.905-10.237 0-14.142s-10.237-3.905-14.142-.001z"/><path d="m439.824 120.823c.855 0 1.727-.111 2.594-.344l21.13-5.66c5.334-1.429 8.501-6.912 7.071-12.247-1.428-5.333-6.902-8.503-12.247-7.071l-21.13 5.66c-5.334 1.429-8.501 6.912-7.071 12.247 1.196 4.468 5.237 7.415 9.653 7.415z"/><path d="m463.548 205.181-21.13-5.66c-5.339-1.429-10.818 1.737-12.247 7.071-1.43 5.335 1.737 10.818 7.071 12.247l21.13 5.66c.867.232 1.737.344 2.594.344 4.416 0 8.457-2.947 9.653-7.415 1.43-5.335-1.737-10.819-7.071-12.247z"/><path d="m397.722 287.278c-3.905-3.903-10.235-3.905-14.143 0-3.905 3.905-3.905 10.236 0 14.143l15.489 15.49c1.953 1.952 4.512 2.929 7.071 2.929s5.118-.977 7.071-2.929c3.905-3.905 3.905-10.236 0-14.143z"/><circle cx="255.992" cy="10" r="10"/></g></svg>