<svg id="Capa_1" enable-background="new 0 0 512.001 512.001" height="512" viewBox="0 0 512.001 512.001" width="512" xmlns="http://www.w3.org/2000/svg"><g><path d="m392.675 215.367h-121.234c1.116-1.149 2.074-2.475 2.818-3.964l15.151-30.302c.134-.268.402-.434.701-.434h52.863c13.27 0 24.067-10.797 24.067-24.067v-132.532c0-13.271-10.797-24.066-24.067-24.066h-165.666c-13.271 0-24.066 10.796-24.066 24.066v8.365c0 4.143 3.357 7.5 7.5 7.5s7.5-3.357 7.5-7.5v-8.365c0-4.999 4.067-9.066 9.066-9.066h165.667c5 0 9.067 4.067 9.067 9.066v132.533c0 5-4.067 9.067-9.067 9.067h-52.863c-6.017 0-11.426 3.343-14.117 8.724l-15.151 30.304c-.07.141-.217.434-.701.434s-.631-.293-.701-.433l-15.151-30.306c-2.691-5.38-8.101-8.723-14.117-8.723h-52.864c-4.999 0-9.066-4.067-9.066-9.067v-89.398c0-4.143-3.357-7.5-7.5-7.5s-7.5 3.357-7.5 7.5v89.397c0 13.271 10.796 24.067 24.066 24.067h52.864c.299 0 .567.166.701.433l15.151 30.304c.744 1.488 1.702 2.814 2.818 3.963h-121.232c-13.271 0-24.067 10.796-24.067 24.065l-.002 20.691c0 1.489-.372 2.971-1.076 4.283l-43.8 81.668c-3.156 5.885-4.824 12.526-4.824 19.204v6.689c0 13.271 10.796 24.067 24.066 24.067h25.636l.001 42.198c0 22.405 18.228 40.633 40.633 40.633l25.63-.001v17.353c0 8.703 7.081 15.783 15.784 15.783h66.864c4.143 0 7.5-3.357 7.5-7.5s-3.357-7.5-7.5-7.5h-66.864c-.433 0-.784-.352-.784-.783v-17.816c24.586-3.041 45.102-20.853 51.239-45.396l6.521-26.086c1.004-4.018-1.438-8.091-5.457-9.096-4.018-1.003-8.09 1.44-9.096 5.457l-6.521 26.086c-5.076 20.305-23.233 34.487-44.159 34.5-.009 0-.018-.001-.028-.001l-33.13.001c-14.134 0-25.633-11.499-25.633-25.633l-.001-42.198h9.066c13.27 0 24.067-10.797 24.067-24.067v-8.284c0-8.703-7.08-15.783-15.783-15.783h-18.637c-4.143 0-7.5 3.357-7.5 7.5s3.357 7.5 7.5 7.5h18.637c.432 0 .783.352.783.783v8.284c0 5-4.067 9.067-9.067 9.067h-16.566-4.139-28.996c-4.999 0-9.066-4.067-9.066-9.067v-6.689c0-4.213 1.053-8.403 3.043-12.115l43.8-81.667c1.869-3.485 2.857-7.418 2.857-11.372l.002-20.691c0-4.999 4.067-9.066 9.067-9.066h265.064c4.999 0 9.066 4.067 9.066 9.066v107.685c0 36.977-20.258 70.823-52.869 88.33-13.375 7.181-21.683 20.953-21.682 35.94l.001 24.829c0 .432-.352.783-.783.783h-38.952c-4.143 0-7.5 3.357-7.5 7.5s3.357 7.5 7.5 7.5h38.952c8.703 0 15.783-7.08 15.783-15.783l-.001-24.83c-.001-9.453 5.278-18.16 13.777-22.723 37.486-20.125 60.773-59.036 60.773-101.547v-107.684c.001-13.271-10.795-24.067-24.066-24.067z"/><path d="m251.86 396.034h16.565c31.54 0 57.199-25.659 57.199-57.199v-49.701c0-22.405-18.228-40.634-40.634-40.634h-33.13c-4.143 0-7.5 3.357-7.5 7.5s3.357 7.5 7.5 7.5h33.131c14.135 0 25.634 11.499 25.634 25.634v49.701c0 23.269-18.931 42.199-42.199 42.199h-16.566c-4.143 0-7.5 3.357-7.5 7.5s3.357 7.5 7.5 7.5z"/><path d="m268.425 347.901h-16.566c-4.143 0-7.5 3.357-7.5 7.5s3.357 7.5 7.5 7.5h16.566c13.271 0 24.066-10.796 24.066-24.066v-33.135c0-13.271-10.796-24.066-24.066-24.066h-16.565c-4.143 0-7.5 3.357-7.5 7.5s3.357 7.5 7.5 7.5h16.565c4.999 0 9.066 4.067 9.066 9.066v33.134c.001 4.999-4.067 9.067-9.066 9.067z"/><path d="m260.142 147.527c4.427-.001 8.853-1.686 12.224-5.055l37.669-37.669c7.896-7.896 12.414-18.897 12.396-30.182-.019-11.198-4.316-21.625-12.101-29.359-13.452-13.368-33.881-15.987-50.189-6.604-16.306-9.381-36.734-6.764-50.189 6.604-7.784 7.733-12.082 18.16-12.101 29.357-.018 11.285 4.5 22.286 12.396 30.184l37.669 37.669c3.373 3.37 7.799 5.055 12.226 5.055zm-47.289-72.883c.012-7.182 2.736-13.837 7.673-18.741 5.181-5.147 11.973-7.808 18.835-7.808 4.872 0 9.779 1.341 14.17 4.085 4.078 2.551 9.146 2.55 13.222.001 10.577-6.611 24.148-5.079 33.006 3.722 4.936 4.904 7.661 11.56 7.673 18.742.012 7.327-2.905 14.453-8.004 19.551l-37.669 37.669c-.892.893-2.344.892-3.233 0l-37.668-37.669c-5.1-5.098-8.017-12.225-8.005-19.552z"/><path d="m433.403 166.673-28.694-16.567c-3.587-2.071-8.175-.843-10.245 2.745-2.071 3.587-.842 8.174 2.745 10.245l28.694 16.567c1.181.682 2.471 1.006 3.743 1.006 2.592 0 5.113-1.345 6.502-3.751 2.071-3.587.842-8.174-2.745-10.245z"/><path d="m450.659 82.834h-33.133c-4.143 0-7.5 3.357-7.5 7.5s3.357 7.5 7.5 7.5h33.133c4.143 0 7.5-3.357 7.5-7.5s-3.358-7.5-7.5-7.5z"/><path d="m400.965 31.569c1.273 0 2.562-.324 3.743-1.006l28.694-16.566c3.587-2.071 4.817-6.658 2.745-10.245-2.07-3.588-6.66-4.814-10.245-2.745l-28.694 16.566c-3.587 2.071-4.816 6.658-2.745 10.245 1.389 2.406 3.911 3.751 6.502 3.751z"/><path d="m86.882 13.996 28.694 16.566c1.182.682 2.471 1.006 3.743 1.006 2.592 0 5.113-1.345 6.502-3.751 2.071-3.587.842-8.174-2.745-10.245l-28.694-16.566c-3.59-2.07-8.176-.844-10.245 2.745-2.072 3.587-.842 8.174 2.745 10.245z"/><path d="m69.626 97.834h33.133c4.143 0 7.5-3.357 7.5-7.5s-3.357-7.5-7.5-7.5h-33.133c-4.143 0-7.5 3.357-7.5 7.5s3.357 7.5 7.5 7.5z"/><path d="m115.576 150.106-28.694 16.567c-3.587 2.071-4.816 6.658-2.745 10.245 1.39 2.406 3.91 3.751 6.502 3.751 1.272 0 2.562-.324 3.743-1.006l28.694-16.567c3.587-2.071 4.816-6.658 2.745-10.245-2.071-3.588-6.66-4.816-10.245-2.745z"/></g></svg>