<svg id="Capa_1" enable-background="new 0 0 512.005 512.005" height="512" viewBox="0 0 512.005 512.005" width="512" xmlns="http://www.w3.org/2000/svg"><g><path d="m222.87 215.367c-4.143 0-7.5 3.357-7.5 7.5v8.283c0 4.143 3.357 7.5 7.5 7.5s7.5-3.357 7.5-7.5v-8.283c0-4.143-3.358-7.5-7.5-7.5z"/><path d="m289.136 238.65c4.143 0 7.5-3.357 7.5-7.5v-8.283c0-4.143-3.357-7.5-7.5-7.5s-7.5 3.357-7.5 7.5v8.283c0 4.142 3.358 7.5 7.5 7.5z"/><path d="m276.835 268.046c2.077-3.583.855-8.172-2.728-10.249-3.584-2.079-8.172-.857-10.25 2.728-1.624 2.803-4.634 4.544-7.854 4.544s-6.229-1.741-7.853-4.544c-2.078-3.584-6.667-4.806-10.25-2.728-3.584 2.077-4.806 6.666-2.729 10.249 4.299 7.416 12.281 12.022 20.832 12.022 8.551.001 16.534-4.606 20.832-12.022z"/><path d="m511.116 93.459c-2.119-6.523-7.652-11.188-14.44-12.175l-20.554-2.987-9.19-18.624c-1.144-2.317-2.73-4.303-4.629-5.879v-29.725c0-13.27-10.796-24.066-24.066-24.066h-364.468c-13.271 0-24.066 10.796-24.066 24.066v29.726c-1.899 1.576-3.485 3.562-4.629 5.879l-9.19 18.624-20.555 2.987c-6.787.986-12.32 5.651-14.439 12.175-2.12 6.523-.385 13.55 4.526 18.337l14.873 14.496-3.511 20.469c-1.16 6.761 1.566 13.465 7.115 17.497 3.136 2.277 6.804 3.436 10.498 3.436 2.843 0 5.7-.687 8.341-2.074l6.971-3.665v43.414c0 4.143 3.357 7.5 7.5 7.5s7.5-3.357 7.5-7.5v-47.528l14.795 7.779c1.081.569 2.201 1.014 3.339 1.348v296.117c0 8.703 7.08 15.784 15.783 15.784h28.988c4.143 0 7.5-3.357 7.5-7.5s-3.357-7.5-7.5-7.5h-28.988c-.432 0-.783-.352-.783-.784v-8.247c0-.013.002-.025.002-.038 0-32.402 26.36-58.763 58.763-58.763h9.381c2.338 28.303 17.78 52.944 40.229 67.832h-43.815c-4.143 0-7.5 3.357-7.5 7.5s3.357 7.5 7.5 7.5h250.988c8.703 0 15.784-7.081 15.784-15.784v-296.12c1.138-.334 2.257-.778 3.338-1.346l14.795-7.779v330.095c0 4.999-4.067 9.066-9.066 9.066h-364.467c-4.999 0-9.066-4.067-9.066-9.066v-247.567c0-4.143-3.357-7.5-7.5-7.5s-7.5 3.357-7.5 7.5v247.567c0 13.271 10.796 24.066 24.066 24.066h364.467c13.27 0 24.066-10.796 24.066-24.066v-325.982l6.971 3.665c6.071 3.193 13.291 2.669 18.839-1.361 5.549-4.032 8.275-10.736 7.115-17.496l-3.511-20.47 14.872-14.496c4.912-4.787 6.648-11.813 4.528-18.337zm-437.347-78.457h364.467c4.999 0 9.066 4.067 9.066 9.066v25.995c-5.363 1.081-9.959 4.556-12.453 9.609l-9.19 18.624-20.554 2.987c-6.787.986-12.32 5.651-14.439 12.175-.637 1.96-.92 3.966-.879 5.943h-54.133c-7.715-6.286-16.722-11.033-26.553-13.801-8.641-21.638-29.47-35.901-53.098-35.901-23.627 0-44.456 14.263-53.098 35.901-9.831 2.768-18.839 7.515-26.554 13.801h-54.132c.041-1.977-.242-3.983-.879-5.943-2.119-6.523-7.652-11.188-14.44-12.175l-20.553-2.987-9.191-18.624c-2.494-5.053-7.09-8.528-12.453-9.609v-25.994c0-4.999 4.067-9.067 9.066-9.067zm339.899 149.256c.164.119.335.222.501.334v245.691c-13.483-17.754-34.806-29.246-58.769-29.246l-14.789.001-27.41-13.705v-21.378c37.167-3.77 66.268-35.244 66.268-73.388 0-1.989-.79-3.897-2.197-5.304l-8.105-8.105c6.222-4.355 10.303-11.57 10.303-19.724v-33.134c0-10.652-6.959-19.704-16.567-22.864v-26.836c0-15.685-4.936-30.23-13.314-42.197h48.278l12.199 11.89-3.511 20.469c-1.162 6.76 1.565 13.464 7.113 17.496zm-190.799-66.425h66.267c32.404 0 58.767 26.362 58.767 58.767v25.634h-9.065-.001-16.566c-13.811 0-25.1-10.981-25.609-24.67 1.784-5.528 2.759-11.416 2.759-17.53 0-4.143-3.357-7.5-7.5-7.5s-7.5 3.357-7.5 7.5c0 23.27-18.931 42.2-42.2 42.2h-69.049-.001-9.066v-25.634c-.003-32.404 26.359-58.767 58.764-58.767zm-1.593-14.959c7.719-11.2 20.537-18.173 34.726-18.173 14.19 0 27.007 6.973 34.726 18.173-.532-.011-1.059-.04-1.593-.04h-66.267c-.533-.001-1.061.028-1.592.04zm-40.606 173.129v-58.77h61.548c17.896 0 33.892-8.267 44.389-21.176 6.906 12.607 20.301 21.176 35.662 21.176h9.067l-.001 58.767v.003c0 41.538-33.794 75.332-75.332 75.332-41.539 0-75.333-33.794-75.333-75.332zm132.532 69.863c18.399-15.091 30.75-37.292 32.82-62.366h6.274l12.097 12.096c-1.455 28.491-23.3 51.674-51.19 55.245v-4.975zm51.267-86.432c0 4.999-4.067 9.066-9.067 9.066h-9.066l.001-51.267h9.065c5 0 9.067 4.067 9.067 9.066zm-207.866-42.2h9.067v51.266h-9.067c-4.999 0-9.066-4.067-9.066-9.066v-33.134c0-4.999 4.067-9.066 9.066-9.066zm3.106 66.266h6.275c2.07 25.072 14.42 47.272 32.817 62.363v4.977c-27.89-3.571-49.734-26.754-51.188-55.245zm54.092 75.354c0-.007.001-.013.001-.019s-.001-.013-.001-.019v-2.965c12.604 6.689 26.967 10.485 42.202 10.485 15.234 0 29.595-3.796 42.198-10.483v36.117c0 23.27-18.931 42.2-42.2 42.2-23.27 0-42.2-18.931-42.2-42.2zm-146.779-196.74c-3.699-1.945-8.117-1.945-11.814 0l-1.563.822c-.009.005-.018.009-.027.014l-17.867 9.393c-1.381.727-2.499.176-3.041-.22-.543-.393-1.413-1.285-1.149-2.825l3.716-21.664c.707-4.119-.658-8.32-3.65-11.236l-15.741-15.343c-1.118-1.09-.938-2.322-.731-2.96s.785-1.741 2.331-1.966l21.755-3.161c4.134-.602 7.706-3.196 9.557-6.943l9.728-19.712c.691-1.4 1.919-1.609 2.59-1.609s1.898.209 2.59 1.609l9.729 19.714c1.85 3.745 5.422 6.34 9.558 6.941l21.751 3.161c1.547.225 2.125 1.328 2.332 1.966s.388 1.87-.731 2.96l-15.739 15.343c-2.993 2.916-4.358 7.117-3.651 11.236l3.716 21.665c.264 1.539-.606 2.431-1.149 2.824-.542.396-1.66.946-3.041.22zm30.814 268.168v-245.687c.167-.113.336-.218.5-.337 5.549-4.032 8.275-10.736 7.115-17.496l-3.511-20.47 12.198-11.89h48.278c-8.379 11.967-13.315 26.513-13.315 42.197v26.837c-9.607 3.16-16.565 12.212-16.565 22.863v33.134c0 8.154 4.08 15.369 10.302 19.724l-8.105 8.105c-1.407 1.407-2.197 3.314-2.197 5.304 0 38.144 29.101 69.618 66.266 73.388v21.379l-27.409 13.705-14.791-.001c-23.962.001-45.283 11.491-58.766 29.245zm82.969-17.18 19.169-9.584c5.357 26.023 28.443 45.651 56.028 45.651s50.671-19.629 56.028-45.652l19.169 9.585c-2.369 39.421-35.191 70.768-75.196 70.768-40.007 0-72.829-31.347-75.198-70.768zm232.58 70.768h-107.593c22.449-14.887 37.891-39.528 40.229-67.832h9.379c32.404 0 58.768 26.363 58.768 58.767 0 .007.001.013.001.019v8.261c0 .433-.351.785-.784.785zm82.734-362.816-15.739 15.343c-2.993 2.916-4.358 7.117-3.651 11.236l3.716 21.665c.264 1.539-.606 2.431-1.149 2.824-.542.396-1.659.946-3.041.22l-17.867-9.393c-.008-.004-.017-.008-.025-.013l-1.562-.821c-3.697-1.944-8.115-1.947-11.816-.001l-19.456 10.229c-1.381.727-2.499.176-3.041-.22-.543-.393-1.413-1.285-1.149-2.825l3.716-21.664c.707-4.119-.658-8.32-3.65-11.236l-15.74-15.342c-1.118-1.091-.938-2.323-.73-2.961s.785-1.741 2.332-1.966l21.753-3.161c4.134-.602 7.706-3.196 9.557-6.943l9.728-19.712c.691-1.4 1.919-1.609 2.59-1.609s1.898.209 2.59 1.609l9.729 19.714c1.85 3.745 5.422 6.34 9.558 6.941l21.752 3.161c1.547.225 2.125 1.328 2.332 1.966.201.637.382 1.869-.737 2.959z"/></g></svg>