<svg id="Capa_1" enable-background="new 0 0 512 512" height="512" viewBox="0 0 512 512" width="512" xmlns="http://www.w3.org/2000/svg"><g><path d="m492 140h-116v-111.349c0-15.798-12.852-28.651-28.65-28.651h-162.699c-15.798 0-28.651 12.853-28.651 28.651v91.36c0 5.523 4.477 10 10 10s10-4.477 10-10v-91.36c0-4.77 3.881-8.65 8.65-8.65h162.7c4.77 0 8.65 3.881 8.65 8.65v111.349h-20v-20c0-11.028-8.972-20-20-20h-100c-11.028 0-20 8.972-20 20v130c0 11.028 8.972 20 20 20h100c11.028 0 20-8.972 20-20v-20h20v70h-180v-100.011c0-5.523-4.477-10-10-10s-10 4.477-10 10v283.36c0 15.798 12.852 28.65 28.65 28.65h162.7c15.798 0 28.65-12.852 28.65-28.65v-253.349h116c11.028 0 20-8.972 20-20v-50c0-11.028-8.971-20-20-20zm-144.65 352h-162.699c-4.77 0-8.65-3.881-8.65-8.65v-163.35h180v163.35c-.001 4.769-3.882 8.65-8.651 8.65zm-31.35-242h-100v-130h100v20h-35c-24.814 0-45 20.186-45 45s20.186 45 45 45h35zm176-40h-211c-13.785 0-25-11.215-25-25s11.215-25 25-25l210.999-.013s.001.004.001.013z"/><path d="m266 346c-22.056 0-40 17.944-40 40 0 9.773 3.598 19.181 10 26.449v23.551c0 16.542 13.458 30 30 30s30-13.458 30-30v-23.551c6.402-7.268 10-16.676 10-26.449 0-22.056-17.944-40-40-40zm13.329 54.905c-2.118 1.897-3.329 4.606-3.329 7.45v27.645c0 5.514-4.486 10-10 10s-10-4.486-10-10v-27.645c0-2.844-1.211-5.553-3.329-7.45-4.239-3.795-6.671-9.228-6.671-14.905 0-11.028 8.972-20 20-20s20 8.972 20 20c0 5.677-2.431 11.11-6.671 14.905z"/><path d="m66.571 40c-13.363 0-25.92 5.204-35.356 14.653-3.902 3.908-3.898 10.239.01 14.143 3.908 3.902 10.24 3.896 14.143-.01 5.657-5.666 13.187-8.786 21.203-8.786s15.545 3.12 21.203 8.786c1.953 1.956 4.515 2.934 7.076 2.934 2.557 0 5.114-.975 7.066-2.924 3.908-3.903 3.912-10.234.01-14.143-9.436-9.449-21.993-14.653-35.355-14.653z"/><path d="m66.571 0c-24.041 0-46.643 9.361-63.642 26.359-3.905 3.905-3.905 10.236 0 14.143 3.906 3.904 10.236 3.906 14.143 0 13.22-13.222 30.799-20.502 49.499-20.502s36.278 7.28 49.498 20.501c1.953 1.952 4.512 2.929 7.071 2.929 2.56 0 5.118-.977 7.071-2.929 3.905-3.905 3.905-10.237 0-14.143-16.998-16.997-39.598-26.358-63.64-26.358z"/><circle cx="66.569" cy="89.997" r="10"/><circle cx="166" cy="159.999" r="10"/><circle cx="226" cy="60" r="10"/><circle cx="266" cy="60" r="10"/><circle cx="306" cy="60" r="10"/></g></svg>