<svg id="Capa_1" enable-background="new 0 0 512 512" height="512" viewBox="0 0 512 512" width="512" xmlns="http://www.w3.org/2000/svg"><g><path d="m492 382.851h-70v-147.069c8.576 3.285 18.599.307 23.852-7.669l10.998-16.703c2.938-4.462 3.964-9.801 2.886-15.033-1.077-5.232-4.128-9.732-8.589-12.67l-39.147-25.778v-78.777c0-11.028-8.972-20-20-20h-40c-11.028 0-20 8.972-20 20v26.098l-65.002-42.802c-6.68-4.398-15.314-4.399-21.998.001l-184.146 121.257c-4.461 2.938-7.512 7.438-8.589 12.67-1.078 5.232-.053 10.571 2.886 15.033l10.998 16.703c3.839 5.83 10.227 8.994 16.734 8.994 2.397 0 4.809-.433 7.117-1.317v147.061h-70c-11.028 0-20 8.972-20 20v30c0 11.028 8.972 20 20 20h196c5.523 0 10-4.478 10-10s-4.477-10-10-10h-196v-30h472v30h-196c-5.522 0-10 4.478-10 10s4.478 10 10 10h196c11.028 0 20-8.972 20-20v-30c0-11.028-8.972-19.999-20-19.999zm-140-303.699h40v65.607l-40-26.339zm-269.141 137.971s-.003-.003-.008-.011l-10.998-16.703 184.147-121.257 184.147 121.257-10.999 16.704-167.649-110.391c-3.336-2.199-7.662-2.199-10.998 0l-83.825 55.195zm27.141 6.06 146-96.136 146 96.136v159.667h-136v-46.65c14.938-.353 42.171-3.707 60.352-21.886 18.078-18.079 21.46-45.227 21.867-59.8.152-5.454-1.978-10.799-5.842-14.663-3.866-3.864-9.25-5.969-14.661-5.84-14.573.406-41.721 3.787-59.8 21.867-5.027 5.027-8.916 10.748-11.926 16.708-3.245-6.418-7.233-12.035-11.906-16.708-18.08-18.077-45.228-21.461-59.798-21.867-5.428-.128-10.797 1.976-14.663 5.84-3.864 3.864-5.994 9.209-5.842 14.663.407 14.573 3.789 41.721 21.867 59.799 18.182 18.181 45.415 21.535 60.352 21.888v46.65h-136zm156.083 92.993c.375-11.936 2.997-33.178 15.976-46.155 13.183-13.184 34.613-15.694 46.168-16.065-.324 11.602-2.836 33.034-16.018 46.216-13.075 13.07-34.218 15.661-46.126 16.004zm-20.135.001c-11.911-.34-33.074-2.924-46.157-16.007-13.182-13.181-15.693-34.613-16.064-46.167 11.601.323 33.031 2.834 46.214 16.018 13.087 13.086 15.668 34.248 16.007 46.156z"/><circle cx="256" cy="442.85" r="10"/></g></svg>