<svg id="Capa_1" enable-background="new 0 0 512 512" height="512" viewBox="0 0 512 512" width="512" xmlns="http://www.w3.org/2000/svg"><g><path d="m512 106.9c0-40.676-33.092-73.768-73.767-73.768-16.939 0-32.551 5.754-45.018 15.39-38.808-31.329-87.279-48.522-137.215-48.522s-98.407 17.193-137.215 48.523c-12.466-9.636-28.079-15.39-45.018-15.39-10.609 0-20.853 2.207-30.445 6.559-3.772 1.711-5.443 6.156-3.731 9.929 1.711 3.774 6.157 5.445 9.929 3.732 7.633-3.463 15.791-5.219 24.248-5.219 32.404 0 58.767 26.363 58.767 58.768 0 13.502-4.589 25.946-12.273 35.88-3.779-10.417-11.707-18.856-21.774-23.328 4.756-5.633 7.63-12.903 7.63-20.835 0-17.838-14.512-32.351-32.35-32.351s-32.35 14.513-32.35 32.351c0 7.932 2.875 15.202 7.63 20.835-10.067 4.472-17.994 12.91-21.774 23.328-7.685-9.936-12.274-22.379-12.274-35.882 0-12.123 3.659-23.759 10.581-33.65 2.374-3.394 1.549-8.069-1.845-10.444s-8.07-1.55-10.445 1.845c-8.695 12.424-13.291 27.035-13.291 42.249 0 29.303 17.177 54.666 41.988 66.56-3.128 14.818-4.713 30.014-4.713 45.264 0 47.331 14.935 92.409 43.19 130.36 25.922 34.818 62.29 61.596 102.969 75.978-.774 4.277-1.201 8.674-1.201 13.17 0 40.676 33.092 73.768 73.767 73.768s73.767-33.092 73.767-73.767c0-4.497-.427-8.893-1.201-13.17 40.679-14.383 77.048-41.161 102.969-75.978 28.255-37.951 43.19-83.029 43.19-130.36 0-15.25-1.585-30.446-4.713-45.264 24.811-11.895 41.988-37.258 41.988-66.561zm-15 0c0 13.502-4.589 25.946-12.273 35.88-3.779-10.417-11.707-18.856-21.774-23.328 4.756-5.633 7.63-12.903 7.63-20.835 0-17.838-14.512-32.351-32.35-32.351s-32.35 14.513-32.35 32.351c0 7.932 2.875 15.202 7.63 20.835-10.067 4.472-17.994 12.91-21.774 23.328-7.684-9.934-12.273-22.378-12.273-35.88 0-32.404 26.363-58.768 58.767-58.768s58.767 26.364 58.767 58.768zm-58.767 58.767c-12.599 0-24.275-3.999-33.853-10.775.883-13.34 12.01-23.925 25.57-23.925h16.566c13.56 0 24.687 10.585 25.57 23.925-9.578 6.776-21.253 10.775-33.853 10.775zm0-49.7c-9.567 0-17.35-7.783-17.35-17.35s7.783-17.351 17.35-17.351 17.35 7.783 17.35 17.351c0 9.567-7.783 17.35-17.35 17.35zm-55.989-57.014c-3.944 4.599-7.333 9.682-10.061 15.155-32.911-26.489-73.767-40.975-116.183-40.975-42.415 0-83.272 14.487-116.183 40.975-2.728-5.473-6.117-10.556-10.061-15.155 35.882-28.393 80.401-43.953 126.244-43.953s90.362 15.559 126.244 43.953zm-234.711 47.947c0-6.167-.771-12.156-2.204-17.885 30.888-26.395 70.003-40.882 110.671-40.882 40.669 0 79.784 14.487 110.671 40.883-1.432 5.729-2.204 11.718-2.204 17.885 0 35.048 24.578 64.445 57.397 71.913 3.13 13.013 4.728 26.414 4.728 39.911 0 75.671-50.155 142.401-122.462 163.678-12.93-11.163-29.749-17.936-48.13-17.936s-35.2 6.773-48.13 17.935c-72.308-21.276-122.462-88.007-122.462-163.678 0-13.496 1.597-26.897 4.727-39.911 32.82-7.467 57.398-36.864 57.398-71.913zm-73.766-25.633c9.567 0 17.35 7.783 17.35 17.351 0 9.566-7.783 17.35-17.35 17.35s-17.35-7.783-17.35-17.35c0-9.568 7.783-17.351 17.35-17.351zm-8.284 49.7h16.567c13.56 0 24.687 10.585 25.57 23.925-9.578 6.777-21.254 10.775-33.853 10.775s-24.275-3.999-33.853-10.775c.882-13.34 12.01-23.925 25.569-23.925zm-13.208 87.758c0-13.528 1.356-27.003 3.997-40.171 5.612 1.371 11.467 2.114 17.494 2.114.198 0 .392-.013.59-.015-2.61 12.474-3.948 25.234-3.948 38.072 0 79.844 51.325 150.542 126.183 175.846-3.63 4.926-6.654 10.319-8.982 16.068-81.249-28.941-135.334-105.159-135.334-191.914zm169.872 267.5c.883-13.34 12.01-23.925 25.57-23.925h16.566c13.56 0 24.687 10.585 25.57 23.925-9.578 6.776-21.254 10.775-33.853 10.775s-24.275-3.999-33.853-10.775zm33.853-38.925c-9.567 0-17.35-7.783-17.35-17.35s7.783-17.351 17.35-17.351 17.35 7.783 17.35 17.351c0 9.567-7.783 17.35-17.35 17.35zm46.493 26.814c-3.779-10.418-11.707-18.856-21.774-23.328 4.756-5.633 7.63-12.904 7.63-20.836 0-17.838-14.512-32.351-32.35-32.351s-32.35 14.513-32.35 32.351c0 7.932 2.875 15.202 7.63 20.836-10.067 4.472-17.994 12.91-21.774 23.328-7.684-9.934-12.273-22.378-12.273-35.88 0-32.404 26.363-58.767 58.767-58.767s58.767 26.362 58.767 58.767c.001 13.502-4.588 25.946-12.273 35.88zm157.232-255.389c0 86.756-54.086 162.974-135.334 191.914-2.328-5.749-5.352-11.143-8.982-16.068 74.858-25.305 126.183-96.002 126.183-175.846 0-12.838-1.339-25.599-3.948-38.072.197.001.392.015.59.015 6.028 0 11.883-.743 17.495-2.114 2.641 13.168 3.996 26.643 3.996 40.171z"/><path d="m256 329.767c58.945 0 106.9-47.955 106.9-106.899 0-58.945-47.955-106.9-106.9-106.9-15.362 0-30.193 3.191-44.081 9.485-3.773 1.71-5.445 6.154-3.735 9.927 1.709 3.772 6.155 5.445 9.927 3.735 11.93-5.406 24.677-8.148 37.889-8.148 50.674 0 91.9 41.227 91.9 91.9 0 20.497-6.747 39.446-18.133 54.747v-5.048c0-21.729-17.145-39.527-38.617-40.582 8.513-8.806 13.767-20.782 13.767-33.968 0-26.973-21.944-48.917-48.917-48.917s-48.917 21.944-48.917 48.917c0 13.186 5.254 25.162 13.767 33.968-21.472 1.055-38.617 18.853-38.617 40.582v5.048c-11.387-15.302-18.133-34.251-18.133-54.747 0-24.572 9.576-47.668 26.964-65.031 2.931-2.927 2.934-7.675.007-10.606s-7.675-2.936-10.607-.007c-20.226 20.197-31.364 47.061-31.364 75.645 0 58.943 47.955 106.899 106.9 106.899zm0-165.667c18.702 0 33.917 15.215 33.917 33.917s-15.215 33.917-33.917 33.917-33.917-15.215-33.917-33.917c0-18.703 15.215-33.917 33.917-33.917zm-33.133 82.834h66.267c14.134 0 25.633 11.499 25.633 25.633v20.898c-5.534 4.614-11.616 8.588-18.133 11.815v-16.146c0-4.143-3.358-7.5-7.5-7.5s-7.5 3.357-7.5 7.5v21.992c-8.14 2.368-16.74 3.642-25.633 3.642s-17.494-1.274-25.633-3.642v-21.992c0-4.143-3.358-7.5-7.5-7.5s-7.5 3.357-7.5 7.5v16.146c-6.517-3.226-12.6-7.201-18.133-11.815v-20.898c-.002-14.134 11.497-25.633 25.632-25.633z"/></g></svg>