<svg id="Capa_1" enable-background="new 0 0 512 512" height="512" viewBox="0 0 512 512" width="512" xmlns="http://www.w3.org/2000/svg"><g><path d="m156.598 165.666c-4.142 0-7.5 3.357-7.5 7.5v8.283c0 4.143 3.358 7.5 7.5 7.5s7.5-3.357 7.5-7.5v-8.283c0-4.143-3.358-7.5-7.5-7.5z"/><path d="m222.865 188.949c4.142 0 7.5-3.357 7.5-7.5v-8.283c0-4.143-3.358-7.5-7.5-7.5s-7.5 3.357-7.5 7.5v8.283c0 4.143 3.358 7.5 7.5 7.5z"/><path d="m207.836 208.096c-3.584-2.075-8.172-.856-10.25 2.729-1.625 2.804-4.635 4.545-7.854 4.545s-6.229-1.742-7.855-4.546c-2.078-3.583-6.666-4.803-10.25-2.727-3.584 2.077-4.804 6.666-2.727 10.25 4.299 7.416 12.281 12.023 20.831 12.023 8.551 0 16.533-4.607 20.832-12.023 2.078-3.584.856-8.173-2.727-10.251z"/><path d="m471.367 33.134h-165.667c-6.24 0-12.047 2.431-16.399 6.481-19.617-24.152-49.536-39.615-83.003-39.615h-33.131c-21.614 0-42.438 6.42-60.223 18.566-3.42 2.336-4.299 7.003-1.963 10.423 2.335 3.42 7.002 4.3 10.423 1.964 15.282-10.436 33.181-15.953 51.763-15.953h33.131c50.674 0 91.901 41.227 91.901 91.9v25.633h-18.134v-25.633c0-40.675-33.092-73.767-73.767-73.767h-33.131c-40.675 0-73.767 33.092-73.767 73.767l-.001 25.633h-18.132v-25.633c0-19.103 5.803-37.414 16.783-52.957 2.39-3.383 1.585-8.063-1.799-10.453-3.382-2.39-8.063-1.584-10.453 1.799-12.777 18.088-19.531 39.393-19.531 61.611v26.835c-9.61 3.159-16.57 12.211-16.57 22.864v49.702c0 13.27 10.796 24.067 24.067 24.067h28.896c5.039 18.209 15.647 34.127 29.871 45.795l.002 18.151-20.456 20.458-21.745-.001c-40.673 0-73.763 33.09-73.763 73.764l-.001 99.397c0 13.271 10.796 24.066 24.067 24.066h19.769c4.142 0 7.5-3.357 7.5-7.5s-3.358-7.5-7.5-7.5h-19.771c-5 0-9.067-4.067-9.067-9.066l.001-99.397c0-32.402 26.361-58.764 58.763-58.764l14.771.001-19.645 65.476c-2.468 8.226 1.98 16.795 10.126 19.509l20.731 6.91-18.374 6.125c-4.62 1.54-8.214 5.051-9.862 9.633-1.647 4.582-1.112 9.577 1.469 13.705l28.669 45.87h-22.647c-4.142 0-7.5 3.357-7.5 7.5s3.358 7.5 7.5 7.5h243.264c13.271 0 24.067-10.796 24.067-24.066l-.002-99.397c0-40.674-33.09-73.764-73.763-73.764l-21.745.001-20.459-20.461.001-18.147c4.626-3.794 8.87-8.038 12.665-12.665h12.969c13.271 0 24.067-10.796 24.067-24.066v-9.065h9.066c10.652 0 19.705-6.96 22.864-16.568h30.002c.298 0 .567.166.701.434l15.152 30.304c2.691 5.382 8.1 8.725 14.117 8.725s11.426-3.343 14.117-8.726l15.151-30.303c.134-.268.402-.434.701-.434h52.864c13.27 0 24.066-10.796 24.066-24.066v-132.536c.001-13.27-10.796-24.066-24.066-24.066zm-298.2 15h33.131c32.404 0 58.767 26.363 58.767 58.768v25.634h-9.067c-13.812 0-25.1-10.982-25.609-24.672 1.784-5.528 2.758-11.415 2.758-17.529 0-4.143-3.358-7.5-7.5-7.5s-7.5 3.357-7.5 7.5c0 23.27-18.931 42.2-42.2 42.2h-61.548l.001-25.635c0-32.404 26.363-58.766 58.767-58.766zm-99.403 167.235c-5 0-9.067-4.067-9.067-9.067v-49.702c0-4.993 4.058-9.056 9.049-9.065.007 0 .014.001.021.001.013 0 .026-.002.039-.002h25.593l.001 58.77c0 3.06.155 6.084.453 9.066h-26.089zm66.268 92.66 39.093 39.092-27.987 27.987c-.07.069-.285.285-.679.219-.397-.065-.531-.334-.576-.423l-25.576-51.15zm122.5 34.517 17.107 57.014c.122.408-.098.833-.503.968l-30.29 10.097c-4.761 1.588-7.96 6.025-7.96 11.045 0 5.018 3.199 9.456 7.96 11.044l27.932 9.311c.089.029.36.12.489.478.128.358-.023.601-.073.681l-33.636 53.816h-29.277l6.797-108.747c2.376 1.35 5.069 2.083 7.817 2.083.836 0 1.677-.066 2.514-.202 4.994-.81 9.326-3.996 11.588-8.52zm-63.28 154.454h-19.042l-7.633-122.117 17.155-17.155 17.152 17.152zm-96.986-53.819c-.05-.08-.201-.322-.073-.68.129-.357.4-.448.49-.478l27.932-9.311c4.761-1.588 7.96-6.025 7.96-11.044 0-5.02-3.199-9.457-7.96-11.045l-30.29-10.097c-.404-.135-.624-.56-.501-.968l17.107-57.018 19.537 39.072c2.263 4.525 6.596 7.71 11.59 8.52.837.136 1.677.202 2.513.202 2.747 0 5.439-.733 7.814-2.082l6.796 108.748h-29.277zm186.868-113.409c32.402 0 58.763 26.361 58.763 58.764l.002 99.397c0 4.999-4.067 9.066-9.067 9.066h-77.586l28.669-45.868c2.581-4.129 3.116-9.125 1.468-13.706-1.648-4.582-5.242-8.093-9.861-9.633l-18.375-6.125 20.73-6.91c8.147-2.714 12.595-11.283 10.128-19.509l-19.646-65.476zm-59.553 45.132c-.044.089-.179.358-.575.423-.395.068-.609-.149-.68-.22l-27.987-27.986 39.094-39.091 15.724 15.724zm2.348-80.584-42.197 42.195-42.2-42.2-.001-8.164c12.603 6.688 26.966 10.484 42.2 10.484s29.595-3.796 42.198-10.483zm-42.197-12.684c-41.539 0-75.333-33.794-75.333-75.333l-.001-58.768h61.549c17.896 0 33.893-8.267 44.389-21.176 6.906 12.607 20.301 21.176 35.661 21.176h9.067l-.001 58.768c0 15.625-4.784 30.152-12.96 42.198h-29.24c-4.142 0-7.5 3.357-7.5 7.5s3.358 7.5 7.5 7.5h15.809c-13.174 11.291-30.268 18.135-48.94 18.135zm91.899-42.201c0 4.999-4.067 9.066-9.067 9.066h-2.983c3.03-5.71 5.465-11.781 7.223-18.132h4.827zm33.134-33.133c0 5-4.067 9.067-9.067 9.067h-16.528c-.013 0-.026-.002-.039-.002s-.026.002-.039.002h-9.481c.299-2.982.453-6.007.453-9.066l.001-58.77h25.595c.013 0 .026.002.039.002.006 0 .013-.001.019-.001 4.99.011 9.047 4.073 9.047 9.065zm165.669-16.568c0 4.999-4.067 9.066-9.066 9.066h-52.864c-6.017 0-11.426 3.343-14.117 8.725l-15.151 30.304c-.07.141-.217.434-.701.434s-.63-.293-.701-.434l-15.151-30.303c-2.69-5.382-8.1-8.726-14.117-8.726h-28.799v-42.2c0-10.652-6.958-19.703-16.566-22.863v-26.837c0-19.967-5.508-38.669-15.076-54.677 1.644-2.495 4.469-4.09 7.577-4.09h165.667c4.999 0 9.066 4.067 9.066 9.066v132.535z"/><path d="m430.639 84.038c-5.75-6.433-15.703-7.033-22.186-1.339l-28.345 24.902-11.85-9.38c-.028-.022-.057-.045-.085-.066-6.55-5.032-15.691-4.231-21.266 1.865l-11.419 12.49c-2.922 3.196-4.379 7.336-4.103 11.657s2.249 8.242 5.549 11.035l35.625 30.198c.001.001.002.002.003.003 2.158 1.827 4.84 2.737 7.521 2.737 2.766 0 5.529-.969 7.713-2.9l52.59-46.492c3.169-2.803 5.051-6.674 5.299-10.898s-1.169-8.288-3.989-11.441zm-.188 23.475-50.411 44.565-33.41-28.32c-.168-.142-.261-.326-.275-.547s.055-.416.204-.579l11.419-12.489c.153-.167.366-.254.581-.254.159 0 .32.048.456.146l14.027 11.104c.028.021.056.044.084.065 4.398 3.38 10.612 3.176 14.779-.483l30.451-26.752c.321-.281.814-.252 1.101.066l11.059 12.372c.144.16.211.351.198.567-.015.215-.103.397-.263.539z"/></g></svg>