<svg id="Capa_1" enable-background="new 0 0 512 512" height="512" viewBox="0 0 512 512" width="512" xmlns="http://www.w3.org/2000/svg"><g><path d="m492 432h-209.914c15.056-14.241 36.877-36.359 58.889-63.839 22.881-28.562 41.14-56.964 54.271-84.414 16.651-34.81 25.095-68.254 25.095-99.405 0-74.296-50.067-139.583-121.753-158.768-5.335-1.428-10.818 1.739-12.246 7.075-1.428 5.335 1.74 10.817 7.075 12.245 62.955 16.848 106.923 74.19 106.923 139.447 0 64.127-40.643 128.397-74.738 171.019-28.419 35.527-57.171 62.352-69.603 73.403-12.433-11.053-41.185-37.876-69.604-73.403-34.095-42.622-74.738-106.892-74.738-171.019 0-65.257 43.969-122.6 106.923-139.447 5.335-1.428 8.503-6.91 7.075-12.245s-6.906-8.498-12.246-7.075c-71.683 19.185-121.75 84.472-121.75 158.768 0 31.151 8.443 64.596 25.095 99.405 13.131 27.45 31.391 55.852 54.272 84.414 22.012 27.479 43.833 49.598 58.889 63.839h-209.915c-11.028 0-20 8.972-20 20v20c0 11.028 8.972 20 20 20h472c11.028 0 20-8.972 20-20v-20c0-11.028-8.972-20-20-20zm0 40h-472v-20h472l.013 19.999s-.004.001-.013.001z"/><path d="m131.659 184.342c0 68.562 55.779 124.341 124.341 124.341s124.341-55.779 124.341-124.341c0-68.563-55.779-124.342-124.341-124.342s-124.341 55.779-124.341 124.342zm228.682 0c0 57.534-46.807 104.341-104.341 104.341s-104.341-46.807-104.341-104.341 46.807-104.342 104.341-104.342 104.341 46.808 104.341 104.342z"/><path d="m246 134.342v-10.002c0-5.522-4.477-10-10-10s-10 4.478-10 10v10.002c-11.027 0-19.999 8.971-20 19.998h-10c-5.523 0-10 4.478-10 10 0 5.523 4.477 10 10 10h10v20h-10c-5.523 0-10 4.478-10 10 0 5.523 4.477 10 10 10h10v.002c0 11.028 8.972 20 20 20v9.998c0 5.523 4.477 10 10 10s10-4.477 10-10v-9.998h20v9.998c0 5.523 4.477 10 10 10s10-4.477 10-10v-9.998c11.028 0 20-8.972 20-20v-.002h10c5.523 0 10-4.477 10-10 0-5.522-4.477-10-10-10h-10v-20h10c5.523 0 10-4.477 10-10 0-5.522-4.477-10-10-10h-10c-.001-11.027-8.973-19.998-20-19.998v-10.002c0-5.522-4.477-10-10-10s-10 4.478-10 10v10.002zm40.013 79.999s-.004.001-.013.001h-60v-60h60z"/><circle cx="256" cy="30" r="10"/></g></svg>