<svg id="Capa_1" enable-background="new 0 0 512 512" height="512" viewBox="0 0 512 512" width="512" xmlns="http://www.w3.org/2000/svg"><g><path d="m256 362.9c58.945 0 106.9-47.955 106.9-106.9s-47.955-106.9-106.9-106.9-106.9 47.955-106.9 106.9 47.955 106.9 106.9 106.9zm-25.633-18.642v-21.991c0-4.143-3.358-7.5-7.5-7.5s-7.5 3.357-7.5 7.5v16.146c-6.517-3.227-12.6-7.201-18.133-11.815v-20.898c0-14.135 11.499-25.634 25.633-25.634h66.266c14.135 0 25.634 11.499 25.634 25.634v20.898c-5.534 4.614-11.617 8.589-18.134 11.815v-16.147c0-4.143-3.357-7.5-7.5-7.5s-7.5 3.357-7.5 7.5v21.992c-8.139 2.368-16.74 3.642-25.633 3.642s-17.494-1.274-25.633-3.642zm25.633-79.192c-18.702 0-33.917-15.215-33.917-33.916 0-18.702 15.215-33.917 33.917-33.917s33.917 15.215 33.917 33.917-15.215 33.916-33.917 33.916zm0-100.966c50.674 0 91.9 41.227 91.9 91.9 0 20.497-6.747 39.446-18.134 54.749v-5.049c0-21.728-17.145-39.527-38.616-40.582 8.513-8.806 13.766-20.781 13.766-33.967 0-26.973-21.944-48.917-48.917-48.917s-48.917 21.944-48.917 48.917c0 13.186 5.254 25.161 13.766 33.967-21.472 1.055-38.616 18.854-38.616 40.582v5.048c-11.385-15.302-18.132-34.251-18.132-54.748 0-50.674 41.226-91.9 91.9-91.9z"/><path d="m81.267 57.2c0-13.271-10.796-24.067-24.066-24.067s-24.068 10.797-24.068 24.067 10.797 24.067 24.067 24.067 24.067-10.796 24.067-24.067zm-33.134 0c0-5 4.067-9.067 9.067-9.067 4.999 0 9.066 4.067 9.066 9.067 0 4.999-4.067 9.066-9.066 9.066-4.999.001-9.067-4.067-9.067-9.066z"/><path d="m454.8 81.267c13.271 0 24.067-10.796 24.067-24.066s-10.797-24.068-24.067-24.068-24.067 10.797-24.067 24.067 10.796 24.067 24.067 24.067zm0-33.134c5 0 9.067 4.067 9.067 9.067 0 4.999-4.067 9.066-9.067 9.066-4.999 0-9.066-4.067-9.066-9.066-.001-5 4.067-9.067 9.066-9.067z"/><path d="m57.2 430.733c-13.271 0-24.067 10.796-24.067 24.066s10.797 24.068 24.067 24.068 24.067-10.797 24.067-24.067-10.796-24.067-24.067-24.067zm0 33.134c-5 0-9.067-4.067-9.067-9.067 0-4.999 4.067-9.066 9.067-9.066 4.999 0 9.066 4.067 9.066 9.066.001 5-4.067 9.067-9.066 9.067z"/><path d="m454.8 430.733c-13.271 0-24.066 10.796-24.066 24.066s10.796 24.067 24.066 24.067 24.067-10.797 24.067-24.067-10.797-24.066-24.067-24.066zm0 33.134c-4.999 0-9.066-4.067-9.066-9.067 0-4.999 4.067-9.066 9.066-9.066 5 0 9.067 4.067 9.067 9.066 0 5-4.067 9.067-9.067 9.067z"/><path d="m478.867 402.928v-293.856c19.546-9.105 33.133-28.926 33.133-51.872 0-31.54-25.66-57.2-57.2-57.2-22.945 0-42.767 13.587-51.872 33.133h-229.536c-4.142 0-7.5 3.357-7.5 7.5s3.358 7.5 7.5 7.5h224.934c-.473 2.955-.726 5.981-.726 9.067 0 3.085.253 6.112.726 9.066h-284.652c.473-2.954.726-5.981.726-9.066 0-3.086-.254-6.113-.726-9.067h24.718c4.142 0 7.5-3.357 7.5-7.5s-3.358-7.5-7.5-7.5h-29.32c-9.105-19.546-28.927-33.133-51.872-33.133-31.54 0-57.2 25.66-57.2 57.2 0 22.946 13.588 42.767 33.133 51.872v293.855c-19.545 9.106-33.133 28.927-33.133 51.873 0 31.54 25.66 57.2 57.2 57.2 22.945 0 42.766-13.587 51.872-33.133h293.856c9.105 19.546 28.926 33.133 51.872 33.133 31.54 0 57.2-25.66 57.2-57.2 0-22.946-13.587-42.767-33.133-51.872zm-15-4.602c-2.955-.473-5.982-.726-9.067-.726s-6.112.253-9.066.726v-284.652c2.954.473 5.981.726 9.066.726 3.086 0 6.113-.253 9.067-.726zm-55.389 22.975-60.129-60.129c4.544-3.995 8.827-8.278 12.822-12.822l60.128 60.129c-4.921 3.569-9.252 7.9-12.821 12.822zm-317.779-12.823 60.083-60.083c3.934 4.477 8.163 8.727 12.681 12.708.045.04.092.078.137.118l-60.079 60.079c-3.569-4.922-7.9-9.252-12.822-12.822zm-9.432-293.176 60.171 60.172c-12.831 18.233-21.212 39.364-24.215 61.698-.552 4.104 2.329 7.88 6.434 8.432 4.109.559 7.881-2.328 8.433-6.434 8.294-61.686 61.564-108.203 123.911-108.203 68.943 0 125.033 56.09 125.033 125.033s-56.091 125.033-125.034 125.033c-62.335 0-115.604-46.507-123.908-108.18-.553-4.104-4.322-6.99-8.434-6.432-4.105.553-6.985 4.328-6.432 8.434 3.006 22.325 11.385 43.445 24.211 61.671l-60.171 60.171v-281.395zm349.466 281.397-60.208-60.21c16.062-22.786 25.508-50.554 25.508-80.489s-9.447-57.703-25.508-80.489l60.208-60.209zm-255.261-26.134c23.47 16.509 51.548 25.469 80.528 25.469 29.935 0 57.702-9.446 80.488-25.508l60.209 60.208h-281.395zm279.328-355.565c23.27 0 42.2 18.931 42.2 42.2s-18.931 42.2-42.2 42.2-42.2-18.931-42.2-42.2 18.93-42.2 42.2-42.2zm-33.5 88.521-60.129 60.129c-3.995-4.544-8.278-8.827-12.822-12.822l60.129-60.128c3.57 4.922 7.9 9.252 12.822 12.821zm-24.602-22.254-60.21 60.208c-22.786-16.062-50.553-25.508-80.488-25.508-28.981 0-57.059 8.96-80.529 25.469l-60.169-60.169zm-233.097 69.511c-.049.043-.099.084-.147.127-4.514 3.978-8.74 8.225-12.671 12.699l-60.083-60.083c4.922-3.569 9.252-7.9 12.822-12.822zm-148.601-93.578c0-23.269 18.931-42.2 42.2-42.2s42.2 18.931 42.2 42.2-18.931 42.2-42.2 42.2-42.2-18.93-42.2-42.2zm33.133 56.474c2.955.473 5.981.726 9.067.726 3.085 0 6.112-.253 9.066-.726v284.651c-2.954-.473-5.981-.726-9.066-.726-3.086 0-6.112.253-9.067.726zm9.067 383.326c-23.269 0-42.2-18.931-42.2-42.2s18.931-42.2 42.2-42.2 42.2 18.931 42.2 42.2-18.931 42.2-42.2 42.2zm56.474-33.133c.473-2.955.726-5.981.726-9.067 0-3.085-.253-6.112-.726-9.066h284.652c-.473 2.954-.726 5.981-.726 9.066 0 3.086.253 6.113.726 9.067zm341.126 33.133c-23.27 0-42.2-18.931-42.2-42.2s18.931-42.2 42.2-42.2 42.2 18.93 42.2 42.2-18.931 42.2-42.2 42.2z"/></g></svg>