<svg id="Capa_1" enable-background="new 0 0 512 512" height="512" viewBox="0 0 512 512" width="512" xmlns="http://www.w3.org/2000/svg"><g><path d="m371.504 0h-231.008c-21.778 0-39.496 17.718-39.496 39.496v433.008c0 21.778 17.718 39.496 39.496 39.496h75.504c5.523 0 10-4.478 10-10s-4.477-10-10-10h-75.504c-10.75 0-19.496-8.746-19.496-19.496v-40.504h270v40.504c0 10.75-8.746 19.496-19.496 19.496h-75.504c-5.523 0-10 4.478-10 10s4.477 10 10 10h75.504c21.778 0 39.496-17.718 39.496-39.496v-433.008c0-21.778-17.718-39.496-39.496-39.496zm-175.504 20h120v10c0 5.514-4.486 10-10 10h-100c-5.514 0-10-4.486-10-10zm-75 392v-372.504c0-10.75 8.746-19.496 19.496-19.496h35.504v10c0 16.542 13.458 30 30 30h100c16.542 0 30-13.458 30-30v-10h35.504c10.75 0 19.496 8.746 19.496 19.496v372.504z"/><path d="m296 462c0-5.522-4.477-10-10-10h-60c-5.523 0-10 4.478-10 10s4.477 10 10 10h60c5.523 0 10-4.478 10-10z"/><path d="m321 141h-130c-11.028 0-20 8.972-20 20v110c0 11.028 8.972 20 20 20h130c11.028 0 20-8.972 20-20v-110c0-11.028-8.972-20-20-20zm-75 20h20v20h-20zm75 110h-130v-110h35v30c0 5.523 4.477 10 10 10h40c5.523 0 10-4.477 10-10v-30h35l.013 109.999s-.004.001-.013.001z"/><path d="m331 311h-150c-5.523 0-10 4.478-10 10s4.477 10 10 10h150c5.523 0 10-4.478 10-10s-4.477-10-10-10z"/><circle cx="256" cy="502" r="10"/></g></svg>