<svg id="Capa_1" enable-background="new 0 0 512 512" height="512" viewBox="0 0 512 512" width="512" xmlns="http://www.w3.org/2000/svg"><g><path d="m255.999 364.466h-33.134c-4.143 0-7.5 3.357-7.5 7.5s3.357 7.5 7.5 7.5h33.134c4.143 0 7.5-3.357 7.5-7.5s-3.357-7.5-7.5-7.5z"/><path d="m472.499 0h-134.8c-21.78 0-39.5 17.72-39.5 39.5v10.199h-257.565c-22.405 0-40.633 18.228-40.633 40.634v39.551c0 4.143 3.357 7.5 7.5 7.5s7.5-3.357 7.5-7.5v-39.551c0-14.135 11.499-25.634 25.633-25.634h257.565v18.135h-241.001c-13.271 0-24.066 10.796-24.066 24.066v224.433h-18.131v-166.449c0-4.143-3.358-7.5-7.5-7.5-4.143 0-7.5 3.357-7.5 7.5v207.084c0 22.405 18.228 40.634 40.633 40.634h133.315v51.267h-42.483c-8.547 0-15.5 6.953-15.5 15.5v17.131c0 8.547 6.953 15.5 15.5 15.5h32.75c4.143 0 7.5-3.357 7.5-7.5s-3.357-7.5-7.5-7.5h-32.75c-.275 0-.5-.225-.5-.5v-17.132c0-.275.225-.5.5-.5h215.933c.275 0 .5.225.5.5v17.132c0 .275-.225.5-.5.5h-148.183c-4.143 0-7.5 3.357-7.5 7.5s3.357 7.5 7.5 7.5h148.183c8.547 0 15.5-6.953 15.5-15.5v-17.132c0-8.547-6.953-15.5-15.5-15.5h-42.483v-51.267h133.314c22.405 0 40.634-18.229 40.634-40.634v-59.287c18.764-3.053 33.136-19.367 33.136-38.98v-234.2c-.001-21.78-17.721-39.5-39.501-39.5zm-424.367 106.9c0-4.999 4.067-9.066 9.066-9.066h241.001v175.866c0 21.78 17.72 39.5 39.5 39.5h93.033v18.133h-382.6zm415.731 206.3v18.133h-18.131v-18.133zm-215.364 150.668h-18.133v-17.354c0-.432.352-.783.783-.783h16.566c.432 0 .783.352.783.783v17.354zm41.416 0h-26.416v-17.354c0-8.703-7.08-15.783-15.783-15.783h-16.566c-8.703 0-15.783 7.08-15.783 15.783v17.354h-26.417v-51.267h100.966v51.267zm148.314-66.266h-397.595c-14.134 0-25.633-11.499-25.633-25.634v-25.635h448.862v25.635c0 14.135-11.499 25.634-25.634 25.634zm58.77-123.902c0 13.51-10.99 24.5-24.5 24.5h-134.8c-13.51 0-24.5-10.99-24.5-24.5v-234.2c0-13.51 10.99-24.5 24.5-24.5h134.8c13.51 0 24.5 10.99 24.5 24.5z"/><path d="m454.799 33.134h-8.283c-8.703 0-15.783 7.08-15.783 15.783v8.283c0 4.999-4.067 9.066-9.067 9.066h-33.133c-4.999 0-9.066-4.067-9.066-9.066v-8.283c0-8.703-7.08-15.783-15.783-15.783h-8.284c-13.271 0-24.066 10.796-24.066 24.066v198.8c0 13.271 10.796 24.066 24.066 24.066h99.4c13.271 0 24.066-10.796 24.066-24.066v-198.8c-.001-13.27-10.797-24.066-24.067-24.066zm9.066 222.866c0 4.999-4.067 9.066-9.066 9.066h-99.4c-4.999 0-9.066-4.067-9.066-9.066v-198.8c0-4.999 4.067-9.066 9.066-9.066h8.284c.432 0 .783.352.783.783v8.283c0 13.271 10.796 24.066 24.066 24.066h33.133c13.27 0 24.067-10.796 24.067-24.066v-8.283c0-.432.352-.783.783-.783h8.283c4.999 0 9.066 4.067 9.066 9.066v198.8z"/><path d="m218.95 187.168-20.553-2.987-9.191-18.622c-3.035-6.151-9.182-9.972-16.04-9.972-6.859 0-13.006 3.82-16.041 9.971l-9.191 18.623-20.554 2.987c-6.787.986-12.32 5.651-14.439 12.175-2.12 6.523-.385 13.55 4.526 18.337l14.872 14.496-3.512 20.47c-1.159 6.761 1.568 13.465 7.118 17.496 3.135 2.278 6.804 3.435 10.497 3.435 2.843 0 5.7-.686 8.341-2.074l18.382-9.665 18.383 9.665c6.071 3.191 13.29 2.669 18.838-1.361 5.55-4.031 8.277-10.735 7.117-17.496l-3.511-20.47 14.871-14.496c4.912-4.787 6.647-11.814 4.527-18.337-2.119-6.524-7.652-11.189-14.44-12.175zm-.557 19.77-15.741 15.345c-2.991 2.917-4.355 7.117-3.648 11.234l3.715 21.664c.265 1.54-.606 2.432-1.149 2.825-.542.396-1.66.946-3.041.22l-19.455-10.228c-1.85-.973-3.879-1.458-5.908-1.458-2.028 0-4.058.486-5.907 1.458l-19.455 10.228c-1.381.727-2.499.176-3.041-.22-.543-.394-1.414-1.285-1.15-2.825l3.716-21.663c.707-4.118-.657-8.318-3.649-11.237l-15.741-15.343c-1.118-1.09-.938-2.322-.73-2.96.207-.638.785-1.741 2.332-1.966l21.748-3.16c4.137-.6 7.711-3.195 9.561-6.944l9.729-19.712c.691-1.399 1.919-1.608 2.59-1.608.67 0 1.898.209 2.589 1.608v.001l9.729 19.711c1.851 3.749 5.425 6.345 9.558 6.943l21.752 3.161c1.547.225 2.125 1.328 2.332 1.966.203.637.384 1.87-.736 2.96z"/></g></svg>