<svg id="Capa_1" enable-background="new 0 0 512 512" height="512" viewBox="0 0 512 512" width="512" xmlns="http://www.w3.org/2000/svg"><g><path d="m482 95h10c11.028 0 20-8.972 20-20v-20c0-11.028-8.972-20-20-20h-126c0-11.028-8.972-20-20-20h-180c-11.028 0-20 8.972-20 20h-126c-11.028 0-20 8.972-20 20v20c0 11.028 8.972 20 20 20h10v227.119h-10c-11.028 0-20 8.972-20 20v134.881c0 11.028 8.972 20 20 20h472c11.028 0 20-8.972 20-20v-134.881c0-11.028-8.972-20-20-20h-10v-73.563c0-5.522-4.478-10-10-10s-10 4.478-10 10v73.563h-106v-30c0-11.028-8.972-20-20-20h-115c-5.514 0-10-4.486-10-10s4.486-10 10-10h15c16.542 0 30-13.458 30-30v-7.119h5c11.028 0 20-8.972 20-20v-20h15c11.028 0 20-8.972 20-20v-40h20c11.028 0 20-8.972 20-20h96v73.562c0 5.523 4.478 10 10 10s10-4.477 10-10zm-462-40h126v20h-126zm472.013 421.999s-.004.001-.013.001h-472v-134.881h472zm-156.013-184.88v30h-160v-30zm-90-70c0 5.514-4.486 10-10 10h-15c-16.542 0-30 13.458-30 30 0 3.506.61 6.87 1.72 10h-16.72c-11.028 0-20 8.972-20 20v30h-106v-227.119h96c0 11.028 8.972 20 20 20h20v40c0 11.028 8.972 20 20 20h15v20c0 11.028 8.972 20 20 20h5zm25-27.119h-30v-20h30zm35-40h-100v-40h100zm40-60h-180v-60h180l.013 59.999s-.004.001-.013.001zm20-40h126v20h-126z"/><path d="m70 447h96c11.028 0 20-8.972 20-20v-34.881c0-11.028-8.972-20-20-20h-96c-11.028 0-20 8.972-20 20v34.881c0 11.028 8.972 20 20 20zm0-54.881h96l.013 34.88s-.004.001-.013.001h-96z"/><path d="m263.44 447c20.645 0 37.44-16.796 37.44-37.44 0-20.645-16.796-37.44-37.44-37.44-20.645 0-37.44 16.796-37.44 37.44s16.796 37.44 37.44 37.44zm0-54.881c9.616 0 17.44 7.824 17.44 17.44s-7.823 17.441-17.44 17.441-17.44-7.824-17.44-17.44 7.824-17.441 17.44-17.441z"/><path d="m361.44 447c20.645 0 37.44-16.796 37.44-37.44 0-20.645-16.796-37.44-37.44-37.44-20.645 0-37.44 16.796-37.44 37.44s16.796 37.44 37.44 37.44zm0-54.881c9.616 0 17.44 7.824 17.44 17.44s-7.823 17.441-17.44 17.441-17.44-7.824-17.44-17.44 7.824-17.441 17.44-17.441z"/><path d="m432 399.56h20c5.522 0 10-4.478 10-10s-4.478-10-10-10h-20c-5.522 0-10 4.478-10 10s4.478 10 10 10z"/><path d="m432 439.56h20c5.522 0 10-4.478 10-10s-4.478-10-10-10h-20c-5.522 0-10 4.478-10 10s4.478 10 10 10z"/><circle cx="472" cy="208.56" r="10"/></g></svg>