<svg id="Capa_1" enable-background="new 0 0 512 512" height="512" viewBox="0 0 512 512" width="512" xmlns="http://www.w3.org/2000/svg"><g><path d="m266.997 335.099c.384.427.813.811 1.285 1.14 9.987 8.792 21.619 15.753 34.373 20.353.346.154.707.28 1.079.381 11 3.835 22.809 5.926 35.1 5.926 12.288 0 24.096-2.091 35.094-5.924.376-.102.741-.229 1.091-.385 12.75-4.6 24.38-11.56 34.365-20.349.473-.33.903-.715 1.288-1.143 21.528-19.569 35.063-47.783 35.063-79.099 0-58.945-47.955-106.9-106.9-106.9-58.944 0-106.899 47.955-106.899 106.9-.002 31.317 13.533 59.531 35.061 79.1zm46.203 9.159v-21.991c0-4.142-3.357-7.5-7.5-7.5s-7.5 3.358-7.5 7.5v16.146c-6.517-3.227-12.6-7.201-18.134-11.815v-20.898c0-14.134 11.499-25.633 25.634-25.633h66.267c14.134 0 25.633 11.499 25.633 25.633v20.898c-5.533 4.614-11.616 8.588-18.133 11.815v-16.146c0-4.142-3.357-7.5-7.5-7.5s-7.5 3.358-7.5 7.5v21.991c-8.14 2.368-16.74 3.642-25.634 3.642-8.893 0-17.493-1.275-25.633-3.642zm25.633-79.191c-18.701 0-33.916-15.215-33.916-33.917s15.215-33.917 33.916-33.917c18.702 0 33.917 15.215 33.917 33.917s-15.215 33.917-33.917 33.917zm0-100.967c50.674 0 91.9 41.226 91.9 91.9 0 20.497-6.747 39.446-18.134 54.748v-5.048c0-21.729-17.144-39.527-38.616-40.582 8.513-8.806 13.767-20.782 13.767-33.968 0-26.973-21.944-48.917-48.917-48.917s-48.916 21.944-48.916 48.917c0 13.186 5.254 25.162 13.766 33.968-21.472 1.055-38.617 18.853-38.617 40.582v5.047c-11.386-15.302-18.133-34.251-18.133-54.747.001-50.674 41.226-91.9 91.9-91.9z"/><path d="m511.983 106.862c-.01-1.938-.754-3.841-2.179-5.266l-99.4-99.4c-1.426-1.425-3.329-2.17-5.267-2.18-.011-.004-.037-.016-.037-.016h-215.367c-13.27 0-24.066 10.796-24.066 24.067v49.7c0 4.142 3.357 7.5 7.5 7.5s7.5-3.358 7.5-7.5v-49.7c0-5 4.067-9.067 9.066-9.067h207.867v18.133h-117.033c-8.547 0-15.5 6.953-15.5 15.5v17.133c0 8.547 6.953 15.5 15.5 15.5h117.033v9.067c0 13.27 10.797 24.066 24.067 24.066h75.333v373.533c0 4.999-4.067 9.067-9.066 9.067h-298.2c-4.999 0-9.066-4.067-9.066-9.067v-31.089c38.535-13.42 66.267-50.11 66.267-93.16 0-.678-.012-1.353-.026-2.028 25.304 22.063 57.751 34.378 91.925 34.378 77.215 0 140.034-62.819 140.034-140.033s-62.819-140.033-140.034-140.033c-77.216 0-140.034 62.819-140.034 140.033 0 8.199.707 16.315 2.103 24.294-6.301-3.987-13.082-7.279-20.235-9.771v-161.756c0-4.142-3.357-7.5-7.5-7.5s-7.5 3.358-7.5 7.5v157.829c-5.634-1.004-11.432-1.529-17.351-1.529-21.407 0-41.771 6.745-58.887 19.504-3.321 2.476-4.006 7.175-1.53 10.496 2.474 3.321 7.173 4.005 10.495 1.531 14.507-10.814 31.77-16.531 49.922-16.531 46.106 0 83.617 37.51 83.617 83.617 0 46.106-37.511 83.617-83.617 83.617s-83.616-37.51-83.616-83.617c0-15.304 4.169-30.271 12.057-43.281 2.147-3.542 1.018-8.154-2.524-10.302-3.542-2.147-8.154-1.018-10.302 2.525-9.31 15.355-14.23 33.011-14.23 51.057 0 18.48 5.114 35.786 13.995 50.586l-13.773 13.774-.553-.553c-2.98-2.981-6.944-4.624-11.161-4.624-4.216 0-8.179 1.642-11.161 4.623l-19.999 19.998c-4.546 4.545-7.05 10.589-7.05 17.018 0 6.428 2.504 12.472 7.049 17.018l23.428 23.428c4.546 4.546 10.59 7.049 17.017 7.049h.001c6.428 0 12.472-2.504 17.017-7.049l19.999-19.998c6.152-6.153 6.152-16.167 0-22.32l-.554-.554 13.773-13.773c14.8 8.881 32.106 13.995 50.587 13.995 5.918 0 11.716-.525 17.351-1.529v27.162c0 13.271 10.796 24.067 24.066 24.067h298.2c13.27-.001 24.066-10.797 24.066-24.068v-381.033s-.012-.026-.017-.038zm-173.15 24.105c68.944 0 125.034 56.09 125.034 125.033s-56.09 125.033-125.034 125.033c-37.087 0-71.888-16.251-95.74-44.628-4.335-15.038-12.162-28.608-22.54-39.78-4.478-13.037-6.753-26.695-6.753-40.625 0-68.943 56.09-125.033 125.033-125.033zm-264.929 343.38-19.999 19.997c-1.712 1.712-3.989 2.656-6.41 2.656-2.422 0-4.699-.943-6.411-2.656l-23.428-23.428c-1.713-1.712-2.656-3.989-2.656-6.411s.943-4.699 2.656-6.411l19.996-19.997c.306-.305.805-.305 1.108-.001l29.281 29.281.005.005s.003.003.005.005l5.852 5.852c.306.305.306.803.001 1.108zm-.554-22.875-12.821-12.821 11.973-11.974c3.874 4.654 8.167 8.948 12.821 12.822zm207.217-385.205c-.275 0-.5-.224-.5-.5v-17.134c0-.276.225-.5.5-.5h117.033v18.133h-117.033zm141.1 33.133c-5 0-9.067-4.067-9.067-9.066v-64.728l73.794 73.794z"/><path d="m413.1 430.733c-8.547 0-15.5 6.953-15.5 15.5v17.133c0 8.547 6.953 15.5 15.5 15.5h50.268c8.547 0 15.5-6.953 15.5-15.5v-17.133c0-8.547-6.953-15.5-15.5-15.5zm50.767 15.5v17.133c0 .276-.225.5-.5.5h-50.267c-.275 0-.5-.224-.5-.5v-17.133c0-.276.225-.5.5-.5h50.268c.275 0 .499.224.499.5z"/><path d="m148.316 429.167c36.107 0 65.483-29.375 65.483-65.483s-29.375-65.484-65.483-65.484-65.483 29.376-65.483 65.483 29.376 65.484 65.483 65.484zm0-115.967c27.837 0 50.483 22.647 50.483 50.483s-22.646 50.483-50.483 50.483-50.483-22.647-50.483-50.483 22.646-50.483 50.483-50.483z"/></g></svg>