<svg id="Capa_1" enable-background="new 0 0 511.963 511.963" height="512" viewBox="0 0 511.963 511.963" width="512" xmlns="http://www.w3.org/2000/svg"><g><path d="m467.389 23.396c-31.197-31.196-81.956-31.194-113.151 0l-128.071 128.072-14.145-14.145c-3.777-3.777-8.8-5.857-14.143-5.857-5.342 0-10.364 2.08-14.142 5.857l-49.504 49.504c-3.777 3.777-5.857 8.8-5.857 14.142 0 5.343 2.08 10.365 5.857 14.143l14.145 14.145-63.909 63.91c-7.798 7.799-7.798 20.487 0 28.285l.003.003-14.148 14.148c-5.715 5.715-7.223 14.052-4.562 21.169l-35.359 58.933c-4.729 7.884-3.493 17.932 3.008 24.435l1.552 1.552-1.975 1.975c-11.659 11.659-14.982 28.365-8.672 43.6 6.31 15.233 20.473 24.697 36.962 24.697h55.927c5.522 0 10-4.477 10-10 0-5.522-4.478-10-10-10h-55.927c-8.371 0-15.281-4.617-18.484-12.352-3.203-7.733-1.582-15.884 4.337-21.803l1.975-1.975 1.552 1.552c3.862 3.862 8.975 5.866 14.143 5.866 3.533 0 7.092-.937 10.293-2.858l58.932-35.359c2.262.846 4.642 1.287 7.027 1.287 5.122 0 10.243-1.95 14.143-5.849l14.149-14.149.004.004c3.899 3.898 9.021 5.849 14.142 5.849 5.122 0 10.243-1.95 14.143-5.849l39.425-39.426c3.905-3.905 3.905-10.237 0-14.143-3.906-3.904-10.236-3.904-14.143 0l-39.424 39.426-84.877-84.877 248.552-248.556 84.877 84.877-152.562 152.562c-3.905 3.905-3.905 10.237 0 14.143 3.906 3.904 10.236 3.904 14.142 0l173.776-173.775c31.194-31.197 31.194-81.956-.011-113.163zm-402.59 419.847-17.246-17.25 31.828-53.047 38.469 38.469zm76.252-36.912-56.585-56.586 14.148-14.148 56.585 56.585zm7.326-205.361 49.503-49.504 14.145 14.145-49.504 49.504zm304.88-78.554-7.071 7.071-84.876-84.877 7.071-7.071c23.396-23.396 61.468-23.398 84.877.011 23.397 23.397 23.397 61.469-.001 84.866z"/><path d="m307.763 231.327c5.122 0 10.243-1.95 14.143-5.849l63.64-63.64c7.798-7.798 7.798-20.487 0-28.285l-28.303-28.303c-7.799-7.797-20.486-7.797-28.285 0l-63.64 63.64c-7.798 7.799-7.798 20.486 0 28.285l28.303 28.303c3.899 3.899 9.02 5.849 14.142 5.849zm35.337-111.933 28.311 28.294s-.003.003-.009.009l-24.749 24.749-28.303-28.303zm-38.891 38.891 28.303 28.303-24.749 24.749-28.303-28.303z"/><circle cx="257.733" cy="332.082" r="10"/><path d="m180.472 280.323c-16.57 0-30 13.43-30 30s13.43 30 30 30 30-13.43 30-30-13.43-30-30-30zm0 40c-5.52 0-10-4.48-10-10s4.48-10 10-10 10 4.48 10 10-4.48 10-10 10z"/><path d="m237.042 283.753c16.57 0 30-13.43 30-30s-13.43-30-30-30-30 13.43-30 30 13.43 30 30 30zm0-40c5.52 0 10 4.48 10 10s-4.48 10-10 10-10-4.48-10-10 4.48-10 10-10z"/></g></svg>