<svg id="Capa_1" enable-background="new 0 0 512 512" height="512" viewBox="0 0 512 512" width="512" xmlns="http://www.w3.org/2000/svg"><g><path d="m20 146h20c11.028 0 20-8.972 20-20v-66h66c11.028 0 20-8.972 20-20v-20c0-11.028-8.972-20-20-20h-106c-11.028 0-20 8.972-20 20v106c0 11.028 8.972 20 20 20zm0-126h106v20h-76c-5.522 0-10 4.478-10 10v76h-20l-.013-105.999s.004-.001.013-.001z"/><path d="m126 452h-66v-66c0-11.028-8.972-20-20-20h-20c-11.028 0-20 8.972-20 20v106c0 11.028 8.972 20 20 20h106c11.028 0 20-8.972 20-20v-20c0-11.028-8.972-20-20-20zm0 40h-106v-106h20v76c0 5.522 4.478 10 10 10h76z"/><path d="m492 0h-13c-5.522 0-10 4.477-10 10s4.478 10 10 10h13v106h-20v-76c0-5.522-4.478-10-10-10h-76v-20h13c5.522 0 10-4.477 10-10s-4.478-10-10-10h-13c-11.028 0-20 8.972-20 20v20c0 11.028 8.972 20 20 20h66v66c0 11.028 8.972 20 20 20h20c11.028 0 20-8.972 20-20v-106c0-11.028-8.972-20-20-20z"/><path d="m492 366h-20c-11.028 0-20 8.972-20 20v66h-66c-11.028 0-20 8.972-20 20v20c0 11.028 8.972 20 20 20h106c11.028 0 20-8.972 20-20v-106c0-11.028-8.972-20-20-20zm0 126h-106v-20h76c5.522 0 10-4.478 10-10l-.013-75.999s.004-.001.013-.001h20z"/><path d="m194.467 315.212c-48.921.822-88.467 40.867-88.467 89.98v2.194c0 11.028 8.972 20 20 20h260c11.028 0 20-8.972 20-20v-2.194c0-49.12-39.556-89.168-88.485-89.98 26.323-19.097 43.485-50.085 43.485-85.02v-40.579c0-57.897-47.103-105-105-105s-105 47.103-105 105v40.579c0 34.93 17.151 65.921 43.467 85.02zm89.813 19.98c-4.128 11.639-15.243 20-28.28 20s-24.152-8.361-28.28-20zm101.72 70 .013 2.193s-.004.001-.013.001h-260v-2.194c0-38.598 31.402-70 70-70h11.006c4.646 22.795 24.847 40 48.994 40s44.348-17.205 48.994-40h11.006c38.598 0 70 31.403 70 70zm-130-300.579c44.102 0 80.456 33.764 84.597 76.799h-4.427c-15.238 0-28.902-8.457-35.749-21.823.664-2.074 1.231-4.194 1.67-6.367 1.094-5.414-2.408-10.689-7.821-11.782-5.415-1.099-10.689 2.406-11.782 7.821-3.764 18.629-20.32 32.15-39.368 32.15h-71.717c4.141-43.034 40.495-76.798 84.597-76.798zm-85 96.799h72.12c18.444 0 35.32-8.477 46.478-22.01 11.22 13.739 28.128 22.01 46.572 22.01h4.83v28.78c0 46.869-38.131 85-85 85s-85-38.131-85-85z"/><path d="m238.153 288.622c5.685 2.369 11.689 3.57 17.847 3.57 6.16 0 12.165-1.201 17.849-3.571 5.097-2.125 7.507-7.98 5.381-13.078-2.125-5.098-7.979-7.507-13.078-5.381-6.37 2.654-13.927 2.657-20.305-.001-5.099-2.125-10.953.285-13.077 5.384-2.125 5.098.286 10.953 5.383 13.077z"/><path d="m221 254.811c5.523 0 10-4.477 10-10v-10c0-5.522-4.477-10-10-10s-10 4.478-10 10v10c0 5.523 4.477 10 10 10z"/><path d="m291 254.811c5.522 0 10-4.477 10-10v-10c0-5.522-4.478-10-10-10s-10 4.478-10 10v10c0 5.523 4.478 10 10 10z"/><path d="m382 256c0 5.522 4.478 10 10 10h50c5.522 0 10-4.478 10-10 0-5.523-4.478-10-10-10h-50c-5.522 0-10 4.477-10 10z"/><path d="m442 286h-20c-5.522 0-10 4.478-10 10s4.478 10 10 10h20c5.522 0 10-4.478 10-10s-4.478-10-10-10z"/><path d="m442 226c5.522 0 10-4.477 10-10s-4.478-10-10-10h-20c-5.522 0-10 4.477-10 10s4.478 10 10 10z"/><path d="m130 256c0-5.523-4.478-10-10-10h-50c-5.522 0-10 4.477-10 10 0 5.522 4.478 10 10 10h50c5.522 0 10-4.478 10-10z"/><path d="m70 286c-5.522 0-10 4.478-10 10s4.478 10 10 10h20c5.522 0 10-4.478 10-10s-4.478-10-10-10z"/><path d="m70 226h20c5.522 0 10-4.477 10-10s-4.478-10-10-10h-20c-5.522 0-10 4.477-10 10s4.478 10 10 10z"/><circle cx="439" cy="10" r="10"/></g></svg>