<svg id="Capa_1" enable-background="new 0 0 512.001 512.001" height="512" viewBox="0 0 512.001 512.001" width="512" xmlns="http://www.w3.org/2000/svg"><g><path d="m472.001 183.5c-18.604 0-34.283 12.768-38.734 30h-22.986c-4.128-11.639-15.243-20-28.28-20h-11.266c-4.452-17.232-20.13-30-38.734-30h-.658c-2.229-8.612-10.043-15-19.342-15h-116v-20h40c16.542 0 30-13.458 30-30s-13.458-30-30-30h-110c-11.028 0-20 8.972-20 20h-76c-16.542 0-30 14.238-30 31.739v.761c0 5.522 4.477 10 10 10s10-4.478 10-10v-.761c0-6.473 4.486-11.739 10-11.739h76c0 11.028 8.972 20 20 20h50v20h-116c-11.028 0-20 8.972-20 20v45h-10c-5.514 0-10-5.267-10-11.739v-.77c0-5.522-4.477-10-10-10s-10 4.478-10 10v.77c0 17.501 13.458 31.739 30 31.739h10v45c0 11.028 8.972 20 20 20h13.741l-33.015 119.682c-1.674 6.071-.446 12.426 3.369 17.436s9.615 7.883 15.912 7.883h54.253c8.967 0 16.895-6.037 19.28-14.682l22.158-80.323h24.771c8.969 0 16.897-6.038 19.28-14.684 3.243-11.767 6.492-23.539 9.74-35.311h102.513c9.299 0 17.113-6.388 19.342-15h.658c18.604 0 34.283-12.768 38.734-30h11.266c13.036 0 24.152-8.361 28.28-20h22.986c4.452 17.232 20.13 30 38.734 30 22.056 0 40-17.944 40-40s-17.946-40.001-40.002-40.001zm-346-95h110c5.514 0 10 4.486 10 10s-4.486 10-10 10h-110zm32.28 80c-4.128 11.639-15.243 20-28.28 20h-70v-20zm-44.021 255h-54.253l34.483-125h54.253zm66.208-95.004h-19.253l8.275-29.995h19.252c-2.759 9.999-5.519 20-8.274 29.995zm131.533-49.996h-252v-70h70c24.146 0 44.348-17.205 48.994-40h133.006l.013 109.999s-.004.001-.013.001zm40-35c0 11.028-8.972 20-20 20v-80c11.028 0 20 8.972 20 20zm30-10h-10v-20h10c5.514 0 10 4.486 10 10s-4.486 10-10 10zm90 10c-11.028 0-20-8.972-20-20s8.972-20 20-20 20 8.972 20 20-8.972 20-20 20z"/><path d="m272.001 188.5h-60c-11.028 0-20 8.972-20 20v30c0 11.028 8.972 20 20 20h60c11.028 0 20-8.972 20-20v-30c0-11.028-8.972-20-20-20zm0 50h-60v-30h60l.013 29.999s-.004.001-.013.001z"/><path d="m156.001 238.5h-60c-5.523 0-10 4.477-10 10s4.477 10 10 10h60c5.523 0 10-4.477 10-10s-4.477-10-10-10z"/><ellipse cx="10" cy="161" rx="10" ry="10" transform="matrix(.991 -.131 .131 .991 -21.069 2.71)"/></g></svg>