<svg id="Capa_1" enable-background="new 0 0 512 512" height="512" viewBox="0 0 512 512" width="512" xmlns="http://www.w3.org/2000/svg"><g><path d="m405.099 16.563h-67.049v-1.063c0-8.547-6.953-15.5-15.5-15.5h-133.098c-8.547 0-15.5 6.953-15.5 15.5v1.063h-67.051c-22.405 0-40.634 18.228-40.634 40.633v414.17c0 22.405 18.229 40.633 40.634 40.633h222.715c4.143 0 7.5-3.358 7.5-7.5s-3.357-7.5-7.5-7.5h-222.715c-14.135 0-25.634-11.499-25.634-25.633v-414.169c0-14.134 11.499-25.633 25.634-25.633h67.051v18.136h-50.485c-13.271 0-24.067 10.796-24.067 24.067v21.633c0 4.142 3.357 7.5 7.5 7.5s7.5-3.358 7.5-7.5v-21.633c0-5 4.067-9.067 9.066-9.067h51.53c2.965 9.585 11.91 16.569 22.456 16.569h58.539.01.01 58.539c10.546 0 19.491-6.984 22.456-16.569h51.527c4.999 0 9.066 4.067 9.066 9.067v381.035c0 4.999-4.067 9.066-9.066 9.066h-265.066c-4.999 0-9.066-4.067-9.066-9.066v-324.402c0-4.142-3.357-7.5-7.5-7.5s-7.5 3.358-7.5 7.5v324.401c0 13.271 10.796 24.066 24.066 24.066h265.065c13.271 0 24.066-10.796 24.066-24.066v-381.034c0-13.271-10.796-24.067-24.066-24.067h-50.482v-18.137h67.049c14.135 0 25.634 11.499 25.634 25.633v414.17c0 14.134-11.499 25.633-25.634 25.633h-40.482c-4.143 0-7.5 3.358-7.5 7.5s3.357 7.5 7.5 7.5h40.482c22.405 0 40.634-18.228 40.634-40.633v-414.169c-.001-22.405-18.229-40.634-40.634-40.634zm-82.049 41.206c0 4.687-3.814 8.5-8.5 8.5h-51.049v-9.066c0-4.142-3.357-7.5-7.5-7.5s-7.5 3.358-7.5 7.5v9.066h-51.049c-4.687 0-8.5-3.813-8.5-8.5v-42.269c0-.276.225-.5.5-.5h133.098c.275 0 .5.224.5.5z"/><path d="m296.633 330.833v-17.133c0-8.547-6.953-15.5-15.5-15.5h-66.833c-8.547 0-15.5 6.953-15.5 15.5v17.133c0 8.547 6.953 15.5 15.5 15.5h66.833c8.547 0 15.5-6.953 15.5-15.5zm-82.833 0v-17.133c0-.276.225-.5.5-.5h66.833c.275 0 .5.224.5.5v17.133c0 .276-.225.5-.5.5h-66.833c-.276 0-.5-.224-.5-.5z"/><path d="m379.467 313.7c0-8.547-6.953-15.5-15.5-15.5h-33.7c-8.547 0-15.5 6.953-15.5 15.5v17.133c0 8.547 6.953 15.5 15.5 15.5h33.7c8.547 0 15.5-6.953 15.5-15.5zm-15 17.133c0 .276-.225.5-.5.5h-33.7c-.275 0-.5-.224-.5-.5v-17.133c0-.276.225-.5.5-.5h33.7c.275 0 .5.224.5.5z"/><path d="m148.033 298.2c-8.547 0-15.5 6.953-15.5 15.5v17.133c0 8.547 6.953 15.5 15.5 15.5h17.134c8.547 0 15.5-6.953 15.5-15.5v-17.133c0-8.547-6.953-15.5-15.5-15.5zm17.634 15.5v17.133c0 .276-.225.5-.5.5h-17.134c-.275 0-.5-.224-.5-.5v-17.133c0-.276.225-.5.5-.5h17.134c.275 0 .5.224.5.5z"/><path d="m297.133 412.6h66.834c8.547 0 15.5-6.953 15.5-15.5v-17.133c0-8.547-6.953-15.5-15.5-15.5h-66.834c-8.547 0-15.5 6.953-15.5 15.5v17.133c0 8.547 6.953 15.5 15.5 15.5zm-.5-32.633c0-.276.225-.5.5-.5h66.834c.275 0 .5.224.5.5v17.133c0 .276-.225.5-.5.5h-66.834c-.275 0-.5-.224-.5-.5z"/><path d="m214.3 364.467c-8.547 0-15.5 6.953-15.5 15.5v17.133c0 8.547 6.953 15.5 15.5 15.5h33.7c8.547 0 15.5-6.953 15.5-15.5v-17.133c0-8.547-6.953-15.5-15.5-15.5zm34.2 15.5v17.133c0 .276-.225.5-.5.5h-33.7c-.275 0-.5-.224-.5-.5v-17.133c0-.276.225-.5.5-.5h33.7c.275 0 .5.224.5.5z"/><path d="m132.533 397.1c0 8.547 6.953 15.5 15.5 15.5h17.134c8.547 0 15.5-6.953 15.5-15.5v-17.133c0-8.547-6.953-15.5-15.5-15.5h-17.134c-8.547 0-15.5 6.953-15.5 15.5zm15-17.133c0-.276.225-.5.5-.5h17.134c.275 0 .5.224.5.5v17.133c0 .276-.225.5-.5.5h-17.134c-.275 0-.5-.224-.5-.5z"/><path d="m298.106 150.305c-5.752-6.435-15.705-7.034-22.185-1.338l-28.346 24.902-11.85-9.379c-.027-.022-.056-.044-.084-.066-6.549-5.034-15.69-4.234-21.267 1.864l-11.419 12.49c-2.922 3.196-4.379 7.335-4.104 11.657.276 4.321 2.249 8.242 5.55 11.037l35.625 30.198c.001.001.003.002.004.003 2.157 1.826 4.839 2.735 7.519 2.735 2.766 0 5.53-.969 7.715-2.9l52.589-46.491c3.17-2.803 5.052-6.673 5.299-10.897.248-4.224-1.168-8.288-3.988-11.444zm-.188 23.475-50.41 44.565-33.409-28.319c-.168-.143-.261-.327-.275-.547-.014-.221.055-.415.204-.579l11.419-12.489c.154-.17.365-.257.577-.257.159 0 .319.049.458.149l14.028 11.103c.027.021.055.043.082.064 4.398 3.382 10.614 3.178 14.78-.483l30.451-26.752c.322-.282.814-.252 1.1.067l11.059 12.371c.144.161.211.352.198.569-.013.215-.102.396-.262.538z"/><path d="m256.001 99.401c-49.81 0-90.333 40.523-90.333 90.333s40.523 90.333 90.333 90.333 90.334-40.523 90.334-90.333-40.524-90.333-90.334-90.333zm0 165.666c-41.539 0-75.333-33.794-75.333-75.333s33.794-75.333 75.333-75.333 75.334 33.794 75.334 75.333-33.795 75.333-75.334 75.333z"/></g></svg>