<svg id="Capa_1" enable-background="new 0 0 512.014 512.014" height="512" viewBox="0 0 512.014 512.014" width="512" xmlns="http://www.w3.org/2000/svg"><g><path d="m454.804 182.222h-9.066v-158.722c0-12.958-10.542-23.5-23.5-23.5h-332.461c-12.958 0-23.5 10.542-23.5 23.5v86.372c0 4.142 3.358 7.5 7.5 7.5s7.5-3.358 7.5-7.5v-28.606h349.461v316.328h-349.461v-252.506c0-4.142-3.358-7.5-7.5-7.5s-7.5 3.358-7.5 7.5v37.134h-9.067c-22.405 0-40.633 18.228-40.633 40.633v198.797c0 22.405 18.228 40.633 40.633 40.633h15.173c4.142 0 7.5-3.358 7.5-7.5s-3.358-7.5-7.5-7.5h-15.173c-14.134 0-25.633-11.499-25.633-25.633v-9.058h448.859v9.058c0 14.134-11.499 25.633-25.633 25.633h-24.85c-8.703 0-15.783 7.08-15.783 15.783v33.133c0 .251 0 .564-.536.743-.534.178-.723-.072-.874-.273l-32.305-43.072c-2.965-3.953-7.685-6.314-12.626-6.314h-259.99c-4.142 0-7.5 3.358-7.5 7.5s3.358 7.5 7.5 7.5h259.99c.245 0 .479.117.626.314l32.305 43.072c3.072 4.097 7.665 6.344 12.506 6.344 1.692 0 3.414-.274 5.112-.84 6.556-2.185 10.792-8.062 10.792-14.973v-33.133c0-.432.352-.783.783-.783h24.85c22.405 0 40.633-18.228 40.633-40.633v-198.798c.001-22.405-18.227-40.633-40.632-40.633zm-423.227 40.633c0-14.134 11.499-25.633 25.633-25.633h9.066v200.372h-34.699zm49.7-156.589v-42.766c0-4.687 3.813-8.5 8.5-8.5h332.461c4.687 0 8.5 3.813 8.5 8.5v42.766zm364.461 331.328v-200.372h9.066c14.134 0 25.633 11.499 25.633 25.633v174.739z"/><path d="m115.193 33.133h-8.283c-4.142 0-7.5 3.358-7.5 7.5s3.358 7.5 7.5 7.5h8.283c4.142 0 7.5-3.358 7.5-7.5s-3.358-7.5-7.5-7.5z"/><path d="m156.609 33.133h-8.283c-4.142 0-7.5 3.358-7.5 7.5s3.358 7.5 7.5 7.5h8.283c4.142 0 7.5-3.358 7.5-7.5s-3.358-7.5-7.5-7.5z"/><path d="m198.025 33.133h-8.283c-4.142 0-7.5 3.358-7.5 7.5s3.358 7.5 7.5 7.5h8.283c4.142 0 7.5-3.358 7.5-7.5s-3.358-7.5-7.5-7.5z"/><path d="m247.724 172.381h16.566c8.703 0 15.783-7.08 15.783-15.783v-41.416c0-8.703-7.08-15.783-15.783-15.783h-149.097c-8.703 0-15.783 7.08-15.783 15.783v41.416c0 8.703 7.08 15.783 15.783 15.783h16.566c8.703 0 15.783-7.08 15.783-15.783v-9.066h18.133v84.398h-9.066c-8.703 0-15.783 7.08-15.783 15.783v16.566c0 8.703 7.081 15.783 15.783 15.783h66.266c8.703 0 15.783-7.08 15.783-15.783v-16.566c0-8.703-7.081-15.783-15.783-15.783h-9.066v-84.398h18.133v9.066c-.001 8.703 7.079 15.783 15.782 15.783zm-37.274-39.85c-6.42 0-11.642 5.222-11.642 11.642v91.115c0 6.419 5.222 11.642 11.642 11.642h12.425c.432 0 .783.352.783.783v16.566c0 .432-.352.783-.783.783h-66.266c-.432 0-.783-.352-.783-.783v-16.566c0-.432.352-.783.783-.783h12.425c6.419 0 11.642-5.222 11.642-11.642v-91.115c0-6.419-5.222-11.642-11.642-11.642h-24.85c-6.419 0-11.642 5.222-11.642 11.642v12.425c0 .432-.352.783-.783.783h-16.566c-.432 0-.783-.352-.783-.783v-41.416c0-.432.352-.783.783-.783h149.097c.432 0 .783.352.783.783v41.416c0 .432-.352.783-.783.783h-16.566c-.432 0-.783-.352-.783-.783v-12.425c0-6.419-5.222-11.642-11.642-11.642z"/><path d="m311.706 147.531h87.398c7.444 0 13.5-6.056 13.5-13.5v-21.133c0-7.444-6.056-13.5-13.5-13.5h-87.398c-7.444 0-13.5 6.056-13.5 13.5v21.133c0 7.444 6.057 13.5 13.5 13.5zm1.5-33.133h84.398v18.133h-84.398z"/><path d="m305.706 180.664h99.398c4.142 0 7.5-3.358 7.5-7.5s-3.358-7.5-7.5-7.5h-99.398c-4.142 0-7.5 3.358-7.5 7.5s3.358 7.5 7.5 7.5z"/><path d="m305.706 213.797h99.398c4.142 0 7.5-3.358 7.5-7.5s-3.358-7.5-7.5-7.5h-99.398c-4.142 0-7.5 3.358-7.5 7.5s3.358 7.5 7.5 7.5z"/><path d="m305.706 246.93h99.398c4.142 0 7.5-3.358 7.5-7.5s-3.358-7.5-7.5-7.5h-99.398c-4.142 0-7.5 3.358-7.5 7.5s3.358 7.5 7.5 7.5z"/><path d="m305.706 280.062h33.133c4.142 0 7.5-3.358 7.5-7.5s-3.358-7.5-7.5-7.5h-33.133c-4.142 0-7.5 3.358-7.5 7.5s3.358 7.5 7.5 7.5z"/><path d="m99.409 363.678c0 8.703 7.081 15.783 15.783 15.783h281.629c8.703 0 15.783-7.081 15.783-15.783v-33.133c0-8.703-7.081-15.783-15.783-15.783h-281.628c-8.703 0-15.783 7.081-15.783 15.783v33.133zm15-33.133c0-.432.352-.783.783-.783h281.629c.432 0 .783.352.783.783v33.133c0 .432-.352.783-.783.783h-281.628c-.432 0-.783-.352-.783-.783v-33.133z"/></g></svg>