<svg id="Capa_1" enable-background="new 0 0 512.002 512.002" height="512" viewBox="0 0 512.002 512.002" width="512" xmlns="http://www.w3.org/2000/svg"><g><path d="m453.072 102.97c-3.905-3.904-10.237-3.905-14.142.001-3.905 3.905-3.905 10.236.001 14.142 3.779 3.779 5.861 8.801 5.861 14.139s-2.082 10.359-5.861 14.139c-3.905 3.905-3.906 10.236-.001 14.142 1.953 1.953 4.512 2.93 7.071 2.93s5.118-.977 7.071-2.929c7.557-7.557 11.719-17.601 11.719-28.281 0-10.682-4.162-20.726-11.719-28.283z"/><path d="m481.362 74.68c-3.905-3.904-10.237-3.904-14.143 0-3.905 3.905-3.905 10.237 0 14.143 11.331 11.331 17.571 26.398 17.571 42.429s-6.24 31.098-17.571 42.429c-3.905 3.905-3.905 10.237 0 14.143 1.953 1.952 4.512 2.929 7.071 2.929s5.119-.977 7.071-2.929c15.108-15.108 23.429-35.199 23.429-56.571s-8.32-41.464-23.428-56.573z"/><path d="m73.072 102.971c-3.904-3.905-10.236-3.905-14.142-.001-7.557 7.557-11.719 17.601-11.719 28.281 0 10.681 4.162 20.725 11.719 28.281 1.953 1.952 4.512 2.929 7.071 2.929s5.119-.977 7.071-2.93c3.905-3.905 3.905-10.236-.001-14.142-3.779-3.779-5.861-8.801-5.861-14.139s2.081-10.359 5.861-14.139c3.906-3.903 3.906-10.234.001-14.14z"/><path d="m27.211 131.251c0-16.03 6.24-31.098 17.571-42.429 3.905-3.905 3.905-10.237 0-14.143-3.905-3.904-10.237-3.904-14.143 0-15.108 15.11-23.428 35.2-23.428 56.572s8.32 41.463 23.429 56.571c1.953 1.952 4.512 2.929 7.071 2.929s5.119-.977 7.071-2.929c3.905-3.905 3.905-10.237 0-14.143-11.331-11.33-17.571-26.397-17.571-42.428z"/><path d="m396.001.002h-100c-5.523 0-10 4.477-10 10s4.477 10 10 10h100v30h-280v-30h100c5.523 0 10-4.477 10-10s-4.477-10-10-10h-100c-11.028 0-20 8.972-20 20v432c0 11.028 8.972 20 20 20v20c0 11.028 8.972 20 20 20h240c11.028 0 20-8.972 20-20v-20c11.028 0 20-8.972 20-20v-432c0-11.029-8.972-20-20-20zm0 70v122.5h-280v-122.5zm-20 421.999h-240v-20h240zm-260-40v-239.5h280v239.5z"/><path d="m351 151.251c5.523 0 10-4.477 10-10v-20c0-5.523-4.477-10-10-10s-10 4.477-10 10v20c0 5.523 4.477 10 10 10z"/><path d="m303.5 172.501c5.523 0 10-4.477 10-10v-62.5c0-5.523-4.477-10-10-10s-10 4.477-10 10v62.5c0 5.523 4.477 10 10 10z"/><path d="m256 151.251c5.523 0 10-4.477 10-10v-20c0-5.523-4.477-10-10-10s-10 4.477-10 10v20c0 5.523 4.477 10 10 10z"/><path d="m208.5 172.501c5.523 0 10-4.477 10-10v-62.5c0-5.523-4.477-10-10-10s-10 4.477-10 10v62.5c0 5.523 4.477 10 10 10z"/><path d="m161 151.251c5.523 0 10-4.477 10-10v-20c0-5.523-4.477-10-10-10s-10 4.477-10 10v20c0 5.523 4.477 10 10 10z"/><path d="m256.001 292.501c16.542 0 30-13.458 30-30s-13.458-30-30-30-30 13.458-30 30 13.458 30 30 30zm0-40c5.514 0 10 4.486 10 10s-4.486 10-10 10-10-4.486-10-10 4.486-10 10-10z"/><path d="m256.001 312.501c-32.946 0-59.75 26.804-59.75 59.75s26.804 59.75 59.75 59.75 59.75-26.804 59.75-59.75-26.804-59.75-59.75-59.75zm0 99.5c-21.919 0-39.75-17.832-39.75-39.75s17.831-39.75 39.75-39.75c7.338 0 14.213 2.007 20.119 5.488l-9.513 9.513c-3.905 3.905-3.905 10.237 0 14.143 1.953 1.952 4.512 2.929 7.071 2.929s5.119-.977 7.071-2.929l9.513-9.513c3.482 5.906 5.488 12.781 5.488 20.119.001 21.918-17.831 39.75-39.749 39.75z"/><path d="m206.001 262.501c0-16.542-13.458-30-30-30s-30 13.458-30 30 13.458 30 30 30 30-13.458 30-30zm-30 10c-5.514 0-10-4.486-10-10s4.486-10 10-10 10 4.486 10 10-4.486 10-10 10z"/><path d="m336.001 232.501c-16.542 0-30 13.458-30 30s13.458 30 30 30 30-13.458 30-30-13.458-30-30-30zm0 40c-5.514 0-10-4.486-10-10s4.486-10 10-10 10 4.486 10 10-4.486 10-10 10z"/><circle cx="256.001" cy="10" r="10"/></g></svg>