<svg id="Capa_1" enable-background="new 0 0 512 512" height="512" viewBox="0 0 512 512" width="512" xmlns="http://www.w3.org/2000/svg"><g><path d="m492 240.001h-104.584c9.23-10.433 14.849-24.13 14.849-39.122 0-17.942-8.002-34.7-21.955-45.979l-87.527-70.753c-43.193-34.917-97.569-54.146-153.11-54.146h-13.604c-5.523 0-10 4.477-10 10s4.477 10 10 10h13.604c4.951 0 9.892.171 14.815.501 4.744 68.166 61.71 122.178 131.062 122.178h84.693c7.672 7.354 12.023 17.45 12.023 28.198 0 21.572-17.55 39.122-39.122 39.122h-149.059c-26.66-25.467-62.738-40-99.669-40h-74.416v-150h26.069c5.523 0 10-4.478 10-10s-4.477-10-10-10h-26.069c-11.028 0-20 8.972-20 20v240c0 11.028 8.972 20 20 20h30v40c0 11.028 8.972 20 20 20v92c0 11.028 8.972 20 20 20h60c11.028 0 20-8.972 20-20v-92c11.028 0 20-8.972 20-20v-40h132v40c0 11.028 8.972 20 20 20v92c0 11.028 8.972 20 20 20h60c11.028 0 20-8.972 20-20v-92c11.028 0 20-8.972 20-20v-40h30c11.028 0 20-8.972 20-20v-30c0-11.028-8.972-19.999-20-19.999zm-317.248-187.197c38.433 6.142 74.98 22.258 105.459 46.896l65.54 52.98h-60.201c-57.534 0-105.018-43.844-110.798-99.876zm-80.336 167.197c23.971 0 47.522 7.111 67.502 20h-141.918v-20zm55.584 242h-60v-92h60zm20-112h-100v-40h100zm252 112h-60v-92h60zm20-112h-100v-40h100zm50-60h-472v-30c101.463.01 374.561-.035 472 0z"/><path d="m47.08 97.321v55.359c0 11.028 8.972 20 20 20h30c11.028 0 20-8.972 20-20v-55.359c0-11.028-8.972-20-20-20h-30c-11.028 0-20 8.972-20 20zm20 0h30l.013 55.358s-.004.001-.013.001h-30z"/><circle cx="86.08" cy="39.999" r="10"/></g></svg>