<svg id="Capa_1" enable-background="new 0 0 512 512" height="512" viewBox="0 0 512 512" width="512" xmlns="http://www.w3.org/2000/svg"><g><path d="m246.933 140.033c0-58.945-47.955-106.9-106.9-106.9s-106.9 47.955-106.9 106.9 47.955 106.9 106.9 106.9 106.9-47.955 106.9-106.9zm-132.533 88.258v-21.991c0-4.142-3.358-7.5-7.5-7.5s-7.5 3.358-7.5 7.5v16.146c-6.517-3.226-12.6-7.201-18.133-11.815v-20.898c0-14.134 11.499-25.633 25.633-25.633h66.267c14.134 0 25.633 11.499 25.633 25.633v20.898c-5.533 4.614-11.616 8.589-18.133 11.815v-16.146c0-4.142-3.358-7.5-7.5-7.5s-7.5 3.358-7.5 7.5v21.991c-8.14 2.368-16.74 3.642-25.633 3.642s-17.495-1.274-25.634-3.642zm25.633-79.191c-18.702 0-33.916-15.215-33.916-33.917s15.215-33.916 33.916-33.916 33.917 15.215 33.917 33.916-15.215 33.917-33.917 33.917zm-91.9-9.067c0-50.674 41.226-91.9 91.9-91.9s91.9 41.226 91.9 91.9c0 20.496-6.747 39.446-18.133 54.748v-5.048c0-21.729-17.144-39.527-38.616-40.582 8.513-8.806 13.766-20.782 13.766-33.968 0-26.973-21.944-48.916-48.917-48.916s-48.916 21.944-48.916 48.916c0 13.186 5.254 25.162 13.766 33.968-21.472 1.055-38.617 18.853-38.617 40.582v5.048c-11.386-15.302-18.133-34.251-18.133-54.748z"/><path d="m371.967 478.867c58.945 0 106.9-47.955 106.9-106.9s-47.955-106.9-106.9-106.9-106.9 47.955-106.9 106.9 47.955 106.9 106.9 106.9zm-25.634-18.643v-21.991c0-4.142-3.358-7.5-7.5-7.5s-7.5 3.358-7.5 7.5v16.146c-6.517-3.226-12.6-7.201-18.133-11.815v-20.898c0-14.134 11.499-25.633 25.633-25.633h66.267c14.134 0 25.633 11.499 25.633 25.633v20.898c-5.534 4.614-11.616 8.589-18.133 11.815v-16.146c0-4.142-3.358-7.5-7.5-7.5s-7.5 3.358-7.5 7.5v21.991c-8.14 2.368-16.74 3.642-25.633 3.642s-17.494-1.274-25.634-3.642zm25.634-79.191c-18.702 0-33.917-15.215-33.917-33.917s15.215-33.917 33.917-33.917 33.916 15.215 33.916 33.917-15.215 33.917-33.916 33.917zm0-100.966c50.674 0 91.9 41.226 91.9 91.9 0 20.496-6.747 39.446-18.133 54.748v-5.048c0-21.729-17.145-39.527-38.616-40.582 8.513-8.806 13.766-20.782 13.766-33.968 0-26.973-21.944-48.917-48.916-48.917-26.973 0-48.917 21.944-48.917 48.917 0 13.186 5.254 25.162 13.766 33.968-21.472 1.055-38.616 18.853-38.616 40.582v5.048c-11.387-15.302-18.133-34.251-18.133-54.748-.001-50.674 41.225-91.9 91.899-91.9z"/><path d="m453.95 258.513v-135.047c0-8.703-7.08-15.783-15.783-15.783h-61.461v-9.066c0-4.438-2.466-8.428-6.436-10.413s-8.64-1.563-12.19 1.1l-55.223 41.417c-2.959 2.22-4.656 5.614-4.656 9.313s1.697 7.093 4.656 9.313l55.222 41.416c3.551 2.663 8.221 3.085 12.191 1.1s6.436-5.975 6.436-10.413v-9.067h12.544v60.617c-5.665-.701-11.432-1.067-17.283-1.067-24.33 0-48.296 6.338-69.309 18.329-3.598 2.053-4.85 6.634-2.797 10.231s6.634 4.849 10.231 2.797c18.751-10.701 40.147-16.357 61.874-16.357 68.943 0 125.033 56.09 125.033 125.034.001 68.943-56.089 125.033-125.032 125.033-68.944 0-125.034-56.09-125.034-125.033 0-33.423 13.023-64.839 36.669-88.46 2.931-2.927 2.933-7.676.006-10.606-2.928-2.93-7.677-2.933-10.606-.006-26.484 26.455-41.069 61.64-41.069 99.072 0 77.214 62.819 140.033 140.034 140.033 77.214 0 140.033-62.819 140.033-140.033 0-46.622-22.907-87.987-58.05-113.454zm-61.342-101.13h-19.261c-6.42 0-11.642 5.222-11.642 11.642v5.708l-46.267-34.7 46.267-34.7v5.707c0 6.419 5.222 11.642 11.642 11.642h64.819c.432 0 .783.352.783.783v125.555c-10.789-5.902-22.435-10.421-34.7-13.326v-66.671c0-6.418-5.222-11.64-11.641-11.64z"/><path d="m209.077 362.653-55.222-41.417c-3.55-2.663-8.223-3.083-12.191-1.099-3.97 1.984-6.436 5.974-6.436 10.412v9.067h-12.544v-60.624c5.686.706 11.475 1.074 17.35 1.074 77.215 0 140.034-62.819 140.034-140.034-.001-77.213-62.82-140.032-140.035-140.032-77.214 0-140.033 62.819-140.033 140.033 0 46.592 22.878 87.934 57.983 113.404v27.706c0 4.142 3.358 7.5 7.5 7.5s7.5-3.358 7.5-7.5v-18.203c10.788 5.909 22.435 10.435 34.7 13.347v66.687c0 6.419 5.223 11.642 11.642 11.642h19.26c6.419 0 11.642-5.222 11.642-11.642v-5.708l46.267 34.7-46.267 34.7v-5.708c0-6.419-5.222-11.642-11.642-11.642h-64.818c-.432 0-.783-.352-.783-.783v-72.39c0-4.142-3.358-7.5-7.5-7.5s-7.5 3.358-7.5 7.5v72.39c0 8.703 7.081 15.783 15.783 15.783h61.461v9.066c0 4.438 2.466 8.428 6.436 10.413 1.661.831 3.445 1.24 5.218 1.24 2.464 0 4.908-.791 6.973-2.339l55.222-41.417c2.959-2.22 4.657-5.614 4.657-9.314s-1.698-7.092-4.657-9.312zm-194.077-222.62c0-68.943 56.09-125.033 125.033-125.033 68.944 0 125.034 56.09 125.034 125.033 0 68.944-56.09 125.034-125.034 125.034-68.943 0-125.033-56.09-125.033-125.034z"/></g></svg>