<svg id="Capa_1" enable-background="new 0 0 512 512" height="512" viewBox="0 0 512 512" width="512" xmlns="http://www.w3.org/2000/svg"><g><path d="m297.417 180.667h52.863c.299 0 .567.166.701.433l15.151 30.303c2.69 5.382 8.101 8.725 14.117 8.725s11.427-3.343 14.117-8.725l15.151-30.303c.134-.267.402-.433.701-.433h52.863c13.27 0 24.067-10.796 24.067-24.067v-132.533c.002-13.271-10.795-24.067-24.065-24.067h-165.666c-13.271 0-24.067 10.796-24.067 24.067v132.533c0 13.271 10.796 24.067 24.067 24.067zm-9.067-156.6c0-5 4.067-9.067 9.067-9.067h165.666c5 0 9.067 4.067 9.067 9.067v132.533c0 4.999-4.067 9.067-9.067 9.067h-52.863c-6.017 0-11.426 3.343-14.117 8.725l-15.151 30.303c-.07.141-.217.433-.701.433s-.631-.292-.701-.433l-15.151-30.304c-2.691-5.381-8.101-8.724-14.117-8.724h-52.863c-5 0-9.067-4.067-9.067-9.067v-132.533z"/><path d="m328.652 102.07 35.624 30.198c.001.001.002.002.003.002 2.158 1.827 4.84 2.738 7.522 2.738 2.765 0 5.529-.969 7.713-2.901l52.591-46.493c3.169-2.804 5.051-6.674 5.298-10.898.248-4.224-1.169-8.287-3.988-11.442l-11.059-12.371c-5.749-6.433-15.703-7.035-22.186-1.338l-28.346 24.902-11.85-9.379c-.027-.022-.056-.044-.084-.065-6.551-5.035-15.693-4.233-21.266 1.864l-11.42 12.49c-2.922 3.196-4.379 7.335-4.103 11.657.277 4.321 2.25 8.242 5.551 11.036zm9.623-12.572 11.421-12.491c.154-.169.364-.256.576-.256.158 0 .318.049.457.148l14.029 11.104c.027.022.056.044.084.065 4.397 3.38 10.611 3.176 14.777-.485l30.45-26.75c.322-.284.816-.253 1.102.066l11.059 12.371c.143.161.21.352.197.568s-.101.398-.261.539l-50.411 44.565-33.408-28.32c-.169-.143-.262-.327-.276-.548-.013-.218.055-.412.204-.576z"/><path d="m140.033 147.525c4.427 0 8.854-1.685 12.224-5.055l37.669-37.669c7.896-7.896 12.414-18.897 12.396-30.182-.019-11.198-4.316-21.625-12.1-29.359-13.455-13.367-33.884-15.985-50.189-6.604-16.306-9.38-36.734-6.763-50.188 6.604-7.785 7.734-12.082 18.161-12.1 29.359-.019 11.284 4.5 22.285 12.396 30.182l37.669 37.669c3.37 3.37 7.796 5.055 12.223 5.055zm-47.289-72.881c.012-7.182 2.737-13.838 7.673-18.743 5.18-5.147 11.971-7.807 18.834-7.807 4.872 0 9.781 1.342 14.172 4.086 4.077 2.547 9.143 2.547 13.22-.001 10.575-6.609 24.149-5.079 33.006 3.722 4.936 4.904 7.661 11.56 7.672 18.743.012 7.327-2.905 14.453-8.003 19.551l-37.669 37.669c-.892.891-2.343.892-3.234 0l-37.668-37.669c-5.098-5.098-8.015-12.224-8.003-19.551z"/><path d="m57.2 180.667h52.864c.299 0 .567.165.701.433l15.152 30.303c2.691 5.382 8.1 8.725 14.117 8.725s11.426-3.343 14.117-8.725l15.151-30.303c.134-.267.402-.433.701-.433h52.864c13.27 0 24.066-10.796 24.066-24.067v-132.533c0-13.271-10.796-24.067-24.066-24.067h-165.667c-13.27 0-24.067 10.796-24.067 24.067v16.566c0 4.142 3.358 7.5 7.5 7.5s7.5-3.358 7.5-7.5v-16.566c0-5 4.067-9.067 9.067-9.067h165.667c4.999 0 9.066 4.067 9.066 9.067v132.533c0 4.999-4.067 9.067-9.066 9.067h-52.864c-6.017 0-11.426 3.343-14.117 8.725l-15.151 30.303c-.07.141-.217.433-.701.433s-.63-.292-.701-.433l-15.151-30.303c-2.691-5.382-8.1-8.725-14.117-8.725h-52.865c-5 0-9.067-4.067-9.067-9.067v-80.967c0-4.142-3.358-7.5-7.5-7.5s-7.5 3.358-7.5 7.5v80.967c0 13.271 10.797 24.067 24.067 24.067z"/><path d="m140.033 265.067c-58.945 0-106.9 47.955-106.9 106.9s47.955 106.9 106.9 106.9 106.9-47.955 106.9-106.9-47.955-106.9-106.9-106.9zm-25.633 195.157v-21.991c0-4.142-3.358-7.5-7.5-7.5s-7.5 3.358-7.5 7.5v16.146c-6.517-3.226-12.6-7.201-18.133-11.815v-20.898c0-14.134 11.499-25.633 25.633-25.633h66.267c14.134 0 25.633 11.499 25.633 25.633v20.898c-5.533 4.614-11.616 8.589-18.133 11.815v-16.146c0-4.142-3.358-7.5-7.5-7.5s-7.5 3.358-7.5 7.5v21.991c-8.14 2.368-16.74 3.642-25.633 3.642-8.894.001-17.495-1.274-25.634-3.642zm25.633-79.191c-18.702 0-33.916-15.215-33.916-33.917s15.215-33.917 33.916-33.917 33.917 15.215 33.917 33.917-15.215 33.917-33.917 33.917zm73.767 45.682v-5.048c0-21.729-17.144-39.527-38.616-40.582 8.513-8.806 13.766-20.782 13.766-33.968 0-26.973-21.944-48.917-48.917-48.917s-48.916 21.944-48.916 48.917c0 13.186 5.254 25.162 13.766 33.968-21.472 1.055-38.616 18.853-38.616 40.582v5.048c-11.386-15.302-18.133-34.251-18.133-54.748 0-50.674 41.226-91.9 91.9-91.9s91.9 41.226 91.9 91.9c-.001 20.496-6.748 39.445-18.134 54.748z"/><path d="m371.967 231.933c-27.099 0-53.394 7.755-76.041 22.426-3.476 2.252-4.469 6.895-2.217 10.372 2.252 3.476 6.894 4.469 10.373 2.217 20.212-13.094 43.687-20.015 67.885-20.015 68.943 0 125.033 56.09 125.033 125.034 0 68.943-56.09 125.033-125.033 125.033-44.093 0-84.884-23.277-107.417-61.009 3.632-7.035 6.685-14.415 9.096-22.077 16.34 38.153 54.258 64.952 98.321 64.952 58.945 0 106.9-47.955 106.9-106.9s-47.955-106.9-106.9-106.9c-44.063 0-81.981 26.799-98.321 64.952-2.41-7.661-5.463-15.041-9.094-22.075 4.135-6.922 8.945-13.46 14.344-19.473 2.767-3.082 2.512-7.824-.57-10.591-3.084-2.768-7.825-2.512-10.592.571-4.26 4.745-8.19 9.786-11.765 15.06-25.209-37.133-67.771-61.578-115.936-61.578-77.214.001-140.033 62.82-140.033 140.035 0 77.214 62.819 140.033 140.033 140.033 48.168 0 90.732-24.448 115.941-61.585 25.916 38.265 69.296 61.585 115.993 61.585 77.215 0 140.033-62.819 140.033-140.033 0-77.215-62.818-140.034-140.033-140.034zm-25.634 228.291v-21.991c0-4.142-3.357-7.5-7.5-7.5s-7.5 3.358-7.5 7.5v16.146c-6.517-3.226-12.6-7.201-18.133-11.815v-20.898c0-14.134 11.499-25.633 25.633-25.633h66.267c14.135 0 25.634 11.499 25.634 25.633v20.898c-5.534 4.614-11.616 8.589-18.134 11.815v-16.146c0-4.142-3.357-7.5-7.5-7.5s-7.5 3.358-7.5 7.5v21.991c-8.139 2.368-16.74 3.642-25.633 3.642-8.894.001-17.494-1.274-25.634-3.642zm25.634-79.191c-18.702 0-33.917-15.215-33.917-33.917s15.215-33.917 33.917-33.917c18.701 0 33.916 15.215 33.916 33.917s-15.215 33.917-33.916 33.917zm0-100.966c50.674 0 91.9 41.226 91.9 91.9 0 20.497-6.747 39.446-18.134 54.748v-5.049c0-21.729-17.145-39.527-38.617-40.582 8.513-8.806 13.766-20.782 13.766-33.968 0-26.973-21.943-48.917-48.916-48.917s-48.917 21.944-48.917 48.917c0 13.186 5.254 25.162 13.767 33.968-21.472 1.055-38.616 18.853-38.616 40.582v5.049c-11.387-15.302-18.134-34.252-18.134-54.748 0-50.674 41.227-91.9 91.901-91.9zm-231.934 216.933c-68.943 0-125.033-56.09-125.033-125.033 0-68.944 56.09-125.034 125.033-125.034s125.033 56.09 125.033 125.034c0 68.943-56.089 125.033-125.033 125.033z"/></g></svg>