<svg id="Capa_1" enable-background="new 0 0 512.002 512.002" height="512" viewBox="0 0 512.002 512.002" width="512" xmlns="http://www.w3.org/2000/svg"><g><path d="m452.001 442.001c-5.523 0-10 4.478-10 10v20c0 5.522 4.477 10 10 10 5.522 0 10-4.478 10-10v-20c0-5.522-4.478-10-10-10z"/><path d="m412.001 472.001c-5.523 0-10 4.478-10 10v20c0 5.522 4.477 10 10 10 5.522 0 10-4.478 10-10v-20c0-5.522-4.478-10-10-10z"/><path d="m372.001 442.001c-5.523 0-10 4.478-10 10v20c0 5.522 4.477 10 10 10 5.522 0 10-4.478 10-10v-20c0-5.522-4.478-10-10-10z"/><path d="m140.001 442.001c-5.522 0-10 4.478-10 10v20c0 5.522 4.478 10 10 10 5.523 0 10-4.478 10-10v-20c0-5.522-4.478-10-10-10z"/><path d="m100.001 472.001c-5.522 0-10 4.478-10 10v20c0 5.522 4.478 10 10 10s10-4.478 10-10v-20c0-5.522-4.478-10-10-10z"/><path d="m60.001 442.001c-5.523 0-10 4.478-10 10v20c0 5.522 4.477 10 10 10 5.522 0 10-4.478 10-10v-20c0-5.522-4.478-10-10-10z"/><path d="m492.001 287.113v-70c0-30.685-17.375-57.375-42.794-70.79l13.904-13.904h20.858c5.522 0 10-4.478 10-10s-4.478-10-10-10h-20.859c-5.342 0-10.364 2.08-14.142 5.857l-12.91 12.91-32.878-103.315c-5.302-16.669-20.621-27.869-38.12-27.869h-69.049c-5.522 0-10 4.477-10 10s4.478 10 10 10h69.049c8.751 0 16.411 5.599 19.061 13.933l1.931 6.067h-260.103l1.931-6.068c2.65-8.333 10.311-13.932 19.062-13.932h69.07c5.523 0 10-4.477 10-10s-4.477-10-10-10h-69.07c-17.499 0-32.818 11.2-38.12 27.868l-32.879 103.316-12.91-12.91c-3.777-3.777-8.8-5.857-14.142-5.857h-20.858c-5.522 0-10 4.478-10 10s4.478 10 10 10h20.857l13.905 13.905c-25.42 13.414-42.794 40.104-42.794 70.789v70c-11.028 0-20 8.972-20 20v20c0 11.028 8.972 20 20 20h30v19.999c0 9.462 6.612 17.392 15.454 19.459-.3 1.832-.454 3.686-.454 5.541 0 6.066 1.632 12.1 4.72 17.45l21.62 37.44c1.787 3.094 5.088 4.999 8.66 4.999s6.873-1.905 8.66-4.999l21.622-37.444c4.096-7.1 5.463-15.215 4.225-22.978 8.862-2.052 15.493-9.992 15.493-19.469v-19.999h212v19.999c0 9.462 6.612 17.392 15.454 19.459-.3 1.832-.454 3.686-.454 5.541 0 6.066 1.632 12.1 4.72 17.45l21.62 37.44c1.787 3.094 5.088 4.999 8.66 4.999s6.873-1.905 8.66-4.999l21.622-37.444c4.096-7.1 5.463-15.215 4.225-22.978 8.862-2.052 15.493-9.992 15.493-19.469v-19.999h30c11.028 0 20-8.972 20-20v-20c0-11.026-8.972-19.998-20-19.998zm-372.417-227.112h272.833l24.594 77.284c-1.659-.103-3.326-.173-5.01-.173h-312c-1.684 0-3.352.07-5.01.173zm-79.583 157.112c0-33.084 26.916-60 60-60h312c33.084 0 60 26.916 60 60v70h-112.065v-30c0-16.542-13.458-30-30-30h-147.871c-16.542 0-30 13.458-30 30v30h-112.064zm132.064 70v-30c0-5.514 4.486-10 10-10h16.968v40zm46.968-40h26.968v40h-26.968zm46.968 0h26.968v40h-26.968zm46.968 0h16.968c5.514 0 10 4.486 10 10v30h-26.968zm-200.008 152.447-12.96 22.444-12.96-22.442c-1.354-2.346-2.04-4.853-2.04-7.45 0-1.693.312-3.387.89-5h28.22c1.285 3.582 1.402 8.024-1.15 12.448zm17.04-32.448h-60v-19.999h60zm294.96 32.448-12.96 22.444-12.96-22.442c-1.353-2.346-2.04-4.853-2.04-7.45 0-1.693.312-3.387.89-5h28.22c1.285 3.582 1.402 8.024-1.15 12.448zm17.04-32.448h-60v-19.999h60zm50-39.999h-472v-20h472l.013 19.999c-.001 0-.004.001-.013.001z"/><path d="m412.001 257.708c22.056 0 40-17.944 40-40s-17.944-40-40-40-40 17.944-40 40c0 22.055 17.944 40 40 40zm0-60c11.028 0 20 8.972 20 20s-8.972 20-20 20-20-8.972-20-20c0-11.029 8.971-20 20-20z"/><path d="m100.001 177.708c-22.056 0-40 17.944-40 40s17.944 40 40 40 40-17.944 40-40-17.945-40-40-40zm0 60c-11.028 0-20-8.972-20-20s8.972-20 20-20 20 8.972 20 20-8.972 20-20 20z"/><circle cx="256" cy="10" r="10"/></g></svg>