<svg id="Capa_1" enable-background="new 0 0 512 512" height="512" viewBox="0 0 512 512" width="512" xmlns="http://www.w3.org/2000/svg"><g><path d="m429.167 98.617c0-36.108-29.376-65.483-65.483-65.483s-65.484 29.375-65.484 65.483 29.376 65.483 65.483 65.483 65.484-29.375 65.484-65.483zm-115.967 0c0-27.836 22.647-50.483 50.483-50.483 27.837 0 50.483 22.647 50.483 50.483s-22.645 50.483-50.482 50.483-50.484-22.647-50.484-50.483z"/><path d="m496.217 463.867h-50.483v-225.737l1.754 1.754c4.692 4.692 10.855 7.038 17.018 7.038s12.326-2.346 17.018-7.038l23.428-23.429c9.383-9.383 9.383-24.652 0-34.035l-19.998-19.998c-2.981-2.981-6.944-4.623-11.16-4.623-4.217 0-8.181 1.642-11.161 4.623l-.554.553-13.773-13.773c8.881-14.8 13.995-32.106 13.995-50.586-.001-54.377-44.241-98.616-98.617-98.616-54.378 0-98.617 44.239-98.617 98.617 0 41.826 26.176 77.649 63.005 91.96l-29.26 58.519c-2.412.414-4.755 1.031-7.002 1.851l-44.923-29.948c-.98-21.542-18.807-38.766-40.586-38.766s-39.606 17.225-40.585 38.766l-44.922 29.948c-4.336-1.582-9.015-2.448-13.892-2.448-22.405 0-40.634 18.228-40.634 40.633s18.229 40.633 40.634 40.633c21.779 0 39.606-17.225 40.585-38.766l44.922-29.948c4.336 1.582 9.015 2.448 13.892 2.448s9.556-.865 13.893-2.448l44.92 29.949c.979 21.542 18.807 38.767 40.586 38.767 22.405 0 40.634-18.228 40.634-40.633 0-6.662-1.622-12.949-4.476-18.503l22.609-45.217v238.453h-18.134v-100.467c0-8.547-6.953-15.5-15.5-15.5h-50.267c-8.547 0-15.5 6.953-15.5 15.5v100.467h-18.133v-166.734c0-8.547-6.953-15.5-15.5-15.5h-50.267c-8.547 0-15.5 6.953-15.5 15.5v9.033c0 4.142 3.357 7.5 7.5 7.5s7.5-3.358 7.5-7.5v-9.033c0-.276.225-.5.5-.5h50.267c.275 0 .5.224.5.5v166.733h-51.267v-122.7c0-4.142-3.357-7.5-7.5-7.5s-7.5 3.358-7.5 7.5v122.7h-18.134v-100.466c0-8.547-6.953-15.5-15.5-15.5h-50.265c-8.547 0-15.5 6.953-15.5 15.5v100.467h-17.35c-.433 0-.784-.352-.784-.783v-447.3c0-8.703-7.08-15.784-15.783-15.784h-16.567c-8.703 0-15.783 7.081-15.783 15.783v472.15c0 13.271 10.796 24.067 24.066 24.067h396.667c4.143 0 7.5-3.358 7.5-7.5s-3.357-7.5-7.5-7.5h-396.667c-4.999 0-9.066-4.067-9.066-9.067v-472.15c0-.431.352-.783.783-.783h16.567c.432 0 .783.352.783.783v447.3c0 8.703 7.081 15.783 15.784 15.783h447.3c.432 0 .783.352.783.783v16.567c0 .432-.352.783-.783.783h-40.483c-4.143 0-7.5 3.358-7.5 7.5s3.357 7.5 7.5 7.5h40.483c8.703 0 15.783-7.081 15.783-15.783v-16.566c0-8.703-7.08-15.783-15.783-15.783zm-414.95 0v-100.467c0-.276.225-.5.5-.5h50.267c.275 0 .5.224.5.5v100.467zm392.526-291.067c.215 0 .402.078.554.229l19.997 19.998c3.535 3.535 3.535 9.287 0 12.822l-23.428 23.429c-3.536 3.536-9.287 3.535-12.821 0l-19.998-19.997c-.306-.306-.306-.803 0-1.108l35.143-35.144c.152-.152.337-.229.553-.229zm-22.322.783-12.821 12.821-11.973-11.973c4.655-3.874 8.948-8.167 12.822-12.822zm-171.405-74.966c0-46.107 37.511-83.617 83.618-83.617 46.106 0 83.616 37.51 83.616 83.617s-37.51 83.617-83.616 83.617c-46.107-.001-83.618-37.511-83.618-83.617zm81.733 98.593-30.284 60.567c-4.652-3.837-10.173-6.651-16.214-8.121l27.345-54.689c6.19 1.35 12.594 2.119 19.153 2.243zm-254.899 117.557c-14.135 0-25.634-11.499-25.634-25.633s11.5-25.634 25.634-25.634 25.633 11.499 25.633 25.633-11.499 25.634-25.633 25.634zm37.98-40.056c-2.198-5.768-5.673-10.906-10.078-15.075l33.519-22.346c2.198 5.768 5.673 10.906 10.078 15.075zm35.787-51.844c0-14.134 11.499-25.633 25.633-25.633 14.135 0 25.634 11.499 25.634 25.633s-11.499 25.633-25.634 25.633c-14.134 0-25.633-11.499-25.633-25.633zm63.613 14.422 33.519 22.346c-4.406 4.169-7.881 9.307-10.079 15.075l-33.519-22.346c4.406-4.169 7.881-9.307 10.079-15.075zm61.42 77.478c-14.135 0-25.634-11.499-25.634-25.633s11.499-25.634 25.634-25.634 25.634 11.499 25.634 25.633-11.499 25.634-25.634 25.634zm-25.634 149.1v-100.467c0-.276.225-.5.5-.5h50.267c.275 0 .5.224.5.5v100.467zm99.401 0v-267.902c12.545-2.027 24.305-6.427 34.803-12.726l13.774 13.773-.554.554c-6.152 6.153-6.152 16.166 0 22.32l3.244 3.244v240.736h-51.267z"/></g></svg>