<svg id="Capa_1" enable-background="new 0 0 512 512" height="512" viewBox="0 0 512 512" width="512" xmlns="http://www.w3.org/2000/svg"><g><path d="m470.321 115.87h21.549c5.523 0 10-4.478 10-10s-4.477-10-10-10h-36.117c-3.76-4.673-7.698-9.232-11.81-13.67l29.785-29.785c3.905-3.905 3.905-10.237 0-14.143-3.906-3.904-10.236-3.904-14.143 0l-29.785 29.786c-4.438-4.112-8.997-8.05-13.67-11.811v-36.117c0-5.523-4.478-10-10-10-5.523 0-10 4.477-10 10v21.549c-41.289-27.115-89.587-41.679-140.13-41.679s-98.841 14.564-140.13 41.679v-21.549c0-5.523-4.478-10-10-10s-10 4.477-10 10v36.117c-4.673 3.761-9.232 7.699-13.67 11.811l-29.785-29.786c-3.906-3.904-10.236-3.904-14.143 0-3.905 3.905-3.905 10.237 0 14.143l29.785 29.785c-4.112 4.438-8.05 8.997-11.81 13.67h-36.117c-5.523 0-10 4.478-10 10s4.477 10 10 10h21.549c-27.115 41.289-41.679 89.587-41.679 140.13 0 61.099 21.876 120.255 61.599 166.572 39.29 45.813 93.556 76.378 152.799 86.062 5.455.888 10.591-2.805 11.482-8.256.891-5.45-2.806-10.591-8.256-11.482-114.511-18.719-197.624-116.666-197.624-232.896 0-130.131 105.869-236 236-236s236 105.869 236 236c0 116.23-83.113 214.177-197.624 232.897-5.45.892-9.147 6.032-8.256 11.482.802 4.904 5.044 8.389 9.857 8.389.535 0 1.079-.044 1.625-.133 59.243-9.685 113.509-40.249 152.799-86.062 39.723-46.318 61.599-105.474 61.599-166.573 0-50.543-14.564-98.841-41.679-140.13z"/><path d="m408.735 408.735c40.797-40.797 63.265-95.04 63.265-152.735s-22.468-111.938-63.265-152.735c-40.797-40.797-95.04-63.265-152.735-63.265s-111.938 22.468-152.735 63.265c-40.797 40.797-63.265 95.04-63.265 152.735s22.468 111.938 63.265 152.735 95.04 63.265 152.735 63.265 111.938-22.468 152.735-63.265zm-102.735-342.262v104.395c0 27.569-22.43 49.999-50 49.999s-50-22.43-50-49.999v-104.395c15.969-4.217 32.725-6.473 50-6.473s34.031 2.256 50 6.473zm-246 189.527c0-83.423 52.395-154.828 126-183.067v97.936c0 38.598 31.402 69.999 70 69.999s70-31.401 70-69.999v-97.936c73.605 28.24 126 99.644 126 183.067 0 108.075-87.925 196-196 196s-196-87.925-196-196z"/><path d="m256 195.867c16.542 0 30-13.458 30-30s-13.458-30-30-30-30 13.458-30 30 13.458 30 30 30zm0-40c5.514 0 10 4.486 10 10s-4.486 10-10 10-10-4.486-10-10 4.486-10 10-10z"/><path d="m256 115.867c5.522 0 10-4.478 10-10v-15.867c0-5.522-4.478-10-10-10-5.523 0-10 4.478-10 10v15.867c0 5.523 4.477 10 10 10z"/><path d="m266 381.434v-70c0-5.522-4.478-10-10-10-5.523 0-10 4.478-10 10v70c0 5.522 4.477 10 10 10 5.522 0 10-4.478 10-10z"/><path d="m216 326.434c-5.523 0-10 4.478-10 10v20c0 5.522 4.477 10 10 10s10-4.478 10-10v-20c0-5.523-4.477-10-10-10z"/><path d="m296 366.434c5.522 0 10-4.478 10-10v-20c0-5.522-4.478-10-10-10s-10 4.478-10 10v20c0 5.522 4.478 10 10 10z"/><circle cx="256" cy="502" r="10"/></g></svg>