<svg xmlns="http://www.w3.org/2000/svg" xmlns:xlink="http://www.w3.org/1999/xlink" width="270" zoomAndPan="magnify" viewBox="0 0 202.5 239.999995" height="320" preserveAspectRatio="xMidYMid meet" version="1.0"><defs><clipPath id="a803548435"><path d="M 0 0.296875 L 202 0.296875 L 202 239.703125 L 0 239.703125 Z M 0 0.296875 " clip-rule="nonzero"/></clipPath><clipPath id="a340119c6c"><path d="M 156 155 L 187.800781 155 L 187.800781 180 L 156 180 Z M 156 155 " clip-rule="nonzero"/></clipPath><clipPath id="811233a804"><path d="M 58 50.546875 L 84 50.546875 L 84 110 L 58 110 Z M 58 50.546875 " clip-rule="nonzero"/></clipPath><clipPath id="d9140a7996"><path d="M 67.019531 202.464844 L 78.695312 202.464844 L 78.695312 208.367188 L 67.019531 208.367188 Z M 67.019531 202.464844 " clip-rule="nonzero"/></clipPath><clipPath id="68bfe35168"><path d="M 60.777344 201.648438 L 70.820312 201.648438 L 70.820312 208.367188 L 60.777344 208.367188 Z M 60.777344 201.648438 " clip-rule="nonzero"/></clipPath></defs><g clip-path="url(#a803548435)"><path fill="#ffffff" d="M 0 0.296875 L 202 0.296875 L 202 239.703125 L 0 239.703125 Z M 0 0.296875 " fill-opacity="1" fill-rule="nonzero"/><path fill="#ffffff" d="M 0 0.296875 L 202 0.296875 L 202 239.703125 L 0 239.703125 Z M 0 0.296875 " fill-opacity="1" fill-rule="nonzero"/></g><path fill="#a1211a" d="M 163.695312 197.429688 L 162.285156 197.789062 L 156.488281 202.054688 C 155.789062 202.570312 156.105469 203.679688 156.976562 203.726562 C 159.628906 203.875 164.152344 203.769531 168.914062 202.09375 C 166.835938 198.816406 163.695312 197.429688 163.695312 197.429688 " fill-opacity="1" fill-rule="nonzero"/><path fill="#a1211a" d="M 168.253906 202.09375 L 164.03125 202.09375 C 163.03125 202.09375 162.21875 201.28125 162.21875 200.28125 L 162.21875 198.597656 C 162.21875 197.59375 163.03125 196.78125 164.03125 196.78125 L 168.253906 196.78125 C 169.257812 196.78125 170.070312 197.59375 170.070312 198.597656 L 170.070312 200.28125 C 170.070312 201.28125 169.257812 202.09375 168.253906 202.09375 " fill-opacity="1" fill-rule="nonzero"/><path fill="#a1211a" d="M 167.640625 197.429688 L 163.992188 197.429688 C 163.445312 197.429688 163 196.984375 163 196.433594 L 163 195.511719 C 163 194.960938 163.445312 194.519531 163.992188 194.519531 L 167.640625 194.519531 C 168.1875 194.519531 168.632812 194.960938 168.632812 195.511719 L 168.632812 196.433594 C 168.632812 196.984375 168.1875 197.429688 167.640625 197.429688 " fill-opacity="1" fill-rule="nonzero"/><path fill="#a1211a" d="M 149.113281 197.15625 L 147.699219 197.515625 L 141.90625 201.78125 C 141.207031 202.296875 141.523438 203.40625 142.394531 203.453125 C 145.046875 203.601562 149.570312 203.5 154.332031 201.820312 C 152.253906 198.539062 149.113281 197.15625 149.113281 197.15625 " fill-opacity="1" fill-rule="nonzero"/><path fill="#a1211a" d="M 153.671875 201.820312 L 149.449219 201.820312 C 148.449219 201.820312 147.636719 201.007812 147.636719 200.007812 L 147.636719 198.324219 C 147.636719 197.320312 148.449219 196.507812 149.449219 196.507812 L 153.671875 196.507812 C 154.675781 196.507812 155.488281 197.320312 155.488281 198.324219 L 155.488281 200.007812 C 155.488281 201.007812 154.675781 201.820312 153.671875 201.820312 " fill-opacity="1" fill-rule="nonzero"/><path fill="#a1211a" d="M 153.058594 197.15625 L 149.410156 197.15625 C 148.863281 197.15625 148.417969 196.710938 148.417969 196.160156 L 148.417969 195.238281 C 148.417969 194.691406 148.863281 194.246094 149.410156 194.246094 L 153.058594 194.246094 C 153.605469 194.246094 154.050781 194.691406 154.050781 195.238281 L 154.050781 196.160156 C 154.050781 196.710938 153.605469 197.15625 153.058594 197.15625 " fill-opacity="1" fill-rule="nonzero"/><g clip-path="url(#a340119c6c)"><path fill="#493943" d="M 184.222656 171.972656 C 183.183594 173.011719 181.933594 174.050781 180.5625 175.003906 C 179.714844 175.601562 178.820312 176.171875 177.914062 176.699219 C 176.804688 177.332031 175.660156 177.902344 174.539062 178.378906 C 174.214844 178.523438 173.882812 178.644531 173.546875 178.75 C 172.09375 179.261719 170.613281 179.527344 169.171875 179.5625 C 168.003906 179.597656 166.859375 179.5 165.773438 179.25 C 162.113281 178.464844 159.023438 176.171875 157.582031 172.75 C 155.933594 168.871094 156.816406 164.480469 159.488281 161.082031 C 160.203125 160.175781 161.039062 159.339844 161.992188 158.613281 C 162.980469 157.835938 164.101562 157.179688 165.332031 156.652344 C 166.585938 156.128906 168.003906 155.832031 169.496094 155.761719 C 170.925781 155.699219 172.414062 155.84375 173.917969 156.152344 C 174.179688 156.199219 174.441406 156.261719 174.707031 156.332031 C 174.71875 156.332031 174.730469 156.332031 174.742188 156.34375 C 175.792969 156.59375 176.816406 156.941406 177.832031 157.347656 C 179.621094 158.085938 181.3125 159.0625 182.78125 160.222656 C 184.675781 161.738281 186.203125 163.574219 187.085938 165.648438 C 187.800781 167.355469 186.511719 169.683594 184.222656 171.972656 " fill-opacity="1" fill-rule="nonzero"/></g><path fill="#845e6c" d="M 165.015625 172.828125 C 169.320312 173.441406 178.167969 174.089844 184.582031 169.003906 C 184.945312 168.714844 185.425781 169.175781 185.128906 169.535156 C 182.824219 172.324219 177.878906 176.707031 169.808594 177.851562 C 166.492188 178.125 164.359375 177.488281 163.183594 176.410156 C 161.699219 175.042969 163.019531 172.546875 165.015625 172.828125 " fill-opacity="1" fill-rule="nonzero"/><path fill="#846867" d="M 185.546875 165.9375 C 185.09375 165.386719 184.605469 164.898438 184.078125 164.492188 C 183.195312 163.777344 182.230469 163.265625 181.21875 162.917969 C 179.894531 162.429688 178.5 162.214844 177.113281 162.179688 C 176.136719 162.144531 175.171875 162.203125 174.253906 162.320312 C 171.914062 162.609375 169.828125 163.277344 168.515625 163.8125 C 167.707031 164.148438 167.191406 164.433594 167.0625 164.578125 C 166.90625 164.730469 166.679688 164.910156 166.382812 165.066406 C 165.261719 165.675781 163.257812 166.066406 161.707031 164.578125 C 160.429688 163.359375 161.421875 161.820312 161.992188 161.128906 C 162.183594 160.902344 162.328125 160.757812 162.328125 160.757812 C 162.328125 160.757812 162.992188 160.148438 164.175781 159.457031 C 165.773438 158.503906 168.300781 157.40625 171.414062 157.417969 C 172.59375 157.417969 173.835938 157.574219 175.160156 157.964844 C 176.9375 158.480469 178.570312 159.242188 180.011719 160.101562 C 181.457031 160.960938 182.707031 161.914062 183.6875 162.796875 C 185.855469 164.742188 186.738281 166.367188 185.546875 165.9375 " fill-opacity="1" fill-rule="nonzero"/><path fill="#381e34" d="M 169.171875 179.5625 C 168.003906 179.597656 166.859375 179.5 165.773438 179.25 C 168.550781 178.023438 169.515625 173.023438 167.859375 168.167969 C 166.785156 165.007812 164.757812 162.40625 162.578125 161.367188 C 161.8125 161.007812 160.65625 160.675781 159.5 161.117188 L 159.488281 161.082031 C 160.203125 160.175781 161.039062 159.339844 161.992188 158.613281 C 162.527344 158.71875 163.066406 158.910156 163.613281 159.160156 C 166.429688 160.484375 168.886719 163.550781 170.1875 167.378906 C 171.808594 172.128906 171.304688 176.816406 169.171875 179.5625 " fill-opacity="1" fill-rule="nonzero"/><path fill="#381e34" d="M 177.914062 176.699219 C 176.804688 177.332031 175.660156 177.902344 174.539062 178.378906 C 174.214844 178.523438 173.882812 178.644531 173.546875 178.75 C 175.578125 177.210938 176.757812 172.140625 175.363281 165.949219 C 174.324219 161.332031 172.082031 157.371094 169.636719 155.84375 C 169.589844 155.808594 169.542969 155.78125 169.496094 155.761719 C 170.925781 155.699219 172.414062 155.84375 173.917969 156.152344 C 175.742188 158.46875 177.222656 161.714844 178.03125 165.351562 C 179 169.648438 178.878906 173.679688 177.914062 176.699219 " fill-opacity="1" fill-rule="nonzero"/><path fill="#381e34" d="M 174.707031 156.332031 C 174.71875 156.332031 174.730469 156.332031 174.742188 156.34375 L 174.707031 156.34375 L 174.707031 156.332031 " fill-opacity="1" fill-rule="nonzero"/><path fill="#381e34" d="M 184.222656 171.972656 C 183.183594 173.011719 181.933594 174.050781 180.5625 175.003906 C 181.933594 172.882812 182.492188 169.230469 181.824219 165.410156 C 181.230469 161.953125 179.714844 158.921875 177.832031 157.347656 C 179.621094 158.085938 181.3125 159.0625 182.78125 160.222656 C 183.398438 161.652344 183.875 163.238281 184.175781 164.933594 C 184.617188 167.453125 184.605469 169.863281 184.222656 171.972656 " fill-opacity="1" fill-rule="nonzero"/><path fill="#dbb9af" d="M 168.503906 163.8125 C 167.707031 164.148438 167.191406 164.433594 167.0625 164.578125 C 166.90625 164.730469 166.679688 164.910156 166.382812 165.066406 C 165.332031 163.359375 163.984375 162.035156 162.578125 161.367188 C 162.398438 161.285156 162.207031 161.199219 161.992188 161.128906 C 162.183594 160.902344 162.328125 160.757812 162.328125 160.757812 C 162.328125 160.757812 162.6875 160.429688 163.34375 159.984375 C 163.855469 159.632812 164.527344 159.640625 165.03125 160 C 166.339844 160.929688 167.53125 162.242188 168.503906 163.8125 " fill-opacity="1" fill-rule="nonzero"/><path fill="#dbb9af" d="M 176.339844 162.167969 C 175.761719 162.175781 175.195312 162.214844 174.644531 162.273438 C 174.410156 162.300781 174.191406 162.167969 174.101562 161.953125 C 173.527344 160.574219 172.855469 159.339844 172.117188 158.308594 C 171.847656 157.9375 172.144531 157.429688 172.601562 157.472656 C 173.421875 157.546875 174.269531 157.703125 175.160156 157.964844 C 175.800781 159.019531 176.363281 160.1875 176.847656 161.445312 C 176.980469 161.796875 176.710938 162.164062 176.339844 162.167969 " fill-opacity="1" fill-rule="nonzero"/><path fill="#dbb9af" d="M 181.21875 162.917969 C 180.882812 161.890625 180.476562 160.9375 180.011719 160.101562 C 181.347656 160.894531 182.519531 161.773438 183.460938 162.597656 C 183.613281 162.730469 183.714844 162.898438 183.769531 163.09375 C 183.890625 163.550781 184 164.011719 184.078125 164.492188 C 183.195312 163.777344 182.230469 163.265625 181.21875 162.917969 " fill-opacity="1" fill-rule="nonzero"/><path fill="#a1211a" d="M 136.800781 121.296875 C 136.277344 119.460938 135.484375 117.625 134.578125 115.902344 C 133.648438 114.179688 132.554688 112.546875 131.285156 111.074219 C 130.976562 110.695312 130.636719 110.347656 130.296875 110 C 129.96875 109.640625 129.605469 109.320312 129.246094 108.996094 C 128.53125 108.34375 127.734375 107.714844 126.972656 107.085938 C 125.425781 105.839844 123.855469 104.617188 122.257812 103.445312 C 119.050781 101.113281 115.734375 98.882812 112.144531 97.273438 C 111.25 96.875 110.332031 96.539062 109.40625 96.253906 C 108.480469 95.964844 107.535156 95.773438 106.601562 95.714844 C 105.667969 95.65625 104.742188 95.761719 103.964844 96.109375 C 103.183594 96.457031 102.589844 97.042969 102.230469 97.777344 C 101.972656 98.316406 101.328125 98.539062 100.789062 98.277344 C 100.253906 98.019531 100.03125 97.375 100.289062 96.835938 C 100.332031 96.75 100.382812 96.671875 100.445312 96.601562 L 100.484375 96.554688 C 101.273438 95.652344 102.320312 94.945312 103.433594 94.632812 C 104.546875 94.308594 105.660156 94.308594 106.710938 94.425781 C 108.820312 94.683594 110.765625 95.386719 112.609375 96.238281 C 114.464844 97.074219 116.226562 98.0625 117.949219 99.109375 C 119.671875 100.152344 121.34375 101.277344 122.972656 102.457031 C 124.605469 103.628906 126.199219 104.855469 127.757812 106.121094 C 128.535156 106.761719 129.308594 107.371094 130.070312 108.066406 C 130.453125 108.410156 130.839844 108.75 131.1875 109.128906 C 131.546875 109.496094 131.902344 109.863281 132.226562 110.257812 C 133.566406 111.8125 134.707031 113.519531 135.675781 115.3125 C 136.625 117.125 137.433594 118.976562 138.003906 120.984375 C 138.101562 121.316406 137.90625 121.660156 137.578125 121.753906 C 137.246094 121.847656 136.902344 121.65625 136.808594 121.328125 C 136.808594 121.328125 136.800781 121.296875 136.800781 121.296875 " fill-opacity="1" fill-rule="nonzero"/><path fill="#a1211a" d="M 140.84375 122.085938 C 140.75 120.601562 140.703125 119.136719 140.679688 117.65625 C 140.660156 116.183594 140.667969 114.707031 140.722656 113.226562 C 140.839844 110.277344 141.074219 107.3125 141.78125 104.375 L 141.929688 104.953125 C 140.945312 103.878906 140.113281 102.746094 139.289062 101.597656 C 138.472656 100.449219 137.695312 99.277344 136.933594 98.097656 C 135.40625 95.742188 133.972656 93.332031 132.558594 90.914062 C 131.84375 89.707031 131.164062 88.480469 130.46875 87.265625 C 130.121094 86.652344 129.78125 86.042969 129.445312 85.421875 C 129.101562 84.8125 128.785156 84.242188 128.386719 83.695312 C 127.617188 82.605469 126.671875 81.636719 125.582031 80.886719 C 125.042969 80.5 124.457031 80.1875 123.867188 79.917969 C 123.570312 79.78125 123.261719 79.667969 122.960938 79.570312 C 122.804688 79.523438 122.652344 79.480469 122.5 79.441406 C 122.359375 79.410156 122.183594 79.371094 122.085938 79.367188 C 121.488281 79.332031 121.035156 78.816406 121.074219 78.21875 C 121.109375 77.621094 121.621094 77.167969 122.222656 77.203125 C 122.328125 77.207031 122.429688 77.230469 122.527344 77.265625 L 122.621094 77.304688 C 122.863281 77.390625 123.019531 77.472656 123.203125 77.558594 C 123.378906 77.644531 123.550781 77.734375 123.714844 77.828125 C 124.050781 78.007812 124.375 78.203125 124.6875 78.40625 C 125.3125 78.816406 125.917969 79.246094 126.472656 79.734375 C 127.605469 80.679688 128.570312 81.800781 129.390625 83 C 129.804688 83.59375 130.15625 84.257812 130.484375 84.867188 C 130.804688 85.484375 131.136719 86.097656 131.464844 86.710938 C 132.128906 87.933594 132.832031 89.140625 133.535156 90.339844 C 134.945312 92.746094 136.4375 95.101562 137.957031 97.433594 C 138.71875 98.597656 139.496094 99.75 140.304688 100.875 C 141.105469 101.996094 141.933594 103.117188 142.839844 104.105469 C 142.988281 104.265625 143.035156 104.480469 142.992188 104.675781 C 142.316406 107.457031 142.078125 110.371094 141.964844 113.273438 C 141.910156 114.726562 141.90625 116.183594 141.925781 117.640625 C 141.945312 119.09375 141.992188 120.558594 142.085938 122 C 142.109375 122.351562 141.847656 122.648438 141.503906 122.667969 C 141.164062 122.691406 140.867188 122.429688 140.84375 122.085938 " fill-opacity="1" fill-rule="nonzero"/><path fill="#a1211a" d="M 151.214844 183.53125 C 151.214844 184.257812 150.722656 184.847656 150.113281 184.847656 C 149.503906 184.847656 149.011719 184.257812 149.011719 183.53125 C 149.011719 182.804688 149.503906 182.214844 150.113281 182.214844 C 150.722656 182.214844 151.214844 182.804688 151.214844 183.53125 " fill-opacity="1" fill-rule="nonzero"/><path fill="#a1211a" d="M 160.886719 184.8125 C 160.886719 185.542969 160.390625 186.128906 159.78125 186.128906 C 159.175781 186.128906 158.679688 185.542969 158.679688 184.8125 C 158.679688 184.085938 159.175781 183.496094 159.78125 183.496094 C 160.390625 183.496094 160.886719 184.085938 160.886719 184.8125 " fill-opacity="1" fill-rule="nonzero"/><path fill="#a1211a" d="M 151.691406 197.121094 C 151.300781 197.121094 150.941406 196.859375 150.828125 196.464844 C 146.796875 181.953125 153.722656 170.148438 154.019531 169.65625 C 154.273438 169.230469 154.824219 169.09375 155.246094 169.347656 C 155.671875 169.601562 155.808594 170.148438 155.554688 170.574219 C 155.488281 170.6875 148.734375 182.234375 152.554688 195.984375 C 152.683594 196.460938 152.40625 196.953125 151.929688 197.085938 C 151.851562 197.109375 151.769531 197.121094 151.691406 197.121094 " fill-opacity="1" fill-rule="nonzero"/><path fill="#a1211a" d="M 165.496094 197.121094 C 165.242188 197.121094 164.988281 197.011719 164.8125 196.800781 C 157.109375 187.65625 158.289062 170.183594 158.339844 169.445312 C 158.378906 168.953125 158.804688 168.574219 159.296875 168.617188 C 159.792969 168.652344 160.160156 169.082031 160.125 169.574219 C 160.113281 169.75 158.949219 187.0625 166.179688 195.648438 C 166.5 196.027344 166.449219 196.589844 166.074219 196.90625 C 165.90625 197.050781 165.699219 197.121094 165.496094 197.121094 " fill-opacity="1" fill-rule="nonzero"/><path fill="#cf3c34" d="M 157.863281 165.679688 C 158.945312 167.378906 159.378906 170.683594 157.917969 171.613281 C 156.453125 172.546875 153.644531 170.75 152.566406 169.050781 C 151.484375 167.351562 152.539062 166.390625 154.003906 165.460938 C 155.464844 164.527344 156.78125 163.976562 157.863281 165.679688 " fill-opacity="1" fill-rule="nonzero"/><path fill="#a1211a" d="M 129.773438 175.195312 C 129.332031 175.195312 128.949219 174.867188 128.886719 174.417969 C 128.824219 173.929688 129.167969 173.480469 129.660156 173.414062 C 140.960938 171.9375 143.5625 162.90625 143.585938 162.816406 C 143.71875 162.339844 144.210938 162.058594 144.6875 162.191406 C 145.164062 162.320312 145.445312 162.8125 145.3125 163.289062 C 145.285156 163.390625 142.359375 173.558594 129.890625 175.1875 C 129.851562 175.195312 129.8125 175.195312 129.773438 175.195312 " fill-opacity="1" fill-rule="nonzero"/><path fill="#ee7c1c" d="M 159.007812 156.605469 C 160.542969 159.898438 158.238281 164.222656 153.859375 166.261719 C 149.480469 168.304688 144.691406 167.292969 143.15625 164 C 141.621094 160.707031 143.929688 156.382812 148.304688 154.339844 C 152.683594 152.296875 157.476562 153.3125 159.007812 156.605469 " fill-opacity="1" fill-rule="nonzero"/><path fill="#eb5b0e" d="M 155.511719 159.15625 C 156.671875 161.640625 155.085938 164.835938 151.976562 166.289062 C 148.867188 167.738281 145.40625 166.902344 144.25 164.417969 C 143.09375 161.933594 144.675781 158.738281 147.785156 157.289062 C 150.894531 155.835938 154.355469 156.671875 155.511719 159.15625 " fill-opacity="1" fill-rule="nonzero"/><path fill="#a1211a" d="M 150.226562 154.636719 C 150.710938 155.511719 149.761719 156.972656 148.105469 157.902344 C 146.445312 158.828125 144.707031 158.871094 144.21875 157.992188 C 143.730469 157.117188 144.679688 155.65625 146.339844 154.730469 C 148 153.800781 149.738281 153.761719 150.226562 154.636719 " fill-opacity="1" fill-rule="nonzero"/><path fill="#cf3c34" d="M 159.433594 155.792969 C 159.746094 157.3125 159.035156 158.738281 157.847656 158.976562 C 156.660156 159.21875 155.449219 158.1875 155.140625 156.667969 C 154.832031 155.152344 155.542969 153.722656 156.730469 153.484375 C 157.914062 153.242188 159.125 154.277344 159.433594 155.792969 " fill-opacity="1" fill-rule="nonzero"/><path fill="#a1211a" d="M 172.40625 160.796875 C 172.128906 160.796875 171.855469 160.667969 171.679688 160.421875 C 169.609375 157.539062 166.894531 154.273438 166.113281 153.949219 C 166.101562 153.949219 166.09375 153.949219 166.085938 153.949219 C 165.179688 153.949219 161.214844 155.539062 157.96875 157.054688 C 157.519531 157.265625 156.988281 157.070312 156.78125 156.621094 C 156.570312 156.175781 156.765625 155.640625 157.210938 155.433594 C 159.480469 154.375 164.917969 151.941406 166.414062 152.183594 C 167.941406 152.433594 171.277344 156.796875 173.132812 159.378906 C 173.421875 159.78125 173.328125 160.339844 172.929688 160.628906 C 172.769531 160.742188 172.585938 160.796875 172.40625 160.796875 " fill-opacity="1" fill-rule="nonzero"/><path fill="#a1211a" d="M 155.46875 146.777344 C 150.269531 156.628906 139.070312 161.234375 130.472656 157.5 C 119.894531 152.917969 118.03125 140.714844 123.234375 130.859375 C 123.816406 129.75 124.53125 128.699219 125.34375 127.710938 C 131.699219 119.941406 144.164062 116.21875 151.519531 120.109375 C 153.105469 120.945312 154.417969 122.078125 155.457031 123.425781 C 159.917969 129.140625 159.691406 138.804688 155.46875 146.777344 " fill-opacity="1" fill-rule="nonzero"/><path fill="#ee7c1c" d="M 155.46875 147.753906 C 150.269531 156.808594 139.070312 161.035156 130.472656 157.609375 C 119.894531 153.398438 118.03125 142.183594 123.234375 133.136719 C 123.695312 132.328125 124.234375 131.550781 124.855469 130.824219 C 125.007812 130.621094 125.175781 130.429688 125.34375 130.238281 C 131.699219 123.105469 144.164062 119.679688 151.519531 123.257812 C 153.105469 124.023438 154.417969 125.0625 155.457031 126.300781 C 155.96875 126.910156 156.421875 127.566406 156.816406 128.257812 C 159.808594 133.578125 159.203125 141.277344 155.46875 147.753906 " fill-opacity="1" fill-rule="nonzero"/><path fill="#cf3c34" d="M 150.324219 148 C 143.707031 156.019531 133.113281 158.535156 126.558594 154.003906 C 118.503906 148.4375 119.578125 137.320312 126.191406 129.300781 C 132.804688 121.28125 146.621094 118.667969 152.765625 123.738281 C 158.90625 128.808594 156.9375 139.980469 150.324219 148 " fill-opacity="1" fill-rule="nonzero"/><path fill="#d96c66" d="M 151.769531 138.847656 C 148.054688 143.773438 141.484375 145.269531 137.054688 142.429688 C 131.613281 138.941406 131.625 132.070312 135.339844 127.144531 C 139.050781 122.222656 147.660156 120.679688 151.859375 123.851562 C 156.0625 127.019531 155.484375 133.921875 151.769531 138.847656 " fill-opacity="1" fill-rule="nonzero"/><path fill="#493943" d="M 131.746094 154.421875 L 138.164062 153.871094 C 138.679688 153.828125 139.019531 154.390625 138.746094 154.828125 C 137.824219 156.296875 135.613281 158.472656 131.457031 155.5625 C 130.972656 155.226562 131.160156 154.472656 131.746094 154.421875 " fill-opacity="1" fill-rule="nonzero"/><path fill="#a1211a" d="M 143.445312 152.777344 C 143.589844 157.238281 141.800781 159.386719 137.652344 161.714844 C 137.28125 161.914062 136.839844 161.890625 136.46875 161.75 C 136.015625 161.558594 135.683594 161.1875 135.742188 160.816406 C 135.753906 160.699219 135.816406 160.566406 135.933594 160.460938 C 136.078125 160.316406 136.207031 160.1875 136.328125 160.054688 C 136.339844 160.042969 136.339844 160.03125 136.351562 160.03125 C 138.460938 157.859375 139.023438 156.058594 138.355469 153.335938 C 138.308594 153.171875 138.257812 152.992188 138.210938 152.8125 C 138.054688 152.277344 138.535156 151.835938 139.238281 151.785156 C 140.121094 151.726562 140.859375 151.679688 141.71875 151.621094 C 142.589844 151.558594 143.421875 152.132812 143.445312 152.777344 " fill-opacity="1" fill-rule="nonzero"/><path fill="#cf3c34" d="M 141.300781 153.980469 C 141.230469 157.667969 139.929688 159.515625 136.996094 161.605469 C 136.828125 161.726562 136.648438 161.761719 136.46875 161.75 C 135.980469 161.714844 135.5625 161.246094 135.742188 160.816406 C 135.765625 160.746094 135.800781 160.6875 135.851562 160.628906 C 136.015625 160.4375 136.183594 160.234375 136.328125 160.054688 C 136.339844 160.042969 136.339844 160.03125 136.351562 160.03125 C 138.460938 157.859375 139.023438 156.058594 138.355469 153.335938 C 138.378906 153.324219 138.414062 153.3125 138.4375 153.3125 C 139.046875 153.230469 139.558594 153.160156 140.144531 153.074219 C 140.753906 153.003906 141.300781 153.445312 141.300781 153.980469 " fill-opacity="1" fill-rule="nonzero"/><path fill="#a1211a" d="M 130.554688 155.640625 C 130.542969 155.652344 130.542969 155.652344 130.53125 155.664062 C 128.515625 157.65625 128.183594 159.363281 129.148438 162.308594 C 129.421875 163.15625 127.835938 163.347656 127.3125 162.523438 C 126.894531 161.867188 126.535156 161.246094 126.238281 160.664062 C 124.996094 158.132812 124.972656 156.082031 126.558594 153.433594 C 126.84375 152.96875 127.726562 152.882812 128.371094 153.289062 C 129.003906 153.695312 129.542969 154.042969 130.199219 154.449219 C 130.722656 154.78125 130.890625 155.304688 130.554688 155.640625 " fill-opacity="1" fill-rule="nonzero"/><path fill="#cf3c34" d="M 129.148438 162.308594 C 129.421875 163.15625 127.835938 163.347656 127.3125 162.523438 C 126.894531 161.867188 126.535156 161.246094 126.238281 160.664062 C 125.59375 158.71875 125.820312 156.953125 127.109375 154.78125 C 127.394531 154.304688 128.277344 154.230469 128.921875 154.636719 C 129.480469 154.984375 129.96875 155.292969 130.53125 155.664062 C 128.515625 157.65625 128.183594 159.363281 129.148438 162.308594 " fill-opacity="1" fill-rule="nonzero"/><path fill="#ab342e" d="M 127.089844 143.578125 C 127.5 147.222656 127.011719 149.886719 124.691406 150.148438 C 122.367188 150.410156 119.722656 147.714844 119.3125 144.070312 C 118.898438 140.425781 120.878906 137.207031 123.199219 136.945312 C 125.523438 136.683594 126.675781 139.933594 127.089844 143.578125 " fill-opacity="1" fill-rule="nonzero"/><path fill="#ffffff" d="M 126.492188 143.59375 C 126.859375 146.871094 126.421875 149.265625 124.335938 149.5 C 122.246094 149.734375 119.871094 147.3125 119.5 144.039062 C 119.128906 140.761719 120.910156 137.871094 122.996094 137.632812 C 125.085938 137.398438 126.121094 140.316406 126.492188 143.59375 " fill-opacity="1" fill-rule="nonzero"/><path fill="#ab342e" d="M 141.460938 130.5 C 141.367188 131.035156 140.285156 129.941406 138.738281 129.679688 C 137.1875 129.414062 135.757812 130.078125 135.847656 129.546875 C 135.9375 129.011719 137.433594 127.828125 138.980469 128.09375 C 140.53125 128.359375 141.550781 129.96875 141.460938 130.5 " fill-opacity="1" fill-rule="nonzero"/><path fill="#ab342e" d="M 127.648438 130.828125 C 127.855469 131.328125 126.359375 130.980469 124.90625 131.585938 C 123.457031 132.191406 122.601562 133.515625 122.394531 133.019531 C 122.1875 132.519531 122.816406 130.722656 124.269531 130.117188 C 125.71875 129.511719 127.441406 130.328125 127.648438 130.828125 " fill-opacity="1" fill-rule="nonzero"/><path fill="#ab342e" d="M 145.761719 142.835938 C 145.222656 146.785156 141.882812 149.589844 138.296875 149.101562 C 134.710938 148.613281 132.242188 145.015625 132.78125 141.0625 C 133.316406 137.113281 136.660156 134.308594 140.246094 134.796875 C 143.832031 135.285156 146.300781 138.886719 145.761719 142.835938 " fill-opacity="1" fill-rule="nonzero"/><path fill="#ffffff" d="M 144.964844 142.726562 C 144.492188 146.191406 141.5625 148.648438 138.417969 148.222656 C 135.273438 147.792969 133.105469 144.636719 133.578125 141.171875 C 134.050781 137.707031 136.980469 135.25 140.125 135.675781 C 143.269531 136.105469 145.4375 139.261719 144.964844 142.726562 " fill-opacity="1" fill-rule="nonzero"/><path fill="#493943" d="M 140.847656 145.863281 C 140.847656 147.199219 139.902344 148.28125 138.738281 148.28125 C 137.570312 148.28125 136.628906 147.199219 136.628906 145.863281 C 136.628906 144.53125 137.570312 143.449219 138.738281 143.449219 C 139.902344 143.449219 140.847656 144.53125 140.847656 145.863281 " fill-opacity="1" fill-rule="nonzero"/><path fill="#ffffff" d="M 140.070312 144.875 C 140.070312 145.359375 139.675781 145.757812 139.1875 145.757812 C 138.699219 145.757812 138.300781 145.359375 138.300781 144.875 C 138.300781 144.382812 138.699219 143.988281 139.1875 143.988281 C 139.675781 143.988281 140.070312 144.382812 140.070312 144.875 " fill-opacity="1" fill-rule="nonzero"/><path fill="#493943" d="M 126.1875 147.140625 C 126.1875 148.476562 125.246094 149.558594 124.078125 149.558594 C 122.914062 149.558594 121.96875 148.476562 121.96875 147.140625 C 121.96875 145.808594 122.914062 144.726562 124.078125 144.726562 C 125.246094 144.726562 126.1875 145.808594 126.1875 147.140625 " fill-opacity="1" fill-rule="nonzero"/><path fill="#ffffff" d="M 125.414062 146.152344 C 125.414062 146.636719 125.015625 147.035156 124.53125 147.035156 C 124.039062 147.035156 123.644531 146.636719 123.644531 146.152344 C 123.644531 145.664062 124.039062 145.265625 124.53125 145.265625 C 125.015625 145.265625 125.414062 145.664062 125.414062 146.152344 " fill-opacity="1" fill-rule="nonzero"/><path fill="#ee7c1c" d="M 172.292969 167.011719 L 172.125 167.027344 C 171.816406 167.058594 171.558594 166.792969 171.589844 166.484375 L 172.207031 160.835938 L 174.660156 161.101562 L 173.300781 166.164062 C 173.175781 166.628906 172.773438 166.964844 172.292969 167.011719 " fill-opacity="1" fill-rule="nonzero"/><path fill="#cf3c34" d="M 174.503906 158.542969 C 174.945312 159.183594 174.589844 160.199219 173.710938 160.804688 C 172.832031 161.414062 171.757812 161.386719 171.3125 160.742188 C 170.871094 160.101562 171.226562 159.085938 172.105469 158.480469 C 172.984375 157.871094 174.058594 157.898438 174.503906 158.542969 " fill-opacity="1" fill-rule="nonzero"/><path fill="#ee7c1c" d="M 179.585938 164.847656 L 179.308594 166.578125 C 179.207031 167.222656 178.769531 167.761719 178.164062 168.003906 L 176.75 168.5625 C 176.234375 168.765625 175.660156 168.433594 175.578125 167.886719 L 175.160156 165.128906 L 175.085938 165.203125 L 172.644531 163.113281 C 171.957031 162.519531 171.894531 161.464844 172.519531 160.792969 L 174.015625 159.144531 C 174.625 158.488281 175.648438 158.445312 176.304688 159.054688 L 178.433594 161.015625 C 178.675781 161.238281 178.859375 161.527344 178.953125 161.847656 L 179.515625 163.746094 C 179.621094 164.105469 179.644531 164.480469 179.585938 164.847656 " fill-opacity="1" fill-rule="nonzero"/><path fill="#ee7c1c" d="M 128.3125 180.863281 L 128.460938 180.953125 C 128.726562 181.113281 129.074219 180.988281 129.175781 180.695312 L 131.074219 175.335938 L 128.75 174.515625 L 127.777344 179.664062 C 127.6875 180.136719 127.902344 180.617188 128.3125 180.863281 " fill-opacity="1" fill-rule="nonzero"/><path fill="#cf3c34" d="M 130 172.273438 C 129.320312 172.664062 129.199219 173.730469 129.730469 174.660156 C 130.257812 175.589844 131.238281 176.03125 131.917969 175.644531 C 132.597656 175.257812 132.714844 174.191406 132.1875 173.257812 C 131.65625 172.328125 130.679688 171.890625 130 172.273438 " fill-opacity="1" fill-rule="nonzero"/><path fill="#ee7c1c" d="M 122.683594 175.75 L 122.183594 177.425781 C 121.996094 178.050781 122.152344 178.730469 122.597656 179.207031 L 123.628906 180.324219 C 124.003906 180.734375 124.664062 180.683594 124.976562 180.226562 L 126.550781 177.921875 L 126.585938 178.023438 L 129.691406 177.203125 C 130.570312 176.964844 131.078125 176.042969 130.808594 175.164062 L 130.175781 173.03125 C 129.910156 172.175781 129.011719 171.6875 128.152344 171.953125 L 125.386719 172.796875 C 125.066406 172.890625 124.78125 173.074219 124.558594 173.320312 L 123.222656 174.789062 C 122.976562 175.0625 122.789062 175.390625 122.683594 175.75 " fill-opacity="1" fill-rule="nonzero"/><path fill="#8fb33d" d="M 115.570312 198.898438 C 113.34375 198.859375 110.832031 199.742188 109.390625 199.691406 C 109.34375 199.730469 109.292969 199.777344 109.246094 199.816406 C 106.316406 202.320312 100.40625 204.992188 96.175781 204.71875 C 90.667969 204.367188 83.464844 200.214844 83.765625 195.757812 C 84.070312 191.300781 91.769531 188.230469 97.28125 188.578125 C 99.199219 188.703125 101.523438 189.605469 103.703125 190.820312 C 106.445312 192.335938 108.964844 194.335938 110.199219 195.871094 C 112.914062 196.800781 114.804688 197.382812 114.804688 197.382812 C 114.804688 197.382812 114.433594 197.734375 114.460938 198.066406 C 114.480469 198.304688 115.503906 198.6875 115.570312 198.898438 " fill-opacity="1" fill-rule="nonzero"/><path fill="#609e1e" d="M 115.570312 198.898438 C 113.34375 198.859375 110.832031 199.742188 109.390625 199.691406 C 109.34375 199.730469 109.292969 199.777344 109.246094 199.816406 C 107.9375 198.71875 106.726562 197.382812 105.777344 195.96875 C 104.769531 194.488281 104.054688 192.925781 103.792969 191.460938 C 103.753906 191.242188 103.722656 191.03125 103.703125 190.820312 C 106.445312 192.335938 108.964844 194.335938 110.199219 195.871094 C 112.914062 196.800781 114.804688 197.382812 114.804688 197.382812 C 114.804688 197.382812 114.433594 197.734375 114.460938 198.066406 C 114.480469 198.304688 115.503906 198.6875 115.570312 198.898438 " fill-opacity="1" fill-rule="nonzero"/><path fill="#b4d667" d="M 87.867188 193.359375 C 87.671875 196.195312 92.722656 198.867188 96.574219 199.113281 C 100.421875 199.355469 106.238281 196.445312 106.871094 194.6875 C 107.3125 193.453125 101.125 189.082031 97.273438 188.835938 C 93.425781 188.59375 88.0625 190.523438 87.867188 193.359375 " fill-opacity="1" fill-rule="nonzero"/><path fill="#8fb33d" d="M 106.871094 194.6875 C 106.730469 195.070312 106.34375 195.515625 105.777344 195.96875 C 104.769531 194.488281 104.054688 192.925781 103.792969 191.460938 C 105.707031 192.71875 107.089844 194.078125 106.871094 194.6875 " fill-opacity="1" fill-rule="nonzero"/><path fill="#d3f28d" d="M 94.039062 192.464844 C 93.941406 193.902344 96.5 195.253906 98.453125 195.378906 C 100.402344 195.503906 103.347656 194.027344 103.671875 193.136719 C 103.894531 192.511719 100.757812 190.292969 98.808594 190.171875 C 96.855469 190.046875 94.136719 191.023438 94.039062 192.464844 " fill-opacity="1" fill-rule="nonzero"/><path fill="#8fb33d" d="M 104.535156 162.878906 C 102.308594 162.839844 99.800781 163.726562 98.355469 163.671875 C 95.476562 166.214844 89.445312 168.976562 85.144531 168.703125 C 79.632812 168.347656 72.429688 164.195312 72.730469 159.738281 C 73.035156 155.28125 80.738281 152.210938 86.246094 152.558594 C 90.578125 152.832031 96.949219 157.097656 99.164062 159.851562 C 101.878906 160.78125 103.773438 161.363281 103.773438 161.363281 C 103.773438 161.363281 103.398438 161.714844 103.425781 162.046875 C 103.445312 162.285156 104.46875 162.667969 104.535156 162.878906 " fill-opacity="1" fill-rule="nonzero"/><path fill="#b4d667" d="M 76.832031 157.339844 C 76.640625 160.179688 81.6875 162.851562 85.539062 163.09375 C 89.390625 163.339844 95.203125 160.425781 95.835938 158.667969 C 96.28125 157.4375 90.089844 153.0625 86.242188 152.820312 C 82.390625 152.574219 77.027344 154.503906 76.832031 157.339844 " fill-opacity="1" fill-rule="nonzero"/><path fill="#d3f28d" d="M 83.007812 156.445312 C 82.90625 157.882812 85.464844 159.238281 87.417969 159.359375 C 89.367188 159.484375 92.316406 158.007812 92.636719 157.117188 C 92.863281 156.492188 89.726562 154.277344 87.773438 154.152344 C 85.824219 154.03125 83.101562 155.007812 83.007812 156.445312 " fill-opacity="1" fill-rule="nonzero"/><path fill="#a1211a" d="M 48.15625 200.570312 C 47.996094 200.570312 47.835938 200.535156 47.6875 200.453125 C 47.207031 200.195312 47.023438 199.59375 47.28125 199.113281 C 54.746094 185.117188 56.457031 170.511719 56.804688 166.371094 C 56.8125 166.246094 56.820312 166.167969 56.824219 166.132812 C 56.890625 165.589844 57.382812 165.199219 57.925781 165.265625 C 58.46875 165.328125 58.859375 165.820312 58.796875 166.363281 L 58.78125 166.535156 C 58.425781 170.773438 56.675781 185.714844 49.03125 200.046875 C 48.851562 200.382812 48.511719 200.570312 48.15625 200.570312 " fill-opacity="1" fill-rule="nonzero"/><path fill="#a1211a" d="M 65.898438 201.957031 C 65.839844 201.957031 65.785156 201.953125 65.726562 201.941406 C 65.1875 201.84375 64.824219 201.332031 64.921875 200.792969 C 68.03125 183.09375 62.847656 164.9375 62.792969 164.753906 C 62.640625 164.230469 62.945312 163.679688 63.46875 163.523438 C 63.996094 163.371094 64.546875 163.675781 64.699219 164.199219 C 64.753906 164.386719 70.066406 182.988281 66.875 201.136719 C 66.789062 201.617188 66.371094 201.957031 65.898438 201.957031 " fill-opacity="1" fill-rule="nonzero"/><path fill="#cf3c34" d="M 67.75 158.019531 C 66.949219 160.105469 64.289062 162.679688 62.496094 161.988281 C 60.703125 161.296875 60.453125 157.605469 61.253906 155.515625 C 62.058594 153.429688 63.609375 153.738281 65.402344 154.429688 C 67.195312 155.121094 68.554688 155.933594 67.75 158.019531 " fill-opacity="1" fill-rule="nonzero"/><path fill="#ee7c1c" d="M 55.292969 146.023438 C 54.570312 149.988281 58.257812 153.992188 63.53125 154.960938 C 68.804688 155.929688 73.664062 153.503906 74.386719 149.539062 C 75.109375 145.574219 71.421875 141.574219 66.152344 140.605469 C 60.878906 139.632812 56.019531 142.0625 55.292969 146.023438 " fill-opacity="1" fill-rule="nonzero"/><path fill="#eb5b0e" d="M 59.761719 147.789062 C 59.21875 150.785156 61.8125 153.769531 65.558594 154.460938 C 69.304688 155.152344 72.785156 153.285156 73.332031 150.292969 C 73.875 147.300781 71.28125 144.316406 67.535156 143.625 C 63.789062 142.933594 60.308594 144.796875 59.761719 147.789062 " fill-opacity="1" fill-rule="nonzero"/><path fill="#cf3c34" d="M 73.144531 147.902344 C 73.488281 149.585938 72.699219 151.167969 71.382812 151.433594 C 70.070312 151.703125 68.726562 150.554688 68.382812 148.871094 C 68.042969 147.1875 68.828125 145.605469 70.144531 145.339844 C 71.457031 145.070312 72.800781 146.21875 73.144531 147.902344 " fill-opacity="1" fill-rule="nonzero"/><path fill="#a1211a" d="M 72.925781 138.765625 C 72.964844 140.167969 69.949219 141.390625 66.191406 141.496094 C 62.433594 141.597656 59.355469 140.546875 59.316406 139.140625 C 59.277344 137.738281 62.292969 136.515625 66.050781 136.410156 C 69.808594 136.308594 72.886719 137.359375 72.925781 138.765625 " fill-opacity="1" fill-rule="nonzero"/><path fill="#a1211a" d="M 86.832031 125.859375 C 91.386719 123.921875 92.714844 121.117188 93.121094 115.851562 C 93.15625 115.386719 92.925781 114.953125 92.609375 114.648438 C 92.207031 114.28125 91.679688 114.117188 91.332031 114.347656 C 91.21875 114.414062 91.113281 114.539062 91.0625 114.707031 C 90.984375 114.917969 90.914062 115.109375 90.835938 115.292969 C 90.832031 115.308594 90.820312 115.316406 90.824219 115.328125 C 89.625 118.464844 88.070312 119.871094 85.023438 120.46875 C 84.835938 120.496094 84.632812 120.53125 84.429688 120.566406 C 83.816406 120.660156 83.59375 121.347656 83.875 122.078125 C 84.226562 122.996094 84.523438 123.761719 84.863281 124.65625 C 85.207031 125.558594 86.171875 126.132812 86.832031 125.859375 " fill-opacity="1" fill-rule="nonzero"/><path fill="#cf3c34" d="M 87.042969 123.132812 C 90.71875 121.34375 91.976562 119.171875 92.707031 115.242188 C 92.75 115.019531 92.703125 114.820312 92.609375 114.648438 C 92.34375 114.171875 91.683594 113.96875 91.332031 114.347656 C 91.273438 114.40625 91.230469 114.46875 91.191406 114.546875 C 91.078125 114.800781 90.949219 115.066406 90.835938 115.292969 C 90.832031 115.308594 90.820312 115.316406 90.824219 115.328125 C 89.625 118.464844 88.070312 119.871094 85.023438 120.46875 C 85.023438 120.496094 85.027344 120.539062 85.039062 120.5625 C 85.238281 121.214844 85.40625 121.761719 85.59375 122.390625 C 85.804688 123.035156 86.503906 123.382812 87.042969 123.132812 " fill-opacity="1" fill-rule="nonzero"/><path fill="#ee7c1c" d="M 87.6875 114.414062 C 90.292969 124.230469 82.902344 134.714844 71.179688 137.832031 C 59.453125 140.953125 47.832031 135.523438 45.222656 125.707031 C 42.617188 115.894531 50.007812 105.410156 61.734375 102.289062 C 73.457031 99.171875 85.078125 104.601562 87.6875 114.414062 " fill-opacity="1" fill-rule="nonzero"/><path fill="#cf3c34" d="M 85.605469 112.417969 C 87.863281 120.914062 80.511719 130.246094 69.1875 133.257812 C 57.859375 136.269531 46.847656 131.824219 44.589844 123.324219 C 42.332031 114.828125 49.683594 105.496094 61.011719 102.484375 C 72.335938 99.472656 83.347656 103.917969 85.605469 112.417969 " fill-opacity="1" fill-rule="nonzero"/><path fill="#a1211a" d="M 63.847656 105.4375 C 64.929688 107.488281 62.425781 110.941406 58.25 113.15625 C 54.074219 115.367188 49.808594 115.503906 48.722656 113.453125 C 47.636719 111.40625 50.144531 107.953125 54.320312 105.738281 C 58.496094 103.527344 62.761719 103.390625 63.847656 105.4375 " fill-opacity="1" fill-rule="nonzero"/><path fill="#d96c66" d="M 86.613281 113.273438 C 87.050781 118.902344 81.28125 123.945312 73.722656 124.53125 C 66.164062 125.121094 59.683594 121.03125 59.246094 115.398438 C 58.808594 109.765625 64.582031 104.726562 72.136719 104.136719 C 79.695312 103.550781 86.175781 107.640625 86.613281 113.273438 " fill-opacity="1" fill-rule="nonzero"/><path fill="#a1211a" d="M 51.378906 108.703125 C 50.945312 104.113281 50.589844 99.523438 50.320312 94.921875 C 50.191406 92.621094 50.09375 90.316406 50.042969 88.003906 L 50.023438 86.265625 L 50.042969 84.527344 C 50.046875 83.949219 50.09375 83.359375 50.117188 82.777344 C 50.140625 82.195312 50.230469 81.597656 50.285156 81.007812 C 50.292969 80.929688 50.316406 80.859375 50.351562 80.792969 L 50.367188 80.769531 C 50.667969 80.265625 50.972656 79.765625 51.265625 79.257812 L 52.089844 77.703125 C 52.351562 77.179688 52.597656 76.648438 52.851562 76.121094 C 53.09375 75.585938 53.308594 75.039062 53.535156 74.5 C 54.402344 72.324219 55.078125 70.066406 55.507812 67.773438 C 55.9375 65.480469 56.125 63.140625 55.972656 60.832031 C 55.808594 58.535156 55.253906 56.253906 54.152344 54.285156 C 53.808594 53.671875 54.027344 52.894531 54.640625 52.546875 C 55.253906 52.203125 56.035156 52.421875 56.378906 53.039062 C 56.4375 53.144531 56.480469 53.257812 56.507812 53.371094 L 56.511719 53.394531 C 57.078125 55.882812 57.371094 58.335938 57.386719 60.777344 C 57.421875 63.21875 57.144531 65.636719 56.652344 68 C 56.15625 70.359375 55.441406 72.667969 54.570312 74.90625 C 54.339844 75.464844 54.125 76.023438 53.886719 76.574219 L 53.148438 78.222656 L 52.355469 79.839844 C 52.066406 80.367188 51.792969 80.90625 51.511719 81.4375 L 51.59375 81.199219 C 51.320312 83.390625 51.332031 85.699219 51.367188 87.980469 C 51.414062 90.265625 51.511719 92.554688 51.640625 94.847656 C 51.90625 99.425781 52.261719 104.007812 52.695312 108.574219 C 52.730469 108.941406 52.464844 109.265625 52.101562 109.300781 C 51.738281 109.335938 51.414062 109.070312 51.378906 108.703125 " fill-opacity="1" fill-rule="nonzero"/><g clip-path="url(#811233a804)"><path fill="#a1211a" d="M 58.652344 108.640625 C 58.660156 106.289062 58.683594 103.945312 58.726562 101.597656 C 58.773438 99.253906 58.828125 96.90625 58.921875 94.558594 C 59.015625 92.210938 59.117188 89.867188 59.300781 87.515625 C 59.339844 86.929688 59.398438 86.339844 59.453125 85.75 C 59.503906 85.164062 59.5625 84.578125 59.644531 83.984375 L 59.753906 83.101562 L 59.90625 82.210938 C 59.988281 81.625 60.167969 81.007812 60.339844 80.398438 C 60.382812 80.242188 60.488281 80.121094 60.617188 80.054688 L 60.679688 80.023438 C 62.023438 79.417969 63.292969 78.609375 64.503906 77.722656 C 65.722656 76.835938 66.871094 75.847656 67.964844 74.800781 C 70.15625 72.710938 72.167969 70.414062 73.988281 67.980469 C 75.8125 65.550781 77.449219 62.976562 78.828125 60.285156 C 79.503906 58.9375 80.101562 57.550781 80.535156 56.128906 C 80.972656 54.71875 81.246094 53.234375 81.109375 51.917969 C 81.042969 51.285156 81.496094 50.722656 82.121094 50.660156 C 82.75 50.59375 83.308594 51.046875 83.375 51.675781 C 83.382812 51.753906 83.382812 51.839844 83.371094 51.917969 C 83.175781 53.679688 82.65625 55.203125 82.054688 56.671875 C 81.445312 58.136719 80.753906 59.539062 80.007812 60.90625 C 78.519531 63.640625 76.785156 66.21875 74.910156 68.675781 C 73.011719 71.121094 70.996094 73.480469 68.753906 75.628906 C 66.5 77.753906 64.097656 79.777344 61.242188 81.222656 C 61.242188 81.222656 61.582031 80.847656 61.582031 80.847656 C 61.445312 81.367188 61.285156 81.875 61.207031 82.449219 L 61.0625 83.292969 L 60.957031 84.152344 C 60.878906 84.722656 60.820312 85.296875 60.769531 85.878906 C 60.714844 86.457031 60.660156 87.035156 60.621094 87.617188 C 60.441406 89.9375 60.335938 92.273438 60.242188 94.609375 C 60.152344 96.945312 60.097656 99.285156 60.050781 101.625 C 60.007812 103.960938 59.980469 106.304688 59.976562 108.640625 C 59.972656 109.007812 59.675781 109.304688 59.3125 109.304688 C 58.945312 109.300781 58.652344 109.003906 58.652344 108.640625 " fill-opacity="1" fill-rule="nonzero"/></g><path fill="#ffffff" d="M 84.539062 114.136719 C 83.042969 115.632812 81.8125 114.214844 79.535156 111.9375 C 77.253906 109.65625 74.789062 107.378906 76.285156 105.882812 C 77.78125 104.386719 81.472656 104.164062 83.75 106.441406 C 86.027344 108.722656 86.03125 112.640625 84.539062 114.136719 " fill-opacity="1" fill-rule="nonzero"/><path fill="#a1211a" d="M 87.824219 166.011719 C 87.730469 166.011719 87.632812 166 87.539062 165.96875 C 69.945312 160.625 69.785156 148.980469 69.785156 148.488281 C 69.789062 147.941406 70.230469 147.5 70.777344 147.5 C 71.328125 147.503906 71.769531 147.945312 71.769531 148.492188 C 71.773438 148.945312 72.023438 159.183594 88.113281 164.070312 C 88.636719 164.230469 88.933594 164.785156 88.773438 165.308594 C 88.644531 165.734375 88.25 166.011719 87.824219 166.011719 " fill-opacity="1" fill-rule="nonzero"/><path fill="#ab342e" d="M 74.082031 102.097656 C 74.558594 102.460938 72.933594 102.96875 71.882812 104.363281 C 70.832031 105.753906 70.757812 107.503906 70.277344 107.140625 C 69.800781 106.78125 69.398438 104.707031 70.445312 103.3125 C 71.496094 101.921875 73.601562 101.738281 74.082031 102.097656 " fill-opacity="1" fill-rule="nonzero"/><path fill="#cf3c34" d="M 87.925781 162.023438 C 86.769531 161.804688 85.585938 162.910156 85.285156 164.496094 C 84.980469 166.082031 85.675781 167.550781 86.832031 167.769531 C 87.988281 167.992188 89.171875 166.882812 89.472656 165.296875 C 89.777344 163.710938 89.085938 162.246094 87.925781 162.023438 " fill-opacity="1" fill-rule="nonzero"/><path fill="#7d1a14" d="M 44.257812 203.023438 L 44.257812 206.105469 C 44.257812 207.0625 45.035156 207.847656 46 207.847656 L 57.898438 207.847656 C 58.746094 207.847656 59.421875 207.160156 59.421875 206.324219 C 59.421875 205.636719 58.96875 205.042969 58.3125 204.851562 L 53.949219 202.941406 C 53.914062 202.011719 53.15625 201.273438 52.21875 201.273438 L 46 201.273438 C 45.035156 201.273438 44.257812 202.058594 44.257812 203.023438 " fill-opacity="1" fill-rule="nonzero"/><g clip-path="url(#d9140a7996)"><path fill="#a1211a" d="M 67.125 208.367188 L 76.972656 208.367188 C 77.8125 208.367188 78.492188 207.683594 78.492188 206.84375 C 78.492188 206.160156 78.042969 205.5625 77.386719 205.378906 L 67.125 202.476562 L 67.125 208.367188 " fill-opacity="1" fill-rule="nonzero"/></g><g clip-path="url(#68bfe35168)"><path fill="#a1211a" d="M 63.195312 208.367188 L 68.414062 208.367188 C 69.652344 208.367188 70.652344 207.359375 70.652344 206.121094 L 70.652344 204.042969 C 70.652344 202.804688 69.652344 201.800781 68.414062 201.800781 L 63.195312 201.800781 C 61.957031 201.800781 60.953125 202.804688 60.953125 204.042969 L 60.953125 206.121094 C 60.953125 207.359375 61.957031 208.367188 63.195312 208.367188 " fill-opacity="1" fill-rule="nonzero"/></g><path fill="#7d1a14" d="M 47.042969 202.039062 L 50.558594 202.039062 C 51.238281 202.039062 51.789062 201.488281 51.789062 200.808594 L 51.789062 199.671875 C 51.789062 198.992188 51.238281 198.441406 50.558594 198.441406 L 47.042969 198.441406 C 46.367188 198.441406 45.816406 198.992188 45.816406 199.671875 L 45.816406 200.808594 C 45.816406 201.488281 46.367188 202.039062 47.042969 202.039062 " fill-opacity="1" fill-rule="nonzero"/><path fill="#a1211a" d="M 63.9375 202.761719 L 67.859375 202.761719 C 68.535156 202.761719 69.085938 202.210938 69.085938 201.53125 L 69.085938 200.394531 C 69.085938 199.714844 68.535156 199.164062 67.859375 199.164062 L 63.9375 199.164062 C 63.261719 199.164062 62.710938 199.714844 62.710938 200.394531 L 62.710938 201.53125 C 62.710938 202.210938 63.261719 202.761719 63.9375 202.761719 " fill-opacity="1" fill-rule="nonzero"/><path fill="#493943" d="M 83.589844 106.15625 C 84.40625 106.824219 84.6875 107.835938 84.210938 108.417969 C 83.738281 109 82.691406 108.929688 81.875 108.265625 C 81.058594 107.601562 80.777344 106.589844 81.253906 106.007812 C 81.726562 105.425781 82.773438 105.492188 83.589844 106.15625 " fill-opacity="1" fill-rule="nonzero"/><path fill="#ffffff" d="M 82.148438 106.367188 C 82.445312 106.613281 82.53125 107.007812 82.332031 107.25 C 82.132812 107.496094 81.730469 107.496094 81.429688 107.253906 C 81.132812 107.007812 81.050781 106.613281 81.246094 106.371094 C 81.445312 106.125 81.847656 106.125 82.148438 106.367188 " fill-opacity="1" fill-rule="nonzero"/><path fill="#493943" d="M 60.195312 170.082031 C 58.769531 171.113281 57.074219 172.117188 55.234375 173.019531 C 54.097656 173.585938 52.898438 174.117188 51.695312 174.597656 C 50.21875 175.171875 48.703125 175.675781 47.230469 176.078125 C 46.804688 176.199219 46.367188 176.292969 45.929688 176.375 C 44.027344 176.78125 42.117188 176.90625 40.273438 176.78125 C 38.78125 176.691406 37.328125 176.457031 35.96875 176.058594 C 31.378906 174.78125 26.429688 171.839844 24.921875 167.894531 C 23.199219 163.425781 25.984375 158.738281 29.71875 155.277344 C 30.71875 154.355469 31.863281 153.527344 33.152344 152.828125 C 34.488281 152.082031 35.980469 151.484375 37.597656 151.042969 C 39.242188 150.601562 41.082031 150.429688 42.988281 150.519531 C 44.820312 150.613281 46.703125 150.9375 48.589844 151.449219 C 48.921875 151.53125 49.25 151.625 49.578125 151.734375 C 49.589844 151.734375 49.605469 151.734375 49.621094 151.75 C 50.933594 152.144531 52.207031 152.640625 53.460938 153.203125 C 55.671875 154.21875 57.734375 155.492188 59.492188 156.933594 C 61.761719 158.820312 63.53125 161.019531 64.453125 163.414062 C 65.199219 165.378906 63.335938 167.804688 60.195312 170.082031 " fill-opacity="1" fill-rule="nonzero"/><path fill="#845e6c" d="M 35.628906 168.878906 C 41.054688 170.035156 52.269531 171.742188 60.941406 166.839844 C 61.433594 166.5625 61.996094 167.125 61.585938 167.488281 C 58.378906 170.3125 51.648438 174.601562 41.246094 174.964844 C 36.996094 174.894531 34.339844 173.953125 32.945312 172.628906 C 31.183594 170.957031 33.109375 168.34375 35.628906 168.878906 " fill-opacity="1" fill-rule="nonzero"/><path fill="#846867" d="M 62.464844 163.558594 C 61.941406 162.898438 61.367188 162.304688 60.734375 161.796875 C 59.679688 160.910156 58.5 160.234375 57.238281 159.738281 C 55.601562 159.050781 53.839844 158.65625 52.082031 158.460938 C 50.839844 158.3125 49.601562 158.273438 48.417969 158.300781 C 45.410156 158.355469 42.6875 158.859375 40.960938 159.308594 C 39.894531 159.585938 39.214844 159.84375 39.035156 159.988281 C 38.820312 160.140625 38.515625 160.316406 38.121094 160.453125 C 36.632812 161 34.039062 161.210938 32.207031 159.390625 C 30.699219 157.902344 32.109375 156.3125 32.90625 155.609375 C 33.171875 155.382812 33.367188 155.238281 33.367188 155.238281 C 33.367188 155.238281 34.277344 154.644531 35.851562 154.011719 C 37.980469 153.132812 41.308594 152.203125 45.277344 152.566406 C 46.78125 152.695312 48.347656 153.007812 49.996094 153.589844 C 52.210938 154.355469 54.21875 155.382812 55.976562 156.492188 C 57.734375 157.605469 59.238281 158.796875 60.398438 159.882812 C 62.976562 162.273438 63.945312 164.164062 62.464844 163.558594 " fill-opacity="1" fill-rule="nonzero"/><path fill="#381e34" d="M 40.273438 176.78125 C 38.78125 176.691406 37.328125 176.457031 35.96875 176.058594 C 39.632812 175.011719 41.347656 169.597656 39.703125 164.046875 C 38.640625 160.433594 36.308594 157.332031 33.628906 155.941406 C 32.691406 155.460938 31.25 154.960938 29.730469 155.320312 L 29.71875 155.277344 C 30.71875 154.355469 31.863281 153.527344 33.152344 152.828125 C 33.824219 153.007812 34.488281 153.28125 35.164062 153.617188 C 38.625 155.394531 41.460938 159.058594 42.746094 163.4375 C 44.351562 168.863281 43.261719 173.988281 40.273438 176.78125 " fill-opacity="1" fill-rule="nonzero"/><path fill="#381e34" d="M 51.695312 174.597656 C 50.21875 175.171875 48.703125 175.675781 47.230469 176.078125 C 46.804688 176.199219 46.367188 176.292969 45.929688 176.375 C 48.664062 174.902344 50.660156 169.429688 49.480469 162.433594 C 48.605469 157.214844 46.132812 152.585938 43.164062 150.625 C 43.105469 150.582031 43.046875 150.550781 42.988281 150.519531 C 44.820312 150.613281 46.703125 150.9375 48.589844 151.449219 C 50.691406 154.207031 52.265625 157.960938 52.945312 162.070312 C 53.761719 166.925781 53.21875 171.367188 51.695312 174.597656 " fill-opacity="1" fill-rule="nonzero"/><path fill="#381e34" d="M 49.578125 151.734375 C 49.589844 151.734375 49.605469 151.734375 49.621094 151.75 L 49.574219 151.746094 L 49.578125 151.734375 " fill-opacity="1" fill-rule="nonzero"/><path fill="#381e34" d="M 60.195312 170.082031 C 58.769531 171.113281 57.074219 172.117188 55.234375 173.019531 C 57.1875 170.828125 58.253906 166.855469 57.773438 162.5625 C 57.347656 158.671875 55.710938 155.152344 53.460938 153.203125 C 55.671875 154.21875 57.734375 155.492188 59.492188 156.933594 C 60.144531 158.585938 60.597656 160.390625 60.8125 162.296875 C 61.132812 165.128906 60.886719 167.789062 60.195312 170.082031 " fill-opacity="1" fill-rule="nonzero"/><path fill="#dbb9af" d="M 40.945312 159.304688 C 39.894531 159.585938 39.214844 159.84375 39.035156 159.988281 C 38.820312 160.140625 38.515625 160.316406 38.121094 160.453125 C 36.945312 158.449219 35.355469 156.835938 33.628906 155.941406 C 33.40625 155.828125 33.171875 155.714844 32.90625 155.609375 C 33.171875 155.382812 33.367188 155.238281 33.367188 155.238281 C 33.367188 155.238281 33.859375 154.917969 34.742188 154.496094 C 35.425781 154.167969 36.28125 154.253906 36.890625 154.707031 C 38.46875 155.875 39.859375 157.460938 40.945312 159.304688 " fill-opacity="1" fill-rule="nonzero"/><path fill="#dbb9af" d="M 51.09375 158.367188 C 50.359375 158.308594 49.632812 158.289062 48.921875 158.292969 C 48.621094 158.296875 48.355469 158.125 48.265625 157.875 C 47.664062 156.289062 46.925781 154.847656 46.082031 153.628906 C 45.777344 153.1875 46.207031 152.660156 46.785156 152.757812 C 47.824219 152.929688 48.890625 153.199219 49.996094 153.589844 C 50.714844 154.824219 51.320312 156.179688 51.8125 157.625 C 51.949219 158.027344 51.570312 158.402344 51.09375 158.367188 " fill-opacity="1" fill-rule="nonzero"/><path fill="#dbb9af" d="M 57.238281 159.738281 C 56.914062 158.566406 56.488281 157.46875 55.976562 156.492188 C 57.601562 157.519531 59.007812 158.617188 60.128906 159.636719 C 60.308594 159.796875 60.425781 160 60.472656 160.21875 C 60.585938 160.734375 60.683594 161.261719 60.734375 161.796875 C 59.679688 160.910156 58.5 160.234375 57.238281 159.738281 " fill-opacity="1" fill-rule="nonzero"/><path fill="#ee7c1c" d="M 97.238281 158.722656 L 97.164062 158.480469 C 97.027344 158.03125 96.511719 157.820312 96.101562 158.042969 L 88.574219 162.160156 L 90.359375 165.425781 L 96.632812 160.617188 C 97.210938 160.171875 97.453125 159.417969 97.238281 158.722656 " fill-opacity="1" fill-rule="nonzero"/><path fill="#ee7c1c" d="M 98.417969 170.148438 L 100.671875 168.765625 C 101.511719 168.25 102.015625 167.328125 102 166.347656 L 101.964844 164.050781 C 101.953125 163.210938 101.160156 162.601562 100.347656 162.804688 L 96.261719 163.808594 L 96.324219 163.65625 L 92.003906 161.453125 C 90.777344 160.839844 89.273438 161.359375 88.699219 162.621094 L 87.261719 165.65625 C 86.695312 166.882812 87.222656 168.335938 88.449219 168.902344 L 92.40625 170.742188 C 92.863281 170.957031 93.367188 171.039062 93.867188 170.988281 L 96.84375 170.683594 C 97.402344 170.625 97.941406 170.441406 98.417969 170.148438 " fill-opacity="1" fill-rule="nonzero"/><path fill="#8fb33d" d="M 136.054688 204.496094 C 134.054688 203.507812 131.410156 203.234375 130.125 202.570312 C 126.4375 203.636719 119.804688 203.554688 116.035156 201.464844 C 111.203125 198.789062 106.460938 191.957031 108.640625 188.054688 C 110.820312 184.15625 119.097656 184.671875 123.929688 187.34375 C 127.722656 189.445312 131.664062 196.023438 132.492188 199.460938 C 134.546875 201.460938 136.011719 202.796875 136.011719 202.796875 C 136.011719 202.796875 135.519531 202.957031 135.40625 203.265625 C 135.320312 203.492188 136.082031 204.277344 136.054688 204.496094 " fill-opacity="1" fill-rule="nonzero"/><path fill="#b4d667" d="M 113.375 187.640625 C 111.988281 190.121094 115.410156 194.699219 118.785156 196.566406 C 122.164062 198.433594 128.664062 198.289062 129.988281 196.96875 C 130.914062 196.042969 127.1875 189.445312 123.8125 187.578125 C 120.433594 185.710938 114.761719 185.160156 113.375 187.640625 " fill-opacity="1" fill-rule="nonzero"/><path fill="#d3f28d" d="M 119.335938 189.46875 C 118.632812 190.730469 120.371094 193.046875 122.078125 193.992188 C 123.792969 194.941406 127.085938 194.867188 127.757812 194.199219 C 128.226562 193.730469 126.339844 190.386719 124.628906 189.4375 C 122.914062 188.492188 120.039062 188.214844 119.335938 189.46875 " fill-opacity="1" fill-rule="nonzero"/></svg>