<svg xmlns="http://www.w3.org/2000/svg" xmlns:xlink="http://www.w3.org/1999/xlink" width="180" zoomAndPan="magnify" viewBox="0 0 135 37.5" height="50" preserveAspectRatio="xMidYMid meet" version="1.0"><defs><g/><clipPath id="4526fa7d8c"><path d="M 127 13 L 134.109375 13 L 134.109375 21 L 127 21 Z M 127 13 " clip-rule="nonzero"/></clipPath></defs><g fill="#ff914d" fill-opacity="1"><g transform="translate(10.417922, 24.110273)"><g><path d="M 1.15625 -10.160156 L 1.15625 -7.695312 L 14.914062 -2.488281 L 14.914062 -4.753906 L 3.445312 -8.929688 L 14.914062 -13.128906 L 14.914062 -15.394531 Z M 1.15625 -10.160156 "/></g></g></g><g fill="#5271ff" fill-opacity="0.4"><g transform="translate(15.217958, 4.324438)"><g><path d="M -0.910156 8.007812 L -0.910156 6.066406 L -11.757812 1.960938 L -11.757812 3.746094 L -2.714844 7.039062 L -11.757812 10.347656 L -11.757812 12.132812 Z M -0.910156 8.007812 "/></g></g></g><g fill="#5271ff" fill-opacity="1"><g transform="translate(16.09415, 5.20063)"><g><path d="M -0.910156 8.007812 L -0.910156 6.066406 L -11.757812 1.960938 L -11.757812 3.746094 L -2.714844 7.039062 L -11.757812 10.347656 L -11.757812 12.132812 Z M -0.910156 8.007812 "/></g></g></g><g fill="#5271ff" fill-opacity="0.4"><g transform="translate(15.217958, 12.763094)"><g><path d="M -0.910156 8.007812 L -0.910156 6.066406 L -11.757812 1.960938 L -11.757812 3.746094 L -2.714844 7.039062 L -11.757812 10.347656 L -11.757812 12.132812 Z M -0.910156 8.007812 "/></g></g></g><g fill="#5271ff" fill-opacity="1"><g transform="translate(16.09415, 13.639286)"><g><path d="M -0.910156 8.007812 L -0.910156 6.066406 L -11.757812 1.960938 L -11.757812 3.746094 L -2.714844 7.039062 L -11.757812 10.347656 L -11.757812 12.132812 Z M -0.910156 8.007812 "/></g></g></g><g fill="#5271ff" fill-opacity="0.4"><g transform="translate(25.934735, 20.470459)"><g><path d="M 0.578125 0 L 2.203125 -9.828125 L 5.640625 -9.828125 C 6.328125 -9.828125 6.875 -9.707031 7.28125 -9.46875 C 7.6875 -9.238281 7.960938 -8.925781 8.109375 -8.53125 C 8.265625 -8.132812 8.300781 -7.695312 8.21875 -7.21875 C 8.113281 -6.582031 7.875 -6.109375 7.5 -5.796875 C 7.125 -5.492188 6.722656 -5.285156 6.296875 -5.171875 L 6.28125 -5.0625 C 6.570312 -5.050781 6.851562 -4.945312 7.125 -4.75 C 7.394531 -4.5625 7.601562 -4.285156 7.75 -3.921875 C 7.90625 -3.566406 7.941406 -3.128906 7.859375 -2.609375 C 7.773438 -2.117188 7.585938 -1.675781 7.296875 -1.28125 C 7.003906 -0.882812 6.597656 -0.570312 6.078125 -0.34375 C 5.554688 -0.113281 4.90625 0 4.125 0 Z M 1.9375 -1.0625 L 4.296875 -1.0625 C 5.078125 -1.0625 5.65625 -1.210938 6.03125 -1.515625 C 6.414062 -1.816406 6.644531 -2.179688 6.71875 -2.609375 C 6.769531 -2.941406 6.734375 -3.25 6.609375 -3.53125 C 6.484375 -3.8125 6.28125 -4.035156 6 -4.203125 C 5.71875 -4.378906 5.363281 -4.46875 4.9375 -4.46875 L 2.515625 -4.46875 Z M 2.6875 -5.515625 L 4.890625 -5.515625 C 5.253906 -5.515625 5.59375 -5.582031 5.90625 -5.71875 C 6.21875 -5.863281 6.476562 -6.0625 6.6875 -6.3125 C 6.894531 -6.570312 7.023438 -6.875 7.078125 -7.21875 C 7.160156 -7.644531 7.078125 -8.007812 6.828125 -8.3125 C 6.578125 -8.625 6.125 -8.78125 5.46875 -8.78125 L 3.21875 -8.78125 Z M 2.6875 -5.515625 "/></g></g></g><g fill="#5271ff" fill-opacity="0.4"><g transform="translate(34.728817, 20.470459)"><g><path d="M 3.46875 0.15625 C 2.789062 0.15625 2.222656 -0.00390625 1.765625 -0.328125 C 1.316406 -0.648438 0.992188 -1.101562 0.796875 -1.6875 C 0.609375 -2.269531 0.578125 -2.945312 0.703125 -3.71875 C 0.828125 -4.476562 1.070312 -5.140625 1.4375 -5.703125 C 1.800781 -6.265625 2.253906 -6.695312 2.796875 -7 C 3.335938 -7.3125 3.9375 -7.46875 4.59375 -7.46875 C 5.269531 -7.46875 5.835938 -7.304688 6.296875 -6.984375 C 6.753906 -6.660156 7.078125 -6.203125 7.265625 -5.609375 C 7.453125 -5.023438 7.484375 -4.347656 7.359375 -3.578125 C 7.234375 -2.828125 6.988281 -2.171875 6.625 -1.609375 C 6.257812 -1.046875 5.804688 -0.609375 5.265625 -0.296875 C 4.722656 0.00390625 4.125 0.15625 3.46875 0.15625 Z M 3.5 -0.859375 C 4.007812 -0.859375 4.457031 -0.988281 4.84375 -1.25 C 5.226562 -1.519531 5.539062 -1.875 5.78125 -2.3125 C 6.019531 -2.75 6.179688 -3.21875 6.265625 -3.71875 C 6.335938 -4.195312 6.332031 -4.644531 6.25 -5.0625 C 6.164062 -5.476562 5.988281 -5.8125 5.71875 -6.0625 C 5.445312 -6.320312 5.0625 -6.453125 4.5625 -6.453125 C 4.050781 -6.453125 3.601562 -6.316406 3.21875 -6.046875 C 2.832031 -5.773438 2.519531 -5.421875 2.28125 -4.984375 C 2.039062 -4.546875 1.878906 -4.078125 1.796875 -3.578125 C 1.722656 -3.085938 1.726562 -2.640625 1.8125 -2.234375 C 1.894531 -1.828125 2.070312 -1.492188 2.34375 -1.234375 C 2.613281 -0.984375 3 -0.859375 3.5 -0.859375 Z M 3.5 -0.859375 "/></g></g></g><g fill="#5271ff" fill-opacity="0.4"><g transform="translate(42.79326, 20.470459)"><g><path d="M 5.5625 -3.015625 L 6.296875 -7.375 L 7.4375 -7.375 L 6.203125 0 L 5.0625 0 L 5.28125 -1.25 L 5.203125 -1.25 C 4.972656 -0.875 4.648438 -0.554688 4.234375 -0.296875 C 3.828125 -0.0351562 3.34375 0.09375 2.78125 0.09375 C 2.09375 0.09375 1.5625 -0.132812 1.1875 -0.59375 C 0.820312 -1.050781 0.710938 -1.75 0.859375 -2.6875 L 1.65625 -7.375 L 2.78125 -7.375 L 2.015625 -2.765625 C 1.929688 -2.222656 2.015625 -1.789062 2.265625 -1.46875 C 2.515625 -1.15625 2.875 -1 3.34375 -1 C 3.625 -1 3.921875 -1.070312 4.234375 -1.21875 C 4.546875 -1.363281 4.828125 -1.582031 5.078125 -1.875 C 5.328125 -2.175781 5.488281 -2.554688 5.5625 -3.015625 Z M 5.5625 -3.015625 "/></g></g></g><g fill="#5271ff" fill-opacity="0.4"><g transform="translate(50.646489, 20.470459)"><g><path d="M 2.28125 -4.4375 L 1.5625 0 L 0.421875 0 L 1.65625 -7.375 L 2.75 -7.375 L 2.546875 -6.21875 L 2.65625 -6.21875 C 2.882812 -6.59375 3.191406 -6.894531 3.578125 -7.125 C 3.972656 -7.351562 4.453125 -7.46875 5.015625 -7.46875 C 5.753906 -7.46875 6.316406 -7.238281 6.703125 -6.78125 C 7.085938 -6.320312 7.203125 -5.625 7.046875 -4.6875 L 6.265625 0 L 5.125 0 L 5.890625 -4.609375 C 5.984375 -5.179688 5.90625 -5.628906 5.65625 -5.953125 C 5.414062 -6.285156 5.035156 -6.453125 4.515625 -6.453125 C 3.960938 -6.453125 3.476562 -6.273438 3.0625 -5.921875 C 2.65625 -5.578125 2.394531 -5.082031 2.28125 -4.4375 Z M 2.28125 -4.4375 "/></g></g></g><g fill="#5271ff" fill-opacity="0.4"><g transform="translate(58.557323, 20.470459)"><g><path d="M 4.859375 -7.375 L 4.703125 -6.40625 L 3.109375 -6.40625 L 2.40625 -2.109375 C 2.351562 -1.785156 2.359375 -1.546875 2.421875 -1.390625 C 2.492188 -1.234375 2.597656 -1.128906 2.734375 -1.078125 C 2.878906 -1.023438 3.035156 -1 3.203125 -1 C 3.328125 -1 3.429688 -1.003906 3.515625 -1.015625 C 3.597656 -1.035156 3.660156 -1.050781 3.703125 -1.0625 L 3.78125 -0.03125 C 3.695312 -0.0078125 3.582031 0.015625 3.4375 0.046875 C 3.289062 0.078125 3.113281 0.09375 2.90625 0.09375 C 2.582031 0.09375 2.28125 0.0234375 2 -0.109375 C 1.71875 -0.242188 1.5 -0.453125 1.34375 -0.734375 C 1.195312 -1.015625 1.160156 -1.367188 1.234375 -1.796875 L 1.984375 -6.40625 L 0.890625 -6.40625 L 1.03125 -7.375 L 2.140625 -7.375 L 2.4375 -9.140625 L 3.578125 -9.140625 L 3.28125 -7.375 Z M 4.859375 -7.375 "/></g></g></g><g fill="#5271ff" fill-opacity="0.4"><g transform="translate(63.472793, 20.470459)"><g><path d="M 0.65625 2.859375 C 0.457031 2.859375 0.285156 2.84375 0.140625 2.8125 C -0.00390625 2.78125 -0.101562 2.75 -0.15625 2.71875 L 0.28125 1.734375 C 0.550781 1.796875 0.789062 1.816406 1 1.796875 C 1.207031 1.773438 1.40625 1.679688 1.59375 1.515625 C 1.78125 1.347656 1.972656 1.085938 2.171875 0.734375 L 2.578125 0 L 1.078125 -7.375 L 2.265625 -7.375 L 3.328125 -1.5 L 3.390625 -1.5 L 6.40625 -7.375 L 7.671875 -7.375 L 3.09375 1.1875 C 2.488281 2.300781 1.675781 2.859375 0.65625 2.859375 Z M 0.65625 2.859375 "/></g></g></g><g fill="#5271ff" fill-opacity="0.4"><g transform="translate(70.999602, 20.470459)"><g><path d="M 9.59375 -6.765625 L 8.421875 -6.765625 C 8.410156 -7.210938 8.296875 -7.59375 8.078125 -7.90625 C 7.859375 -8.21875 7.570312 -8.453125 7.21875 -8.609375 C 6.875 -8.765625 6.488281 -8.84375 6.0625 -8.84375 C 5.457031 -8.84375 4.878906 -8.6875 4.328125 -8.375 C 3.785156 -8.070312 3.320312 -7.625 2.9375 -7.03125 C 2.550781 -6.4375 2.289062 -5.707031 2.15625 -4.84375 C 2.007812 -4 2.023438 -3.289062 2.203125 -2.71875 C 2.390625 -2.144531 2.691406 -1.710938 3.109375 -1.421875 C 3.535156 -1.128906 4.039062 -0.984375 4.625 -0.984375 C 5.070312 -0.984375 5.503906 -1.0625 5.921875 -1.21875 C 6.347656 -1.375 6.722656 -1.609375 7.046875 -1.921875 C 7.378906 -2.234375 7.632812 -2.617188 7.8125 -3.078125 L 9 -3.078125 C 8.769531 -2.398438 8.429688 -1.820312 7.984375 -1.34375 C 7.535156 -0.863281 7.019531 -0.492188 6.4375 -0.234375 C 5.851562 0.015625 5.238281 0.140625 4.59375 0.140625 C 3.738281 0.140625 3.007812 -0.0664062 2.40625 -0.484375 C 1.8125 -0.910156 1.390625 -1.503906 1.140625 -2.265625 C 0.890625 -3.035156 0.847656 -3.941406 1.015625 -4.984375 C 1.191406 -6.015625 1.523438 -6.898438 2.015625 -7.640625 C 2.503906 -8.390625 3.101562 -8.960938 3.8125 -9.359375 C 4.519531 -9.765625 5.289062 -9.96875 6.125 -9.96875 C 6.789062 -9.96875 7.378906 -9.835938 7.890625 -9.578125 C 8.410156 -9.328125 8.820312 -8.960938 9.125 -8.484375 C 9.425781 -8.003906 9.582031 -7.429688 9.59375 -6.765625 Z M 9.59375 -6.765625 "/></g></g></g><g fill="#5271ff" fill-opacity="0.4"><g transform="translate(80.83054, 20.470459)"><g><path d="M 2.28125 -4.4375 L 1.5625 0 L 0.421875 0 L 2.046875 -9.828125 L 3.1875 -9.828125 L 2.59375 -6.21875 L 2.6875 -6.21875 C 2.914062 -6.601562 3.222656 -6.90625 3.609375 -7.125 C 3.992188 -7.351562 4.476562 -7.46875 5.0625 -7.46875 C 5.8125 -7.46875 6.378906 -7.238281 6.765625 -6.78125 C 7.160156 -6.332031 7.28125 -5.632812 7.125 -4.6875 L 6.328125 0 L 5.203125 0 L 5.96875 -4.609375 C 6.0625 -5.191406 5.984375 -5.644531 5.734375 -5.96875 C 5.484375 -6.289062 5.09375 -6.453125 4.5625 -6.453125 C 4.007812 -6.453125 3.519531 -6.273438 3.09375 -5.921875 C 2.664062 -5.578125 2.394531 -5.082031 2.28125 -4.4375 Z M 2.28125 -4.4375 "/></g></g></g><g fill="#5271ff" fill-opacity="0.4"><g transform="translate(88.818178, 20.470459)"><g><path d="M 2.578125 0.171875 C 2.109375 0.171875 1.695312 0.0820312 1.34375 -0.09375 C 0.988281 -0.269531 0.726562 -0.523438 0.5625 -0.859375 C 0.394531 -1.203125 0.347656 -1.613281 0.421875 -2.09375 C 0.492188 -2.507812 0.632812 -2.847656 0.84375 -3.109375 C 1.0625 -3.378906 1.320312 -3.585938 1.625 -3.734375 C 1.925781 -3.890625 2.25 -4.003906 2.59375 -4.078125 C 2.945312 -4.160156 3.296875 -4.222656 3.640625 -4.265625 C 4.097656 -4.316406 4.46875 -4.359375 4.75 -4.390625 C 5.039062 -4.421875 5.253906 -4.472656 5.390625 -4.546875 C 5.535156 -4.628906 5.625 -4.757812 5.65625 -4.9375 L 5.65625 -4.96875 C 5.738281 -5.4375 5.675781 -5.800781 5.46875 -6.0625 C 5.269531 -6.332031 4.910156 -6.46875 4.390625 -6.46875 C 3.859375 -6.46875 3.410156 -6.347656 3.046875 -6.109375 C 2.679688 -5.878906 2.414062 -5.628906 2.25 -5.359375 L 1.25 -5.734375 C 1.507812 -6.179688 1.820312 -6.53125 2.1875 -6.78125 C 2.550781 -7.039062 2.929688 -7.21875 3.328125 -7.3125 C 3.734375 -7.414062 4.125 -7.46875 4.5 -7.46875 C 4.726562 -7.46875 4.988281 -7.4375 5.28125 -7.375 C 5.582031 -7.320312 5.863281 -7.207031 6.125 -7.03125 C 6.382812 -6.863281 6.582031 -6.601562 6.71875 -6.25 C 6.851562 -5.90625 6.875 -5.441406 6.78125 -4.859375 L 5.96875 0 L 4.84375 0 L 5.015625 -1 L 4.953125 -1 C 4.847656 -0.84375 4.691406 -0.671875 4.484375 -0.484375 C 4.273438 -0.304688 4.007812 -0.148438 3.6875 -0.015625 C 3.375 0.109375 3.003906 0.171875 2.578125 0.171875 Z M 2.90625 -0.84375 C 3.351562 -0.84375 3.742188 -0.929688 4.078125 -1.109375 C 4.410156 -1.285156 4.679688 -1.507812 4.890625 -1.78125 C 5.097656 -2.0625 5.226562 -2.359375 5.28125 -2.671875 L 5.453125 -3.703125 C 5.390625 -3.648438 5.273438 -3.597656 5.109375 -3.546875 C 4.941406 -3.503906 4.75 -3.460938 4.53125 -3.421875 C 4.320312 -3.390625 4.117188 -3.363281 3.921875 -3.34375 C 3.722656 -3.320312 3.5625 -3.300781 3.4375 -3.28125 C 3.132812 -3.238281 2.847656 -3.175781 2.578125 -3.09375 C 2.304688 -3.007812 2.078125 -2.882812 1.890625 -2.71875 C 1.710938 -2.550781 1.601562 -2.320312 1.5625 -2.03125 C 1.488281 -1.632812 1.578125 -1.335938 1.828125 -1.140625 C 2.085938 -0.941406 2.445312 -0.84375 2.90625 -0.84375 Z M 2.90625 -0.84375 "/></g></g></g><g fill="#5271ff" fill-opacity="0.4"><g transform="translate(96.440993, 20.470459)"><g><path d="M 3.1875 -9.828125 L 1.5625 0 L 0.421875 0 L 2.046875 -9.828125 Z M 3.1875 -9.828125 "/></g></g></g><g fill="#5271ff" fill-opacity="0.4"><g transform="translate(99.647572, 20.470459)"><g><path d="M 3.1875 -9.828125 L 1.5625 0 L 0.421875 0 L 2.046875 -9.828125 Z M 3.1875 -9.828125 "/></g></g></g><g fill="#5271ff" fill-opacity="0.4"><g transform="translate(102.854151, 20.470459)"><g><path d="M 3.5 0.15625 C 2.789062 0.15625 2.203125 0 1.734375 -0.3125 C 1.273438 -0.632812 0.953125 -1.078125 0.765625 -1.640625 C 0.585938 -2.210938 0.5625 -2.875 0.6875 -3.625 C 0.8125 -4.382812 1.054688 -5.050781 1.421875 -5.625 C 1.796875 -6.207031 2.257812 -6.660156 2.8125 -6.984375 C 3.375 -7.304688 3.984375 -7.46875 4.640625 -7.46875 C 5.023438 -7.46875 5.394531 -7.398438 5.75 -7.265625 C 6.101562 -7.140625 6.410156 -6.929688 6.671875 -6.640625 C 6.929688 -6.359375 7.113281 -5.984375 7.21875 -5.515625 C 7.320312 -5.046875 7.316406 -4.46875 7.203125 -3.78125 L 7.125 -3.296875 L 1.765625 -3.296875 C 1.628906 -2.398438 1.734375 -1.769531 2.078125 -1.40625 C 2.421875 -1.039062 2.953125 -0.859375 3.671875 -0.859375 C 4.117188 -0.859375 4.515625 -0.953125 4.859375 -1.140625 C 5.210938 -1.335938 5.492188 -1.628906 5.703125 -2.015625 L 6.734375 -1.703125 C 6.472656 -1.148438 6.054688 -0.703125 5.484375 -0.359375 C 4.910156 -0.015625 4.25 0.15625 3.5 0.15625 Z M 1.921875 -4.28125 L 6.125 -4.28125 C 6.226562 -4.90625 6.132812 -5.421875 5.84375 -5.828125 C 5.550781 -6.242188 5.09375 -6.453125 4.46875 -6.453125 C 4.0625 -6.453125 3.675781 -6.34375 3.3125 -6.125 C 2.957031 -5.90625 2.65625 -5.628906 2.40625 -5.296875 C 2.15625 -4.960938 1.992188 -4.625 1.921875 -4.28125 Z M 1.921875 -4.28125 "/></g></g></g><g fill="#5271ff" fill-opacity="0.4"><g transform="translate(110.745783, 20.470459)"><g><path d="M 2.28125 -4.4375 L 1.5625 0 L 0.421875 0 L 1.65625 -7.375 L 2.75 -7.375 L 2.546875 -6.21875 L 2.65625 -6.21875 C 2.882812 -6.59375 3.191406 -6.894531 3.578125 -7.125 C 3.972656 -7.351562 4.453125 -7.46875 5.015625 -7.46875 C 5.753906 -7.46875 6.316406 -7.238281 6.703125 -6.78125 C 7.085938 -6.320312 7.203125 -5.625 7.046875 -4.6875 L 6.265625 0 L 5.125 0 L 5.890625 -4.609375 C 5.984375 -5.179688 5.90625 -5.628906 5.65625 -5.953125 C 5.414062 -6.285156 5.035156 -6.453125 4.515625 -6.453125 C 3.960938 -6.453125 3.476562 -6.273438 3.0625 -5.921875 C 2.65625 -5.578125 2.394531 -5.082031 2.28125 -4.4375 Z M 2.28125 -4.4375 "/></g></g></g><g fill="#5271ff" fill-opacity="0.4"><g transform="translate(118.656614, 20.470459)"><g><path d="M 2.9375 2.921875 C 2.382812 2.921875 1.921875 2.847656 1.546875 2.703125 C 1.179688 2.566406 0.882812 2.382812 0.65625 2.15625 C 0.4375 1.9375 0.269531 1.695312 0.15625 1.4375 L 1.171875 0.8125 C 1.242188 0.945312 1.34375 1.097656 1.46875 1.265625 C 1.59375 1.441406 1.773438 1.59375 2.015625 1.71875 C 2.265625 1.851562 2.617188 1.921875 3.078125 1.921875 C 3.660156 1.921875 4.175781 1.773438 4.625 1.484375 C 5.070312 1.203125 5.347656 0.753906 5.453125 0.140625 L 5.6875 -1.359375 L 5.59375 -1.359375 C 5.488281 -1.222656 5.34375 -1.054688 5.15625 -0.859375 C 4.976562 -0.671875 4.734375 -0.5 4.421875 -0.34375 C 4.117188 -0.1875 3.726562 -0.109375 3.25 -0.109375 C 2.644531 -0.109375 2.128906 -0.25 1.703125 -0.53125 C 1.273438 -0.8125 0.96875 -1.222656 0.78125 -1.765625 C 0.601562 -2.304688 0.578125 -2.957031 0.703125 -3.71875 C 0.828125 -4.476562 1.066406 -5.140625 1.421875 -5.703125 C 1.785156 -6.265625 2.226562 -6.695312 2.75 -7 C 3.28125 -7.3125 3.851562 -7.46875 4.46875 -7.46875 C 4.945312 -7.46875 5.316406 -7.390625 5.578125 -7.234375 C 5.835938 -7.078125 6.023438 -6.894531 6.140625 -6.6875 C 6.265625 -6.488281 6.351562 -6.328125 6.40625 -6.203125 L 6.53125 -6.203125 L 6.71875 -7.375 L 7.8125 -7.375 L 6.5625 0.21875 C 6.457031 0.84375 6.226562 1.351562 5.875 1.75 C 5.519531 2.15625 5.085938 2.453125 4.578125 2.640625 C 4.066406 2.828125 3.519531 2.921875 2.9375 2.921875 Z M 3.53125 -1.125 C 4.207031 -1.125 4.769531 -1.351562 5.21875 -1.8125 C 5.675781 -2.28125 5.972656 -2.925781 6.109375 -3.75 C 6.234375 -4.539062 6.148438 -5.1875 5.859375 -5.6875 C 5.566406 -6.195312 5.078125 -6.453125 4.390625 -6.453125 C 3.910156 -6.453125 3.492188 -6.328125 3.140625 -6.078125 C 2.796875 -5.835938 2.515625 -5.515625 2.296875 -5.109375 C 2.078125 -4.703125 1.925781 -4.25 1.84375 -3.75 C 1.71875 -2.976562 1.789062 -2.347656 2.0625 -1.859375 C 2.332031 -1.367188 2.820312 -1.125 3.53125 -1.125 Z M 3.53125 -1.125 "/></g></g></g><g clip-path="url(#4526fa7d8c)"><g fill="#5271ff" fill-opacity="0.4"><g transform="translate(126.893863, 20.470459)"><g><path d="M 3.5 0.15625 C 2.789062 0.15625 2.203125 0 1.734375 -0.3125 C 1.273438 -0.632812 0.953125 -1.078125 0.765625 -1.640625 C 0.585938 -2.210938 0.5625 -2.875 0.6875 -3.625 C 0.8125 -4.382812 1.054688 -5.050781 1.421875 -5.625 C 1.796875 -6.207031 2.257812 -6.660156 2.8125 -6.984375 C 3.375 -7.304688 3.984375 -7.46875 4.640625 -7.46875 C 5.023438 -7.46875 5.394531 -7.398438 5.75 -7.265625 C 6.101562 -7.140625 6.410156 -6.929688 6.671875 -6.640625 C 6.929688 -6.359375 7.113281 -5.984375 7.21875 -5.515625 C 7.320312 -5.046875 7.316406 -4.46875 7.203125 -3.78125 L 7.125 -3.296875 L 1.765625 -3.296875 C 1.628906 -2.398438 1.734375 -1.769531 2.078125 -1.40625 C 2.421875 -1.039062 2.953125 -0.859375 3.671875 -0.859375 C 4.117188 -0.859375 4.515625 -0.953125 4.859375 -1.140625 C 5.210938 -1.335938 5.492188 -1.628906 5.703125 -2.015625 L 6.734375 -1.703125 C 6.472656 -1.148438 6.054688 -0.703125 5.484375 -0.359375 C 4.910156 -0.015625 4.25 0.15625 3.5 0.15625 Z M 1.921875 -4.28125 L 6.125 -4.28125 C 6.226562 -4.90625 6.132812 -5.421875 5.84375 -5.828125 C 5.550781 -6.242188 5.09375 -6.453125 4.46875 -6.453125 C 4.0625 -6.453125 3.675781 -6.34375 3.3125 -6.125 C 2.957031 -5.90625 2.65625 -5.628906 2.40625 -5.296875 C 2.15625 -4.960938 1.992188 -4.625 1.921875 -4.28125 Z M 1.921875 -4.28125 "/></g></g></g></g><g fill="#5271ff" fill-opacity="1"><g transform="translate(25.337265, 19.872989)"><g><path d="M 0.578125 0 L 2.203125 -9.828125 L 5.640625 -9.828125 C 6.328125 -9.828125 6.875 -9.707031 7.28125 -9.46875 C 7.6875 -9.238281 7.960938 -8.925781 8.109375 -8.53125 C 8.265625 -8.132812 8.300781 -7.695312 8.21875 -7.21875 C 8.113281 -6.582031 7.875 -6.109375 7.5 -5.796875 C 7.125 -5.492188 6.722656 -5.285156 6.296875 -5.171875 L 6.28125 -5.0625 C 6.570312 -5.050781 6.851562 -4.945312 7.125 -4.75 C 7.394531 -4.5625 7.601562 -4.285156 7.75 -3.921875 C 7.90625 -3.566406 7.941406 -3.128906 7.859375 -2.609375 C 7.773438 -2.117188 7.585938 -1.675781 7.296875 -1.28125 C 7.003906 -0.882812 6.597656 -0.570312 6.078125 -0.34375 C 5.554688 -0.113281 4.90625 0 4.125 0 Z M 1.9375 -1.0625 L 4.296875 -1.0625 C 5.078125 -1.0625 5.65625 -1.210938 6.03125 -1.515625 C 6.414062 -1.816406 6.644531 -2.179688 6.71875 -2.609375 C 6.769531 -2.941406 6.734375 -3.25 6.609375 -3.53125 C 6.484375 -3.8125 6.28125 -4.035156 6 -4.203125 C 5.71875 -4.378906 5.363281 -4.46875 4.9375 -4.46875 L 2.515625 -4.46875 Z M 2.6875 -5.515625 L 4.890625 -5.515625 C 5.253906 -5.515625 5.59375 -5.582031 5.90625 -5.71875 C 6.21875 -5.863281 6.476562 -6.0625 6.6875 -6.3125 C 6.894531 -6.570312 7.023438 -6.875 7.078125 -7.21875 C 7.160156 -7.644531 7.078125 -8.007812 6.828125 -8.3125 C 6.578125 -8.625 6.125 -8.78125 5.46875 -8.78125 L 3.21875 -8.78125 Z M 2.6875 -5.515625 "/></g></g></g><g fill="#5271ff" fill-opacity="1"><g transform="translate(34.131347, 19.872989)"><g><path d="M 3.46875 0.15625 C 2.789062 0.15625 2.222656 -0.00390625 1.765625 -0.328125 C 1.316406 -0.648438 0.992188 -1.101562 0.796875 -1.6875 C 0.609375 -2.269531 0.578125 -2.945312 0.703125 -3.71875 C 0.828125 -4.476562 1.070312 -5.140625 1.4375 -5.703125 C 1.800781 -6.265625 2.253906 -6.695312 2.796875 -7 C 3.335938 -7.3125 3.9375 -7.46875 4.59375 -7.46875 C 5.269531 -7.46875 5.835938 -7.304688 6.296875 -6.984375 C 6.753906 -6.660156 7.078125 -6.203125 7.265625 -5.609375 C 7.453125 -5.023438 7.484375 -4.347656 7.359375 -3.578125 C 7.234375 -2.828125 6.988281 -2.171875 6.625 -1.609375 C 6.257812 -1.046875 5.804688 -0.609375 5.265625 -0.296875 C 4.722656 0.00390625 4.125 0.15625 3.46875 0.15625 Z M 3.5 -0.859375 C 4.007812 -0.859375 4.457031 -0.988281 4.84375 -1.25 C 5.226562 -1.519531 5.539062 -1.875 5.78125 -2.3125 C 6.019531 -2.75 6.179688 -3.21875 6.265625 -3.71875 C 6.335938 -4.195312 6.332031 -4.644531 6.25 -5.0625 C 6.164062 -5.476562 5.988281 -5.8125 5.71875 -6.0625 C 5.445312 -6.320312 5.0625 -6.453125 4.5625 -6.453125 C 4.050781 -6.453125 3.601562 -6.316406 3.21875 -6.046875 C 2.832031 -5.773438 2.519531 -5.421875 2.28125 -4.984375 C 2.039062 -4.546875 1.878906 -4.078125 1.796875 -3.578125 C 1.722656 -3.085938 1.726562 -2.640625 1.8125 -2.234375 C 1.894531 -1.828125 2.070312 -1.492188 2.34375 -1.234375 C 2.613281 -0.984375 3 -0.859375 3.5 -0.859375 Z M 3.5 -0.859375 "/></g></g></g><g fill="#5271ff" fill-opacity="1"><g transform="translate(42.19579, 19.872989)"><g><path d="M 5.5625 -3.015625 L 6.296875 -7.375 L 7.4375 -7.375 L 6.203125 0 L 5.0625 0 L 5.28125 -1.25 L 5.203125 -1.25 C 4.972656 -0.875 4.648438 -0.554688 4.234375 -0.296875 C 3.828125 -0.0351562 3.34375 0.09375 2.78125 0.09375 C 2.09375 0.09375 1.5625 -0.132812 1.1875 -0.59375 C 0.820312 -1.050781 0.710938 -1.75 0.859375 -2.6875 L 1.65625 -7.375 L 2.78125 -7.375 L 2.015625 -2.765625 C 1.929688 -2.222656 2.015625 -1.789062 2.265625 -1.46875 C 2.515625 -1.15625 2.875 -1 3.34375 -1 C 3.625 -1 3.921875 -1.070312 4.234375 -1.21875 C 4.546875 -1.363281 4.828125 -1.582031 5.078125 -1.875 C 5.328125 -2.175781 5.488281 -2.554688 5.5625 -3.015625 Z M 5.5625 -3.015625 "/></g></g></g><g fill="#5271ff" fill-opacity="1"><g transform="translate(50.049019, 19.872989)"><g><path d="M 2.28125 -4.4375 L 1.5625 0 L 0.421875 0 L 1.65625 -7.375 L 2.75 -7.375 L 2.546875 -6.21875 L 2.65625 -6.21875 C 2.882812 -6.59375 3.191406 -6.894531 3.578125 -7.125 C 3.972656 -7.351562 4.453125 -7.46875 5.015625 -7.46875 C 5.753906 -7.46875 6.316406 -7.238281 6.703125 -6.78125 C 7.085938 -6.320312 7.203125 -5.625 7.046875 -4.6875 L 6.265625 0 L 5.125 0 L 5.890625 -4.609375 C 5.984375 -5.179688 5.90625 -5.628906 5.65625 -5.953125 C 5.414062 -6.285156 5.035156 -6.453125 4.515625 -6.453125 C 3.960938 -6.453125 3.476562 -6.273438 3.0625 -5.921875 C 2.65625 -5.578125 2.394531 -5.082031 2.28125 -4.4375 Z M 2.28125 -4.4375 "/></g></g></g><g fill="#5271ff" fill-opacity="1"><g transform="translate(57.959853, 19.872989)"><g><path d="M 4.859375 -7.375 L 4.703125 -6.40625 L 3.109375 -6.40625 L 2.40625 -2.109375 C 2.351562 -1.785156 2.359375 -1.546875 2.421875 -1.390625 C 2.492188 -1.234375 2.597656 -1.128906 2.734375 -1.078125 C 2.878906 -1.023438 3.035156 -1 3.203125 -1 C 3.328125 -1 3.429688 -1.003906 3.515625 -1.015625 C 3.597656 -1.035156 3.660156 -1.050781 3.703125 -1.0625 L 3.78125 -0.03125 C 3.695312 -0.0078125 3.582031 0.015625 3.4375 0.046875 C 3.289062 0.078125 3.113281 0.09375 2.90625 0.09375 C 2.582031 0.09375 2.28125 0.0234375 2 -0.109375 C 1.71875 -0.242188 1.5 -0.453125 1.34375 -0.734375 C 1.195312 -1.015625 1.160156 -1.367188 1.234375 -1.796875 L 1.984375 -6.40625 L 0.890625 -6.40625 L 1.03125 -7.375 L 2.140625 -7.375 L 2.4375 -9.140625 L 3.578125 -9.140625 L 3.28125 -7.375 Z M 4.859375 -7.375 "/></g></g></g><g fill="#5271ff" fill-opacity="1"><g transform="translate(62.875323, 19.872989)"><g><path d="M 0.65625 2.859375 C 0.457031 2.859375 0.285156 2.84375 0.140625 2.8125 C -0.00390625 2.78125 -0.101562 2.75 -0.15625 2.71875 L 0.28125 1.734375 C 0.550781 1.796875 0.789062 1.816406 1 1.796875 C 1.207031 1.773438 1.40625 1.679688 1.59375 1.515625 C 1.78125 1.347656 1.972656 1.085938 2.171875 0.734375 L 2.578125 0 L 1.078125 -7.375 L 2.265625 -7.375 L 3.328125 -1.5 L 3.390625 -1.5 L 6.40625 -7.375 L 7.671875 -7.375 L 3.09375 1.1875 C 2.488281 2.300781 1.675781 2.859375 0.65625 2.859375 Z M 0.65625 2.859375 "/></g></g></g><g fill="#5271ff" fill-opacity="1"><g transform="translate(70.402132, 19.872989)"><g><path d="M 9.59375 -6.765625 L 8.421875 -6.765625 C 8.410156 -7.210938 8.296875 -7.59375 8.078125 -7.90625 C 7.859375 -8.21875 7.570312 -8.453125 7.21875 -8.609375 C 6.875 -8.765625 6.488281 -8.84375 6.0625 -8.84375 C 5.457031 -8.84375 4.878906 -8.6875 4.328125 -8.375 C 3.785156 -8.070312 3.320312 -7.625 2.9375 -7.03125 C 2.550781 -6.4375 2.289062 -5.707031 2.15625 -4.84375 C 2.007812 -4 2.023438 -3.289062 2.203125 -2.71875 C 2.390625 -2.144531 2.691406 -1.710938 3.109375 -1.421875 C 3.535156 -1.128906 4.039062 -0.984375 4.625 -0.984375 C 5.070312 -0.984375 5.503906 -1.0625 5.921875 -1.21875 C 6.347656 -1.375 6.722656 -1.609375 7.046875 -1.921875 C 7.378906 -2.234375 7.632812 -2.617188 7.8125 -3.078125 L 9 -3.078125 C 8.769531 -2.398438 8.429688 -1.820312 7.984375 -1.34375 C 7.535156 -0.863281 7.019531 -0.492188 6.4375 -0.234375 C 5.851562 0.015625 5.238281 0.140625 4.59375 0.140625 C 3.738281 0.140625 3.007812 -0.0664062 2.40625 -0.484375 C 1.8125 -0.910156 1.390625 -1.503906 1.140625 -2.265625 C 0.890625 -3.035156 0.847656 -3.941406 1.015625 -4.984375 C 1.191406 -6.015625 1.523438 -6.898438 2.015625 -7.640625 C 2.503906 -8.390625 3.101562 -8.960938 3.8125 -9.359375 C 4.519531 -9.765625 5.289062 -9.96875 6.125 -9.96875 C 6.789062 -9.96875 7.378906 -9.835938 7.890625 -9.578125 C 8.410156 -9.328125 8.820312 -8.960938 9.125 -8.484375 C 9.425781 -8.003906 9.582031 -7.429688 9.59375 -6.765625 Z M 9.59375 -6.765625 "/></g></g></g><g fill="#5271ff" fill-opacity="1"><g transform="translate(80.23307, 19.872989)"><g><path d="M 2.28125 -4.4375 L 1.5625 0 L 0.421875 0 L 2.046875 -9.828125 L 3.1875 -9.828125 L 2.59375 -6.21875 L 2.6875 -6.21875 C 2.914062 -6.601562 3.222656 -6.90625 3.609375 -7.125 C 3.992188 -7.351562 4.476562 -7.46875 5.0625 -7.46875 C 5.8125 -7.46875 6.378906 -7.238281 6.765625 -6.78125 C 7.160156 -6.332031 7.28125 -5.632812 7.125 -4.6875 L 6.328125 0 L 5.203125 0 L 5.96875 -4.609375 C 6.0625 -5.191406 5.984375 -5.644531 5.734375 -5.96875 C 5.484375 -6.289062 5.09375 -6.453125 4.5625 -6.453125 C 4.007812 -6.453125 3.519531 -6.273438 3.09375 -5.921875 C 2.664062 -5.578125 2.394531 -5.082031 2.28125 -4.4375 Z M 2.28125 -4.4375 "/></g></g></g><g fill="#5271ff" fill-opacity="1"><g transform="translate(88.220708, 19.872989)"><g><path d="M 2.578125 0.171875 C 2.109375 0.171875 1.695312 0.0820312 1.34375 -0.09375 C 0.988281 -0.269531 0.726562 -0.523438 0.5625 -0.859375 C 0.394531 -1.203125 0.347656 -1.613281 0.421875 -2.09375 C 0.492188 -2.507812 0.632812 -2.847656 0.84375 -3.109375 C 1.0625 -3.378906 1.320312 -3.585938 1.625 -3.734375 C 1.925781 -3.890625 2.25 -4.003906 2.59375 -4.078125 C 2.945312 -4.160156 3.296875 -4.222656 3.640625 -4.265625 C 4.097656 -4.316406 4.46875 -4.359375 4.75 -4.390625 C 5.039062 -4.421875 5.253906 -4.472656 5.390625 -4.546875 C 5.535156 -4.628906 5.625 -4.757812 5.65625 -4.9375 L 5.65625 -4.96875 C 5.738281 -5.4375 5.675781 -5.800781 5.46875 -6.0625 C 5.269531 -6.332031 4.910156 -6.46875 4.390625 -6.46875 C 3.859375 -6.46875 3.410156 -6.347656 3.046875 -6.109375 C 2.679688 -5.878906 2.414062 -5.628906 2.25 -5.359375 L 1.25 -5.734375 C 1.507812 -6.179688 1.820312 -6.53125 2.1875 -6.78125 C 2.550781 -7.039062 2.929688 -7.21875 3.328125 -7.3125 C 3.734375 -7.414062 4.125 -7.46875 4.5 -7.46875 C 4.726562 -7.46875 4.988281 -7.4375 5.28125 -7.375 C 5.582031 -7.320312 5.863281 -7.207031 6.125 -7.03125 C 6.382812 -6.863281 6.582031 -6.601562 6.71875 -6.25 C 6.851562 -5.90625 6.875 -5.441406 6.78125 -4.859375 L 5.96875 0 L 4.84375 0 L 5.015625 -1 L 4.953125 -1 C 4.847656 -0.84375 4.691406 -0.671875 4.484375 -0.484375 C 4.273438 -0.304688 4.007812 -0.148438 3.6875 -0.015625 C 3.375 0.109375 3.003906 0.171875 2.578125 0.171875 Z M 2.90625 -0.84375 C 3.351562 -0.84375 3.742188 -0.929688 4.078125 -1.109375 C 4.410156 -1.285156 4.679688 -1.507812 4.890625 -1.78125 C 5.097656 -2.0625 5.226562 -2.359375 5.28125 -2.671875 L 5.453125 -3.703125 C 5.390625 -3.648438 5.273438 -3.597656 5.109375 -3.546875 C 4.941406 -3.503906 4.75 -3.460938 4.53125 -3.421875 C 4.320312 -3.390625 4.117188 -3.363281 3.921875 -3.34375 C 3.722656 -3.320312 3.5625 -3.300781 3.4375 -3.28125 C 3.132812 -3.238281 2.847656 -3.175781 2.578125 -3.09375 C 2.304688 -3.007812 2.078125 -2.882812 1.890625 -2.71875 C 1.710938 -2.550781 1.601562 -2.320312 1.5625 -2.03125 C 1.488281 -1.632812 1.578125 -1.335938 1.828125 -1.140625 C 2.085938 -0.941406 2.445312 -0.84375 2.90625 -0.84375 Z M 2.90625 -0.84375 "/></g></g></g><g fill="#5271ff" fill-opacity="1"><g transform="translate(95.843523, 19.872989)"><g><path d="M 3.1875 -9.828125 L 1.5625 0 L 0.421875 0 L 2.046875 -9.828125 Z M 3.1875 -9.828125 "/></g></g></g><g fill="#5271ff" fill-opacity="1"><g transform="translate(99.050102, 19.872989)"><g><path d="M 3.1875 -9.828125 L 1.5625 0 L 0.421875 0 L 2.046875 -9.828125 Z M 3.1875 -9.828125 "/></g></g></g><g fill="#5271ff" fill-opacity="1"><g transform="translate(102.256681, 19.872989)"><g><path d="M 3.5 0.15625 C 2.789062 0.15625 2.203125 0 1.734375 -0.3125 C 1.273438 -0.632812 0.953125 -1.078125 0.765625 -1.640625 C 0.585938 -2.210938 0.5625 -2.875 0.6875 -3.625 C 0.8125 -4.382812 1.054688 -5.050781 1.421875 -5.625 C 1.796875 -6.207031 2.257812 -6.660156 2.8125 -6.984375 C 3.375 -7.304688 3.984375 -7.46875 4.640625 -7.46875 C 5.023438 -7.46875 5.394531 -7.398438 5.75 -7.265625 C 6.101562 -7.140625 6.410156 -6.929688 6.671875 -6.640625 C 6.929688 -6.359375 7.113281 -5.984375 7.21875 -5.515625 C 7.320312 -5.046875 7.316406 -4.46875 7.203125 -3.78125 L 7.125 -3.296875 L 1.765625 -3.296875 C 1.628906 -2.398438 1.734375 -1.769531 2.078125 -1.40625 C 2.421875 -1.039062 2.953125 -0.859375 3.671875 -0.859375 C 4.117188 -0.859375 4.515625 -0.953125 4.859375 -1.140625 C 5.210938 -1.335938 5.492188 -1.628906 5.703125 -2.015625 L 6.734375 -1.703125 C 6.472656 -1.148438 6.054688 -0.703125 5.484375 -0.359375 C 4.910156 -0.015625 4.25 0.15625 3.5 0.15625 Z M 1.921875 -4.28125 L 6.125 -4.28125 C 6.226562 -4.90625 6.132812 -5.421875 5.84375 -5.828125 C 5.550781 -6.242188 5.09375 -6.453125 4.46875 -6.453125 C 4.0625 -6.453125 3.675781 -6.34375 3.3125 -6.125 C 2.957031 -5.90625 2.65625 -5.628906 2.40625 -5.296875 C 2.15625 -4.960938 1.992188 -4.625 1.921875 -4.28125 Z M 1.921875 -4.28125 "/></g></g></g><g fill="#5271ff" fill-opacity="1"><g transform="translate(110.148313, 19.872989)"><g><path d="M 2.28125 -4.4375 L 1.5625 0 L 0.421875 0 L 1.65625 -7.375 L 2.75 -7.375 L 2.546875 -6.21875 L 2.65625 -6.21875 C 2.882812 -6.59375 3.191406 -6.894531 3.578125 -7.125 C 3.972656 -7.351562 4.453125 -7.46875 5.015625 -7.46875 C 5.753906 -7.46875 6.316406 -7.238281 6.703125 -6.78125 C 7.085938 -6.320312 7.203125 -5.625 7.046875 -4.6875 L 6.265625 0 L 5.125 0 L 5.890625 -4.609375 C 5.984375 -5.179688 5.90625 -5.628906 5.65625 -5.953125 C 5.414062 -6.285156 5.035156 -6.453125 4.515625 -6.453125 C 3.960938 -6.453125 3.476562 -6.273438 3.0625 -5.921875 C 2.65625 -5.578125 2.394531 -5.082031 2.28125 -4.4375 Z M 2.28125 -4.4375 "/></g></g></g><g fill="#5271ff" fill-opacity="1"><g transform="translate(118.059144, 19.872989)"><g><path d="M 2.9375 2.921875 C 2.382812 2.921875 1.921875 2.847656 1.546875 2.703125 C 1.179688 2.566406 0.882812 2.382812 0.65625 2.15625 C 0.4375 1.9375 0.269531 1.695312 0.15625 1.4375 L 1.171875 0.8125 C 1.242188 0.945312 1.34375 1.097656 1.46875 1.265625 C 1.59375 1.441406 1.773438 1.59375 2.015625 1.71875 C 2.265625 1.851562 2.617188 1.921875 3.078125 1.921875 C 3.660156 1.921875 4.175781 1.773438 4.625 1.484375 C 5.070312 1.203125 5.347656 0.753906 5.453125 0.140625 L 5.6875 -1.359375 L 5.59375 -1.359375 C 5.488281 -1.222656 5.34375 -1.054688 5.15625 -0.859375 C 4.976562 -0.671875 4.734375 -0.5 4.421875 -0.34375 C 4.117188 -0.1875 3.726562 -0.109375 3.25 -0.109375 C 2.644531 -0.109375 2.128906 -0.25 1.703125 -0.53125 C 1.273438 -0.8125 0.96875 -1.222656 0.78125 -1.765625 C 0.601562 -2.304688 0.578125 -2.957031 0.703125 -3.71875 C 0.828125 -4.476562 1.066406 -5.140625 1.421875 -5.703125 C 1.785156 -6.265625 2.226562 -6.695312 2.75 -7 C 3.28125 -7.3125 3.851562 -7.46875 4.46875 -7.46875 C 4.945312 -7.46875 5.316406 -7.390625 5.578125 -7.234375 C 5.835938 -7.078125 6.023438 -6.894531 6.140625 -6.6875 C 6.265625 -6.488281 6.351562 -6.328125 6.40625 -6.203125 L 6.53125 -6.203125 L 6.71875 -7.375 L 7.8125 -7.375 L 6.5625 0.21875 C 6.457031 0.84375 6.226562 1.351562 5.875 1.75 C 5.519531 2.15625 5.085938 2.453125 4.578125 2.640625 C 4.066406 2.828125 3.519531 2.921875 2.9375 2.921875 Z M 3.53125 -1.125 C 4.207031 -1.125 4.769531 -1.351562 5.21875 -1.8125 C 5.675781 -2.28125 5.972656 -2.925781 6.109375 -3.75 C 6.234375 -4.539062 6.148438 -5.1875 5.859375 -5.6875 C 5.566406 -6.195312 5.078125 -6.453125 4.390625 -6.453125 C 3.910156 -6.453125 3.492188 -6.328125 3.140625 -6.078125 C 2.796875 -5.835938 2.515625 -5.515625 2.296875 -5.109375 C 2.078125 -4.703125 1.925781 -4.25 1.84375 -3.75 C 1.71875 -2.976562 1.789062 -2.347656 2.0625 -1.859375 C 2.332031 -1.367188 2.820312 -1.125 3.53125 -1.125 Z M 3.53125 -1.125 "/></g></g></g><g fill="#5271ff" fill-opacity="1"><g transform="translate(126.296393, 19.872989)"><g><path d="M 3.5 0.15625 C 2.789062 0.15625 2.203125 0 1.734375 -0.3125 C 1.273438 -0.632812 0.953125 -1.078125 0.765625 -1.640625 C 0.585938 -2.210938 0.5625 -2.875 0.6875 -3.625 C 0.8125 -4.382812 1.054688 -5.050781 1.421875 -5.625 C 1.796875 -6.207031 2.257812 -6.660156 2.8125 -6.984375 C 3.375 -7.304688 3.984375 -7.46875 4.640625 -7.46875 C 5.023438 -7.46875 5.394531 -7.398438 5.75 -7.265625 C 6.101562 -7.140625 6.410156 -6.929688 6.671875 -6.640625 C 6.929688 -6.359375 7.113281 -5.984375 7.21875 -5.515625 C 7.320312 -5.046875 7.316406 -4.46875 7.203125 -3.78125 L 7.125 -3.296875 L 1.765625 -3.296875 C 1.628906 -2.398438 1.734375 -1.769531 2.078125 -1.40625 C 2.421875 -1.039062 2.953125 -0.859375 3.671875 -0.859375 C 4.117188 -0.859375 4.515625 -0.953125 4.859375 -1.140625 C 5.210938 -1.335938 5.492188 -1.628906 5.703125 -2.015625 L 6.734375 -1.703125 C 6.472656 -1.148438 6.054688 -0.703125 5.484375 -0.359375 C 4.910156 -0.015625 4.25 0.15625 3.5 0.15625 Z M 1.921875 -4.28125 L 6.125 -4.28125 C 6.226562 -4.90625 6.132812 -5.421875 5.84375 -5.828125 C 5.550781 -6.242188 5.09375 -6.453125 4.46875 -6.453125 C 4.0625 -6.453125 3.675781 -6.34375 3.3125 -6.125 C 2.957031 -5.90625 2.65625 -5.628906 2.40625 -5.296875 C 2.15625 -4.960938 1.992188 -4.625 1.921875 -4.28125 Z M 1.921875 -4.28125 "/></g></g></g></svg>