<svg xmlns="http://www.w3.org/2000/svg" xmlns:xlink="http://www.w3.org/1999/xlink" width="800" zoomAndPan="magnify" viewBox="0 0 600 149.999998" height="200" preserveAspectRatio="xMidYMid meet" version="1.0"><defs><g/><clipPath id="9a7332bf53"><path d="M 6.53125 40.878906 L 578.023438 40.878906 L 578.023438 108.035156 L 6.53125 108.035156 Z M 6.53125 40.878906 " clip-rule="nonzero"/></clipPath></defs><g clip-path="url(#9a7332bf53)"><path fill="#5271ff" d="M 6.53125 40.878906 L 578.023438 40.878906 L 578.023438 108.035156 L 6.53125 108.035156 Z M 6.53125 40.878906 " fill-opacity="1" fill-rule="nonzero"/></g><g fill="#ffffff" fill-opacity="1"><g transform="translate(12.532263, 88.29077)"><g><path d="M 18.917969 2.035156 C 14.902344 2.035156 12.054688 1.578125 12.054688 -4.324219 C 12.054688 -5.644531 12.105469 -6.867188 12.15625 -8.035156 C 12.359375 -11.953125 12.511719 -15.664062 9.664062 -17.953125 C 12.511719 -20.242188 12.359375 -23.953125 12.15625 -27.871094 C 12.105469 -29.039062 12.054688 -30.261719 12.054688 -31.582031 C 12.054688 -37.480469 14.902344 -37.941406 18.917969 -37.941406 C 19.988281 -37.941406 20.851562 -38.804688 20.851562 -39.871094 C 20.851562 -40.941406 19.988281 -41.804688 18.917969 -41.804688 C 15.714844 -41.804688 8.1875 -41.804688 8.1875 -31.582031 C 8.136719 -30.160156 8.238281 -28.835938 8.289062 -27.667969 C 8.542969 -21.96875 8.441406 -20.597656 4.222656 -19.835938 C 3.152344 -19.683594 2.441406 -18.664062 2.59375 -17.597656 C 2.746094 -16.933594 3.253906 -16.222656 4.222656 -16.019531 C 8.441406 -15.257812 8.542969 -13.933594 8.289062 -8.238281 C 8.238281 -7.070312 8.136719 -5.746094 8.1875 -4.324219 C 8.1875 5.898438 15.714844 5.898438 18.917969 5.898438 C 19.988281 5.898438 20.851562 5.035156 20.851562 3.96875 C 20.851562 2.898438 19.988281 2.035156 18.917969 2.035156 Z M 18.917969 2.035156 "/></g></g></g><g fill="#ffffff" fill-opacity="1"><g transform="translate(35.922211, 88.29077)"><g><path d="M 22.070312 -25.074219 C 19.121094 -25.074219 16.070312 -23.496094 13.882812 -20.953125 L 13.882812 -33.71875 C 13.882812 -34.734375 13.070312 -35.601562 12.003906 -35.601562 L 4.933594 -35.601562 C 3.863281 -35.601562 3.050781 -34.734375 3.050781 -33.71875 L 3.050781 -33.617188 C 3.050781 -32.546875 3.863281 -31.734375 4.933594 -31.734375 L 10.019531 -31.734375 L 10.019531 -3.917969 L 4.933594 -3.917969 C 3.863281 -3.917969 3.050781 -3.050781 3.050781 -2.035156 L 3.050781 -1.882812 C 3.050781 -0.863281 3.863281 0 4.933594 0 L 12.003906 0 C 13.070312 0 13.882812 -0.863281 13.882812 -1.882812 L 13.882812 -3.558594 C 15.917969 -1.167969 18.765625 0.507812 22.070312 0.507812 C 29.191406 0.507812 34.226562 -5.1875 34.226562 -12.257812 C 34.226562 -19.324219 29.140625 -25.074219 22.070312 -25.074219 Z M 21.867188 -3.355469 C 18.207031 -3.355469 15.207031 -5.59375 13.882812 -8.746094 L 13.882812 -15.765625 C 15.207031 -18.917969 18.207031 -21.15625 21.867188 -21.15625 C 26.800781 -21.15625 30.109375 -17.191406 30.109375 -12.257812 C 30.109375 -7.375 26.800781 -3.355469 21.867188 -3.355469 Z M 21.867188 -3.355469 "/></g></g></g><g fill="#ffffff" fill-opacity="1"><g transform="translate(72.685107, 88.29077)"><g><path d="M 15.359375 -25.023438 C 8.289062 -25.023438 2.542969 -19.324219 2.542969 -12.257812 C 2.542969 -5.1875 8.289062 0.558594 15.359375 0.558594 C 22.429688 0.558594 28.125 -5.1875 28.125 -12.257812 C 28.125 -19.324219 22.429688 -25.023438 15.359375 -25.023438 Z M 15.359375 -3.355469 C 10.425781 -3.355469 6.457031 -7.324219 6.457031 -12.257812 C 6.457031 -17.140625 10.425781 -21.15625 15.359375 -21.15625 C 20.242188 -21.15625 24.207031 -17.140625 24.207031 -12.257812 C 24.207031 -7.324219 20.242188 -3.355469 15.359375 -3.355469 Z M 15.359375 -3.355469 "/></g></g></g><g fill="#ffffff" fill-opacity="1"><g transform="translate(103.346276, 88.29077)"><g><path d="M 37.890625 -3.917969 L 33.261719 -3.917969 L 33.261719 -22.835938 C 33.261719 -23.902344 32.394531 -24.714844 31.378906 -24.714844 L 24.664062 -24.714844 C 23.597656 -24.714844 22.785156 -23.902344 22.785156 -22.835938 L 22.785156 -22.734375 C 22.785156 -21.714844 23.597656 -20.851562 24.664062 -20.851562 L 29.394531 -20.851562 L 29.394531 -11.800781 C 28.328125 -8.1875 25.988281 -4.628906 22.121094 -3.863281 C 17.800781 -3 13.933594 -4.984375 13.882812 -12.105469 C 13.882812 -14.851562 13.832031 -22.835938 13.832031 -22.835938 C 13.832031 -23.902344 13.019531 -24.714844 11.953125 -24.714844 L 5.238281 -24.714844 C 4.171875 -24.714844 3.355469 -23.902344 3.355469 -22.835938 L 3.355469 -22.734375 C 3.355469 -21.714844 4.171875 -20.851562 5.238281 -20.851562 L 10.019531 -20.851562 L 10.019531 -11.800781 C 10.019531 -2.085938 16.171875 1.167969 21.816406 0.40625 C 25.378906 -0.0507812 27.820312 -2.492188 29.394531 -5.390625 L 29.394531 -1.933594 C 29.394531 -0.863281 30.210938 -0.0507812 31.277344 -0.0507812 L 37.890625 -0.0507812 C 38.90625 -0.0507812 39.769531 -0.863281 39.769531 -1.933594 L 39.769531 -2.035156 C 39.769531 -3.050781 38.90625 -3.917969 37.890625 -3.917969 Z M 37.890625 -3.917969 "/></g></g></g><g fill="#ffffff" fill-opacity="1"><g transform="translate(146.668523, 88.29077)"><g><path d="M 38.398438 -3.917969 L 33.3125 -3.917969 L 33.3125 -12.96875 C 33.3125 -22.683594 27.363281 -25.734375 21.714844 -25.023438 C 18.257812 -24.5625 15.613281 -21.96875 13.933594 -18.96875 L 13.933594 -22.835938 C 13.933594 -23.902344 13.070312 -24.714844 12.054688 -24.714844 L 4.933594 -24.714844 C 3.863281 -24.714844 3.050781 -23.902344 3.050781 -22.835938 L 3.050781 -22.734375 C 3.050781 -21.714844 3.863281 -20.851562 4.933594 -20.851562 L 10.019531 -20.851562 L 10.019531 -3.917969 L 4.933594 -3.917969 C 3.863281 -3.917969 3.050781 -3.050781 3.050781 -2.035156 L 3.050781 -1.933594 C 3.050781 -0.863281 3.863281 0 4.933594 0 L 18.96875 0 C 20.039062 0 20.851562 -0.863281 20.851562 -1.933594 L 20.851562 -2.035156 C 20.851562 -3.050781 20.039062 -3.917969 18.96875 -3.917969 L 13.933594 -3.917969 L 13.933594 -12.765625 C 14.953125 -16.425781 17.34375 -20.140625 21.207031 -20.902344 C 25.480469 -21.765625 29.394531 -19.785156 29.445312 -12.613281 L 29.445312 -1.933594 C 29.445312 -0.863281 30.3125 0 31.328125 0 L 38.398438 0 C 39.464844 0 40.277344 -0.863281 40.277344 -1.933594 L 40.277344 -2.035156 C 40.277344 -3.050781 39.464844 -3.917969 38.398438 -3.917969 Z M 38.398438 -3.917969 "/></g></g></g><g fill="#ffffff" fill-opacity="1"><g transform="translate(189.990771, 88.29077)"><g><path d="M 27.71875 -7.222656 C 26.699219 -8.085938 25.632812 -7.78125 24.5625 -6.507812 C 23.191406 -4.882812 21.207031 -3.101562 18.511719 -3.101562 C 14.136719 -3.101562 12.15625 -6.152344 12.308594 -11.75 L 12.308594 -20.851562 L 23.140625 -20.851562 C 24.15625 -20.851562 25.023438 -21.714844 25.023438 -22.734375 L 25.023438 -22.835938 C 25.023438 -23.902344 24.15625 -24.714844 23.140625 -24.714844 L 12.308594 -24.714844 L 12.308594 -30.820312 C 12.308594 -31.886719 11.492188 -32.703125 10.425781 -32.703125 L 10.324219 -32.703125 C 9.257812 -32.703125 8.441406 -31.886719 8.441406 -30.820312 C 8.441406 -30.820312 8.492188 -28.582031 8.492188 -24.714844 L 4.425781 -24.714844 C 3.355469 -24.714844 2.542969 -23.902344 2.542969 -22.835938 L 2.542969 -22.734375 C 2.542969 -21.714844 3.355469 -20.851562 4.425781 -20.851562 L 8.492188 -20.851562 L 8.492188 -10.933594 C 8.441406 -4.730469 11.238281 0.507812 18.003906 0.507812 C 22.886719 0.507812 26.089844 -2.035156 27.871094 -4.425781 C 28.582031 -5.390625 28.378906 -6.664062 27.71875 -7.222656 Z M 27.71875 -7.222656 "/></g></g></g><g fill="#ffffff" fill-opacity="1"><g transform="translate(220.855324, 88.29077)"><g><path d="M 36.058594 -24.714844 L 23.902344 -24.714844 C 22.835938 -24.714844 22.019531 -23.851562 22.019531 -22.835938 L 22.019531 -22.734375 C 22.019531 -21.664062 22.835938 -20.851562 23.902344 -20.851562 L 27.566406 -20.851562 L 20.496094 -4.070312 L 13.527344 -20.851562 L 17.140625 -20.851562 C 18.105469 -20.851562 18.917969 -21.714844 18.917969 -22.734375 L 18.917969 -22.835938 C 18.917969 -23.902344 18.105469 -24.714844 17.140625 -24.714844 L 4.933594 -24.714844 C 3.917969 -24.714844 3.050781 -23.851562 3.050781 -22.835938 L 3.050781 -22.734375 C 3.050781 -21.664062 3.917969 -20.851562 4.933594 -20.851562 L 9.410156 -20.851562 L 18.359375 0.761719 C 15.765625 6.40625 14.546875 7.679688 10.628906 6.765625 C 9.5625 6.507812 8.441406 6.96875 8.238281 7.984375 L 8.1875 8.085938 C 7.984375 9.101562 8.59375 10.222656 10.070312 10.527344 C 14.496094 11.441406 17.902344 10.882812 21.664062 3.304688 C 23.496094 -0.457031 30.414062 -17.496094 31.785156 -20.851562 L 36.058594 -20.851562 C 37.125 -20.851562 37.941406 -21.664062 37.941406 -22.734375 L 37.941406 -22.835938 C 37.941406 -23.851562 37.125 -24.714844 36.058594 -24.714844 Z M 36.058594 -24.714844 "/></g></g></g><g fill="#ffffff" fill-opacity="1"><g transform="translate(261.838583, 88.29077)"><g><path d="M 14.851562 -3.355469 C 10.324219 -3.355469 6.816406 -7.121094 6.507812 -11.59375 C 6.152344 -16.832031 9.917969 -21.15625 15.410156 -21.15625 C 16.988281 -21.15625 19.734375 -20.648438 21.105469 -19.734375 C 20.394531 -19.425781 19.632812 -18.5625 19.476562 -17.546875 C 19.171875 -15.308594 21.15625 -13.882812 23.089844 -14.1875 C 24.15625 -14.289062 25.378906 -15.207031 25.683594 -16.78125 C 26.546875 -20.800781 21.054688 -25.023438 15.410156 -25.023438 C 7.832031 -25.023438 2.289062 -18.96875 2.59375 -11.644531 C 2.898438 -5.035156 7.882812 0.304688 14.496094 0.558594 C 19.222656 0.710938 23.800781 -1.679688 26.140625 -5.339844 C 26.75 -6.253906 26.445312 -7.425781 25.632812 -7.984375 C 24.820312 -8.492188 23.75 -8.441406 22.632812 -7.121094 C 20.800781 -4.984375 18.664062 -3.355469 14.851562 -3.355469 Z M 14.851562 -3.355469 "/></g></g></g><g fill="#ffffff" fill-opacity="1"><g transform="translate(290.872608, 88.29077)"><g><path d="M 38.449219 -3.917969 L 33.363281 -3.917969 L 33.3125 -12.96875 C 33.363281 -22.683594 27.363281 -25.734375 21.765625 -25.023438 C 18.308594 -24.5625 15.613281 -21.96875 13.933594 -18.96875 L 13.933594 -33.71875 C 13.933594 -34.734375 13.121094 -35.601562 12.054688 -35.601562 L 4.933594 -35.601562 C 3.917969 -35.601562 3.050781 -34.734375 3.050781 -33.71875 L 3.050781 -33.617188 C 3.050781 -32.546875 3.917969 -31.734375 4.933594 -31.734375 L 10.070312 -31.734375 L 10.070312 -3.917969 L 4.933594 -3.917969 C 3.917969 -3.917969 3.050781 -3.050781 3.050781 -2.035156 L 3.050781 -1.933594 C 3.050781 -0.863281 3.917969 0 4.933594 0 L 19.019531 0 C 20.039062 0 20.902344 -0.863281 20.902344 -1.933594 L 20.902344 -2.035156 C 20.902344 -3.050781 20.039062 -3.917969 19.019531 -3.917969 L 13.933594 -3.917969 L 13.933594 -12.765625 C 15.003906 -16.425781 17.34375 -20.140625 21.207031 -20.902344 C 25.53125 -21.765625 29.394531 -19.785156 29.445312 -12.613281 C 29.496094 -9.917969 29.496094 -1.933594 29.496094 -1.933594 C 29.496094 -0.863281 30.363281 0 31.378906 0 L 38.449219 0 C 39.464844 0 40.328125 -0.863281 40.328125 -1.933594 L 40.328125 -2.035156 C 40.328125 -3.050781 39.464844 -3.917969 38.449219 -3.917969 Z M 38.449219 -3.917969 "/></g></g></g><g fill="#ffffff" fill-opacity="1"><g transform="translate(334.245714, 88.29077)"><g><path d="M 29.546875 -3.863281 L 25.734375 -3.863281 C 25.734375 -6.203125 25.734375 -8.238281 25.785156 -9.816406 C 25.886719 -16.527344 26.039062 -19.121094 23.496094 -21.816406 C 21.257812 -24.257812 18.257812 -25.074219 14.75 -25.074219 C 8.746094 -25.074219 5.085938 -22.070312 4.730469 -19.476562 C 4.527344 -17.953125 5.339844 -16.171875 7.375 -15.816406 C 9.308594 -15.511719 11.238281 -16.628906 11.035156 -18.867188 C 10.933594 -19.632812 10.375 -20.597656 9.308594 -20.851562 C 12.359375 -22.480469 18.867188 -21.5625 20.597656 -19.324219 C 21.5625 -18.003906 21.867188 -17.089844 21.917969 -14.648438 C 19.9375 -13.070312 17.597656 -13.019531 13.171875 -12.867188 C 4.375 -12.511719 2.949219 -8.441406 2.949219 -6.152344 C 2.949219 -1.578125 6.917969 0.558594 11.851562 0.558594 C 15.867188 0.558594 19.222656 -1.015625 21.816406 -3.863281 L 21.816406 -1.882812 C 21.816406 -0.863281 22.683594 0 23.699219 0 L 29.546875 0 C 30.617188 0 31.429688 -0.863281 31.429688 -1.882812 L 31.429688 -1.984375 C 31.429688 -3.050781 30.617188 -3.863281 29.546875 -3.863281 Z M 12.308594 -2.949219 C 9.15625 -2.949219 7.019531 -4.019531 7.121094 -6.40625 C 7.222656 -8.847656 9.816406 -9.511719 13.273438 -9.613281 C 17.34375 -9.714844 19.632812 -10.019531 21.917969 -11.136719 C 21.917969 -10.730469 21.867188 -8.949219 21.867188 -8.390625 C 19.988281 -5.035156 16.222656 -3 12.308594 -2.949219 Z M 12.308594 -2.949219 "/></g></g></g><g fill="#ffffff" fill-opacity="1"><g transform="translate(367.703521, 88.29077)"><g><path d="M 18.96875 -3.917969 L 13.933594 -3.917969 L 13.933594 -33.71875 C 13.933594 -34.734375 13.121094 -35.601562 12.054688 -35.601562 L 4.933594 -35.601562 C 3.917969 -35.601562 3.050781 -34.734375 3.050781 -33.71875 L 3.050781 -33.617188 C 3.050781 -32.546875 3.917969 -31.734375 4.933594 -31.734375 L 10.070312 -31.734375 L 10.070312 -3.917969 L 4.933594 -3.917969 C 3.917969 -3.917969 3.050781 -3.050781 3.050781 -2.035156 L 3.050781 -1.933594 C 3.050781 -0.863281 3.917969 0 4.933594 0 L 18.96875 0 C 20.039062 0 20.851562 -0.863281 20.851562 -1.933594 L 20.851562 -2.035156 C 20.851562 -3.050781 20.039062 -3.917969 18.96875 -3.917969 Z M 18.96875 -3.917969 "/></g></g></g><g fill="#ffffff" fill-opacity="1"><g transform="translate(391.601942, 88.29077)"><g><path d="M 18.96875 -3.917969 L 13.933594 -3.917969 L 13.933594 -33.71875 C 13.933594 -34.734375 13.121094 -35.601562 12.054688 -35.601562 L 4.933594 -35.601562 C 3.917969 -35.601562 3.050781 -34.734375 3.050781 -33.71875 L 3.050781 -33.617188 C 3.050781 -32.546875 3.917969 -31.734375 4.933594 -31.734375 L 10.070312 -31.734375 L 10.070312 -3.917969 L 4.933594 -3.917969 C 3.917969 -3.917969 3.050781 -3.050781 3.050781 -2.035156 L 3.050781 -1.933594 C 3.050781 -0.863281 3.917969 0 4.933594 0 L 18.96875 0 C 20.039062 0 20.851562 -0.863281 20.851562 -1.933594 L 20.851562 -2.035156 C 20.851562 -3.050781 20.039062 -3.917969 18.96875 -3.917969 Z M 18.96875 -3.917969 "/></g></g></g><g fill="#ffffff" fill-opacity="1"><g transform="translate(415.500363, 88.29077)"><g><path d="M 14.75 -3.304688 C 10.476562 -3.304688 7.324219 -6.40625 6.5625 -10.527344 L 22.632812 -10.527344 C 24.820312 -10.527344 25.429688 -11.902344 25.429688 -13.628906 C 25.429688 -18.308594 22.277344 -25.074219 14.34375 -25.074219 C 7.425781 -25.074219 2.898438 -19.171875 2.59375 -12.714844 C 2.238281 -5.441406 7.578125 0.558594 14.75 0.558594 C 19.886719 0.558594 22.9375 -1.015625 24.820312 -3.253906 C 25.734375 -4.324219 25.886719 -5.441406 25.074219 -6.304688 C 24.359375 -7.070312 23.292969 -7.019531 22.175781 -6.050781 C 20.496094 -4.527344 18.410156 -3.304688 14.75 -3.304688 Z M 14.085938 -21.207031 C 18.867188 -21.207031 20.800781 -18.207031 21.257812 -14.394531 L 6.714844 -14.394531 C 7.679688 -17.902344 9.917969 -21.207031 14.085938 -21.207031 Z M 14.085938 -21.207031 "/></g></g></g><g fill="#ffffff" fill-opacity="1"><g transform="translate(443.669993, 88.29077)"><g><path d="M 38.398438 -3.917969 L 33.3125 -3.917969 L 33.3125 -12.96875 C 33.3125 -22.683594 27.363281 -25.734375 21.714844 -25.023438 C 18.257812 -24.5625 15.613281 -21.96875 13.933594 -18.96875 L 13.933594 -22.835938 C 13.933594 -23.902344 13.070312 -24.714844 12.054688 -24.714844 L 4.933594 -24.714844 C 3.863281 -24.714844 3.050781 -23.902344 3.050781 -22.835938 L 3.050781 -22.734375 C 3.050781 -21.714844 3.863281 -20.851562 4.933594 -20.851562 L 10.019531 -20.851562 L 10.019531 -3.917969 L 4.933594 -3.917969 C 3.863281 -3.917969 3.050781 -3.050781 3.050781 -2.035156 L 3.050781 -1.933594 C 3.050781 -0.863281 3.863281 0 4.933594 0 L 18.96875 0 C 20.039062 0 20.851562 -0.863281 20.851562 -1.933594 L 20.851562 -2.035156 C 20.851562 -3.050781 20.039062 -3.917969 18.96875 -3.917969 L 13.933594 -3.917969 L 13.933594 -12.765625 C 14.953125 -16.425781 17.34375 -20.140625 21.207031 -20.902344 C 25.480469 -21.765625 29.394531 -19.785156 29.445312 -12.613281 L 29.445312 -1.933594 C 29.445312 -0.863281 30.3125 0 31.328125 0 L 38.398438 0 C 39.464844 0 40.277344 -0.863281 40.277344 -1.933594 L 40.277344 -2.035156 C 40.277344 -3.050781 39.464844 -3.917969 38.398438 -3.917969 Z M 38.398438 -3.917969 "/></g></g></g><g fill="#ffffff" fill-opacity="1"><g transform="translate(486.992241, 88.29077)"><g><path d="M 30.871094 -26.800781 C 31.074219 -27.820312 30.414062 -28.886719 29.394531 -29.089844 C 28.328125 -29.292969 27.308594 -28.632812 27.054688 -27.617188 C 26.546875 -25.175781 25.429688 -23.445312 23.546875 -22.632812 C 21.714844 -24.15625 19.171875 -25.074219 16.273438 -25.074219 C 10.425781 -25.074219 5.949219 -21.5625 5.949219 -16.375 C 5.949219 -13.984375 6.867188 -12.003906 8.441406 -10.527344 C 6.5625 -9.867188 5.289062 -7.984375 5.441406 -5.796875 C 5.59375 -4.425781 6.664062 -2.695312 8.441406 -2.035156 C 5.289062 -1.324219 2.847656 0.8125 2.59375 4.121094 C 2.390625 6.507812 3.8125 9 6.355469 10.628906 C 8.898438 12.207031 12.308594 13.070312 16.273438 13.070312 C 21.511719 13.070312 25.734375 11.644531 28.125 9.101562 C 29.597656 7.527344 30.3125 5.59375 30.160156 3.507812 C 30.058594 1.578125 29.191406 -0.964844 25.785156 -2.390625 C 23.800781 -3.203125 21.105469 -3.660156 17.292969 -3.609375 C 11.136719 -3.558594 8.949219 -5.035156 8.644531 -6.355469 C 8.339844 -7.984375 10.019531 -8.898438 11.492188 -8.59375 C 12.917969 -8.035156 14.546875 -7.730469 16.273438 -7.730469 C 22.121094 -7.730469 26.597656 -11.1875 26.597656 -16.273438 C 26.597656 -17.648438 26.292969 -18.867188 25.734375 -19.988281 C 28.378906 -21.105469 30.210938 -23.546875 30.871094 -26.800781 Z M 14.445312 0.203125 C 15.207031 0.152344 16.425781 0.203125 17.242188 0.203125 C 24.972656 0.203125 26.140625 1.933594 26.292969 3.761719 C 26.546875 6.40625 23.089844 9.207031 16.273438 9.207031 C 9.410156 9.207031 6.355469 6.355469 6.152344 4.375 C 6.050781 3.355469 6.152344 0.355469 14.445312 0.203125 Z M 16.324219 -11.339844 C 12.410156 -11.339844 9.664062 -13.171875 9.664062 -16.375 C 9.664062 -19.632812 12.359375 -21.410156 16.324219 -21.410156 C 20.34375 -21.410156 22.835938 -19.582031 22.835938 -16.375 C 22.835938 -13.171875 20.34375 -11.339844 16.324219 -11.339844 Z M 16.324219 -11.339844 "/></g></g></g><g fill="#ffffff" fill-opacity="1"><g transform="translate(520.450048, 88.29077)"><g><path d="M 14.75 -3.304688 C 10.476562 -3.304688 7.324219 -6.40625 6.5625 -10.527344 L 22.632812 -10.527344 C 24.820312 -10.527344 25.429688 -11.902344 25.429688 -13.628906 C 25.429688 -18.308594 22.277344 -25.074219 14.34375 -25.074219 C 7.425781 -25.074219 2.898438 -19.171875 2.59375 -12.714844 C 2.238281 -5.441406 7.578125 0.558594 14.75 0.558594 C 19.886719 0.558594 22.9375 -1.015625 24.820312 -3.253906 C 25.734375 -4.324219 25.886719 -5.441406 25.074219 -6.304688 C 24.359375 -7.070312 23.292969 -7.019531 22.175781 -6.050781 C 20.496094 -4.527344 18.410156 -3.304688 14.75 -3.304688 Z M 14.085938 -21.207031 C 18.867188 -21.207031 20.800781 -18.207031 21.257812 -14.394531 L 6.714844 -14.394531 C 7.679688 -17.902344 9.917969 -21.207031 14.085938 -21.207031 Z M 14.085938 -21.207031 "/></g></g></g><g fill="#ffffff" fill-opacity="1"><g transform="translate(548.619679, 88.29077)"><g><path d="M 4.476562 2.035156 C 3.40625 2.035156 2.542969 2.898438 2.542969 3.96875 C 2.542969 5.035156 3.40625 5.898438 4.476562 5.898438 C 7.679688 5.898438 15.207031 5.898438 15.207031 -4.324219 C 15.207031 -5.746094 15.15625 -7.070312 15.105469 -8.238281 C 14.851562 -13.933594 14.953125 -15.257812 19.171875 -16.019531 C 20.140625 -16.222656 20.648438 -16.933594 20.800781 -17.597656 C 20.953125 -18.664062 20.242188 -19.683594 19.171875 -19.835938 C 14.953125 -20.597656 14.851562 -21.96875 15.105469 -27.667969 C 15.15625 -28.835938 15.207031 -30.160156 15.207031 -31.582031 C 15.207031 -41.804688 7.679688 -41.804688 4.476562 -41.804688 C 3.40625 -41.804688 2.542969 -40.941406 2.542969 -39.871094 C 2.542969 -38.804688 3.40625 -37.941406 4.476562 -37.941406 C 8.492188 -37.941406 11.339844 -37.480469 11.339844 -31.582031 C 11.339844 -30.261719 11.289062 -29.039062 11.238281 -27.871094 C 11.035156 -23.953125 10.882812 -20.242188 13.730469 -17.953125 C 10.882812 -15.664062 11.035156 -11.953125 11.238281 -8.035156 C 11.289062 -6.867188 11.339844 -5.644531 11.339844 -4.324219 C 11.339844 1.578125 8.492188 2.035156 4.476562 2.035156 Z M 4.476562 2.035156 "/></g></g></g></svg>