<svg xmlns="http://www.w3.org/2000/svg" xmlns:xlink="http://www.w3.org/1999/xlink" width="400" zoomAndPan="magnify" viewBox="0 0 300 299.999988" height="400" preserveAspectRatio="xMidYMid meet" version="1.0"><path fill="#95bf47" d="M 191.613281 235.507812 L 191.183594 69.757812 C 190.070312 68.640625 187.898438 68.976562 187.046875 69.226562 L 181.386719 70.984375 C 180.6875 68.675781 179.785156 66.449219 178.679688 64.308594 C 174.664062 56.625 168.792969 52.5625 161.691406 52.550781 L 161.667969 52.550781 C 161.191406 52.550781 160.722656 52.59375 160.25 52.632812 L 160.195312 52.640625 C 159.988281 52.386719 159.777344 52.140625 159.554688 51.898438 C 156.464844 48.582031 152.496094 46.964844 147.738281 47.101562 C 138.570312 47.367188 129.441406 54.011719 122.035156 65.808594 C 116.820312 74.117188 112.867188 84.546875 111.734375 92.621094 L 93.679688 98.230469 C 88.371094 99.90625 88.203125 100.070312 87.503906 105.09375 C 86.980469 108.898438 73.074219 216.777344 73.074219 216.777344 L 189.617188 236.996094 L 191.613281 235.503906 Z M 153.433594 54.679688 C 151.882812 53.65625 150.066406 53.179688 147.914062 53.226562 C 133.761719 53.632812 121.417969 75.8125 118.265625 90.59375 L 131.824219 86.382812 L 134.246094 85.628906 C 136.023438 76.246094 140.480469 66.507812 146.3125 60.238281 C 148.363281 57.976562 150.738281 56.125 153.425781 54.679688 Z M 140.949219 83.546875 L 160.410156 77.5 C 160.472656 72.414062 159.917969 64.898438 157.382812 59.59375 C 154.679688 60.710938 152.40625 62.664062 150.773438 64.417969 C 146.398438 69.132812 142.832031 76.324219 140.953125 83.546875 Z M 166.503906 75.609375 L 175.550781 72.796875 C 174.105469 68.085938 170.675781 60.195312 163.71875 58.867188 C 165.882812 64.46875 166.4375 70.949219 166.503906 75.609375 Z M 166.503906 75.609375 " fill-opacity="1" fill-rule="evenodd"/><path fill="#5e8e3e" d="M 217.726562 82.085938 C 217.03125 82.03125 203.5625 81.820312 203.5625 81.820312 C 203.5625 81.820312 192.292969 70.84375 191.179688 69.722656 C 190.738281 69.3125 190.214844 69.074219 189.617188 69.003906 L 189.617188 236.964844 L 240.117188 224.371094 C 240.117188 224.371094 219.511719 84.589844 219.378906 83.632812 C 219.3125 83.214844 219.125 82.863281 218.816406 82.574219 C 218.507812 82.285156 218.144531 82.125 217.722656 82.085938 Z M 217.726562 82.085938 " fill-opacity="1" fill-rule="nonzero"/><path fill="#ffffff" d="M 161.628906 108.167969 L 155.761719 130.1875 C 155.761719 130.1875 149.21875 127.199219 141.457031 127.6875 C 130.082031 128.40625 129.960938 135.609375 130.078125 137.417969 C 130.695312 147.253906 156.515625 149.410156 157.964844 172.472656 C 159.109375 190.617188 148.375 203.039062 132.90625 204.011719 C 114.34375 205.1875 104.125 194.199219 104.125 194.199219 L 108.054688 177.410156 C 108.054688 177.410156 118.34375 185.195312 126.574219 184.671875 C 131.957031 184.335938 133.878906 179.945312 133.683594 176.839844 C 132.875 164 111.847656 164.753906 110.515625 143.652344 C 109.402344 125.882812 121.023438 107.890625 146.679688 106.265625 C 156.566406 105.636719 161.628906 108.175781 161.628906 108.175781 " fill-opacity="1" fill-rule="nonzero"/></svg>