<svg xmlns="http://www.w3.org/2000/svg" xmlns:xlink="http://www.w3.org/1999/xlink" width="400" zoomAndPan="magnify" viewBox="0 0 300 299.999988" height="400" preserveAspectRatio="xMidYMid meet" version="1.0"><defs><clipPath id="b0105a5da2"><path d="M 27.15625 27.15625 L 273.15625 27.15625 L 273.15625 273.15625 L 27.15625 273.15625 Z M 27.15625 27.15625 " clip-rule="nonzero"/></clipPath></defs><g clip-path="url(#b0105a5da2)"><path fill="#37aee2" d="M 64.054688 27.15625 L 236.253906 27.15625 C 237.464844 27.15625 238.667969 27.214844 239.871094 27.332031 C 241.074219 27.449219 242.269531 27.628906 243.453125 27.863281 C 244.640625 28.097656 245.808594 28.394531 246.964844 28.742188 C 248.121094 29.09375 249.257812 29.5 250.375 29.964844 C 251.492188 30.425781 252.582031 30.941406 253.648438 31.511719 C 254.714844 32.082031 255.75 32.703125 256.753906 33.375 C 257.761719 34.046875 258.730469 34.765625 259.664062 35.53125 C 260.597656 36.296875 261.492188 37.109375 262.347656 37.960938 C 263.203125 38.816406 264.011719 39.710938 264.777344 40.644531 C 265.546875 41.578125 266.265625 42.550781 266.9375 43.554688 C 267.605469 44.558594 268.226562 45.59375 268.796875 46.660156 C 269.367188 47.726562 269.882812 48.816406 270.347656 49.933594 C 270.808594 51.050781 271.214844 52.1875 271.566406 53.34375 C 271.917969 54.5 272.210938 55.671875 272.445312 56.855469 C 272.679688 58.042969 272.859375 59.234375 272.976562 60.4375 C 273.09375 61.640625 273.15625 62.847656 273.15625 64.054688 L 273.15625 236.253906 C 273.15625 237.464844 273.09375 238.667969 272.976562 239.871094 C 272.859375 241.074219 272.679688 242.269531 272.445312 243.453125 C 272.210938 244.640625 271.917969 245.808594 271.566406 246.964844 C 271.214844 248.121094 270.808594 249.257812 270.347656 250.375 C 269.882812 251.492188 269.367188 252.582031 268.796875 253.648438 C 268.226562 254.714844 267.605469 255.75 266.9375 256.753906 C 266.265625 257.761719 265.546875 258.730469 264.777344 259.664062 C 264.011719 260.597656 263.203125 261.492188 262.347656 262.347656 C 261.492188 263.203125 260.597656 264.011719 259.664062 264.777344 C 258.730469 265.546875 257.761719 266.265625 256.753906 266.9375 C 255.75 267.605469 254.714844 268.226562 253.648438 268.796875 C 252.582031 269.367188 251.492188 269.882812 250.375 270.347656 C 249.257812 270.808594 248.121094 271.214844 246.964844 271.566406 C 245.808594 271.917969 244.640625 272.210938 243.453125 272.445312 C 242.269531 272.679688 241.074219 272.859375 239.871094 272.976562 C 238.667969 273.09375 237.464844 273.15625 236.253906 273.15625 L 64.054688 273.15625 C 62.847656 273.15625 61.640625 273.09375 60.4375 272.976562 C 59.234375 272.859375 58.042969 272.679688 56.855469 272.445312 C 55.671875 272.210938 54.5 271.917969 53.34375 271.566406 C 52.1875 271.214844 51.050781 270.808594 49.933594 270.347656 C 48.816406 269.882812 47.726562 269.367188 46.660156 268.796875 C 45.59375 268.226562 44.558594 267.605469 43.554688 266.9375 C 42.550781 266.265625 41.578125 265.546875 40.644531 264.777344 C 39.710938 264.011719 38.816406 263.203125 37.960938 262.347656 C 37.109375 261.492188 36.296875 260.597656 35.53125 259.664062 C 34.765625 258.730469 34.046875 257.761719 33.375 256.753906 C 32.703125 255.75 32.082031 254.714844 31.511719 253.648438 C 30.941406 252.582031 30.425781 251.492188 29.964844 250.375 C 29.5 249.257812 29.09375 248.121094 28.742188 246.964844 C 28.394531 245.808594 28.101562 244.640625 27.863281 243.453125 C 27.628906 242.269531 27.449219 241.074219 27.332031 239.871094 C 27.214844 238.667969 27.15625 237.464844 27.15625 236.253906 L 27.15625 64.054688 C 27.15625 62.847656 27.214844 61.640625 27.332031 60.4375 C 27.449219 59.234375 27.628906 58.042969 27.863281 56.855469 C 28.101562 55.671875 28.394531 54.5 28.742188 53.34375 C 29.09375 52.1875 29.5 51.050781 29.964844 49.933594 C 30.425781 48.816406 30.941406 47.726562 31.511719 46.660156 C 32.082031 45.59375 32.703125 44.558594 33.375 43.554688 C 34.046875 42.550781 34.765625 41.578125 35.53125 40.644531 C 36.296875 39.710938 37.109375 38.816406 37.960938 37.960938 C 38.816406 37.109375 39.710938 36.296875 40.644531 35.53125 C 41.578125 34.765625 42.550781 34.046875 43.554688 33.375 C 44.558594 32.703125 45.59375 32.082031 46.660156 31.511719 C 47.726562 30.941406 48.816406 30.425781 49.933594 29.964844 C 51.050781 29.5 52.1875 29.09375 53.34375 28.742188 C 54.5 28.394531 55.671875 28.097656 56.855469 27.863281 C 58.042969 27.628906 59.234375 27.449219 60.4375 27.332031 C 61.640625 27.214844 62.847656 27.15625 64.054688 27.15625 Z M 64.054688 27.15625 " fill-opacity="1" fill-rule="nonzero"/></g><path fill="#c8daea" d="M 122.769531 221.265625 C 117.484375 221.265625 117.964844 219.34375 116.523438 214.539062 L 101.148438 164.089844 L 218.863281 94.902344 " fill-opacity="1" fill-rule="nonzero"/><path fill="#a9c9dd" d="M 122.769531 221.265625 C 126.132812 221.265625 128.054688 219.34375 130.457031 217.421875 L 152.078125 196.761719 L 125.171875 180.425781 " fill-opacity="1" fill-rule="nonzero"/><path fill="#f6fbfe" d="M 125.171875 180.425781 L 190.035156 227.992188 C 196.761719 232.316406 202.527344 229.914062 204.449219 221.265625 L 230.875 97.304688 C 233.277344 86.734375 226.550781 81.929688 219.34375 85.292969 L 65.113281 144.871094 C 55.023438 148.714844 55.023438 154.960938 63.191406 157.363281 L 103.070312 169.855469 L 194.359375 111.71875 C 198.683594 109.316406 202.527344 110.277344 199.644531 113.640625 " fill-opacity="1" fill-rule="nonzero"/></svg>