<svg xmlns="http://www.w3.org/2000/svg" xmlns:xlink="http://www.w3.org/1999/xlink" width="400" zoomAndPan="magnify" viewBox="0 0 300 299.999988" height="400" preserveAspectRatio="xMidYMid meet" version="1.0"><defs><clipPath id="da053ef92e"><path d="M 36.785156 25 L 263.285156 25 L 263.285156 284.414062 L 36.785156 284.414062 Z M 36.785156 25 " clip-rule="nonzero"/></clipPath></defs><g clip-path="url(#da053ef92e)"><path fill="#7289da" d="M 236.75 25.085938 L 63.320312 25.085938 C 48.691406 25.085938 36.785156 37.007812 36.785156 51.777344 L 36.785156 226.949219 C 36.785156 241.714844 48.691406 253.632812 63.320312 253.632812 L 210.09375 253.632812 L 203.226562 229.667969 L 219.800781 245.078125 L 235.460938 259.59375 L 263.285156 284.207031 L 263.285156 51.769531 C 263.285156 37.003906 251.375 25.082031 236.75 25.082031 Z M 186.796875 194.296875 C 186.796875 194.296875 182.136719 188.726562 178.25 183.800781 C 195.203125 179.011719 201.679688 168.382812 201.679688 168.382812 C 196.371094 171.882812 191.328125 174.34375 186.796875 176.027344 C 180.320312 178.746094 174.109375 180.5625 168.023438 181.597656 C 155.601562 183.933594 144.214844 183.28125 134.507812 181.472656 C 127.128906 180.046875 120.785156 177.976562 115.480469 175.902344 C 112.5 174.734375 109.265625 173.308594 106.03125 171.492188 C 105.640625 171.234375 105.253906 171.101562 104.863281 170.84375 C 104.605469 170.722656 104.476562 170.589844 104.347656 170.457031 C 102.019531 169.164062 100.722656 168.257812 100.722656 168.257812 C 100.722656 168.257812 106.9375 178.621094 123.375 183.546875 C 119.492188 188.46875 114.703125 194.296875 114.703125 194.296875 C 86.097656 193.394531 75.226562 174.601562 75.226562 174.601562 C 75.226562 132.882812 93.863281 99.066406 93.863281 99.066406 C 112.5 85.074219 130.234375 85.464844 130.234375 85.464844 L 131.527344 87.019531 C 108.230469 93.753906 97.488281 103.992188 97.488281 103.992188 C 97.488281 103.992188 100.335938 102.4375 105.125 100.234375 C 118.972656 94.144531 129.976562 92.460938 134.507812 92.070312 C 135.277344 91.941406 135.925781 91.8125 136.703125 91.8125 C 144.601562 90.777344 153.53125 90.515625 162.847656 91.554688 C 175.144531 92.980469 188.347656 96.605469 201.804688 103.992188 C 201.804688 103.992188 191.585938 94.273438 169.582031 87.539062 L 171.394531 85.464844 C 171.394531 85.464844 189.125 85.074219 207.757812 99.066406 C 207.757812 99.066406 226.398438 132.882812 226.398438 174.601562 C 226.398438 174.601562 215.394531 193.394531 186.796875 194.296875 Z M 126.605469 133.789062 C 119.230469 133.789062 113.40625 140.269531 113.40625 148.171875 C 113.40625 156.070312 119.359375 162.554688 126.605469 162.554688 C 133.984375 162.554688 139.808594 156.070312 139.808594 148.171875 C 139.941406 140.269531 133.984375 133.789062 126.605469 133.789062 M 173.855469 133.789062 C 166.476562 133.789062 160.652344 140.269531 160.652344 148.171875 C 160.652344 156.070312 166.597656 162.554688 173.855469 162.554688 C 181.222656 162.554688 187.054688 156.070312 187.054688 148.171875 C 187.054688 140.269531 181.222656 133.789062 173.855469 133.789062 " fill-opacity="1" fill-rule="nonzero"/></g></svg>