<svg xmlns="http://www.w3.org/2000/svg" xmlns:xlink="http://www.w3.org/1999/xlink" width="400" zoomAndPan="magnify" viewBox="0 0 300 299.999988" height="400" preserveAspectRatio="xMidYMid meet" version="1.0"><defs><clipPath id="6f17fc4ad8"><path d="M 28 90.714844 L 280 90.714844 L 280 205.464844 L 28 205.464844 Z M 28 90.714844 " clip-rule="nonzero"/></clipPath></defs><g clip-path="url(#6f17fc4ad8)"><path fill="#ff4a00" d="M 28.210938 180.988281 L 54.320312 140.703125 L 31.289062 140.703125 C 31.074219 139.4375 30.988281 138.164062 31.03125 136.878906 C 30.992188 135.601562 31.078125 134.316406 31.289062 133.054688 L 68.40625 133.054688 L 68.898438 134.332031 L 42.527344 174.617188 L 67.132812 174.617188 C 67.347656 175.882812 67.429688 177.15625 67.386719 178.4375 C 67.4375 179.636719 67.355469 180.828125 67.132812 182.007812 L 28.46875 182.007812 Z M 103.226562 149.882812 C 103.371094 148.421875 103.195312 147 102.703125 145.617188 C 102.210938 144.234375 101.445312 143.023438 100.410156 141.980469 C 99.171875 141.132812 97.828125 140.511719 96.378906 140.121094 C 94.929688 139.726562 93.457031 139.582031 91.960938 139.683594 C 89.816406 139.71875 87.683594 139.886719 85.558594 140.195312 C 83.648438 140.472656 81.769531 140.894531 79.925781 141.46875 C 78.59375 139.089844 77.996094 136.542969 78.136719 133.820312 C 80.46875 133.039062 82.859375 132.527344 85.304688 132.289062 C 87.851562 131.863281 90.410156 131.695312 92.988281 131.78125 C 95.601562 131.617188 98.164062 131.90625 100.671875 132.652344 C 103.179688 133.398438 105.484375 134.550781 107.582031 136.113281 C 110.910156 138.921875 112.699219 143.761719 112.699219 150.132812 L 112.699219 180.984375 L 104.507812 182.511719 C 101.289062 183.019531 98.035156 183.277344 94.777344 183.277344 C 91.941406 183.300781 89.136719 183.042969 86.328125 182.511719 C 83.988281 182.046875 81.855469 181.113281 79.925781 179.707031 C 78.140625 178.445312 76.773438 176.832031 75.832031 174.863281 C 74.742188 172.609375 74.226562 170.230469 74.292969 167.726562 C 74.183594 165.171875 74.78125 162.789062 76.082031 160.585938 C 77.136719 158.453125 78.671875 156.753906 80.691406 155.488281 C 82.769531 154.160156 84.988281 153.140625 87.347656 152.429688 C 89.929688 151.695312 92.601562 151.355469 95.285156 151.410156 C 97 151.34375 98.707031 151.429688 100.402344 151.664062 C 101.683594 151.664062 102.707031 151.917969 103.734375 151.917969 L 103.734375 149.878906 Z M 103.226562 159.0625 C 102.015625 159.003906 100.820312 158.832031 99.640625 158.574219 C 98.105469 158.574219 96.820312 158.320312 95.800781 158.320312 C 94.183594 158.222656 92.589844 158.371094 91.015625 158.765625 C 89.445312 159.15625 87.964844 159.773438 86.582031 160.617188 C 85.558594 161.402344 84.773438 162.382812 84.230469 163.554688 C 83.6875 164.726562 83.449219 165.957031 83.511719 167.246094 C 83.441406 167.949219 83.46875 168.648438 83.59375 169.339844 C 83.722656 170.035156 83.945312 170.699219 84.261719 171.332031 C 84.578125 171.964844 84.980469 172.539062 85.460938 173.058594 C 85.941406 173.578125 86.488281 174.019531 87.097656 174.382812 C 88.210938 175.007812 89.40625 175.347656 90.679688 175.402344 C 91.867188 175.605469 93.0625 175.691406 94.265625 175.65625 C 95.808594 175.699219 97.34375 175.617188 98.875 175.402344 L 102.96875 174.640625 L 102.96875 159.085938 Z M 123.195312 133.054688 C 123.960938 133.054688 124.476562 132.800781 125.242188 132.800781 L 129.335938 132.800781 C 130.105469 132.800781 130.617188 133.054688 131.382812 133.054688 C 131.523438 133.46875 131.609375 133.894531 131.640625 134.332031 C 131.640625 135.09375 131.894531 135.605469 131.894531 136.371094 C 131.894531 137.132812 132.148438 137.898438 132.148438 138.664062 C 132.140625 139.105469 132.230469 139.535156 132.402344 139.9375 L 134.707031 136.878906 C 135.703125 135.890625 136.820312 135.035156 138.039062 134.332031 C 141.015625 132.6875 144.363281 131.816406 147.765625 131.78125 C 150.464844 131.746094 153.191406 132.269531 155.703125 133.3125 C 158.210938 134.316406 160.335938 135.847656 162.078125 137.902344 C 163.960938 140.175781 165.328125 142.726562 166.171875 145.550781 C 167.261719 149.125 167.773438 152.78125 167.710938 156.515625 C 167.8125 158.316406 167.738281 160.109375 167.488281 161.898438 C 167.238281 163.683594 166.816406 165.429688 166.222656 167.136719 C 165.628906 168.839844 164.878906 170.472656 163.964844 172.03125 C 163.050781 173.589844 161.996094 175.046875 160.800781 176.398438 C 156.191406 181.242188 149.765625 183.539062 141.34375 183.539062 C 139.882812 183.582031 138.433594 183.496094 136.992188 183.285156 C 135.453125 183.03125 134.175781 182.773438 133.152344 182.519531 L 133.152344 205.210938 C 132.382812 205.210938 131.613281 205.464844 130.59375 205.464844 L 125.984375 205.464844 C 125.214844 205.464844 124.445312 205.210938 123.679688 205.210938 L 123.679688 133.054688 Z M 132.667969 174.363281 C 133.914062 174.820312 135.195312 175.160156 136.503906 175.382812 C 138.203125 175.613281 139.910156 175.699219 141.625 175.636719 C 143.832031 175.691406 145.972656 175.34375 148 174.617188 C 149.929688 173.957031 151.550781 172.851562 152.863281 171.300781 C 154.335938 169.550781 155.445312 167.59375 156.191406 165.433594 C 157.078125 162.699219 157.503906 159.894531 157.472656 157.023438 C 157.636719 152.691406 156.699219 148.613281 154.65625 144.785156 C 152.664062 141.683594 149.125 139.902344 145.4375 140.195312 C 143.859375 140.199219 142.324219 140.453125 140.828125 140.960938 C 139.351562 141.515625 138.070312 142.363281 136.988281 143.507812 C 135.75 144.757812 134.8125 146.203125 134.171875 147.84375 C 133.398438 149.875 133.046875 152.042969 133.148438 154.191406 L 133.148438 174.332031 Z M 179.261719 140.425781 L 172.890625 140.425781 C 172.65625 139.851562 172.570312 139.257812 172.632812 138.640625 L 172.632812 134.566406 C 172.632812 133.800781 172.890625 133.289062 172.890625 132.78125 L 188.507812 132.78125 L 188.507812 182.242188 C 187.738281 182.242188 186.96875 182.496094 186.203125 182.496094 L 181.59375 182.496094 C 180.824219 182.496094 180.054688 182.242188 179.289062 182.242188 Z M 209.21875 160.054688 C 209.472656 165.410156 210.753906 169.488281 213.3125 171.785156 C 214.945312 173.167969 216.785156 174.191406 218.824219 174.851562 C 220.863281 175.515625 222.953125 175.765625 225.089844 175.605469 C 229.546875 175.632812 233.972656 174.855469 238.148438 173.3125 C 238.773438 174.429688 239.199219 175.621094 239.429688 176.882812 C 239.722656 178.226562 239.894531 179.582031 239.945312 180.957031 C 237.730469 181.941406 235.425781 182.621094 233.03125 182.996094 C 230.246094 183.527344 227.394531 183.78125 224.582031 183.761719 C 220.625 183.917969 216.785156 183.324219 213.058594 181.980469 C 210.074219 180.585938 207.429688 178.714844 205.125 176.371094 C 202.972656 173.996094 201.433594 171.277344 200.515625 168.210938 C 199.460938 164.894531 198.949219 161.492188 198.976562 158.011719 C 198.992188 154.574219 199.417969 151.175781 200.257812 147.816406 C 201.148438 144.796875 202.597656 142.078125 204.609375 139.65625 C 206.644531 137.378906 209.070312 135.503906 211.777344 134.046875 C 215.179688 132.433594 218.765625 131.667969 222.53125 131.753906 C 223.980469 131.691406 225.417969 131.789062 226.84375 132.050781 C 228.269531 132.3125 229.648438 132.734375 230.976562 133.308594 C 232.308594 133.882812 233.554688 134.597656 234.722656 135.453125 C 235.890625 136.308594 236.945312 137.285156 237.890625 138.382812 C 239.738281 140.457031 241.015625 142.839844 241.730469 145.519531 C 242.691406 148.480469 243.128906 151.585938 243.011719 154.699219 L 243.011719 157.507812 C 243.011719 158.527344 242.753906 159.289062 242.753906 160.058594 Z M 233.796875 152.914062 C 233.8125 151.175781 233.554688 149.476562 233.03125 147.816406 C 232.5 146.300781 231.820312 144.855469 230.980469 143.484375 C 230.027344 142.1875 228.832031 141.167969 227.398438 140.425781 C 225.777344 139.660156 224.070312 139.320312 222.277344 139.402344 C 220.59375 139.320312 218.972656 139.589844 217.40625 140.210938 C 215.839844 140.835938 214.476562 141.757812 213.316406 142.972656 C 212.183594 144.398438 211.289062 145.957031 210.636719 147.652344 C 209.980469 149.351562 209.59375 151.105469 209.476562 152.917969 Z M 253.765625 133.03125 C 254.535156 133.03125 255.046875 132.777344 255.8125 132.777344 L 259.90625 132.777344 C 260.675781 132.777344 261.1875 133.03125 261.953125 133.03125 C 262.285156 134.285156 262.457031 135.558594 262.46875 136.855469 C 262.675781 138.207031 262.761719 139.566406 262.722656 140.933594 C 264.046875 138.621094 265.839844 136.75 268.097656 135.324219 C 269.359375 134.53125 270.710938 133.9375 272.148438 133.546875 C 273.589844 133.152344 275.054688 132.980469 276.546875 133.03125 L 278.085938 133.03125 C 278.542969 132.960938 278.96875 133.046875 279.363281 133.285156 C 279.363281 133.773438 279.621094 134.558594 279.621094 135.066406 L 279.621094 137.105469 C 279.660156 137.882812 279.578125 138.648438 279.363281 139.398438 C 279.363281 140.164062 279.109375 140.929688 279.109375 141.695312 C 278.617188 141.695312 278.085938 141.441406 277.570312 141.441406 L 276.292969 141.441406 C 274.628906 141.425781 273.007812 141.679688 271.429688 142.203125 C 269.773438 142.710938 268.324219 143.558594 267.078125 144.753906 C 265.628906 146.199219 264.605469 147.898438 264.003906 149.851562 C 263.195312 152.511719 262.855469 155.234375 262.980469 158.011719 L 262.980469 182.515625 C 262.210938 182.515625 261.441406 182.769531 260.675781 182.769531 L 256.066406 182.769531 C 255.296875 182.769531 254.277344 182.515625 253.507812 182.515625 L 253.507812 133.054688 Z M 197.695312 103.992188 L 188.257812 103.992188 L 194.914062 97.363281 C 194.421875 96.601562 193.886719 96.089844 193.375 95.324219 C 192.636719 94.792969 191.957031 94.199219 191.328125 93.542969 L 184.652344 100.164062 L 184.652344 90.960938 C 183.8125 90.75 182.957031 90.664062 182.09375 90.707031 C 181.226562 90.652344 180.371094 90.734375 179.53125 90.960938 L 179.53125 100.394531 L 172.621094 93.507812 C 171.816406 93.96875 171.132812 94.5625 170.570312 95.292969 C 170.082031 96.058594 169.292969 96.566406 168.78125 97.332031 L 175.4375 103.960938 L 166.191406 103.960938 L 165.9375 106.511719 C 165.878906 107.382812 165.960938 108.238281 166.191406 109.082031 L 175.664062 109.082031 L 168.75 115.96875 C 169.761719 117.480469 171.066406 118.785156 172.589844 119.792969 L 179.246094 113.164062 L 179.246094 122.597656 C 180.085938 122.808594 180.941406 122.894531 181.804688 122.851562 C 182.671875 122.90625 183.527344 122.820312 184.367188 122.597656 L 184.367188 113.164062 L 191.023438 119.792969 C 191.824219 119.332031 192.507812 118.738281 193.070312 118.007812 C 193.730469 117.382812 194.328125 116.703125 194.859375 115.96875 L 188.257812 109.34375 L 197.730469 109.34375 C 197.941406 108.507812 198.027344 107.65625 197.984375 106.796875 C 198.039062 105.847656 197.953125 104.910156 197.730469 103.988281 Z M 185.917969 106.542969 C 185.894531 107.667969 185.722656 108.773438 185.402344 109.855469 C 184.347656 110.273438 183.207031 110.441406 182.074219 110.34375 C 180.941406 110.320312 179.832031 110.152344 178.742188 109.832031 C 178.328125 108.78125 178.15625 107.648438 178.253906 106.515625 C 178.277344 105.390625 178.449219 104.285156 178.769531 103.203125 C 179.824219 102.785156 180.960938 102.617188 182.097656 102.714844 C 183.230469 102.738281 184.339844 102.910156 185.425781 103.226562 C 185.722656 104.3125 185.894531 105.417969 185.941406 106.542969 Z M 185.917969 106.542969 " fill-opacity="1" fill-rule="nonzero"/></g></svg>