<svg xmlns="http://www.w3.org/2000/svg" xmlns:xlink="http://www.w3.org/1999/xlink" width="400" zoomAndPan="magnify" viewBox="0 0 300 299.999988" height="400" preserveAspectRatio="xMidYMid meet" version="1.0"><path fill="#404041" d="M 265.90625 156.179688 C 265.191406 156.179688 264.628906 155.613281 264.628906 154.898438 C 264.628906 154.203125 265.191406 153.613281 265.90625 153.613281 C 266.597656 153.613281 267.183594 154.183594 267.183594 154.898438 C 267.183594 155.613281 266.597656 156.179688 265.90625 156.179688 M 265.90625 153.867188 C 265.339844 153.867188 264.878906 154.328125 264.878906 154.898438 C 264.878906 155.464844 265.339844 155.929688 265.90625 155.929688 C 266.46875 155.929688 266.929688 155.464844 266.929688 154.898438 C 266.929688 154.328125 266.46875 153.867188 265.90625 153.867188 M 266.554688 155.570312 L 266.261719 155.570312 L 266.007812 155.085938 L 265.675781 155.085938 L 265.675781 155.570312 L 265.402344 155.570312 L 265.402344 154.160156 L 266.074219 154.160156 C 266.367188 154.160156 266.554688 154.351562 266.554688 154.625 C 266.554688 154.835938 266.429688 154.980469 266.261719 155.042969 Z M 266.050781 154.835938 C 266.15625 154.835938 266.261719 154.769531 266.261719 154.625 C 266.261719 154.457031 266.175781 154.414062 266.050781 154.414062 L 265.632812 154.414062 L 265.632812 154.835938 Z M 266.050781 154.835938 " fill-opacity="1" fill-rule="nonzero"/><path fill="#404041" d="M 132.863281 153.488281 L 136.128906 153.488281 L 136.128906 162.429688 L 141.804688 162.429688 L 141.804688 165.292969 L 132.863281 165.292969 Z M 132.863281 153.488281 " fill-opacity="1" fill-rule="nonzero"/><path fill="#404041" d="M 145.175781 159.421875 L 145.175781 159.398438 C 145.175781 156.011719 147.894531 153.257812 151.515625 153.257812 C 155.140625 153.257812 157.820312 155.96875 157.820312 159.359375 L 157.820312 159.398438 C 157.820312 162.789062 155.097656 165.542969 151.476562 165.542969 C 147.875 165.523438 145.175781 162.808594 145.175781 159.421875 M 154.511719 159.421875 L 154.511719 159.398438 C 154.511719 157.695312 153.296875 156.222656 151.496094 156.222656 C 149.714844 156.222656 148.523438 157.675781 148.523438 159.378906 L 148.523438 159.421875 C 148.523438 161.125 149.738281 162.597656 151.515625 162.597656 C 153.316406 162.578125 154.511719 161.125 154.511719 159.421875 " fill-opacity="1" fill-rule="nonzero"/><path fill="#404041" d="M 161.816406 160.117188 L 161.816406 153.488281 L 165.125 153.488281 L 165.125 160.050781 C 165.125 161.757812 165.984375 162.554688 167.28125 162.554688 C 168.578125 162.554688 169.4375 161.777344 169.4375 160.136719 L 169.4375 153.488281 L 172.746094 153.488281 L 172.746094 160.03125 C 172.746094 163.839844 170.589844 165.503906 167.238281 165.503906 C 163.910156 165.523438 161.816406 163.820312 161.816406 160.117188 " fill-opacity="1" fill-rule="nonzero"/><path fill="#404041" d="M 177.726562 153.488281 L 182.269531 153.488281 C 186.457031 153.488281 188.90625 155.90625 188.90625 159.316406 L 188.90625 159.359375 C 188.90625 162.765625 186.4375 165.292969 182.207031 165.292969 L 177.75 165.292969 Z M 182.3125 162.386719 C 184.257812 162.386719 185.558594 161.316406 185.558594 159.398438 L 185.558594 159.359375 C 185.558594 157.464844 184.257812 156.371094 182.3125 156.371094 L 180.992188 156.371094 L 180.992188 162.367188 Z M 182.3125 162.386719 " fill-opacity="1" fill-rule="nonzero"/><path fill="#404041" d="M 193.617188 153.488281 L 203.015625 153.488281 L 203.015625 156.371094 L 196.863281 156.371094 L 196.863281 158.367188 L 202.429688 158.367188 L 202.429688 161.082031 L 196.863281 161.082031 L 196.863281 165.292969 L 193.617188 165.292969 Z M 193.617188 153.488281 " fill-opacity="1" fill-rule="nonzero"/><path fill="#404041" d="M 207.539062 153.488281 L 210.785156 153.488281 L 210.785156 162.429688 L 216.476562 162.429688 L 216.476562 165.292969 L 207.539062 165.292969 Z M 207.539062 153.488281 " fill-opacity="1" fill-rule="nonzero"/><path fill="#404041" d="M 224.976562 153.402344 L 228.117188 153.402344 L 233.121094 165.292969 L 229.625 165.292969 L 228.765625 163.1875 L 224.246094 163.1875 L 223.40625 165.292969 L 219.996094 165.292969 Z M 227.84375 160.640625 L 226.546875 157.296875 L 225.230469 160.640625 Z M 227.84375 160.640625 " fill-opacity="1" fill-rule="nonzero"/><path fill="#404041" d="M 237.308594 153.488281 L 242.855469 153.488281 C 244.65625 153.488281 245.890625 153.949219 246.6875 154.769531 C 247.378906 155.445312 247.734375 156.347656 247.734375 157.527344 L 247.734375 157.570312 C 247.734375 159.378906 246.769531 160.578125 245.324219 161.1875 L 248.132812 165.3125 L 244.363281 165.3125 L 241.996094 161.734375 L 240.574219 161.734375 L 240.574219 165.3125 L 237.328125 165.3125 Z M 242.710938 159.167969 C 243.820312 159.167969 244.445312 158.621094 244.445312 157.78125 L 244.445312 157.714844 C 244.445312 156.789062 243.777344 156.328125 242.6875 156.328125 L 240.554688 156.328125 L 240.554688 159.167969 Z M 242.710938 159.167969 " fill-opacity="1" fill-rule="nonzero"/><path fill="#404041" d="M 252.421875 153.488281 L 261.863281 153.488281 L 261.863281 156.285156 L 255.648438 156.285156 L 255.648438 158.054688 L 261.277344 158.054688 L 261.277344 160.640625 L 255.648438 160.640625 L 255.648438 162.515625 L 261.949219 162.515625 L 261.949219 165.292969 L 252.421875 165.292969 Z M 252.421875 153.488281 " fill-opacity="1" fill-rule="nonzero"/><path fill="#404041" d="M 125.746094 160.808594 C 125.285156 161.839844 124.324219 162.578125 123.066406 162.578125 C 121.289062 162.578125 120.074219 161.082031 120.074219 159.398438 L 120.074219 159.359375 C 120.074219 157.652344 121.265625 156.203125 123.046875 156.203125 C 124.386719 156.203125 125.410156 157.023438 125.832031 158.160156 L 129.261719 158.160156 C 128.71875 155.339844 126.25 153.257812 123.066406 153.257812 C 119.445312 153.257812 116.722656 156.011719 116.722656 159.398438 L 116.722656 159.441406 C 116.722656 162.828125 119.402344 165.542969 123.023438 165.542969 C 126.125 165.542969 128.550781 163.523438 129.179688 160.832031 Z M 125.746094 160.808594 " fill-opacity="1" fill-rule="nonzero"/><path fill="#ffffff" d="M 105.25 152.371094 L 96.269531 147.195312 L 94.722656 146.523438 L 57.980469 146.796875 L 57.980469 165.523438 L 105.25 165.542969 Z M 105.25 152.371094 " fill-opacity="1" fill-rule="nonzero"/><path fill="#f38020" d="M 88.902344 163.820312 C 89.339844 162.304688 89.171875 160.914062 88.441406 159.882812 C 87.769531 158.9375 86.640625 158.390625 85.28125 158.328125 L 59.507812 157.988281 C 59.339844 157.988281 59.195312 157.90625 59.109375 157.78125 C 59.027344 157.652344 59.007812 157.484375 59.046875 157.316406 C 59.132812 157.0625 59.382812 156.875 59.65625 156.855469 L 85.65625 156.515625 C 88.734375 156.371094 92.082031 153.867188 93.253906 150.792969 L 94.742188 146.902344 C 94.804688 146.734375 94.824219 146.566406 94.785156 146.394531 C 93.109375 138.777344 86.347656 133.097656 78.265625 133.097656 C 70.8125 133.097656 64.492188 137.9375 62.230469 144.648438 C 60.765625 143.554688 58.902344 142.964844 56.890625 143.15625 C 53.3125 143.511719 50.445312 146.394531 50.089844 149.996094 C 50.003906 150.921875 50.066406 151.824219 50.277344 152.667969 C 44.433594 152.835938 39.765625 157.632812 39.765625 163.546875 C 39.765625 164.070312 39.808594 164.597656 39.871094 165.125 C 39.914062 165.375 40.121094 165.566406 40.375 165.566406 L 87.9375 165.566406 C 88.210938 165.566406 88.460938 165.375 88.546875 165.101562 Z M 88.902344 163.820312 " fill-opacity="1" fill-rule="nonzero"/><path fill="#faae40" d="M 97.109375 147.175781 C 96.878906 147.175781 96.625 147.175781 96.394531 147.195312 C 96.226562 147.195312 96.082031 147.320312 96.019531 147.492188 L 95.015625 151.003906 C 94.574219 152.519531 94.742188 153.90625 95.476562 154.9375 C 96.144531 155.886719 97.273438 156.433594 98.636719 156.496094 L 104.121094 156.832031 C 104.289062 156.832031 104.433594 156.917969 104.519531 157.042969 C 104.601562 157.167969 104.625 157.359375 104.582031 157.507812 C 104.496094 157.757812 104.246094 157.949219 103.972656 157.96875 L 98.257812 158.304688 C 95.160156 158.453125 91.832031 160.957031 90.660156 164.027344 L 90.242188 165.101562 C 90.15625 165.3125 90.304688 165.523438 90.535156 165.523438 L 110.171875 165.523438 C 110.402344 165.523438 110.609375 165.375 110.671875 165.144531 C 111.007812 163.925781 111.195312 162.640625 111.195312 161.316406 C 111.195312 153.507812 104.894531 147.175781 97.109375 147.175781 " fill-opacity="1" fill-rule="nonzero"/></svg>