<svg xmlns="http://www.w3.org/2000/svg" xmlns:xlink="http://www.w3.org/1999/xlink" width="400" zoomAndPan="magnify" viewBox="0 0 300 299.999988" height="400" preserveAspectRatio="xMidYMid meet" version="1.0"><defs><clipPath id="fe5acf44db"><path d="M 17 120.761719 L 277 120.761719 L 277 180.761719 L 17 180.761719 Z M 17 120.761719 " clip-rule="nonzero"/></clipPath></defs><g clip-path="url(#fe5acf44db)"><path fill="#000000" d="M 146.753906 135.761719 C 136.625 135.761719 129.320312 142.40625 129.320312 152.378906 C 129.320312 162.347656 137.542969 168.992188 147.671875 168.992188 C 153.792969 168.992188 159.191406 166.554688 162.53125 162.449219 L 155.511719 158.367188 C 153.65625 160.40625 150.839844 161.597656 147.671875 161.597656 C 143.277344 161.597656 139.542969 159.289062 138.15625 155.597656 L 163.871094 155.597656 C 164.074219 154.566406 164.191406 153.492188 164.191406 152.367188 C 164.191406 142.40625 156.886719 135.761719 146.753906 135.761719 Z M 138.074219 149.144531 C 139.222656 145.464844 142.359375 143.144531 146.746094 143.144531 C 151.140625 143.144531 154.28125 145.464844 155.417969 149.144531 Z M 245.578125 135.761719 C 235.445312 135.761719 228.140625 142.40625 228.140625 152.378906 C 228.140625 162.347656 236.363281 168.992188 246.496094 168.992188 C 252.617188 168.992188 258.011719 166.554688 261.355469 162.449219 L 254.332031 158.367188 C 252.480469 160.40625 249.660156 161.597656 246.496094 161.597656 C 242.101562 161.597656 238.363281 159.289062 236.980469 155.597656 L 262.695312 155.597656 C 262.894531 154.566406 263.015625 153.492188 263.015625 152.367188 C 263.015625 142.40625 255.710938 135.761719 245.578125 135.761719 Z M 236.90625 149.144531 C 238.050781 145.464844 241.191406 143.144531 245.578125 143.144531 C 249.972656 143.144531 253.113281 145.464844 254.25 149.144531 Z M 201.085938 152.378906 C 201.085938 157.914062 204.683594 161.609375 210.261719 161.609375 C 214.042969 161.609375 216.878906 159.882812 218.339844 157.066406 L 225.386719 161.15625 C 222.46875 166.046875 217 168.992188 210.261719 168.992188 C 200.121094 168.992188 192.824219 162.347656 192.824219 152.378906 C 192.824219 142.40625 200.132812 135.761719 210.261719 135.761719 C 217 135.761719 222.460938 138.707031 225.386719 143.597656 L 218.339844 147.6875 C 216.878906 144.871094 214.042969 143.144531 210.261719 143.144531 C 204.691406 143.144531 201.085938 146.839844 201.085938 152.378906 Z M 276.78125 125.609375 L 276.78125 168.070312 L 268.523438 168.070312 L 268.523438 125.609375 Z M 51.226562 120.992188 L 85.136719 180.070312 L 17.316406 180.070312 Z M 136.007812 125.609375 L 110.578125 169.914062 L 85.148438 125.609375 L 94.683594 125.609375 L 110.578125 153.300781 L 126.472656 125.609375 Z M 190.074219 136.683594 L 190.074219 145.628906 C 189.15625 145.363281 188.183594 145.175781 187.136719 145.175781 C 181.804688 145.175781 177.957031 148.871094 177.957031 154.40625 L 177.957031 168.070312 L 169.699219 168.070312 L 169.699219 136.683594 L 177.957031 136.683594 L 177.957031 145.175781 C 177.957031 140.488281 183.382812 136.683594 190.074219 136.683594 Z M 190.074219 136.683594 " fill-opacity="1" fill-rule="nonzero"/></g></svg>