<svg xmlns="http://www.w3.org/2000/svg" xmlns:xlink="http://www.w3.org/1999/xlink" width="400" zoomAndPan="magnify" viewBox="0 0 300 299.999988" height="400" preserveAspectRatio="xMidYMid meet" version="1.0"><defs><clipPath id="b5da9f28f6"><path d="M 30 74.625 L 274.5 74.625 L 274.5 222.375 L 30 222.375 Z M 30 74.625 " clip-rule="nonzero"/></clipPath></defs><g clip-path="url(#b5da9f28f6)"><path fill="#000000" d="M 87.691406 113.183594 L 133.808594 113.183594 L 133.808594 116.851562 L 91.917969 116.851562 L 91.917969 144.460938 L 131.308594 144.460938 L 131.308594 148.132812 L 91.917969 148.132812 L 91.917969 178.445312 L 134.285156 178.445312 L 134.285156 182.117188 L 87.691406 182.117188 Z M 137.9375 113.183594 L 142.835938 113.183594 L 164.550781 143.496094 L 186.742188 113.183594 L 216.929688 74.675781 L 167.335938 146.683594 L 192.894531 182.117188 L 187.796875 182.117188 L 164.550781 149.867188 L 141.203125 182.117188 L 136.210938 182.117188 L 161.953125 146.683594 Z M 194.71875 116.851562 L 194.71875 113.183594 L 247.269531 113.183594 L 247.269531 116.851562 L 223.058594 116.851562 L 223.058594 182.113281 L 218.832031 182.113281 L 218.832031 116.851562 Z M 30 113.183594 L 35.285156 113.183594 L 108.148438 222.316406 L 78.039062 182.117188 L 34.421875 118.398438 L 34.230469 182.117188 L 30.003906 182.117188 L 30.003906 113.183594 Z M 246.839844 177.34375 C 245.980469 177.34375 245.332031 176.667969 245.332031 175.804688 C 245.332031 174.9375 245.980469 174.269531 246.839844 174.269531 C 247.714844 174.269531 248.355469 174.9375 248.355469 175.804688 C 248.355469 176.667969 247.714844 177.34375 246.839844 177.34375 Z M 250.996094 173.296875 L 253.257812 173.296875 C 253.289062 174.527344 254.183594 175.347656 255.5 175.347656 C 256.96875 175.347656 257.800781 174.464844 257.800781 172.804688 L 257.800781 162.296875 L 260.105469 162.296875 L 260.105469 172.816406 C 260.105469 175.804688 258.378906 177.523438 255.523438 177.523438 C 252.839844 177.523438 250.996094 175.855469 250.996094 173.296875 Z M 263.121094 173.164062 L 265.402344 173.164062 C 265.59375 174.578125 266.972656 175.472656 268.960938 175.472656 C 270.808594 175.472656 272.164062 174.515625 272.164062 173.199219 C 272.164062 172.066406 271.300781 171.382812 269.335938 170.917969 L 267.425781 170.453125 C 264.742188 169.828125 263.519531 168.527344 263.519531 166.34375 C 263.519531 163.695312 265.679688 161.9375 268.917969 161.9375 C 271.929688 161.9375 274.128906 163.695312 274.261719 166.199219 L 272.023438 166.199219 C 271.804688 164.828125 270.613281 163.972656 268.882812 163.972656 C 267.066406 163.972656 265.851562 164.851562 265.851562 166.191406 C 265.851562 167.25 266.636719 167.859375 268.570312 168.3125 L 270.203125 168.714844 C 273.242188 169.425781 274.5 170.664062 274.5 172.898438 C 274.5 175.742188 272.296875 177.523438 268.785156 177.523438 C 265.492188 177.523438 263.28125 175.828125 263.121094 173.164062 Z M 263.121094 173.164062 " fill-opacity="1" fill-rule="nonzero"/></g></svg>