<svg xmlns="http://www.w3.org/2000/svg" xmlns:xlink="http://www.w3.org/1999/xlink" width="400" zoomAndPan="magnify" viewBox="0 0 300 299.999988" height="400" preserveAspectRatio="xMidYMid meet" version="1.0"><defs><clipPath id="8014aabb55"><path d="M 32.257812 30 L 270.007812 30 L 270.007812 267.75 L 32.257812 267.75 Z M 32.257812 30 " clip-rule="nonzero"/></clipPath></defs><g clip-path="url(#8014aabb55)"><path fill="#000000" d="M 73.304688 92.269531 C 90.800781 68.25 119.144531 52.644531 151.132812 52.644531 C 180.554688 52.644531 206.894531 65.847656 224.546875 86.652344 C 208.800781 81.300781 191.644531 96.199219 197.222656 113.777344 L 204.617188 137.089844 L 184.613281 186.535156 L 163.21875 133.328125 L 155.8125 114.910156 L 162.457031 114.910156 C 168.707031 114.910156 173.777344 109.84375 173.777344 103.589844 C 173.777344 97.335938 168.707031 92.269531 162.457031 92.269531 L 128.492188 92.269531 C 122.238281 92.269531 117.171875 97.335938 117.171875 103.589844 C 117.171875 109.84375 122.238281 114.910156 128.492188 114.910156 L 131.40625 114.910156 L 140.476562 137.460938 L 119.433594 187.566406 L 88.917969 114.910156 L 94.527344 114.910156 C 100.78125 114.910156 105.847656 109.84375 105.847656 103.589844 C 105.847656 97.335938 100.78125 92.269531 94.527344 92.269531 Z M 62.679688 110.910156 C 57.675781 122.558594 54.902344 135.394531 54.902344 148.875 C 54.902344 202.023438 97.988281 245.105469 151.132812 245.105469 C 204.28125 245.105469 247.367188 202.023438 247.367188 148.875 C 247.367188 135.074219 244.460938 121.953125 239.230469 110.089844 C 238.996094 111.863281 238.535156 113.628906 237.839844 115.347656 L 227.136719 141.800781 L 195.078125 221.050781 C 193.34375 225.328125 189.1875 228.128906 184.570312 228.125 C 179.949219 228.121094 175.800781 225.3125 174.078125 221.027344 L 152.488281 167.335938 L 129.871094 221.1875 C 128.109375 225.390625 123.992188 228.125 119.433594 228.125 C 114.875 228.125 110.761719 225.390625 108.996094 221.1875 Z M 151.132812 30 C 85.480469 30 32.257812 83.222656 32.257812 148.875 C 32.257812 214.527344 85.480469 267.75 151.132812 267.75 C 216.789062 267.75 270.007812 214.527344 270.007812 148.875 C 270.007812 83.222656 216.789062 30 151.132812 30 Z M 151.132812 30 " fill-opacity="1" fill-rule="evenodd"/></g></svg>