<svg xmlns="http://www.w3.org/2000/svg" xmlns:xlink="http://www.w3.org/1999/xlink" width="400" zoomAndPan="magnify" viewBox="0 0 300 299.999988" height="400" preserveAspectRatio="xMidYMid meet" version="1.0"><path fill="#f2f2f2" d="M 258.167969 240.5625 L 47.789062 240.5625 C 39.570312 240.5625 32.691406 234.074219 32.691406 225.699219 L 32.691406 80.519531 C 32.691406 79.53125 32.789062 78.554688 32.984375 77.585938 C 33.179688 76.617188 33.46875 75.675781 33.847656 74.765625 C 34.226562 73.851562 34.691406 72.984375 35.246094 72.164062 C 35.796875 71.34375 36.421875 70.582031 37.121094 69.886719 C 37.824219 69.1875 38.585938 68.5625 39.410156 68.015625 C 40.230469 67.464844 41.101562 67.003906 42.015625 66.625 C 42.929688 66.246094 43.875 65.960938 44.847656 65.765625 C 45.816406 65.574219 46.796875 65.476562 47.789062 65.476562 L 258.167969 65.476562 C 266.386719 65.476562 273.265625 72.226562 273.265625 80.535156 L 273.265625 225.511719 C 273.078125 234.089844 266.386719 240.570312 258.167969 240.570312 Z M 258.167969 240.5625 " fill-opacity="1" fill-rule="nonzero"/><path fill="#221f1f" d="M 62.765625 240.5625 L 152.773438 174.863281 L 153.347656 171.050781 L 60.511719 104.535156 L 60.324219 237.324219 Z M 62.765625 240.5625 " fill-opacity="0.098" fill-rule="nonzero"/><path fill="#d44c3d" d="M 47.789062 240.5625 C 39.457031 240.5625 32.691406 234.074219 32.691406 225.699219 L 32.691406 80.324219 C 32.691406 71.941406 39.457031 70.425781 47.789062 70.425781 C 56.121094 70.425781 62.886719 72.148438 62.886719 80.324219 L 62.886719 240.554688 Z M 47.789062 240.5625 " fill-opacity="1" fill-rule="nonzero"/><path fill="#d44c3d" d="M 47.789062 72.703125 C 58.488281 72.703125 60.59375 75.945312 60.59375 80.324219 L 60.59375 238.453125 L 47.789062 238.453125 C 40.71875 238.453125 34.984375 232.738281 34.984375 225.683594 L 34.984375 80.324219 C 34.796875 75.824219 37.089844 72.703125 47.789062 72.703125 Z M 47.789062 70.605469 C 39.457031 70.613281 32.691406 72.324219 32.691406 80.324219 L 32.691406 225.496094 C 32.683594 225.988281 32.699219 226.484375 32.742188 226.976562 C 32.785156 227.472656 32.851562 227.960938 32.945312 228.449219 C 33.035156 228.933594 33.152344 229.414062 33.292969 229.890625 C 33.429688 230.367188 33.59375 230.832031 33.78125 231.292969 C 33.96875 231.75 34.175781 232.199219 34.410156 232.636719 C 34.640625 233.074219 34.894531 233.5 35.167969 233.914062 C 35.441406 234.324219 35.738281 234.722656 36.050781 235.105469 C 36.367188 235.488281 36.699219 235.855469 37.050781 236.207031 C 37.398438 236.558594 37.769531 236.890625 38.152344 237.203125 C 38.535156 237.515625 38.933594 237.808594 39.347656 238.082031 C 39.761719 238.355469 40.191406 238.609375 40.628906 238.839844 C 41.066406 239.070312 41.515625 239.28125 41.976562 239.464844 C 42.4375 239.652344 42.90625 239.816406 43.382812 239.953125 C 43.859375 240.09375 44.339844 240.210938 44.828125 240.300781 C 45.316406 240.394531 45.808594 240.460938 46.300781 240.503906 C 46.796875 240.542969 47.292969 240.5625 47.789062 240.554688 L 62.886719 240.554688 L 62.886719 80.324219 C 62.765625 72.136719 56.195312 70.613281 47.789062 70.613281 Z M 258.167969 72.703125 C 267.910156 72.703125 270.972656 74.609375 270.972656 79.949219 L 270.972656 225.886719 C 270.972656 232.933594 265.242188 238.65625 258.167969 238.65625 L 245.359375 238.65625 L 245.359375 79.949219 C 245.171875 74.421875 248.421875 72.703125 258.167969 72.703125 Z M 258.167969 70.605469 C 249.757812 70.605469 243.066406 71.746094 243.066406 79.941406 L 243.066406 240.742188 L 258.167969 240.742188 C 266.574219 240.742188 273.265625 233.992188 273.265625 225.683594 L 273.265625 79.753906 C 273.078125 71.558594 266.386719 70.605469 258.167969 70.605469 Z M 258.167969 70.605469 " fill-opacity="1" fill-rule="nonzero"/><path fill="#d44c3d" d="M 258.167969 240.5625 L 243.066406 240.5625 L 243.066406 79.949219 C 243.066406 71.566406 249.835938 70.613281 258.167969 70.613281 C 266.496094 70.613281 273.265625 71.753906 273.265625 79.949219 L 273.265625 225.886719 C 273.242188 226.859375 273.128906 227.820312 272.921875 228.773438 C 272.710938 229.722656 272.410156 230.648438 272.023438 231.539062 C 271.632812 232.433594 271.160156 233.28125 270.605469 234.082031 C 270.050781 234.882812 269.425781 235.625 268.726562 236.304688 C 268.027344 236.984375 267.269531 237.589844 266.449219 238.125 C 265.632812 238.65625 264.769531 239.105469 263.867188 239.46875 C 262.960938 239.835938 262.027344 240.109375 261.070312 240.292969 C 260.109375 240.476562 259.144531 240.566406 258.167969 240.5625 Z M 258.167969 240.5625 " fill-opacity="1" fill-rule="nonzero"/><path fill="#221f1f" d="M 193.769531 240.5625 L 34.027344 86.699219 L 42.433594 90.128906 L 153.722656 169.980469 L 273.257812 82.425781 L 273.257812 225.886719 C 273.253906 226.867188 273.152344 227.839844 272.957031 228.804688 C 272.757812 229.769531 272.46875 230.703125 272.089844 231.609375 C 271.707031 232.515625 271.238281 233.375 270.6875 234.191406 C 270.132812 235.003906 269.507812 235.757812 268.804688 236.449219 C 268.105469 237.136719 267.339844 237.753906 266.519531 238.292969 C 265.695312 238.835938 264.828125 239.289062 263.914062 239.660156 C 263 240.027344 262.058594 240.304688 261.089844 240.488281 C 260.121094 240.671875 259.144531 240.757812 258.160156 240.75 Z M 193.769531 240.5625 " fill-opacity="0.0784" fill-rule="nonzero"/><path fill="#d44c3d" d="M 152.699219 175.050781 L 39.1875 92.910156 C 32.417969 87.960938 30.585938 78.433594 35.554688 71.761719 C 40.523438 65.085938 50.066406 63.5625 56.953125 68.519531 L 152.878906 138.082031 L 249.375 67.574219 C 256.144531 62.625 265.429688 64.148438 270.394531 71.003906 C 275.355469 77.753906 273.828125 87.015625 266.957031 91.964844 Z M 152.699219 175.050781 " fill-opacity="1" fill-rule="nonzero"/><path fill="#d44c3d" d="M 258.167969 66.988281 C 262.179688 66.988281 266.1875 68.894531 268.679688 72.328125 C 272.695312 78.046875 271.535156 86.054688 265.820312 90.328125 L 152.699219 172.386719 L 40.523438 91.199219 C 34.796875 87 33.261719 78.800781 37.203125 73.199219 C 39.496094 69.773438 43.519531 67.671875 47.902344 67.671875 C 50.757812 67.671875 53.441406 68.4375 55.542969 70.148438 L 151.261719 139.523438 L 152.601562 140.289062 L 153.941406 139.523438 L 250.339844 69.074219 C 252.820312 67.738281 255.300781 66.976562 258.171875 66.976562 Z M 258.167969 64.703125 C 255.105469 64.703125 251.851562 65.46875 249.367188 67.550781 L 152.878906 138.074219 L 56.765625 68.324219 C 54.285156 66.421875 51.039062 65.476562 47.789062 65.476562 C 43.015625 65.664062 38.238281 67.761719 35.367188 71.773438 C 30.59375 78.523438 32.507812 87.789062 39.1875 92.738281 L 152.699219 175.050781 L 266.957031 91.949219 C 267.753906 91.367188 268.484375 90.714844 269.152344 89.992188 C 269.820312 89.269531 270.414062 88.488281 270.929688 87.648438 C 271.445312 86.8125 271.875 85.929688 272.21875 85.007812 C 272.5625 84.085938 272.816406 83.140625 272.972656 82.171875 C 273.132812 81.199219 273.199219 80.222656 273.164062 79.238281 C 273.132812 78.253906 273.007812 77.285156 272.785156 76.324219 C 272.566406 75.367188 272.253906 74.4375 271.851562 73.539062 C 271.449219 72.640625 270.960938 71.792969 270.394531 70.988281 C 267.332031 66.984375 262.753906 64.6875 258.167969 64.6875 Z M 258.167969 64.703125 " fill-opacity="1" fill-rule="nonzero"/></svg>