<svg xmlns="http://www.w3.org/2000/svg" xmlns:xlink="http://www.w3.org/1999/xlink" width="400" zoomAndPan="magnify" viewBox="0 0 300 299.999988" height="400" preserveAspectRatio="xMidYMid meet" version="1.0"><defs><clipPath id="6d1710cb71"><path d="M 45 80.992188 L 258 80.992188 L 258 154 L 45 154 Z M 45 80.992188 " clip-rule="nonzero"/></clipPath><clipPath id="33f090d5fd"><path d="M 36 167 L 267 167 L 267 218.992188 L 36 218.992188 Z M 36 167 " clip-rule="nonzero"/></clipPath></defs><g clip-path="url(#6d1710cb71)"><path fill="#252f3e" d="M 101.382812 131.101562 C 101.382812 133.941406 101.691406 136.246094 102.226562 137.933594 C 102.839844 139.621094 103.605469 141.464844 104.679688 143.460938 C 105.0625 144.074219 105.21875 144.6875 105.21875 145.226562 C 105.21875 145.992188 104.757812 146.761719 103.761719 147.527344 L 98.929688 150.75 C 98.238281 151.210938 97.550781 151.441406 96.933594 151.441406 C 96.167969 151.441406 95.402344 151.058594 94.632812 150.367188 C 93.5625 149.214844 92.640625 147.988281 91.875 146.761719 C 91.105469 145.457031 90.339844 143.996094 89.496094 142.230469 C 83.515625 149.292969 76 152.824219 66.949219 152.824219 C 60.507812 152.824219 55.371094 150.980469 51.613281 147.296875 C 47.855469 143.613281 45.9375 138.699219 45.9375 132.558594 C 45.9375 126.035156 48.238281 120.738281 52.917969 116.746094 C 57.59375 112.757812 63.804688 110.761719 71.703125 110.761719 C 74.3125 110.761719 76.996094 110.992188 79.832031 111.375 C 82.671875 111.757812 85.585938 112.371094 88.652344 113.0625 L 88.652344 107.460938 C 88.652344 101.625 87.425781 97.558594 85.046875 95.179688 C 82.59375 92.796875 78.453125 91.648438 72.546875 91.648438 C 69.863281 91.648438 67.105469 91.953125 64.265625 92.644531 C 61.429688 93.335938 58.667969 94.179688 55.984375 95.253906 C 54.757812 95.792969 53.835938 96.097656 53.300781 96.253906 C 52.761719 96.40625 52.378906 96.484375 52.074219 96.484375 C 51 96.484375 50.460938 95.714844 50.460938 94.105469 L 50.460938 90.34375 C 50.460938 89.113281 50.613281 88.191406 51 87.65625 C 51.382812 87.117188 52.074219 86.582031 53.144531 86.042969 C 55.832031 84.664062 59.050781 83.511719 62.808594 82.589844 C 66.566406 81.59375 70.554688 81.132812 74.773438 81.132812 C 83.898438 81.132812 90.570312 83.203125 94.863281 87.347656 C 99.082031 91.492188 101.230469 97.789062 101.230469 106.234375 L 101.230469 131.101562 Z M 70.246094 142.769531 C 72.777344 142.769531 75.386719 142.308594 78.144531 141.386719 C 80.90625 140.464844 83.363281 138.777344 85.433594 136.472656 C 86.660156 135.015625 87.578125 133.402344 88.039062 131.5625 C 88.5 129.71875 88.804688 127.492188 88.804688 124.882812 L 88.804688 121.660156 C 86.582031 121.125 84.203125 120.664062 81.75 120.355469 C 79.296875 120.046875 76.917969 119.894531 74.542969 119.894531 C 69.40625 119.894531 65.644531 120.890625 63.117188 122.964844 C 60.585938 125.039062 59.359375 127.953125 59.359375 131.792969 C 59.359375 135.398438 60.277344 138.085938 62.195312 139.929688 C 64.035156 141.847656 66.71875 142.769531 70.246094 142.769531 Z M 131.832031 151.058594 C 130.449219 151.058594 129.527344 150.828125 128.910156 150.289062 C 128.304688 149.832031 127.761719 148.753906 127.300781 147.296875 L 109.28125 87.964844 C 108.824219 86.429688 108.589844 85.429688 108.589844 84.894531 C 108.589844 83.664062 109.207031 82.972656 110.433594 82.972656 L 117.949219 82.972656 C 119.40625 82.972656 120.402344 83.203125 120.9375 83.742188 C 121.550781 84.203125 122.011719 85.277344 122.472656 86.734375 L 135.351562 137.550781 L 147.320312 86.734375 C 147.703125 85.199219 148.164062 84.203125 148.777344 83.742188 C 149.394531 83.28125 150.460938 82.972656 151.84375 82.972656 L 157.980469 82.972656 C 159.433594 82.972656 160.429688 83.203125 161.046875 83.742188 C 161.660156 84.203125 162.195312 85.277344 162.503906 86.734375 L 174.625 138.164062 L 187.886719 86.734375 C 188.347656 85.199219 188.882812 84.203125 189.425781 83.742188 C 190.03125 83.28125 191.035156 82.972656 192.410156 82.972656 L 199.550781 82.972656 C 200.769531 82.972656 201.457031 83.589844 201.457031 84.894531 C 201.457031 85.277344 201.386719 85.660156 201.3125 86.121094 C 201.230469 86.582031 201.078125 87.195312 200.769531 88.039062 L 182.289062 147.375 C 181.828125 148.910156 181.292969 149.910156 180.675781 150.367188 C 180.0625 150.828125 179.066406 151.136719 177.765625 151.136719 L 171.167969 151.136719 C 169.710938 151.136719 168.71875 150.90625 168.101562 150.367188 C 167.488281 149.832031 166.953125 148.832031 166.644531 147.300781 L 154.757812 97.789062 L 142.953125 147.222656 C 142.5625 148.757812 142.101562 149.753906 141.496094 150.292969 C 140.878906 150.828125 139.804688 151.058594 138.429688 151.058594 Z M 230.371094 153.132812 C 226.382812 153.132812 222.402344 152.671875 218.566406 151.75 C 214.730469 150.828125 211.734375 149.832031 209.746094 148.679688 C 208.515625 147.988281 207.671875 147.222656 207.367188 146.53125 C 207.058594 145.839844 206.902344 145.070312 206.902344 144.378906 L 206.902344 140.464844 C 206.902344 138.855469 207.519531 138.085938 208.667969 138.085938 C 209.128906 138.085938 209.589844 138.164062 210.050781 138.316406 C 210.515625 138.46875 211.203125 138.777344 211.96875 139.085938 C 214.574219 140.234375 217.417969 141.15625 220.402344 141.769531 C 223.46875 142.382812 226.464844 142.691406 229.53125 142.691406 C 234.363281 142.691406 238.117188 141.847656 240.730469 140.160156 C 243.335938 138.46875 244.710938 136.015625 244.710938 132.867188 C 244.710938 130.71875 244.023438 128.953125 242.648438 127.492188 C 241.265625 126.035156 238.660156 124.730469 234.894531 123.503906 L 223.777344 120.046875 C 218.175781 118.28125 214.042969 115.671875 211.507812 112.21875 C 208.976562 108.839844 207.671875 105.082031 207.671875 101.089844 C 207.671875 97.863281 208.359375 95.023438 209.746094 92.570312 C 211.128906 90.113281 212.964844 87.964844 215.261719 86.273438 C 217.570312 84.507812 220.175781 83.203125 223.242188 82.28125 C 226.308594 81.363281 229.53125 80.976562 232.90625 80.976562 C 234.585938 80.976562 236.351562 81.054688 238.042969 81.285156 C 239.808594 81.515625 241.417969 81.824219 243.027344 82.128906 C 244.558594 82.511719 246.015625 82.898438 247.398438 83.359375 C 248.78125 83.816406 249.851562 84.277344 250.617188 84.738281 C 251.695312 85.351562 252.464844 85.96875 252.917969 86.65625 C 253.378906 87.273438 253.613281 88.117188 253.613281 89.191406 L 253.613281 92.796875 C 253.613281 94.410156 253 95.253906 251.847656 95.253906 C 251.234375 95.253906 250.238281 94.949219 248.9375 94.332031 C 244.558594 92.335938 239.652344 91.339844 234.207031 91.339844 C 229.839844 91.339844 226.382812 92.03125 224.011719 93.488281 C 221.632812 94.949219 220.402344 97.175781 220.402344 100.320312 C 220.402344 102.46875 221.171875 104.3125 222.710938 105.769531 C 224.238281 107.230469 227.078125 108.6875 231.140625 109.992188 L 242.035156 113.445312 C 247.550781 115.210938 251.542969 117.667969 253.921875 120.816406 C 256.292969 123.960938 257.449219 127.570312 257.449219 131.5625 C 257.449219 134.863281 256.753906 137.855469 255.449219 140.464844 C 254.074219 143.074219 252.230469 145.378906 249.851562 147.222656 C 247.480469 149.140625 244.640625 150.523438 241.335938 151.519531 C 237.890625 152.59375 234.289062 153.132812 230.371094 153.132812 Z M 230.371094 153.132812 " fill-opacity="1" fill-rule="nonzero"/></g><g clip-path="url(#33f090d5fd)"><path fill="#ff9900" d="M 244.863281 190.433594 C 219.632812 209.085938 182.984375 218.992188 151.464844 218.992188 C 107.289062 218.992188 67.488281 202.636719 37.429688 175.464844 C 35.046875 173.316406 37.195312 170.402344 40.03125 172.085938 C 72.546875 190.976562 112.65625 202.410156 154.140625 202.410156 C 182.132812 202.410156 212.890625 196.582031 241.179688 184.601562 C 245.40625 182.679688 249.007812 187.363281 244.863281 190.433594 Z M 255.378906 178.460938 C 252.15625 174.3125 234.054688 176.46875 225.847656 177.464844 C 223.398438 177.773438 223.007812 175.617188 225.234375 174.007812 C 239.652344 163.875 263.347656 166.792969 266.105469 170.171875 C 268.875 173.625 265.347656 197.339844 251.847656 208.707031 C 249.777344 210.472656 247.777344 209.546875 248.699219 207.246094 C 251.769531 199.648438 258.597656 182.527344 255.378906 178.460938 Z M 255.378906 178.460938 " fill-opacity="1" fill-rule="nonzero"/></g></svg>