<svg xmlns="http://www.w3.org/2000/svg" xmlns:xlink="http://www.w3.org/1999/xlink" width="400" zoomAndPan="magnify" viewBox="0 0 300 299.999988" height="400" preserveAspectRatio="xMidYMid meet" version="1.0"><defs><clipPath id="f99518251d"><path d="M 43.554688 40.210938 L 259.554688 40.210938 L 259.554688 256.210938 L 43.554688 256.210938 Z M 43.554688 40.210938 " clip-rule="nonzero"/></clipPath></defs><path fill="#fdf1e9" d="M 253.203125 148.210938 C 253.203125 149.871094 253.164062 151.535156 253.082031 153.195312 C 253 154.859375 252.878906 156.515625 252.714844 158.171875 C 252.550781 159.828125 252.347656 161.476562 252.101562 163.125 C 251.859375 164.769531 251.574219 166.40625 251.25 168.039062 C 250.925781 169.671875 250.5625 171.292969 250.15625 172.90625 C 249.753906 174.519531 249.308594 176.125 248.828125 177.714844 C 248.34375 179.308594 247.820312 180.886719 247.261719 182.453125 C 246.703125 184.019531 246.101562 185.570312 245.464844 187.109375 C 244.828125 188.644531 244.15625 190.164062 243.445312 191.667969 C 242.734375 193.171875 241.984375 194.65625 241.199219 196.125 C 240.417969 197.59375 239.597656 199.039062 238.742188 200.464844 C 237.886719 201.894531 236.996094 203.296875 236.074219 204.679688 C 235.148438 206.0625 234.191406 207.425781 233.199219 208.761719 C 232.210938 210.097656 231.1875 211.40625 230.128906 212.695312 C 229.074219 213.980469 227.988281 215.238281 226.871094 216.472656 C 225.753906 217.703125 224.609375 218.910156 223.433594 220.085938 C 222.253906 221.261719 221.050781 222.40625 219.820312 223.523438 C 218.585938 224.640625 217.328125 225.726562 216.039062 226.785156 C 214.753906 227.839844 213.445312 228.863281 212.109375 229.851562 C 210.769531 230.84375 209.410156 231.800781 208.027344 232.726562 C 206.644531 233.648438 205.242188 234.539062 203.8125 235.394531 C 202.386719 236.25 200.941406 237.070312 199.472656 237.855469 C 198.003906 238.636719 196.519531 239.386719 195.015625 240.097656 C 193.511719 240.808594 191.992188 241.480469 190.457031 242.117188 C 188.917969 242.753906 187.367188 243.355469 185.800781 243.914062 C 184.234375 244.476562 182.65625 244.996094 181.0625 245.480469 C 179.472656 245.960938 177.867188 246.40625 176.253906 246.808594 C 174.640625 247.214844 173.019531 247.578125 171.386719 247.902344 C 169.753906 248.226562 168.117188 248.511719 166.472656 248.757812 C 164.824219 249 163.175781 249.203125 161.519531 249.367188 C 159.863281 249.53125 158.207031 249.652344 156.542969 249.734375 C 154.882812 249.816406 153.21875 249.855469 151.554688 249.855469 C 149.894531 249.855469 148.230469 249.816406 146.570312 249.734375 C 144.90625 249.652344 143.25 249.53125 141.59375 249.367188 C 139.9375 249.203125 138.289062 249 136.640625 248.757812 C 134.996094 248.511719 133.359375 248.226562 131.726562 247.902344 C 130.09375 247.578125 128.472656 247.214844 126.859375 246.808594 C 125.246094 246.40625 123.640625 245.960938 122.050781 245.480469 C 120.457031 244.996094 118.878906 244.476562 117.3125 243.914062 C 115.746094 243.355469 114.195312 242.753906 112.65625 242.117188 C 111.121094 241.480469 109.601562 240.808594 108.097656 240.097656 C 106.59375 239.386719 105.109375 238.636719 103.640625 237.855469 C 102.171875 237.070312 100.726562 236.25 99.300781 235.394531 C 97.871094 234.539062 96.46875 233.648438 95.085938 232.726562 C 93.703125 231.800781 92.339844 230.84375 91.003906 229.851562 C 89.667969 228.863281 88.359375 227.839844 87.074219 226.785156 C 85.785156 225.726562 84.527344 224.640625 83.292969 223.523438 C 82.0625 222.40625 80.859375 221.261719 79.679688 220.085938 C 78.503906 218.910156 77.359375 217.703125 76.242188 216.472656 C 75.125 215.238281 74.039062 213.980469 72.980469 212.695312 C 71.925781 211.40625 70.902344 210.097656 69.914062 208.761719 C 68.921875 207.425781 67.964844 206.0625 67.039062 204.679688 C 66.117188 203.296875 65.226562 201.894531 64.371094 200.464844 C 63.515625 199.039062 62.695312 197.59375 61.910156 196.125 C 61.128906 194.65625 60.378906 193.171875 59.667969 191.667969 C 58.957031 190.164062 58.285156 188.644531 57.648438 187.109375 C 57.011719 185.570312 56.410156 184.019531 55.851562 182.453125 C 55.289062 180.886719 54.769531 179.308594 54.285156 177.714844 C 53.804688 176.125 53.359375 174.519531 52.957031 172.90625 C 52.550781 171.292969 52.1875 169.671875 51.863281 168.039062 C 51.539062 166.40625 51.253906 164.769531 51.007812 163.125 C 50.765625 161.476562 50.5625 159.828125 50.398438 158.171875 C 50.234375 156.515625 50.113281 154.859375 50.03125 153.195312 C 49.949219 151.535156 49.910156 149.871094 49.910156 148.210938 C 49.910156 146.546875 49.949219 144.882812 50.03125 143.222656 C 50.113281 141.558594 50.234375 139.902344 50.398438 138.246094 C 50.5625 136.589844 50.765625 134.941406 51.007812 133.292969 C 51.253906 131.648438 51.539062 130.011719 51.863281 128.378906 C 52.1875 126.746094 52.550781 125.125 52.957031 123.511719 C 53.359375 121.898438 53.804688 120.292969 54.285156 118.703125 C 54.769531 117.109375 55.289062 115.53125 55.851562 113.964844 C 56.410156 112.398438 57.011719 110.847656 57.648438 109.308594 C 58.285156 107.773438 58.957031 106.253906 59.667969 104.75 C 60.378906 103.246094 61.128906 101.761719 61.910156 100.292969 C 62.695312 98.824219 63.515625 97.378906 64.371094 95.953125 C 65.226562 94.523438 66.117188 93.121094 67.039062 91.738281 C 67.964844 90.355469 68.921875 88.996094 69.914062 87.65625 C 70.902344 86.320312 71.925781 85.011719 72.980469 83.726562 C 74.039062 82.4375 75.125 81.179688 76.242188 79.945312 C 77.359375 78.714844 78.503906 77.511719 79.679688 76.332031 C 80.859375 75.15625 82.0625 74.011719 83.292969 72.894531 C 84.527344 71.777344 85.785156 70.691406 87.074219 69.636719 C 88.359375 68.578125 89.667969 67.554688 91.003906 66.566406 C 92.339844 65.574219 93.703125 64.617188 95.085938 63.691406 C 96.46875 62.769531 97.871094 61.878906 99.300781 61.023438 C 100.726562 60.167969 102.171875 59.347656 103.640625 58.566406 C 105.109375 57.78125 106.59375 57.03125 108.097656 56.320312 C 109.601562 55.609375 111.121094 54.9375 112.65625 54.300781 C 114.195312 53.664062 115.746094 53.0625 117.3125 52.503906 C 118.878906 51.945312 120.457031 51.421875 122.050781 50.9375 C 123.640625 50.457031 125.246094 50.011719 126.859375 49.609375 C 128.472656 49.203125 130.09375 48.839844 131.726562 48.515625 C 133.359375 48.191406 134.996094 47.90625 136.640625 47.664062 C 138.289062 47.417969 139.9375 47.214844 141.59375 47.050781 C 143.25 46.886719 144.90625 46.765625 146.570312 46.683594 C 148.230469 46.601562 149.894531 46.5625 151.554688 46.5625 C 153.21875 46.5625 154.882812 46.601562 156.542969 46.683594 C 158.207031 46.765625 159.863281 46.886719 161.519531 47.050781 C 163.175781 47.214844 164.824219 47.417969 166.472656 47.664062 C 168.117188 47.90625 169.753906 48.191406 171.386719 48.515625 C 173.019531 48.839844 174.640625 49.203125 176.253906 49.609375 C 177.867188 50.011719 179.472656 50.457031 181.0625 50.9375 C 182.65625 51.421875 184.234375 51.945312 185.800781 52.503906 C 187.367188 53.0625 188.917969 53.664062 190.457031 54.300781 C 191.992188 54.9375 193.511719 55.609375 195.015625 56.320312 C 196.519531 57.03125 198.003906 57.78125 199.472656 58.566406 C 200.941406 59.347656 202.386719 60.167969 203.8125 61.023438 C 205.242188 61.878906 206.644531 62.769531 208.027344 63.691406 C 209.410156 64.617188 210.769531 65.574219 212.109375 66.566406 C 213.445312 67.554688 214.753906 68.578125 216.039062 69.636719 C 217.328125 70.691406 218.585938 71.777344 219.820312 72.894531 C 221.050781 74.011719 222.253906 75.15625 223.433594 76.332031 C 224.609375 77.511719 225.753906 78.714844 226.871094 79.945312 C 227.988281 81.179688 229.074219 82.4375 230.128906 83.726562 C 231.1875 85.011719 232.210938 86.320312 233.199219 87.65625 C 234.191406 88.996094 235.148438 90.355469 236.074219 91.738281 C 236.996094 93.121094 237.886719 94.523438 238.742188 95.953125 C 239.597656 97.378906 240.417969 98.824219 241.199219 100.292969 C 241.984375 101.761719 242.734375 103.246094 243.445312 104.75 C 244.15625 106.253906 244.828125 107.773438 245.464844 109.3125 C 246.101562 110.847656 246.703125 112.398438 247.261719 113.964844 C 247.820312 115.53125 248.34375 117.109375 248.828125 118.703125 C 249.308594 120.292969 249.753906 121.898438 250.15625 123.511719 C 250.5625 125.125 250.925781 126.746094 251.25 128.378906 C 251.574219 130.011719 251.859375 131.648438 252.101562 133.292969 C 252.347656 134.941406 252.550781 136.589844 252.714844 138.246094 C 252.878906 139.902344 253 141.558594 253.082031 143.222656 C 253.164062 144.882812 253.203125 146.546875 253.203125 148.210938 Z M 253.203125 148.210938 " fill-opacity="1" fill-rule="nonzero"/><g clip-path="url(#f99518251d)"><path fill="#000000" d="M 151.554688 256.210938 C 91.867188 256.210938 43.554688 207.90625 43.554688 148.210938 C 43.554688 88.519531 91.859375 40.210938 151.554688 40.210938 C 211.246094 40.210938 259.554688 88.511719 259.554688 148.210938 C 259.554688 207.898438 211.253906 256.210938 151.554688 256.210938 Z M 151.554688 52.914062 C 99.011719 52.914062 56.261719 95.664062 56.261719 148.210938 C 56.261719 200.753906 99.011719 243.503906 151.554688 243.503906 C 204.101562 243.503906 246.851562 200.753906 246.851562 148.210938 C 246.851562 95.664062 204.101562 52.914062 151.554688 52.914062 Z M 151.554688 52.914062 " fill-opacity="1" fill-rule="nonzero"/></g><path fill="#00ffd9" d="M 175.988281 185.347656 L 194.1875 203.546875 C 165.515625 225.6875 124.6875 222.207031 100.105469 195.449219 L 118.09375 177.460938 C 132.804688 194.285156 157.542969 197.527344 175.988281 185.347656 Z M 175.988281 185.347656 " fill-opacity="1" fill-rule="nonzero"/><path fill="#ff2e17" d="M 221.4375 135.503906 L 221.4375 148.210938 C 221.4375 170.707031 210.753906 190.757812 194.1875 203.546875 L 175.988281 185.347656 C 184.617188 179.65625 191.152344 171.039062 194.175781 160.914062 L 159.726562 160.914062 L 159.726562 135.503906 Z M 221.4375 135.503906 " fill-opacity="1" fill-rule="nonzero"/><path fill="#0056d1" d="M 118.09375 177.460938 L 100.105469 195.449219 C 75.878906 169.085938 75.523438 128.867188 99.089844 102.09375 L 117.109375 120.117188 C 103.394531 136.890625 103.773438 161.117188 118.09375 177.460938 Z M 118.09375 177.460938 " fill-opacity="1" fill-rule="nonzero"/><path fill="#ffc933" d="M 191.5 90.859375 L 176.960938 111.699219 C 157.890625 98.402344 131.808594 102.113281 117.109375 120.117188 L 99.089844 102.09375 C 122.722656 75.246094 162.492188 70.628906 191.5 90.859375 Z M 191.5 90.859375 " fill-opacity="1" fill-rule="nonzero"/><path fill="#000000" d="M 221.4375 129.148438 L 159.726562 129.148438 C 156.21875 129.148438 153.25 131.996094 153.25 135.503906 L 153.25 160.914062 C 153.25 164.421875 156.21875 167.269531 159.726562 167.269531 L 184.554688 167.269531 C 177.902344 178.738281 165.53125 186.328125 151.554688 186.328125 C 130.621094 186.328125 113.4375 169.28125 113.4375 148.210938 C 113.4375 127.398438 130.339844 110.089844 151.554688 110.089844 C 159.398438 110.089844 166.925781 112.449219 173.328125 116.914062 C 176.203125 118.917969 180.164062 118.210938 182.171875 115.335938 L 196.710938 94.492188 C 198.714844 91.617188 198.011719 87.65625 195.132812 85.648438 C 182.304688 76.703125 167.238281 71.972656 151.554688 71.972656 C 109.742188 71.972656 75.320312 105.964844 75.320312 148.210938 C 75.320312 190.761719 110.066406 224.445312 151.59375 224.445312 C 193.785156 224.445312 227.792969 190.21875 227.792969 148.210938 L 227.792969 135.503906 C 227.792969 131.996094 224.949219 129.148438 221.4375 129.148438 Z M 182.472656 92.695312 L 175.15625 103.183594 C 156.734375 93.496094 133.21875 95.847656 116.972656 110.992188 L 107.996094 102.019531 C 128.300781 82.878906 158.503906 79.304688 182.472656 92.695312 Z M 99.644531 111.636719 L 108.800781 120.789062 C 97.761719 137.988281 98.0625 160.058594 109.648438 176.925781 L 100.546875 186.023438 C 84.195312 164.035156 83.828125 134.035156 99.644531 111.636719 Z M 109.113281 195.425781 L 118.101562 186.4375 C 133.816406 200.203125 156.402344 202.980469 174.964844 193.308594 L 184.296875 202.640625 C 160.453125 217.085938 129.886719 214.078125 109.113281 195.425781 Z M 215.085938 148.210938 C 215.085938 166.164062 207.667969 182.902344 194.5625 194.933594 L 185.5625 185.9375 C 192.464844 179.707031 197.589844 171.6875 200.261719 162.734375 C 201.480469 158.664062 198.425781 154.5625 194.175781 154.5625 L 165.957031 154.5625 L 165.957031 141.855469 L 215.085938 141.855469 Z M 215.085938 148.210938 " fill-opacity="1" fill-rule="nonzero"/></svg>