<svg xmlns="http://www.w3.org/2000/svg" xmlns:xlink="http://www.w3.org/1999/xlink" width="400" zoomAndPan="magnify" viewBox="0 0 300 299.999988" height="400" preserveAspectRatio="xMidYMid meet" version="1.0"><defs><clipPath id="2513bd4a9d"><path d="M 26.820312 26.820312 L 269.820312 26.820312 L 269.820312 269.820312 L 26.820312 269.820312 Z M 26.820312 26.820312 " clip-rule="nonzero"/></clipPath></defs><g clip-path="url(#2513bd4a9d)"><path fill="#1a4789" d="M 269.820312 232.867188 C 269.820312 253.261719 253.289062 269.792969 232.898438 269.792969 L 63.753906 269.792969 C 43.363281 269.792969 26.828125 253.261719 26.828125 232.867188 L 26.828125 63.726562 C 26.828125 43.332031 43.363281 26.800781 63.753906 26.800781 L 232.898438 26.800781 C 253.289062 26.800781 269.820312 43.332031 269.820312 63.726562 Z M 269.820312 232.867188 " fill-opacity="1" fill-rule="nonzero"/></g><path fill="#ffffff" d="M 187.835938 167.175781 L 191.765625 136.707031 L 161.59375 136.707031 L 161.59375 117.257812 C 161.59375 108.433594 164.054688 102.421875 176.703125 102.421875 L 192.824219 102.414062 L 192.824219 75.167969 C 190.039062 74.792969 180.46875 73.964844 169.316406 73.964844 C 146.054688 73.964844 130.136719 88.167969 130.136719 114.242188 L 130.136719 136.710938 L 103.828125 136.710938 L 103.828125 167.175781 L 130.136719 167.175781 L 130.136719 245.351562 L 161.59375 245.351562 L 161.59375 167.175781 Z M 187.835938 167.175781 " fill-opacity="1" fill-rule="nonzero"/></svg>